<?xml version="1.0" ?><!DOCTYPE svg  PUBLIC '-//W3C//DTD SVG 1.1//EN'  'http://www.w3.org/Graphics/SVG/1.1/DTD/svg11.dtd'><svg height="512px" style="enable-background:new 0 0 512 512;" version="1.1" viewBox="0 0 512 512" width="512px" xml:space="preserve" xmlns="http://www.w3.org/2000/svg" xmlns:xlink="http://www.w3.org/1999/xlink"><g id="_x31_53-google-plus"><g><g><path d="M305.46,235.408c1.374,7.256,2.353,14.513,2.353,23.926c0,82.171-55.107,140.416-138.063,140.416     c-79.425,0-143.749-64.325-143.749-143.749c0-79.427,64.324-143.751,143.749-143.751c38.831,0,71.189,14.12,96.292,37.653     l-39.027,37.457c-10.59-10.197-29.22-22.16-57.265-22.16c-49.027,0-89.034,40.596-89.034,90.801     c0,50.202,40.007,90.798,89.034,90.798c56.873,0,78.249-40.986,81.582-61.972H169.75v-49.419H305.46L305.46,235.408z      M444.273,240.228V198.5h-41.928v41.728h-41.729v41.929h41.729v41.724h41.928v-41.724h41.726v-41.929H444.273z" style="fill:#DC4E41;"/></g></g></g><g id="Layer_1"/></svg>