<?xml version="1.0" ?><!DOCTYPE svg  PUBLIC '-//W3C//DTD SVG 1.1//EN'  'http://www.w3.org/Graphics/SVG/1.1/DTD/svg11.dtd'><svg height="512px" style="enable-background:new 0 0 512 512;" version="1.1" viewBox="0 0 512 512" width="512px" xml:space="preserve" xmlns="http://www.w3.org/2000/svg" xmlns:xlink="http://www.w3.org/1999/xlink"><g id="_x31_95-lastfm"><g><g><path d="M228.868,355.816l-16.892-45.82c0,0-27.402,30.546-68.46,30.546     c-36.387,0-62.173-31.623-62.173-82.206c0-64.776,32.705-87.956,64.778-87.956c59.745,0,67.203,47.886,90.651,121.198     c16.89,51.121,48.516,92.179,139.617,92.179c65.315,0,109.608-20.033,109.608-72.683c0-65.495-56.331-72.414-103.32-82.745     c-23.179-5.302-30.009-14.734-30.009-30.547c0-17.878,14.197-28.48,37.378-28.48c25.334,0,38.99,9.524,41.057,32.163     l52.647-6.289c-4.223-47.437-36.924-66.933-90.652-66.933c-47.436,0-93.795,17.879-93.795,75.379     c0,35.847,17.43,58.488,61.095,69c40.338,9.522,71.694,12.397,71.694,41.058c0,19.498-18.958,27.403-54.805,27.403     c-53.188,0-75.379-27.942-87.957-66.395c-28.75-86.97-39.172-146.445-144.918-146.445c-77.354,0-118.413,48.965-118.413,132.249     c0,80.05,41.059,123.265,114.909,123.265C200.387,383.757,228.868,355.816,228.868,355.816z" style="fill:#D42127;"/></g></g></g><g id="Layer_1"/></svg>