<?xml version="1.0" ?><!DOCTYPE svg  PUBLIC '-//W3C//DTD SVG 1.1//EN'  'http://www.w3.org/Graphics/SVG/1.1/DTD/svg11.dtd'><svg height="512px" style="enable-background:new 0 0 512 512;" version="1.1" viewBox="0 0 512 512" width="512px" xml:space="preserve" xmlns="http://www.w3.org/2000/svg" xmlns:xlink="http://www.w3.org/1999/xlink"><g id="_x35_0-brightkite"><g><path d="M177.985,50c-32.718,0-38.882,24.308-38.882,24.308L63.401,462c0,0,340.904-116.006,367.38-128.234    c11.579-5.336,17.817-15.275,17.817-24.412V50H177.985z" style="fill:#CDDC39;"/><path d="M349.297,179.578C334,141,270,168.861,270,168.861V92.463l-50,7.645v193.33    c0,0,29.041,27.504,77.347,19.879c48.329-7.645,55.672-48.15,55.672-48.15S367.304,224.991,349.297,179.578z M310,247.25    c0,12.564-10.186,22.75-22.75,22.75H270v-70h17.25c12.564,0,22.75,10.186,22.75,22.75V247.25z" style="fill:#37474F;"/></g></g><g id="Layer_1"/></svg>