<?xml version="1.0" ?><!DOCTYPE svg  PUBLIC '-//W3C//DTD SVG 1.1//EN'  'http://www.w3.org/Graphics/SVG/1.1/DTD/svg11.dtd'><svg height="512px" style="enable-background:new 0 0 512 512;" version="1.1" viewBox="0 0 512 512" width="512px" xml:space="preserve" xmlns="http://www.w3.org/2000/svg" xmlns:xlink="http://www.w3.org/1999/xlink"><g id="_x34_7-blackberry"><g><path d="M175.171,131.003c0,21.027-14.738,44.122-65.15,44.122H47.028l18.871-79.797h60.925    C164.657,95.328,175.171,116.267,175.171,131.003z M288.574,95.328h-60.925l-16.803,79.797h62.992    c48.344,0,62.992-23.095,62.992-44.122C336.92,116.267,326.406,95.328,288.574,95.328L288.574,95.328z M105.798,212.958H44.873    l-18.872,79.796h62.993c50.412,0,65.15-21.027,65.15-44.123C154.144,233.984,143.629,212.958,105.798,212.958L105.798,212.958z     M267.637,212.958h-60.925l-16.804,79.796h62.993c48.343,0,62.99-21.027,62.99-44.123    C315.891,233.984,305.379,212.958,267.637,212.958L267.637,212.958z M437.742,164.611h-60.924l-16.805,79.796h62.992    c48.346,0,62.992-21.027,62.992-44.122C486.088,185.639,475.574,164.611,437.742,164.611z M412.584,288.532h-60.926    l-16.805,79.793h62.992c50.412,0,62.992-21.027,62.992-44.12C460.838,309.558,450.414,288.532,412.584,288.532L412.584,288.532z     M242.387,336.875H181.46l-16.803,79.797h62.992c50.412,0,62.992-23.094,62.992-44.121    C290.73,357.902,280.217,336.875,242.387,336.875L242.387,336.875z"/></g></g><g id="Layer_1"/></svg>