<?xml version="1.0" ?><!DOCTYPE svg  PUBLIC '-//W3C//DTD SVG 1.1//EN'  'http://www.w3.org/Graphics/SVG/1.1/DTD/svg11.dtd'><svg height="512px" style="enable-background:new 0 0 512 512;" version="1.1" viewBox="0 0 512 512" width="512px" xml:space="preserve" xmlns="http://www.w3.org/2000/svg" xmlns:xlink="http://www.w3.org/1999/xlink"><g id="_x31_76-invision"><g><path d="M444.313,26.001H67.688c-22.999,0-41.687,18.688-41.687,41.688v376.624    c0,22.998,18.688,41.687,41.687,41.687h376.624c22.999,0,41.686-18.688,41.686-41.687V67.688    C485.998,44.688,467.312,26.001,444.313,26.001z" style="fill:#FF3366;"/><path d="M206.816,142.644c0.412,24.027-22.998,28.032-27.312,28.134c-15.3,0-27.826-12.321-27.826-27.723    C151.782,106.911,206.201,106.604,206.816,142.644z" style="fill:#FFFFFF;"/><path d="M367.713,380.24c-67.355,0-35.011-75.981-25.669-109.454c14.479-47.643-46.41-60.58-61.505,0.719    l-26.49,106.066h-46.307l8.315-33.369c-32.344,53.185-97.132,45.588-97.132-4.417c0.102-14.684,0.923-14.375,23.616-106.887    h-32.653l9.96-36.555h78.445c-34.499,137.279-33.472,130.3-33.78,141.899c0,21.461,41.995,13.863,58.938-23.819l20.331-81.525    h-33.165l9.959-36.555h70.642l-9.138,41.585c41.584-77.521,131.325-49.08,104.528,39.019    c-14.582,52.467-14.992,52.058-15.301,60.373c0,15.917,17.968,23.207,32.651-17.351l18.38,6.88    C411.557,364.531,392.15,380.24,367.713,380.24z" style="fill:#FFFFFF;"/></g></g><g id="Layer_1"/></svg>