<?xml version="1.0" ?><!DOCTYPE svg  PUBLIC '-//W3C//DTD SVG 1.1//EN'  'http://www.w3.org/Graphics/SVG/1.1/DTD/svg11.dtd'><svg height="512px" style="enable-background:new 0 0 512 512;" version="1.1" viewBox="0 0 512 512" width="512px" xml:space="preserve" xmlns="http://www.w3.org/2000/svg" xmlns:xlink="http://www.w3.org/1999/xlink"><g id="_x32_0-angellist"><path d="M366.553,219.524c10.511-29.29,40.789-114.012,40.789-141.145c0-23.897-14.106-43.935-39.263-43.935   c-40.07,0-76.008,118.325-87.237,146.535c-8.714-25.604-49.503-154.979-85.441-154.979c-27.941,0-41.059,20.574-41.059,46.449   c0,31.716,30.727,113.922,41.868,145.547c-5.661-2.066-11.77-3.863-17.969-3.863c-21.023,0-43.395,26.144-43.395,47.256   c0,7.998,4.403,19.228,7.188,26.684c-33.153,8.984-45.911,31.087-45.911,64.419c-0.089,64.865,61.364,133.507,147.794,133.507   c106.015,0,171.96-79.602,171.96-182.292C415.877,264.984,409.677,230.036,366.553,219.524z M334.747,123.032   c3.595-11.051,18.957-57.769,33.332-57.769c7.729,0,9.793,7.994,9.793,14.374c0,17.16-34.679,111.944-42.315,132.969l-30.546-5.391   L334.747,123.032z M182.553,69.396c0-10.692,13.027-41.059,41.598,42.315l31.086,90.114c-14.016-1.168-24.887-2.695-31.805,1.257   C213.639,177.207,182.553,95.54,182.553,69.396z M180.487,245.219c26.324,0,60.285,84.991,60.285,96.491   c0,4.583-4.402,10.241-9.524,10.241c-18.777,0-69.09-69.09-69.09-87.776C162.249,257.258,173.569,245.219,180.487,245.219z    M346.067,412.597c-26.145,28.749-59.565,43.665-98.558,43.665c-53.367,0-95.503-29.291-115.808-79.333   c-15.364-38.991,3.414-61.363,18.507-61.363c10.242,0,48.786,54.176,48.786,65.678c0,4.401-6.919,7.454-10.513,7.454   c-14.465,0-20.124-13.925-45.91-46.177c-26.683,26.684,18.418,78.073,52.379,78.073c23.448,0,38.722-21.743,34.14-37.733   c3.324,0,7.458,0.27,10.511-0.541c0.989,24.349,8.176,53.368,37.466,55.434c0-0.81,1.797-6.377,1.797-6.648   c0-15.633-9.523-29.289-9.523-45.191c0-25.425,19.495-50.042,39.261-64.416c7.188-5.393,15.901-8.716,24.347-11.771   c8.716-3.325,17.97-7.188,24.618-13.835c-0.987-10.063-5.12-18.959-15.184-18.959c-24.886,0-108.351,3.595-108.351-35.666   c0-6.02,0.09-11.771,15.632-11.771c29.02,0,102.692,7.188,124.254,26.146C390.183,270.105,395.751,357.344,346.067,412.597z    M257.483,299.396c8.714,2.784,17.698,3.594,26.684,5.388c-6.648,4.853-12.579,10.782-18.238,17.162   C263.413,314.309,260.357,306.852,257.483,299.396z" style="fill:#050C26;"/></g><g id="Layer_1"/></svg>