<?xml version="1.0" ?><!DOCTYPE svg  PUBLIC '-//W3C//DTD SVG 1.1//EN'  'http://www.w3.org/Graphics/SVG/1.1/DTD/svg11.dtd'><svg height="512px" style="enable-background:new 0 0 512 512;" version="1.1" viewBox="0 0 512 512" width="512px" xml:space="preserve" xmlns="http://www.w3.org/2000/svg" xmlns:xlink="http://www.w3.org/1999/xlink"><g id="_x38_1-delicious"><g><g><path d="M476,257.5v171.41c-0.1,4.03-0.59,8.06-1.58,11.79c-0.391,1.47-0.88,2.939-1.37,4.42     c-0.88,2.45-1.96,4.71-3.239,6.97c-1.371,2.351-2.951,4.71-4.621,6.771c-2.06,2.46-4.31,4.72-6.77,6.68     c-1.08,0.88-2.16,1.67-3.24,2.45c-1.279,0.89-2.55,1.67-3.93,2.359c-1.77,0.98-3.53,1.771-5.4,2.46     c-1.67,0.681-3.439,1.271-5.3,1.66c-3.729,0.99-7.76,1.48-11.78,1.48H256v-0.2V257.5H476z" style="fill:#DEDDD9;"/></g><g><path d="M476,83.18V257.5H256V36.05h172.859C454.891,36.05,476,57.16,476,83.18z" style="fill:#1568B4;"/></g><g><path d="M256,475.75v0.2H83.13C57.11,476.05,36,454.93,36,428.91V257.5h220V475.75z" style="fill:#000002;"/></g><g><path d="M256,36.05V257.5H36V83.28c0-4.02,0.49-8.05,1.48-11.78c1.96-7.56,5.69-14.34,10.8-19.93     c0.98-1.09,2.06-2.17,3.24-3.24c5.59-5.11,12.37-8.84,19.93-10.81c3.73-0.98,7.76-1.47,11.78-1.47H256z" style="fill:#FFFFFF;"/></g></g></g><g id="Layer_1"/></svg>