<?xml version="1.0" ?><!DOCTYPE svg  PUBLIC '-//W3C//DTD SVG 1.1//EN'  'http://www.w3.org/Graphics/SVG/1.1/DTD/svg11.dtd'><svg height="512px" style="enable-background:new 0 0 512 512;" version="1.1" viewBox="0 0 512 512" width="512px" xml:space="preserve" xmlns="http://www.w3.org/2000/svg" xmlns:xlink="http://www.w3.org/1999/xlink"><g id="_x37_4-creative-commons-share"><g><path d="M255.628,26.001c131.509,0,230.371,102.109,230.371,229.999c0,136.422-109.898,229.999-230.371,229.999    C131.354,485.999,26.001,384.447,26.001,256C26.001,132.747,123.102,26.001,255.628,26.001z M256.371,67.457    c-109.62,0-188.914,90.795-188.914,188.543c0,101.829,84.579,188.08,188.914,188.08c95.709,0,188.081-75.213,188.081-188.08    C444.545,150.461,360.797,67.457,256.371,67.457L256.371,67.457z M350.041,190.247c7.233,0,12.704,5.656,12.704,12.705v169.252    c0,7.143-5.657,12.707-12.704,12.707H224.746c-7.141,0-12.706-5.564-12.706-12.707v-50.08h-50.081    c-7.233,0-12.704-5.563-12.704-12.704V140.165c0-7.604,6.12-11.776,11.499-12.705h126.5c7.143,0,12.706,5.565,12.706,12.705    v50.082H350.041L350.041,190.247z M174.294,297.083h37.746v-94.039c0-6.861,5.379-11.685,11.129-12.704h51.75v-37.375H174.294    V297.083z M337.705,215.38H237.081v144.119h100.625V215.38L337.705,215.38z"/></g></g><g id="Layer_1"/></svg>