<?xml version="1.0" ?><!DOCTYPE svg  PUBLIC '-//W3C//DTD SVG 1.1//EN'  'http://www.w3.org/Graphics/SVG/1.1/DTD/svg11.dtd'><svg height="512px" style="enable-background:new 0 0 512 512;" version="1.1" viewBox="0 0 512 512" width="512px" xml:space="preserve" xmlns="http://www.w3.org/2000/svg" xmlns:xlink="http://www.w3.org/1999/xlink"><g id="_x37_2-creative-commons-sampling"><g><path d="M255.628,26.001c131.509,0,230.371,102.109,230.371,229.999c0,136.422-109.898,229.999-230.371,229.999    C131.354,485.999,26.001,384.447,26.001,256C26.001,132.747,123.102,26.001,255.628,26.001z M256.371,67.457    c-109.62,0-188.914,90.795-188.914,188.543c0,101.829,84.579,188.08,188.914,188.08c95.709,0,188.081-75.213,188.081-188.08    C444.545,150.461,360.797,67.457,256.371,67.457L256.371,67.457z M259.71,116.795c2.597-0.277,10.665,0.928,10.665,10.665    l6.121,99.42l4.544-54.996c0-5.564,4.359-9.831,9.83-9.831c5.472,0,9.832,4.359,9.832,9.831c0,2.318-0.465-5.286,5.285,75.584    l5.38-59.54c0.277-2.688,2.688-8.625,9.459-8.625c3.525,0,9.183,2.134,9.83,8.254l10.665,89.495l4.916-11.871    c1.67-4.08,4.822-6.12,9.461-6.12h53.789v19.754h-47.205l-16.879,41.085c-3.617,9.181-18.085,8.438-19.292-2.876l-3.709-29.585    l-6.955,85.879c-0.278,2.782-2.783,8.626-9.46,8.626c-2.781,0-9.09-1.947-9.831-8.626c0-1.762,0.558,5.379-5.75-72.245    l-4.914,66.96c-1.021,4.451-4.452,8.625-9.83,8.625c-2.69,0-9.09-1.856-9.831-8.625c0-1.762,0.463,6.213-5.379-81.337    l-5.38,87.921c0,5.844-3.338,11.501-9.832,11.501c-4.821,0-9.83-3.804-9.83-11.13l-5.378-81.334    c-5.379,85.786-4.916,77.902-4.916,79.664c-1.021,4.452-4.453,8.626-9.832,8.626c-2.782,0-9.087-1.947-9.83-8.626    c0-0.647-0.372-1.019-0.372-2.411l-5.75-82.168l-4.544,52.583c-0.65,6.029-6.213,8.625-9.831,8.625    c-5.379,0-8.903-3.801-9.83-8.252l-10.293-70.856c-1.855,3.71-3.247,7.791-10.296,7.791h-47.668v-19.755h41.547l12.706-25.873    c4.081-9.182,16.878-6.678,18.456,2.503l2.876,18.92l7.789-90.794c0-5.565,4.452-9.83,9.832-9.83    c0.463,0,9.829-0.186,9.829,11.499l4.545,64.084l6.121-85.878c0-9.366,8.81-9.831,9.46-9.831c0.556,0,9.83,0.65,9.83,9.831    l4.915,74.75l5.75-90.795C250.621,126.44,249.972,117.907,259.71,116.795L259.71,116.795z"/></g></g><g id="Layer_1"/></svg>