<?xml version="1.0" ?><!DOCTYPE svg  PUBLIC '-//W3C//DTD SVG 1.1//EN'  'http://www.w3.org/Graphics/SVG/1.1/DTD/svg11.dtd'><svg height="512px" style="enable-background:new 0 0 512 512;" version="1.1" viewBox="0 0 512 512" width="512px" xml:space="preserve" xmlns="http://www.w3.org/2000/svg" xmlns:xlink="http://www.w3.org/1999/xlink"><g id="_x31_34-forrst"><path d="M346.438,369.702l-55.342,27.919c-2.063,1.058-4.273,1.551-6.424,1.551v86.826v0.001h157.697   L256,26.001L69.63,485.999h157.695v-0.001v-94.042c-3.583-0.086-7.164-1.47-9.89-4.232l-36.988-37.398   c-5.557-5.606-5.535-14.75,0.091-20.324c5.619-5.58,14.709-5.521,20.269,0.113l26.519,26.819v-72.189h57.345v37.925l19.586-13.081   c6.482-4.372,15.455-2.618,19.869,3.996c4.385,6.579,2.58,15.523-3.986,19.924l-27.523,18.404c-2.469,1.636-5.217,2.41-7.945,2.41   v14.402l48.885-24.668c7-3.649,15.66-0.743,19.242,6.386C356.348,357.542,353.516,366.169,346.438,369.702z" style="fill:#007239;"/></g><g id="Layer_1"/></svg>