<?xml version="1.0" ?><!DOCTYPE svg  PUBLIC '-//W3C//DTD SVG 1.1//EN'  'http://www.w3.org/Graphics/SVG/1.1/DTD/svg11.dtd'><svg height="512px" style="enable-background:new 0 0 512 512;" version="1.1" viewBox="0 0 512 512" width="512px" xml:space="preserve" xmlns="http://www.w3.org/2000/svg" xmlns:xlink="http://www.w3.org/1999/xlink"><g id="_x31_93-korvue"><g><path d="M409.883,46.054h-307.86c-30.785,0-56.018,25.23-56.018,56.018v307.953    c0,30.693,25.232,55.922,56.018,55.922h307.954c31.069,0,56.019-25.229,56.019-56.016V102.071    C465.901,71.284,440.67,46.054,409.883,46.054z" style="fill:#33588D;"/><polygon points="128.008,127.773 218.388,127.773 218.388,236.983 276.571,127.773 380.981,127.773     304.532,250 128.008,250   " style="fill:#FFFFFF;"/><polygon points="280.337,383.947 218.483,290 218.483,383.947 128.102,383.947 128.102,280 308.394,280     391.807,383.947   " style="fill:#FFFFFF;"/></g></g><g id="Layer_1"/></svg>