<?xml version="1.0" ?><!DOCTYPE svg  PUBLIC '-//W3C//DTD SVG 1.1//EN'  'http://www.w3.org/Graphics/SVG/1.1/DTD/svg11.dtd'><svg height="512px" style="enable-background:new 0 0 512 512;" version="1.1" viewBox="0 0 512 512" width="512px" xml:space="preserve" xmlns="http://www.w3.org/2000/svg" xmlns:xlink="http://www.w3.org/1999/xlink"><g id="_x32_5_x2C__Scout_x2C__Adobe"><g><rect height="510.578" style="fill:#BFB0CE;" width="510.576" x="1.207" y="0.711"/><rect height="465.646" style="fill:#191026;" width="465.646" x="23.669" y="23.179"/><g><path d="M194.917,225.61c-28.289-14.31-31.75-23.511-31.75-35.777c0-9.2,2.898-29.516,28.639-29.516     c16.684,0,33.71,2.852,45.873,11.71c1.415,1.023,2.32,0,2.32-1.364v-31.003c0-2.045-0.338-3.067-1.472-4.091     c-11.626-8.301-26.189-8.301-46.274-8.301c-42.709,0-65,30.292-65,63.34c0,32.368,14.953,51.724,53.704,71.489     c30.551,15.669,30.485,24.155,30.485,38.465c0,13.288-7.241,26.205-29.304,26.205c-20.081,0-38.871-2.92-54.427-16.202     c-1.133-1.023-2.711,0-2.711,1.699v32.372c0,2.382,0.733,3.746,2.43,5.109c16.079,11.435,35.583,11.435,55.948,11.435     c41.015,0,65.626-25.523,65.626-64.705C249.004,267.515,240.171,248.095,194.917,225.61z" style="fill:#BFB0CE;"/><path d="M388.297,325.243c-6.527,3.396-16.397,3.148-29.463,3.148c-21.965,0-42.648-15.938-42.648-53.653     c0-31.937,16.965-53.991,43.686-53.991c11.574,0,20.344,0.406,27.759,4.143c1.188,0.677,2.092,0.341,2.092-1.7l0.304-27.522     c0-2.037-0.297-2.714-1.481-3.396c-4.752-2.72-15.271-4.138-31.005-4.138c-46.604,0-79.094,37.34-79.094,87.627     c0,47.905,24.772,86.269,73.158,86.269c14.844,0,27.493,0.924,37.29-4.509c1.186-0.682,1.106-1.7,1.106-3.061v-27.521     C390,325.579,389.781,324.902,388.297,325.243z" style="fill:#BFB0CE;"/></g></g></g><g id="Layer_1"/></svg>