<?xml version="1.0" ?><!DOCTYPE svg  PUBLIC '-//W3C//DTD SVG 1.1//EN'  'http://www.w3.org/Graphics/SVG/1.1/DTD/svg11.dtd'><svg height="512px" style="enable-background:new 0 0 512 512;" version="1.1" viewBox="0 0 512 512" width="512px" xml:space="preserve" xmlns="http://www.w3.org/2000/svg" xmlns:xlink="http://www.w3.org/1999/xlink"><g id="_x36_0-coderwall"><g><ellipse cx="91.444" cy="91" rx="54.849" ry="55" style="fill:#3E8DCC;"/><ellipse cx="256" cy="91" rx="54.85" ry="55" style="fill:#3E8DCC;"/><path d="M420.551,146c30.294,0,54.854-24.625,54.854-55.001c0-30.375-24.56-54.999-54.854-54.998    c-30.29,0-54.852,24.624-54.852,54.998C365.699,121.375,390.261,146,420.551,146z" style="fill:#3E8DCC;"/><ellipse cx="256" cy="256" rx="54.85" ry="55" style="fill:#3E8DCC;"/><path d="M420.551,200.999c-30.29,0-54.852,24.625-54.852,55S390.261,311,420.551,311    c30.294,0,54.854-24.626,54.854-55.001C475.404,225.625,450.845,200.999,420.551,200.999z" style="fill:#3E8DCC;"/><path d="M420.551,365.996c-30.29,0-54.852,24.623-54.852,54.998s24.562,55.005,54.852,55.005    c30.294,0,54.854-24.63,54.854-55.005S450.845,365.996,420.551,365.996z" style="fill:#3E8DCC;"/></g></g><g id="Layer_1"/></svg>