<?xml version="1.0" ?><!DOCTYPE svg  PUBLIC '-//W3C//DTD SVG 1.1//EN'  'http://www.w3.org/Graphics/SVG/1.1/DTD/svg11.dtd'><svg height="512px" style="enable-background:new 0 0 512 512;" version="1.1" viewBox="0 0 512 512" width="512px" xml:space="preserve" xmlns="http://www.w3.org/2000/svg" xmlns:xlink="http://www.w3.org/1999/xlink"><g id="_x31_4-Allo"><g><path d="M272.633,26.603c-66.609-4.832-131.812,19.602-178.835,66.752    c-47.02,47.147-71.304,112.5-66.603,179.285c8.431,119.633,112.422,213.359,236.775,213.359h192.736    c15.829,0,28.673-12.884,28.673-28.754V263.991C485.38,139.301,391.909,35.025,272.633,26.603z" style="fill:#F4B914;"/><path d="M370.693,356.618c0,5.808-3.502,11.072-8.859,13.283c-1.749,0.718-3.647,1.093-5.479,1.093    c-3.728,0-7.396-1.465-10.147-4.198l-19.956-20.005c-19.872,15.693-44.358,24.203-70.253,24.203    c-63.245,0-114.686-51.576-114.686-114.999c0-63.42,51.44-115,114.686-115c63.252,0,114.695,51.58,114.695,115V356.618z" style="fill:#FFFFFF;"/></g></g><g id="Layer_1"/></svg>