<?xml version="1.0" ?><!DOCTYPE svg  PUBLIC '-//W3C//DTD SVG 1.1//EN'  'http://www.w3.org/Graphics/SVG/1.1/DTD/svg11.dtd'><svg height="512px" style="enable-background:new 0 0 512 512;" version="1.1" viewBox="0 0 512 512" width="512px" xml:space="preserve" xmlns="http://www.w3.org/2000/svg" xmlns:xlink="http://www.w3.org/1999/xlink"><g id="_x31_92-kik"><g><g><g><g id="_x38_8-kik_9_"><g><g><path d="M313.861,152.438c-17.488-16.186-44.697-15.059-60.785,2.417L155.65,260.718V69.125         c0-23.834-19.237-43.124-43.009-43.124c-23.77,0-43.011,19.29-43.011,43.124V442.87c0,23.807,19.243,43.129,43.011,43.129         c23.773,0,43.009-19.325,43.009-43.129v-55.022l28.674-31.137l63.278,107.979c8,13.688,22.363,21.309,37.098,21.309         c7.402,0,14.916-1.902,21.738-5.952c20.469-12.051,27.324-38.498,15.283-59.028L245.28,290.501l70.988-77.108         C332.387,195.881,331.295,168.566,313.861,152.438L313.861,152.438z" style="fill:#82BC23;"/></g></g></g></g></g><path d="M442.369,327.873c0,23.814-19.254,43.123-43.006,43.123c-23.75,0-43.016-19.309-43.016-43.123    c0-23.813,19.266-43.127,43.016-43.127C423.115,284.746,442.369,304.058,442.369,327.873L442.369,327.873z" style="fill:#3DB4E7;"/></g></g><g id="Layer_1"/></svg>