<?xml version="1.0" ?><!DOCTYPE svg  PUBLIC '-//W3C//DTD SVG 1.1//EN'  'http://www.w3.org/Graphics/SVG/1.1/DTD/svg11.dtd'><svg height="512px" style="enable-background:new 0 0 512 512;" version="1.1" viewBox="0 0 512 512" width="512px" xml:space="preserve" xmlns="http://www.w3.org/2000/svg" xmlns:xlink="http://www.w3.org/1999/xlink"><g id="_x37_-adsense"><g><path d="M461.679,262.35c-2.495-3.96-6.885-6.351-11.549-6.351H307.023l-98.702,212.076    c-2.251,4.84-7.109,7.923-12.428,7.923h-0.03c0.01,0,0.02,0.001,0.029,0.001h164.56c5.323,0,10.174-3.083,12.422-7.924    l89.683-192.5C464.533,271.313,464.198,266.31,461.679,262.35z" style="fill:#4686F4;"/><path d="M403.41,55.58c1.973-4.261,1.671-9.268-0.849-13.228c-2.524-3.961-6.886-6.352-11.578-6.352    H253.857c-5.32,0-10.173,3.08-12.42,7.946L49.456,456.44c-1.979,4.264-1.672,9.244,0.85,13.204    c2.521,3.957,6.884,6.354,11.573,6.354h137.094h0.03c5.319,0,10.177-3.083,12.429-7.923l98.702-212.076L403.41,55.58z" style="fill:#F3B90F;"/></g></g><g id="Layer_1"/></svg>