<?xml version="1.0" ?><!DOCTYPE svg  PUBLIC '-//W3C//DTD SVG 1.1//EN'  'http://www.w3.org/Graphics/SVG/1.1/DTD/svg11.dtd'><svg height="512px" style="enable-background:new 0 0 512 512;" version="1.1" viewBox="0 0 512 512" width="512px" xml:space="preserve" xmlns="http://www.w3.org/2000/svg" xmlns:xlink="http://www.w3.org/1999/xlink"><g id="_x37_1-creative-commons-sa"><g><path d="M255.628,26.001c131.509,0,230.371,102.109,230.371,229.999c0,136.422-109.898,229.999-230.371,229.999    C131.354,485.999,26.001,384.447,26.001,256C26.001,132.747,123.102,26.001,255.628,26.001z M256.371,67.457    c-109.62,0-188.914,90.795-188.914,188.543c0,101.829,84.579,188.08,188.914,188.08c95.709,0,188.081-75.213,188.081-188.08    C444.545,150.461,360.797,67.457,256.371,67.457L256.371,67.457z M153.705,223.542c12.057-77.812,74.658-88.755,100.996-88.755    c92.557,0,118.244,76.513,118.244,124.459c0,58.983-38.021,123.254-119.542,123.254c-36.076,0-91.908-18.548-101.46-89.959h57.963    c1.392,27.915,18.178,41.918,50.545,41.918c21.608,0,53.788-16.879,53.788-76.789c0-76.512-45.534-74.75-52.583-74.75    c-30.697,0-47.948,13.541-51.75,40.622h16.879l-45.629,45.629l-45.442-45.629H153.705L153.705,223.542z"/></g></g><g id="Layer_1"/></svg>