<?xml version="1.0" ?><!DOCTYPE svg  PUBLIC '-//W3C//DTD SVG 1.1//EN'  'http://www.w3.org/Graphics/SVG/1.1/DTD/svg11.dtd'><svg height="512px" style="enable-background:new 0 0 512 512;" version="1.1" viewBox="0 0 512 512" width="512px" xml:space="preserve" xmlns="http://www.w3.org/2000/svg" xmlns:xlink="http://www.w3.org/1999/xlink"><g id="_x31_27-finder"><g><path d="M132.07,314.536c53.689,20.538,100.325,27.812,123.928,27.812c0.751,0,1.534-0.011,2.333-0.025    c1.104-15.786,2.851-31.01,5.18-44.489h-50.535c-15.074,0-27.338-12.281-27.338-27.378c0-63.438,26.336-136.912,52.101-186.934    H40.893c-8.026,0-14.339,6.331-14.339,14.38v316.346c0,8.048,6.311,14.379,14.339,14.379h218.31    c-1.869-17.384-2.548-37.341-2.152-57.536c-0.347,0.003-0.712,0.012-1.052,0.012c-27.304,0-76.891-7.792-134.171-29.697    c-7.396-2.827-11.097-11.136-8.284-18.556C116.352,315.404,124.641,311.64,132.07,314.536z M141.273,155.423    c0-7.937,6.423-14.379,14.343-14.379c7.916,0,14.339,6.442,14.339,14.379v28.756c0,7.937-6.422,14.378-14.339,14.378    c-7.92,0-14.343-6.441-14.343-14.378V155.423z" style="fill:#39B8E7;"/><path d="M471.106,83.523H300.681c-1.313,2.11-2.639,4.3-3.974,6.576    c-22.949,39.135-47.582,99.818-54.499,152.979h56.811c9.392,0,18.015,4.73,23.067,12.654c5.067,8.013,5.689,17.842,1.691,26.335    c-4.866,10.434-8.269,30.017-10.199,52.593c19.761-4.413,42.358-10.94,66.376-20.124c7.349-2.875,15.69,0.841,18.504,8.313    c2.839,7.42-0.86,15.729-8.29,18.556c-28.614,10.943-55.292,18.352-78.248,23.038c-0.631,22.229,0.003,44.794,1.914,62.813    c0.05,0.468,0.101,0.92,0.15,1.371h157.122c8.028,0,14.34-6.331,14.34-14.379V97.902    C485.446,89.852,479.135,83.521,471.106,83.523z M342.046,184.179c0,7.937-6.424,14.378-14.347,14.378    c-7.912,0-14.336-6.441-14.336-14.378v-28.756c0-7.937,6.424-14.379,14.336-14.379c7.923,0,14.347,6.442,14.347,14.379V184.179z" style="fill:#F3F3F3;"/><path d="M300.907,428.627c-4.867-45.879-1.813-124.391,11.108-152.098c2.09-4.438,1.745-9.64-0.891-13.808    c-2.642-4.143-7.202-6.644-12.106-6.644h-71.185c4.157-59.1,32.364-129.42,57.659-172.555    c8.569-14.612,16.804-26.109,23.656-32.986c5.587-5.608,5.587-14.723,0-20.329c-5.596-5.609-14.692-5.609-20.282,0    c-11.184,11.223-24.029,30.072-36.456,53.313c-27.948,52.273-53.773,126.792-53.773,186.934c0,7.938,6.424,14.378,14.338,14.378    h66.43c-8.726,36.657-12.235,98.317-7.131,143.794c2.784,24.806,8.129,44.8,16.593,53.284c2.749,2.765,6.253,4.088,9.782,4.088    c3.556,0,7.164-1.383,9.979-4.088c5.652-5.346,5.765-14.517,0.539-20.296C305.445,457.468,302.661,445.167,300.907,428.627z" style="fill:#487EBE;"/></g></g><g id="Layer_1"/></svg>