<?xml version="1.0" ?><!DOCTYPE svg  PUBLIC '-//W3C//DTD SVG 1.1//EN'  'http://www.w3.org/Graphics/SVG/1.1/DTD/svg11.dtd'><svg height="512px" style="enable-background:new 0 0 512 512;" version="1.1" viewBox="0 0 512 512" width="512px" xml:space="preserve" xmlns="http://www.w3.org/2000/svg" xmlns:xlink="http://www.w3.org/1999/xlink"><g id="_x35_9-codepen"><path d="M477.271,169.485L267.038,29.33c-7.177-4.417-14.835-4.457-22.076,0L34.729,169.485   c-5.391,3.592-8.728,10.012-8.728,16.427v140.155c0,6.417,3.337,12.835,8.729,16.427l210.233,140.177   c7.175,4.415,14.834,4.456,22.075,0l210.233-140.177c5.391-3.59,8.728-10.01,8.728-16.427V185.912   C485.999,179.497,482.662,173.077,477.271,169.485z M275.766,82.72l154.787,103.192L361.5,232.119l-85.734-57.244V82.72z    M236.234,82.72v92.154l-85.738,57.244l-69.049-46.207L236.234,82.72z M65.531,222.876l49.543,33.114l-49.543,33.114V222.876z    M236.234,429.259L81.447,326.067l69.049-46.205l85.738,57.244V429.259z M256,302.706l-69.821-46.716L256,209.271l69.821,46.718   L256,302.706z M275.766,429.259v-92.152l85.734-57.244l69.053,46.205L275.766,429.259z M446.469,289.104l-49.543-33.114   l49.543-33.114V289.104z"/></g><g id="Layer_1"/></svg>