<?xml version="1.0" ?><!DOCTYPE svg  PUBLIC '-//W3C//DTD SVG 1.1//EN'  'http://www.w3.org/Graphics/SVG/1.1/DTD/svg11.dtd'><svg height="512px" style="enable-background:new 0 0 512 512;" version="1.1" viewBox="0 0 512 512" width="512px" xml:space="preserve" xmlns="http://www.w3.org/2000/svg" xmlns:xlink="http://www.w3.org/1999/xlink"><g id="_x33_9-behance"><g><g><path d="M211.278,241.026c25.396-12.139,38.651-30.507,38.651-59.097     c0-56.381-42.007-70.118-90.481-70.118H26.001V394.84h137.201c51.43,0,99.747-24.678,99.747-82.178     C262.949,277.123,246.097,250.85,211.278,241.026z M88.213,160.127h58.378c22.441,0,42.646,6.309,42.646,32.343     c0,24.039-15.732,33.702-37.934,33.702h-63.09V160.127z M154.737,346.764H88.213v-77.945h67.802     c27.393,0,44.722,11.42,44.722,40.41C200.736,337.818,180.054,346.764,154.737,346.764z" style="fill:#115EFA;"/><rect height="27.872" style="fill:#115EFA;" width="114.759" x="326.278" y="126.666"/><path d="M485.999,295.334c0-60.618-35.458-111.168-99.746-111.168     c-62.451,0-104.858,46.958-104.858,108.452c0,63.809,40.172,107.572,104.858,107.572c48.954,0,80.66-22.041,95.914-68.92h-49.675     c-5.35,17.49-27.393,26.752-44.481,26.752c-32.982,0-50.313-19.324-50.313-52.146h147.822     C485.761,302.521,485.999,298.928,485.999,295.334z M337.776,270.416c1.838-26.915,19.726-43.765,46.72-43.765     c28.27,0,42.486,16.61,44.881,43.765H337.776z" style="fill:#115EFA;"/></g></g></g><g id="Layer_1"/></svg>