<?xml version="1.0" ?><!DOCTYPE svg  PUBLIC '-//W3C//DTD SVG 1.1//EN'  'http://www.w3.org/Graphics/SVG/1.1/DTD/svg11.dtd'><svg height="512px" style="enable-background:new 0 0 512 512;" version="1.1" viewBox="0 0 512 512" width="512px" xml:space="preserve" xmlns="http://www.w3.org/2000/svg" xmlns:xlink="http://www.w3.org/1999/xlink"><g id="_x36_4-creative-commons-nc"><g><path d="M255.628,26.001c129.654,0,230.371,100.068,230.371,229.999c0,136.517-109.898,229.999-230.371,229.999    C130.891,485.999,26.001,383.243,26.001,256C26.001,132.747,123.102,26.001,255.628,26.001z M77.75,193.957    c-6.863,18.919-10.293,39.6-10.293,62.043c0,102.852,85.415,187.71,188.914,187.71c113.515,0,164.338-94.411,165.544-96.545    l-86.62-38.581c-7.142,34.407-38.211,49.153-63.25,51.379v35.335h-26.71v-35.429c-25.504-0.277-48.783-9.458-69.835-27.541    l31.625-31.999c29.399,27.268,80.129,29.492,80.129-2.04c0-5.748-2.041-10.385-6.121-14.001    C267.964,278.721,279.464,284.194,77.75,193.957L77.75,193.957z M256.371,67.086c-35.612,0-104.241,8.067-158.125,86.25    l87.921,39.414c9.274-29.027,37.466-39.785,59.168-41.084v-35.334h26.71v35.334c21.051,1.113,40.25,8.254,57.499,21.331    l-29.954,30.79c-39.603-27.73-77.441-7.419-64.92,10.294c49.524,22.351,40.621,18.362,86.25,38.581l117.874,52.584    c3.802-16.138,5.752-32.552,5.752-49.246c0-52.862-18.365-97.378-54.998-133.455C353.102,85.541,308.678,67.086,256.371,67.086    L256.371,67.086z"/></g></g><g id="Layer_1"/></svg>