<?xml version="1.0" ?><!DOCTYPE svg  PUBLIC '-//W3C//DTD SVG 1.1//EN'  'http://www.w3.org/Graphics/SVG/1.1/DTD/svg11.dtd'><svg height="512px" style="enable-background:new 0 0 512 512;" version="1.1" viewBox="0 0 512 512" width="512px" xml:space="preserve" xmlns="http://www.w3.org/2000/svg" xmlns:xlink="http://www.w3.org/1999/xlink"><g id="_x32_17-mix"><g><path d="M26.001,413.116c0,57.705,90.357,59.656,90.357,0V249.786    c-24.776,24.367-55.756,42.436-90.357,51.626V413.116z" style="fill:#DE1C1C;"/><path d="M395.644,240v24.44c0,61.503,90.355,58.114,90.355,0V54.871h-81.826    c-56.029,35.073-93.776,96.639-95.668,167.157C325.131,180.27,395.644,186.85,395.644,240z" style="fill:#FFD41F;"/><path d="M171.099,54.871H26.001v246.542c34.602-9.19,65.581-27.26,90.357-51.626v-81.662    c4.753-31.829,34.961-44.115,59.161-37.083c17.097,4.968,31.196,19.571,31.196,43.759v179.994c0,59.453,98.57,59.556,98.57,0    V235.584c0.482-4.981,1.601-9.493,3.219-13.557c1.892-70.519,39.639-132.084,95.668-167.157H171.099z" style="fill:#FF8226;"/></g></g><g id="Layer_1"/></svg>