<?xml version="1.0" ?><!DOCTYPE svg  PUBLIC '-//W3C//DTD SVG 1.1//EN'  'http://www.w3.org/Graphics/SVG/1.1/DTD/svg11.dtd'><svg height="512px" style="enable-background:new 0 0 512 512;" version="1.1" viewBox="0 0 512 512" width="512px" xml:space="preserve" xmlns="http://www.w3.org/2000/svg" xmlns:xlink="http://www.w3.org/1999/xlink"><g id="_x31_13-envira"><path d="M402.933,402.11C402.419,351.8,516.392,26.001,26.002,26.001   C79.394,213.594,74.26,301.485,166.875,374.902c92.411,73.415,180.098,42.303,220.144,37.989l72.284,73.107h26.695L402.933,402.11z    M343.175,377.98c-66.947-28.75-115.718-110.378-148.063-172.189c-24.848-47.437-46.204-91.075-92.615-123.111   c0,0-45.692-33.575,5.339-9.446c85.427,40.558,115.514,100.727,148.062,162.333c23.41,44.357,64.482,111.919,93.438,133.689   C378.289,390.817,409.915,406.73,343.175,377.98z" style="fill:#82B441;"/></g><g id="Layer_1"/></svg>