<?xml version="1.0" ?><!DOCTYPE svg  PUBLIC '-//W3C//DTD SVG 1.1//EN'  'http://www.w3.org/Graphics/SVG/1.1/DTD/svg11.dtd'><svg height="512px" style="enable-background:new 0 0 512 512;" version="1.1" viewBox="0 0 512 512" width="512px" xml:space="preserve" xmlns="http://www.w3.org/2000/svg" xmlns:xlink="http://www.w3.org/1999/xlink"><g id="_x31_57-gripfire"><g><path d="M197.085,298.216c0-68.471,97.511-113.655,97.511-188.343c0-43.699-31.545-81.646-36.275-83.872    c0.369,3.062,0.556,6.217,0.556,9.277c0,85.451-136.479,142.788-136.479,249.205c0,46.204,29.875,73.482,61.698,100.481    c60.399,43.326,72.461,66.244,72.461,80.345c0,9.371-4.454,15.774-4.454,20.689c12.153-15.493,16.145-29.594,16.237-43.048    c0-27.464-20.135-52.236-41.009-80.253C212.486,342.006,197.085,323.171,197.085,298.216L197.085,298.216z M387.561,262.03    c-11.227-61.976-72.367-115.417-87.862-121.448l3.713,6.681c2.226,4.731,3.153,10.113,3.153,15.865    c0,41.472-50.287,103.171-52.513,108.275c-2.042,4.73-2.97,9.741-2.97,14.658c0,18.649,14.103,39.061,16.608,39.061    c2.227,0,52.513-51.4,53.905-81.369c5.937,10.856,8.443,20.969,8.443,30.989c0,38.225-38.783,89.903-38.783,89.903    c0,10.763,29.597,49.359,32.938,49.359c0.928,0,2.041-1.3,2.968-2.228c35.164-36.463,62.441-78.862,62.441-126.924    C389.603,277.433,388.953,269.825,387.561,262.03z" style="fill:#ED2226;"/></g></g><g id="Layer_1"/></svg>