<?xml version="1.0" ?><!DOCTYPE svg  PUBLIC '-//W3C//DTD SVG 1.1//EN'  'http://www.w3.org/Graphics/SVG/1.1/DTD/svg11.dtd'><svg height="512px" style="enable-background:new 0 0 512 512;" version="1.1" viewBox="0 0 512 512" width="512px" xml:space="preserve" xmlns="http://www.w3.org/2000/svg" xmlns:xlink="http://www.w3.org/1999/xlink"><g id="_x31_74-intercom"><g><path d="M428.5,26.001H83.502c-31.729,0-57.5,25.773-57.5,57.5v344.998c0,31.728,25.771,57.5,57.5,57.5    H428.5c31.726,0,57.498-25.772,57.498-57.5V83.501C485.998,51.774,460.226,26.001,428.5,26.001z" style="fill:#1F8DEF;"/><path d="M317.299,110.3c0-20.33,30.7-20.33,30.7,0v204.844c0,20.331-30.7,20.331-30.7,0V110.3z" style="fill:#FEFFFF;"/><path d="M240.7,102.6c0-20.331,30.702-20.331,30.702,0v222.299c0,20.33-30.702,20.33-30.702,0V102.6z" style="fill:#FEFFFF;"/><path d="M164,110.3c0-20.33,30.701-20.33,30.701,0v204.844c0,20.331-30.701,20.331-30.701,0V110.3z" style="fill:#FEFFFF;"/><path d="M87.3,141.001c0-20.331,30.7-20.331,30.7,0v137.896c0,20.329-30.7,20.329-30.7,0V141.001z" style="fill:#FEFFFF;"/><path d="M419.36,374.902c-74.748,64.687-248.173,67.152-326.618,0    c-15.402-13.144,4.518-36.452,19.919-23.31c67.665,56.783,221.888,55.345,286.781,0C414.74,338.35,434.661,361.656,419.36,374.902    L419.36,374.902z" style="fill:#FEFFFF;"/><path d="M424.7,278.897c0,20.329-30.701,20.329-30.701,0V141.001c0-20.331,30.701-20.331,30.701,0V278.897z    " style="fill:#FEFFFF;"/></g></g><g id="Layer_1"/></svg>