<?xml version="1.0" ?><!DOCTYPE svg  PUBLIC '-//W3C//DTD SVG 1.1//EN'  'http://www.w3.org/Graphics/SVG/1.1/DTD/svg11.dtd'><svg height="512px" style="enable-background:new 0 0 512 512;" version="1.1" viewBox="0 0 512 512" width="512px" xml:space="preserve" xmlns="http://www.w3.org/2000/svg" xmlns:xlink="http://www.w3.org/1999/xlink"><g id="_x31_26-feedburner"><g><path d="M404.002,328.304c0.072-0.385-0.076-0.263-0.432,0.304C395.679,410.313,331.905,474,254.396,474    c-77.263,0-140.873-63.286-149.092-144.618l0,0c-39.64,16.603-64.343,39.619-64.343,65.077c0,50.426,96.595,91.54,215.037,91.54    c118.47,0,215.039-41.114,215.039-91.54C471.038,368.441,445.176,344.98,404.002,328.304z" style="fill:#008ACB;"/><path d="M309.943,160.513c0.002,0.009,0.003,0.017,0.005,0.025c0.206,1.154,0.397,2.301,0.575,3.44    c0.002,0.008,0.003,0.016,0.004,0.023c0.179,1.146,0.344,2.286,0.494,3.418c0,0.004,0.001,0.008,0.001,0.011    c2.566,19.34,1.026,36.573-3.715,51.079c0,0.002-0.001,0.003-0.001,0.004c-0.277,0.85-0.566,1.689-0.865,2.521    c-0.004,0.009-0.007,0.018-0.01,0.026c-0.298,0.824-0.604,1.638-0.923,2.443c-0.006,0.013-0.011,0.026-0.017,0.04    c-0.316,0.8-0.643,1.59-0.979,2.37c-0.009,0.02-0.018,0.038-0.025,0.058c-0.334,0.773-0.679,1.537-1.032,2.292    c-0.014,0.027-0.026,0.055-0.04,0.083c-0.351,0.745-0.711,1.481-1.08,2.209c-0.018,0.034-0.035,0.067-0.053,0.102    c-0.367,0.719-0.742,1.429-1.128,2.129c-0.022,0.042-0.046,0.082-0.068,0.124c-0.382,0.691-0.772,1.374-1.172,2.048    c-0.028,0.047-0.057,0.094-0.085,0.142c-0.396,0.663-0.799,1.318-1.211,1.964c-0.037,0.058-0.074,0.113-0.111,0.171    c-0.407,0.635-0.821,1.261-1.245,1.878c-0.043,0.062-0.086,0.123-0.129,0.185c-0.42,0.607-0.847,1.208-1.282,1.799    c-0.051,0.068-0.103,0.136-0.153,0.204c-0.432,0.58-0.868,1.153-1.313,1.716c-0.06,0.074-0.119,0.147-0.179,0.222    c-0.44,0.552-0.886,1.097-1.34,1.632c-0.07,0.083-0.143,0.163-0.213,0.245c-0.448,0.523-0.9,1.039-1.361,1.546    c-0.079,0.087-0.16,0.172-0.24,0.258c-0.456,0.496-0.917,0.986-1.386,1.467c-0.09,0.092-0.182,0.181-0.271,0.271    c-0.463,0.469-0.93,0.932-1.404,1.385c-0.102,0.098-0.206,0.191-0.308,0.288c-0.468,0.44-0.939,0.876-1.418,1.302    c-0.114,0.102-0.23,0.199-0.346,0.3c-0.472,0.414-0.947,0.823-1.43,1.223c-0.126,0.104-0.255,0.204-0.381,0.308    c-0.477,0.388-0.955,0.771-1.44,1.144c-0.141,0.108-0.284,0.212-0.426,0.319c-0.478,0.36-0.957,0.718-1.443,1.063    c-0.154,0.11-0.311,0.215-0.466,0.323c-0.479,0.336-0.961,0.668-1.449,0.989c-0.167,0.11-0.337,0.216-0.505,0.323    c-0.482,0.312-0.966,0.62-1.455,0.918c-0.181,0.11-0.364,0.215-0.546,0.322c-0.482,0.287-0.967,0.572-1.457,0.847    c-0.195,0.109-0.395,0.213-0.592,0.32c-0.482,0.263-0.965,0.524-1.453,0.775c-0.21,0.107-0.424,0.209-0.635,0.314    c-0.482,0.24-0.965,0.479-1.453,0.708c-0.225,0.104-0.452,0.202-0.678,0.305c-0.48,0.218-0.962,0.436-1.449,0.643    c-0.24,0.102-0.484,0.196-0.727,0.295c-0.478,0.196-0.955,0.392-1.438,0.576c-0.258,0.099-0.52,0.188-0.779,0.284    c-0.474,0.174-0.946,0.349-1.425,0.511c-0.272,0.093-0.548,0.178-0.821,0.267c-0.473,0.153-0.944,0.31-1.422,0.452    c-0.285,0.086-0.573,0.163-0.859,0.245c-0.472,0.135-0.942,0.271-1.418,0.396c-0.302,0.079-0.606,0.148-0.91,0.224    c-0.466,0.115-0.931,0.232-1.401,0.338c-0.318,0.071-0.642,0.134-0.963,0.2c-0.46,0.096-0.919,0.195-1.383,0.282    c-0.333,0.062-0.669,0.114-1.003,0.171c-0.459,0.079-0.915,0.161-1.377,0.23c-0.348,0.053-0.699,0.094-1.048,0.142    c-0.453,0.061-0.905,0.126-1.362,0.179c-0.359,0.041-0.724,0.071-1.085,0.107c-0.452,0.045-0.902,0.094-1.357,0.131    c-0.371,0.029-0.747,0.048-1.12,0.072c-0.449,0.028-0.896,0.062-1.349,0.083c-0.388,0.018-0.778,0.023-1.167,0.034    c-0.444,0.014-0.886,0.031-1.332,0.037c-0.402,0.004-0.808-0.004-1.211-0.005c-0.438-0.002-0.873,0.001-1.313-0.009    c-0.422-0.009-0.847-0.031-1.27-0.048c-0.428-0.017-0.853-0.027-1.282-0.051c-0.439-0.024-0.884-0.062-1.325-0.094    c-0.416-0.03-0.831-0.054-1.249-0.091c-0.456-0.04-0.917-0.095-1.376-0.143c-0.408-0.044-0.814-0.08-1.225-0.13    c-0.474-0.057-0.95-0.129-1.426-0.194c-0.398-0.056-0.795-0.104-1.195-0.165c-0.495-0.076-0.993-0.167-1.491-0.252    c-0.384-0.066-0.767-0.125-1.152-0.196c-0.534-0.1-1.072-0.214-1.608-0.324c-0.352-0.072-0.701-0.137-1.054-0.213    c-0.598-0.131-1.198-0.277-1.799-0.422c-0.295-0.07-0.588-0.133-0.884-0.207c-0.897-0.225-1.797-0.464-2.699-0.719    c0.952-1.556,1.87-3.089,2.771-4.61c0.188-0.315,0.376-0.633,0.562-0.947c0.867-1.476,1.713-2.938,2.532-4.381    c0.138-0.242,0.271-0.481,0.406-0.724c0.751-1.332,1.482-2.65,2.193-3.956c0.117-0.214,0.237-0.431,0.354-0.645    c0.762-1.408,1.497-2.797,2.213-4.174c0.154-0.299,0.308-0.595,0.46-0.892c0.719-1.395,1.421-2.778,2.093-4.143    c0.025-0.05,0.048-0.1,0.073-0.15c0.655-1.333,1.283-2.646,1.895-3.951c0.125-0.265,0.25-0.53,0.373-0.794    c0.605-1.304,1.191-2.594,1.754-3.869c0.099-0.224,0.193-0.444,0.291-0.667c0.524-1.2,1.032-2.388,1.52-3.563    c0.06-0.146,0.123-0.293,0.183-0.438c0.519-1.258,1.012-2.499,1.488-3.729c0.096-0.249,0.191-0.497,0.286-0.745    c0.473-1.235,0.93-2.462,1.36-3.67c0.023-0.064,0.045-0.128,0.067-0.192c0.417-1.174,0.812-2.331,1.19-3.479    c0.066-0.201,0.135-0.404,0.2-0.605c0.38-1.167,0.741-2.321,1.082-3.463c0.056-0.185,0.108-0.367,0.162-0.551    c0.328-1.111,0.641-2.212,0.933-3.3c0.019-0.069,0.039-0.14,0.058-0.209c0.303-1.135,0.583-2.254,0.848-3.363    c0.047-0.194,0.092-0.387,0.138-0.58c0.259-1.106,0.503-2.204,0.726-3.286c0.012-0.058,0.022-0.114,0.034-0.171    c0.216-1.059,0.412-2.104,0.594-3.139c0.024-0.138,0.051-0.277,0.074-0.415c0.181-1.055,0.345-2.097,0.491-3.127    c0.021-0.142,0.039-0.282,0.059-0.423c0.291-2.104,0.513-4.159,0.668-6.171c0.011-0.137,0.021-0.274,0.031-0.41    c0.073-1.005,0.134-2,0.175-2.983c0.001-0.032,0.002-0.064,0.003-0.098c0.041-0.983,0.063-1.955,0.073-2.917    c0.001-0.072,0.002-0.145,0.003-0.217c0.007-0.966-0.002-1.921-0.025-2.866c-0.002-0.096-0.005-0.19-0.008-0.286    c-0.053-1.912-0.165-3.782-0.333-5.615c-0.007-0.081-0.015-0.162-0.021-0.243c-0.088-0.927-0.188-1.844-0.303-2.752    c0-0.001,0-0.002-0.001-0.003c-0.119-0.94-0.253-1.871-0.4-2.792c0-0.004-0.001-0.008-0.001-0.011    c-0.146-0.902-0.304-1.795-0.474-2.68c-0.009-0.048-0.019-0.095-0.027-0.142c-0.344-1.77-0.736-3.505-1.175-5.209    c-0.006-0.023-0.012-0.048-0.019-0.072c-0.317-1.232-0.662-2.447-1.024-3.648c-0.029-0.097-0.057-0.195-0.086-0.292    c-0.347-1.138-0.716-2.261-1.099-3.373c-0.033-0.096-0.062-0.195-0.095-0.291c-0.002,0-0.003,0-0.005,0.001    c-13.691-39.381-48.758-63.544-26.206-123.349c-58.004,41.115-116.079,156.2-115.978,240.199c0,0.137-1.484,37.467,2.815,63.182    C113.523,410.714,177.134,474,254.396,474c77.509,0,141.282-63.688,149.174-145.393c0.543-5.622,0.826-11.329,0.826-17.107    C404.396,243.014,365.286,184.429,309.943,160.513z M247.219,429.068c-83.977,0-108.09-59.792-106.599-111.717    c-0.085,0.029-0.111,0.029-0.202,0.056c0.835-28.923,10.783-62.33,33.293-98.984c-16.028,72.188,26.947,125.981,68.384,126.499    c46.705,0.348,74.4-43.21,87.589-100.337c24.832,18.919,37.646,45.279,39.283,72.165c-0.059-0.03-0.113-0.03-0.204-0.064    C370.661,347.14,341.325,429.068,247.219,429.068z" style="fill:#F24B53;"/><path d="M247.219,429.068c94.106,0,123.442-81.929,121.544-112.383c0.091,0.034,0.146,0.034,0.204,0.064    c-1.638-26.886-14.451-53.246-39.283-72.165c-13.188,57.127-40.884,100.685-87.589,100.337    c-41.437-0.518-84.412-54.312-68.384-126.499c-22.51,36.654-32.458,70.062-33.293,98.984c0.091-0.026,0.117-0.026,0.202-0.056    C139.129,369.276,163.242,429.068,247.219,429.068z" style="fill:#FFCC32;"/></g></g><g id="Layer_1"/></svg>