<?xml version="1.0" ?><!DOCTYPE svg  PUBLIC '-//W3C//DTD SVG 1.1//EN'  'http://www.w3.org/Graphics/SVG/1.1/DTD/svg11.dtd'><svg height="512px" style="enable-background:new 0 0 512 512;" version="1.1" viewBox="0 0 512 512" width="512px" xml:space="preserve" xmlns="http://www.w3.org/2000/svg" xmlns:xlink="http://www.w3.org/1999/xlink"><g id="_x31_-500px"><g><g><path d="M202.818,95.044c-0.466,3.92,4.292,22.859,13.623,19.222     c116.439-44.319,189.218,37.693,195.374,37.693c4.479,0,21.274-14.275,13.344-21.273     C338.199,47.647,206.364,77.504,202.818,95.044z" style="fill:#0099E5;"/><path d="M433.09,279.783c0-135.194-166.639-204.052-263.86-101.605h-0.281v-124h208.252     c7.743,0,7.743-10.45,7.743-14.087c0-3.267,0-14.09-7.743-14.09H152.062c-6.158,0-9.797,5.132-9.797,9.797v174.29     c0,5.598,6.905,9.425,13.342,11.009c12.875,2.8,15.675-1.305,18.754-5.69l0.466-0.561c4.853-6.904,19.501-22.019,19.781-22.299     c23.046-23.046,54.116-35.921,87.239-35.921c33.12,0,63.911,12.782,87.05,35.921c23.326,23.419,36.203,54.208,36.203,87.051     c0,32.656-12.784,63.631-35.923,86.773c-39.28,39.278-102.352,47.676-149.657,18.751c0-107.764-5.504-122.413,16.422-147.043     c37.134-41.987,109.069-15.302,109.069,41.613c0,50.664-33.963,60.088-83.411,60.088c-9.89-2.894-17.727,22.765-7.93,26.683     c63.165,18.568,119.893-27.896,119.893-87.052c0-49.729-40.867-90.316-91.157-90.316c-50.103,0-90.037,39.187-91.155,86.026     v87.609h-0.281c-32.843-37.32-16.42-53.367-40.307-45.902c-13.342,4.478-12.969,8.301-6.905,21.551     C204.685,485.331,433.09,445.956,433.09,279.783z" style="fill:#0099E5;"/><path d="M246.671,303.201c0,3.733,4.012,6.812,5.132,7.932c2.798,2.801,5.691,4.105,7.93,4.105     c3.545,0,2.426,0.189,20.806-18.193c18.286,18.008,17.821,18.193,20.807,18.193c5.038,0,17.261-9.702,9.983-16.979     l-16.143-16.143l16.981-16.982c5.879-6.345-9.422-20.338-15.115-14.646l-16.698,16.702     c-17.356-17.541-17.169-18.195-20.062-18.195c-4.665,0-16.794,10.916-11.569,16.139l16.982,16.982     C248.816,298.818,246.671,300.031,246.671,303.201z" style="fill:#0099E5;"/><path d="M414.056,404.065c-102.634,102.538-278.975,56.726-309.765-97.223     c0-11.383-28.364-6.907-26.964,3.079C99.719,471.71,306.85,549.617,433.369,423.096     C439.807,415.821,421.613,396.601,414.056,404.065z" style="fill:#0099E5;"/></g></g></g><g id="Layer_1"/></svg>