<?xml version="1.0" ?><!DOCTYPE svg  PUBLIC '-//W3C//DTD SVG 1.1//EN'  'http://www.w3.org/Graphics/SVG/1.1/DTD/svg11.dtd'><svg height="512px" style="enable-background:new 0 0 512 512;" version="1.1" viewBox="0 0 512 512" width="512px" xml:space="preserve" xmlns="http://www.w3.org/2000/svg" xmlns:xlink="http://www.w3.org/1999/xlink"><g id="_x33_1_x2C__FLA_x2C__File_Type_x2C__Animate_x2C__Adobe"><g><polygon points="367.309,53.245 426.374,112.496 426.146,112.714 367.811,112.758 367.266,53.289   " style="fill:#260600;"/><path d="M125.65,94.625h183.182v105.766H125.65h-0.447H86.396V94.625h38.806H125.65z" style="fill:#260600;"/><path d="M235.222,297.02l6.728,28.46h-23.847l6.401-28.46c1.766-7.764,3.358-17.903,4.961-25.874h0.316    C231.384,279.116,233.302,289.071,235.222,297.02z" style="fill:#FF4A19;"/><path d="M280.015,382.581l-33.431-134.116h-32.003l-32.951,134.116h25.275l7.676-34.423h30.879    l8.319,34.423H280.015z M338.948,283.085c-12.964,0-20.956,9.366-24.162,15.526h-0.48l-1.122-13.335h-21.11    c0.316,8.57,0.633,18.906,0.633,31.043v66.262h24.325v-56.099c0-2.792,0.317-5.77,0.961-7.567    c1.603-5.583,5.592-11.341,12.32-11.341c8.788,0,12.311,8.55,12.311,21.089v53.918h24.315v-57.702    C366.938,296.235,354.944,283.085,338.948,283.085z M426.593,112.714V458.81H125.65V200.391h183.182V94.625H125.65V53.191h241.616    l0.043,0.054l-0.043,0.043l0.545,59.469l58.335-0.044l0.229-0.218L426.593,112.714z" style="fill:#FF4A19;"/><path d="M366.938,324.879v57.702h-24.315v-53.918c0-12.539-3.522-21.089-12.311-21.089    c-6.729,0-10.718,5.758-12.32,11.341c-0.644,1.798-0.961,4.775-0.961,7.567v56.099h-24.325v-66.262    c0-12.137-0.316-22.473-0.633-31.043h21.11l1.122,13.335h0.48c3.206-6.16,11.198-15.526,24.162-15.526    C354.944,283.085,366.938,296.235,366.938,324.879z" style="fill:#260600;"/><path d="M246.583,248.465l33.431,134.116h-26.235l-8.319-34.423h-30.879l-7.676,34.423h-25.275    l32.951-134.116H246.583z M241.949,325.479l-6.728-28.46c-1.919-7.948-3.838-17.903-5.441-25.874h-0.316    c-1.603,7.971-3.195,18.11-4.961,25.874l-6.401,28.46H241.949z" style="fill:#260600;"/><polygon points="227.774,135.1 227.774,167.778 218.615,167.778 218.615,135.1 207.776,135.1     207.776,127.434 238.787,127.434 238.787,135.1   " style="fill:#FF4A19;"/><polygon points="211.658,160.124 211.658,167.778 186.46,167.778 186.46,127.434 195.619,127.434     195.619,135.1 195.619,160.124   " style="fill:#FF4A19;"/><polygon points="164.064,144.139 178.543,144.139 178.543,151.564 164.064,151.564 164.064,167.778     154.905,167.778 154.905,127.434 179.558,127.434 179.558,134.925 164.064,134.925   " style="fill:#FF4A19;"/></g></g><g id="Layer_1"/></svg>