<?xml version="1.0" ?><!DOCTYPE svg  PUBLIC '-//W3C//DTD SVG 1.1//EN'  'http://www.w3.org/Graphics/SVG/1.1/DTD/svg11.dtd'><svg height="512px" style="enable-background:new 0 0 512 512;" version="1.1" viewBox="0 0 512 512" width="512px" xml:space="preserve" xmlns="http://www.w3.org/2000/svg" xmlns:xlink="http://www.w3.org/1999/xlink"><g id="_x36_5-creative-commons-nc-eu"><g><path d="M255.721,26.001c-133.641,0-229.72,108.323-229.72,229.999c0,126.407,103.593,229.999,229.72,229.999    c120.75,0,230.278-93.577,230.278-229.999C485.999,127.09,386.21,26.001,255.721,26.001z M256.277,443.986    c-103.87,0-188.82-85.784-188.82-187.986c0-21.516,3.43-41.919,10.108-61.209l60.931,26.987h-4.358v27.36h21.608    c0,5.748-0.371,2.966-0.371,18.082H134.23v27.358h25.041c10.572,62.137,62.321,93.949,115.554,93.949    c24.671,0,46.929-7.327,60.099-14.654l-9.274-42.753c-8.069,4.265-26.153,10.016-43.867,10.016    c-26.154,0-53.883-10.108-62.415-46.558h83.744L422.1,347.258C420.709,349.205,369.979,443.986,256.277,443.986L256.277,443.986z     M240.79,267.221l-0.463-0.37l0.834,0.37H240.79z M312.386,249.139h3.433v-27.36h-65.198l-26.524-11.685    c2.318-5.102,5.009-9.738,8.162-13.262c11.964-14.654,28.844-20.775,47.391-20.775c16.972,0,32.737,5.01,42.754,9.274    l10.758-43.867c-13.91-6.12-34.313-11.499-57.778-11.499c-36.168,0-66.958,14.652-88.938,39.229    c-4.915,5.657-9.089,11.964-12.891,18.641l-75.677-33.479c59.911-89.774,146.254-86.806,158.31-86.806    c104.798,0,188.266,83.653,188.266,188.637c0,17.342-1.949,33.665-5.843,49.06L312.386,249.139L312.386,249.139z"/></g></g><g id="Layer_1"/></svg>