<?xml version="1.0" ?><!DOCTYPE svg  PUBLIC '-//W3C//DTD SVG 1.1//EN'  'http://www.w3.org/Graphics/SVG/1.1/DTD/svg11.dtd'><svg height="512px" style="enable-background:new 0 0 512 512;" version="1.1" viewBox="0 0 512 512" width="512px" xml:space="preserve" xmlns="http://www.w3.org/2000/svg" xmlns:xlink="http://www.w3.org/1999/xlink"><g id="_x33_1-audible"><g><polygon points="485.999,215.678 485.999,254.49 256.001,398.24 26.001,254.562 26.001,215.751     256.001,359.5   " style="fill:#FFFFFF;"/><path d="M346.203,267.43l33.853-21.133c-26.737-40.106-72.378-66.555-124.128-66.555    s-97.391,26.377-124.056,66.412h0.216c1.797-1.653,3.666-3.234,5.535-4.816C202.094,187.863,295.314,199.579,346.203,267.43    L346.203,267.43z" style="fill:#F15C22;"/><path d="M188.006,280.941c12.148-8.554,26.234-13.441,41.257-13.441c24.725,0,46.861,13.226,62.1,34.214    l32.631-20.413c-15.022-21.491-39.962-35.58-68.137-35.58C227.897,245.721,203.101,259.667,188.006,280.941z" style="fill:#98005D;"/><path d="M100.463,187.792c94.73-74.967,228.706-54.913,300.077,44.633l0.503,0.719l35.075-21.849    c-38.453-58.722-104.794-97.535-180.19-97.535c-74.39,0-141.305,38.453-180.046,97.462    C82.998,203.676,92.198,194.332,100.463,187.792z" style="fill:#F0B310;"/></g></g><g id="Layer_1"/></svg>