<?xml version="1.0" ?><!DOCTYPE svg  PUBLIC '-//W3C//DTD SVG 1.1//EN'  'http://www.w3.org/Graphics/SVG/1.1/DTD/svg11.dtd'><svg height="512px" style="enable-background:new 0 0 512 512;" version="1.1" viewBox="0 0 512 512" width="512px" xml:space="preserve" xmlns="http://www.w3.org/2000/svg" xmlns:xlink="http://www.w3.org/1999/xlink"><g id="_x31_58-grooveshark"><g><path d="M256.003,26.001c-126.646,0-229.38,102.98-229.38,229.999s102.733,229.999,229.38,229.999    c126.642,0,229.374-103.013,229.374-229.999C485.377,128.981,382.645,26.001,256.003,26.001L256.003,26.001z" style="fill:#F28006;"/><path d="M180.101,136.033c-1.461-0.404-5.415-2.216-6.561-0.404l-0.032,4.425    c0.315,2.708,0.631,5.38,0.947,8.053c3.871,32.116,5.331,52.782-4.615,83.971c-5.305,16.796-15.05,32.141-28.042,44.076    c-10.752,9.866-26.093,19.837-41.346,19.121c-2.838-0.091-5.65-0.579-8.427-1.522C75.71,288.225,74.765,270.517,74.677,256    c-0.143-15.642,1.754-31.224,5.621-46.373c1.176-4.687,2.608-9.258,4.186-13.827c17.836-51.865,59.121-94.1,110.959-112.528    c19.41-6.9,39.969-10.378,60.559-10.378c60.663,0,118.327,31.249,151.642,82.053c8.346,12.731,15.025,26.502,19.93,40.878h-0.061    c1.58,4.575,3.041,9.115,4.244,13.803c3.818,15.149,5.709,30.757,5.617,46.4c-0.227,29.439-9.66,61.868-46.443,46.287    C373.523,294.956,322.377,201.667,217.579,150C205.475,144.141,193.008,139.737,180.101,136.033L180.101,136.033z" style="fill:#FFFFFF;"/></g></g><g id="Layer_1"/></svg>