<?xml version="1.0" ?><!DOCTYPE svg  PUBLIC '-//W3C//DTD SVG 1.1//EN'  'http://www.w3.org/Graphics/SVG/1.1/DTD/svg11.dtd'><svg height="512px" style="enable-background:new 0 0 512 512;" version="1.1" viewBox="0 0 512 512" width="512px" xml:space="preserve" xmlns="http://www.w3.org/2000/svg" xmlns:xlink="http://www.w3.org/1999/xlink"><g id="_x31_0-aim"><g><g><path d="M320.457,156.839c35.697,0,66.031-29.295,66.031-65.402c0-36.141-30.334-65.436-66.031-65.436     c-35.725,0-65.576,29.295-65.576,65.436C254.881,127.543,284.732,156.839,320.457,156.839z" style="fill:#FED502;"/><path d="M312.17,321.292c0.455-11.646,0.802-14.554,1.264-23.691     c69.902,18.452,128.937-40.341,128.937-40.341s-14.968-28.167-33.892-57.351c-30.851,28.057-62.816,23.374-76.406,20.384     c-17.923-3.944-22.767-11.615-21.306-18.401c-10.41-3.334-47.105-25.271-69.303-32.569     c-42.667,26.243-59.754,91.849-57.717,158.581c-28.642,54.967-55.652,73.51-114.117,87.08     c11.014,26.074,21.163,35.852,37.446,70.439c73.115-20.011,119.849-63.337,148.582-100.454     c48.917,12.593,84.695,43.985,114.229,101.03c30.678-25.85,34.063-28.493,60.155-49.715     C409.686,387.069,359.739,344.463,312.17,321.292z" style="fill:#FED502;"/></g></g></g><g id="Layer_1"/></svg>