<?xml version="1.0" ?><!DOCTYPE svg  PUBLIC '-//W3C//DTD SVG 1.1//EN'  'http://www.w3.org/Graphics/SVG/1.1/DTD/svg11.dtd'><svg height="512px" style="enable-background:new 0 0 512 512;" version="1.1" viewBox="0 0 512 512" width="512px" xml:space="preserve" xmlns="http://www.w3.org/2000/svg" xmlns:xlink="http://www.w3.org/1999/xlink"><g id="_x32_6-app-store"><g><path d="M145.452,322.124l-13.54,23.372c-5.194,9.089-2.134,20.681,6.956,25.875    c9.088,5.192,20.681,2.133,25.875-6.955l18.177-31.532C173.088,321.012,160.662,317.396,145.452,322.124z" style="fill:#0099E5;"/><path d="M274.734,275.568h-58.707l81.15-140.503c5.192-9.089,2.133-20.682-6.956-25.875    s-20.683-2.133-25.875,6.955l-8.439,14.561l-8.254-14.561c-5.287-9.088-16.787-12.148-25.876-6.955    c-9.088,5.287-12.147,16.786-6.955,25.875l19.291,33.479l-61.766,107.023h-48.225c-10.48,0-18.919,8.439-18.919,18.92    c0,10.479,8.439,18.918,18.919,18.918h172.035C304.412,297.92,293.746,275.568,274.734,275.568z" style="fill:#0099E5;"/><path d="M256,26.001c-127.057,0-230,102.943-230,229.999c0,127.057,102.943,229.999,230,229.999    c127.056,0,229.999-102.942,229.999-229.999C485.999,128.944,383.057,26.001,256,26.001z M256,456.321    c-110.086,0-200.322-89.123-200.322-200.321c0-110.085,89.124-200.321,200.322-200.321c110.084,0,200.321,89.125,200.321,200.321    C456.321,366.086,367.198,456.321,256,456.321z" style="fill:#0099E5;"/><path d="M388.807,275.661H339.56c-24.762-42.938-43.309-75.121-55.738-96.45    c-11.223,9.273-22.534,36.726-6.676,64.084c15.486,26.896,38.858,67.237,69.926,121.121c5.288,9.088,16.786,12.147,25.874,6.955    c9.091-5.285,12.151-16.786,6.958-25.875L361.446,313.5h27.36c10.479,0,18.919-8.438,18.919-18.921    C407.726,284.102,399.286,275.661,388.807,275.661z" style="fill:#0099E5;"/></g></g><g id="Layer_1"/></svg>