<?xml version="1.0" ?><!DOCTYPE svg  PUBLIC '-//W3C//DTD SVG 1.1//EN'  'http://www.w3.org/Graphics/SVG/1.1/DTD/svg11.dtd'><svg height="512px" style="enable-background:new 0 0 512 512;" version="1.1" viewBox="0 0 512 512" width="512px" xml:space="preserve" xmlns="http://www.w3.org/2000/svg" xmlns:xlink="http://www.w3.org/1999/xlink"><g id="_x31_80-itunes-note"><g><path d="M449.05,388.039c-6.506,27.853-27.649,43.506-56.011,48.793    c-24.904,4.573-45.64,5.692-65.564-10.367c-24.293-20.432-24.599-54.283-2.742-75.63c17.279-16.466,41.574-19.822,78.065-26.225    c6.1-1.118,11.385-2.542,15.858-7.522c6.506-7.318,4.472-4.166,4.472-165.892c0-11.385-5.591-14.536-17.279-12.503    c-8.337,1.423-188.765,35.171-188.765,35.171c-10.369,2.236-13.623,5.286-13.623,16.975c0,238.572,1.12,227.593-2.54,243.452    c-4.269,18.499-15.654,32.424-30.698,40.151c-17.077,9.453-47.98,13.621-64.446,10.571c-43.913-8.233-59.364-58.956-29.581-88.029    c17.281-16.465,41.575-19.82,78.068-26.226c6.098-1.118,11.385-2.54,15.857-7.521c10.267-11.689,1.829-260.834,5.286-274.658    c0.813-5.286,3.05-9.758,7.217-13.113c4.27-3.559,11.995-5.591,13.622-5.591c207.366-38.83,232.675-43.811,236.234-43.811    c11.69-0.813,18.397,6.099,18.397,17.891C451.082,394.141,451.996,375.335,449.05,388.039z" style="fill:#00C1FF;"/></g></g><g id="Layer_1"/></svg>