<?xml version="1.0" ?><!DOCTYPE svg  PUBLIC '-//W3C//DTD SVG 1.1//EN'  'http://www.w3.org/Graphics/SVG/1.1/DTD/svg11.dtd'><svg height="512px" style="enable-background:new 0 0 512 512;" version="1.1" viewBox="0 0 512 512" width="512px" xml:space="preserve" xmlns="http://www.w3.org/2000/svg" xmlns:xlink="http://www.w3.org/1999/xlink"><g id="_x36__x2C__InCopy_x2C__Adobe"><g><rect height="510.578" style="fill:#E057DD;" width="510.576" x="1.207" y="0.711"/><rect height="465.646" style="fill:#240020;" width="465.646" x="23.669" y="23.179"/><g><g><g id="XMLID_244_"><g id="XMLID_248_"><g><path d="M205.791,350.075c0,2.105-0.605,3.158-2.721,3.158h-31.42         c-1.813,0-2.417-1.053-2.417-3.158V126.664c0-2.106,0.906-2.459,2.417-2.459h31.724c1.813,0,2.418,0.354,2.418,2.459V350.075         z" id="XMLID_249_" style="fill:#E057DD;"/></g></g><g id="XMLID_245_"><g><path d="M362.165,351.921c0,1.406-0.294,2.459-1.483,3.161         c-9.798,5.622-22.821,4.663-37.668,4.663c-48.388,0-73.156-39.659-73.156-89.188c0-51.987,32.491-90.597,79.095-90.597         c15.735,0,26.252,1.47,31,4.283c1.193,0.704,1.492,1.406,1.492,3.512l-0.299,28.455c0,2.105-0.896,2.458-2.08,1.756         c-7.424-3.865-16.16-4.283-27.738-4.283c-26.717,0-43.64,22.804-43.64,55.819c0,38.993,20.784,55.47,42.749,55.47         c13.065,0,23.119,0.255,29.652-3.257c1.483-0.354,2.075,0.351,2.075,1.756V351.921z" id="XMLID_246_" style="fill:#E057DD;"/></g></g></g></g></g></g></g><g id="Layer_1"/></svg>