<?xml version="1.0" ?><!DOCTYPE svg  PUBLIC '-//W3C//DTD SVG 1.1//EN'  'http://www.w3.org/Graphics/SVG/1.1/DTD/svg11.dtd'><svg height="512px" style="enable-background:new 0 0 512 512;" version="1.1" viewBox="0 0 512 512" width="512px" xml:space="preserve" xmlns="http://www.w3.org/2000/svg" xmlns:xlink="http://www.w3.org/1999/xlink"><g id="_x31_62-hips"><g><path d="M206.836,185.276c0-1.366-0.648-2.013-2.013-2.013h-29.396c-1.15,0-1.941,1.007-1.941,2.013    v145.043c0,1.003,0.792,2.012,1.941,2.012h29.396c1.365,0,2.013-0.647,2.013-2.012V185.276z" style="fill:#007DBB;"/><path d="M138.484,192.75c-11.572-8.479-26.091-12.865-43.341-12.937    c-13.008-0.071-24.868,2.66-35.792,8.192v-58.36c0-1.294-0.647-1.939-2.013-1.939H27.942c-1.294,0-1.941,0.646-1.941,1.939    v200.674c0,1.364,0.647,2.012,1.941,2.012H57.41c1.366,0,2.013-0.647,2.013-2.012v-97.822c0-0.575-2.013-19.406,32.919-19.406    c34.859,0,32.917,18.759,32.917,19.406v88.118c0,6.469,5.248,11.716,11.787,11.716h19.622c1.294,0,1.941-0.647,1.941-2.012    v-97.822C158.609,215.678,151.924,202.454,138.484,192.75z" style="fill:#007DBB;"/><path d="M482.327,271.884c-4.887-11.284-13.225-19.405-25.084-24.51l-41.398-18.184    c-6.182-2.587-6.613-8.05-1.869-11.57c5.318-3.954,31.84-9.992,60.374,4.887c1.222,0.719,2.876-0.216,2.876-1.726v-32.127    c0-0.935-0.432-1.51-1.365-1.869c-12.723-4.743-25.947-7.115-39.604-7.115c-19.046,0-32.559,4.169-42.046,11.067    c-0.358,0.289-20.412,14.375-16.316,38.597c2.444,14.088,11.356,24.581,26.738,31.338l38.524,16.89    c8.336,3.667,10.925,9.561,8.77,15.238c-2.661,6.54-9.488,9.774-26.235,9.774c-17.464,0-32.128-6.396-41.975-13.729    c-1.51-1.006-3.161,0.146-3.161,1.652v24.726c0,7.476,3.52,12.435,10.493,14.878c11.212,3.953,22.712,5.894,34.643,5.894    c9.128,0,18.544-0.862,26.091-3.092c0.504-0.213,25.875-6.394,32.773-32.916C487.071,290.283,486.28,280.94,482.327,271.884    L482.327,271.884z" style="fill:#007DBB;"/><path d="M296.391,179.67c-22.784,0-74.893,14.446-74.893,74.39v131.888c0,0.576,0.432,1.941,1.94,1.941    h29.397c1.366,0,2.013-0.647,2.013-1.941v-63.823c11.858,9.129,25.73,13.729,41.469,13.729c43.484,0,78.128-34.859,78.128-78.129    C374.517,214.385,339.802,179.67,296.391,179.67z M296.391,302.503c-12.363,0-22.927-4.384-31.625-13.083    c-8.768-8.769-13.08-19.262-13.08-31.623c0-24.797,19.837-44.706,44.705-44.706c24.796,0,44.704,19.837,44.704,44.706    C341.167,282.45,321.474,302.503,296.391,302.503z" style="fill:#007DBB;"/><path d="M190.089,124.111c-11.428,0-20.699,9.272-20.772,20.771c0,11.213,9.128,20.772,20.772,20.772    c11.644,0,20.771-9.416,20.771-20.772C210.861,133.238,201.517,124.111,190.089,124.111L190.089,124.111z" style="fill:#81BD41;"/></g></g><g id="Layer_1"/></svg>