<?xml version="1.0" ?><!DOCTYPE svg  PUBLIC '-//W3C//DTD SVG 1.1//EN'  'http://www.w3.org/Graphics/SVG/1.1/DTD/svg11.dtd'><svg height="512px" style="enable-background:new 0 0 512 512;" version="1.1" viewBox="0 0 512 512" width="512px" xml:space="preserve" xmlns="http://www.w3.org/2000/svg" xmlns:xlink="http://www.w3.org/1999/xlink"><g id="_x31_63-hooli"><g><path d="M136.384,213.4c0.021,0.012,0.043,0.023,0.064,0.035c0.032,0.018,0.065,0.036,0.098,0.054    c0.74,0.405,1.476,0.811,2.209,1.216c0.004,0.002,0.009,0.004,0.013,0.007c0.003,0.002,0.006,0.003,0.009,0.005    c0.156,0.086,0.314,0.173,0.47,0.259c0.613,0.339,1.222,0.678,1.83,1.018c0.146,0.081,0.292,0.162,0.437,0.242    c0.032,0.018,0.063,0.036,0.096,0.054c0.095,0.053,0.19,0.105,0.284,0.158c0.716,0.399,1.425,0.798,2.132,1.196    c0.167,0.094,0.335,0.188,0.501,0.282c0.615,0.347,1.224,0.692,1.832,1.038c0.04,0.023,0.081,0.046,0.121,0.069    c0.049,0.027,0.097,0.055,0.146,0.082c0.163,0.093,0.329,0.186,0.491,0.279c0.003,0.001,0.005,0.003,0.008,0.004    c0.002,0.001,0.005,0.002,0.007,0.004c0.662,0.377,1.317,0.753,1.972,1.128c0.173,0.099,0.349,0.199,0.521,0.297    c0.012,0.007,0.024,0.015,0.037,0.021c0.014,0.008,0.026,0.016,0.04,0.023c0.659,0.379,1.311,0.755,1.96,1.131    c0.166,0.096,0.335,0.193,0.5,0.289c0.684,0.396,1.359,0.791,2.032,1.184c0.138,0.08,0.277,0.161,0.415,0.242    c0.652,0.382,1.296,0.761,1.938,1.139c0.065,0.039,0.132,0.078,0.197,0.116c0.094,0.055,0.188,0.11,0.281,0.165    c0.022,0.014,0.045,0.027,0.067,0.041c0.608,0.359,1.206,0.714,1.803,1.07c0.16,0.095,0.322,0.191,0.48,0.285    c0.487,0.291,0.967,0.578,1.446,0.866c0.141,0.084,0.284,0.17,0.425,0.254c0.072,0.043,0.145,0.087,0.218,0.131    c0.065,0.04,0.133,0.08,0.199,0.12c0.625,0.376,1.239,0.748,1.851,1.119c0.124,0.075,0.251,0.151,0.374,0.227    c0.002,0.001,0.005,0.002,0.007,0.004s0.005,0.003,0.007,0.004c0.553,0.336,1.095,0.667,1.636,0.998    c0.061,0.037,0.123,0.075,0.184,0.112c0.039,0.024,0.078,0.048,0.118,0.072c0.073,0.045,0.149,0.091,0.223,0.137    c0.606,0.372,1.2,0.738,1.79,1.103c0.097,0.06,0.196,0.121,0.292,0.18c0.007,0.004,0.013,0.008,0.019,0.011    c0.007,0.004,0.013,0.008,0.02,0.012c0.586,0.363,1.16,0.721,1.729,1.077c0.094,0.058,0.189,0.118,0.282,0.176    c0.582,0.365,1.152,0.724,1.716,1.08c0.078,0.049,0.159,0.1,0.237,0.15c0.569,0.36,1.126,0.714,1.675,1.065    c0.06,0.038,0.122,0.077,0.182,0.115c0.007,0.005,0.016,0.01,0.022,0.015c0.011,0.007,0.021,0.014,0.032,0.021    c0.542,0.347,1.071,0.688,1.593,1.025c0.006,0.004,0.012,0.008,0.018,0.012c0.003,0.002,0.006,0.003,0.009,0.005    c0.047,0.031,0.097,0.062,0.144,0.093c0.534,0.346,1.055,0.685,1.565,1.02c0.001,0,0.002,0.001,0.003,0.001c0,0,0.001,0,0.001,0    c0.05,0.033,0.102,0.067,0.151,0.1c0.478,0.313,0.939,0.618,1.396,0.92c0.046,0.03,0.095,0.063,0.141,0.093    c0.012,0.008,0.023,0.016,0.036,0.024c0.016,0.011,0.032,0.021,0.048,0.032c0.49,0.326,0.965,0.644,1.428,0.956    c0.007,0.004,0.014,0.009,0.02,0.013c0.033,0.022,0.066,0.044,0.1,0.066c0.009,0.006,0.018,0.012,0.026,0.018    c0.461,0.311,0.905,0.614,1.339,0.911c0.026,0.018,0.054,0.037,0.08,0.055c0.427,0.293,0.838,0.578,1.237,0.857    c0.003,0.002,0.007,0.005,0.011,0.007c0.002,0.001,0.005,0.003,0.007,0.005c0.034,0.024,0.07,0.049,0.104,0.073    c0.392,0.273,0.766,0.539,1.129,0.798c0.013,0.009,0.027,0.019,0.04,0.028c0.016,0.011,0.032,0.023,0.049,0.035    c0.004,0.003,0.009,0.006,0.013,0.009c0.005,0.003,0.01,0.006,0.014,0.01c0.005,0.003,0.01,0.007,0.015,0.01    c0.363,0.26,0.71,0.511,1.044,0.755c0.024,0.017,0.051,0.036,0.074,0.053c0.452-0.656,0.934-1.314,1.451-1.977    c-27.27-21.061-51.767-33.146-72.926-43.582v3.883c7.393,3.688,14.786,7.579,21.908,11.477    C136.342,213.378,136.363,213.389,136.384,213.4z" style="fill:#008BFF;"/><path d="M171.139,319.604v3.809l-13.945,0.577c26.237,8.985,50.247,10.205,68.075,5.174    C210.963,329.308,192.345,327.296,171.139,319.604z" style="fill:#008BFF;"/><path d="M465.075,236.794c11.429,0,20.773-9.274,20.773-20.775c0-11.501-9.271-17.611-20.773-17.611    c-11.429,0-20.775,6.181-20.775,17.611S453.574,236.794,465.075,236.794z" style="fill:#008BFF;"/><path d="M264.014,237.584c-13.082-13.083-36.23-12.292-36.23-12.292s-23.146-0.792-36.229,12.292    c-1.367,1.365-2.66,2.802-3.811,4.312c-27.46-21.277-52.115-33.425-73.394-43.92v-14.88l-41.693,19.552v45.371    c0.03,0.035,0.06,0.068,0.09,0.103v0.122l0,0c9.414,10.561,21.917,22.56,38.368,36.136l3.235,2.587v-21.419    c0-4.961,1.222-13.084,7.763-13.084c6.542,0,7.62,4.96,7.62,10.783v35.008c12.939,8.77,26.813,15.886,41.478,21.276v-67.498    c0-13.443-9.633-26.884-29.187-26.884c-11.356-0.072-21.923,5.894-27.674,15.743v-39.033c0.021,0.011,0.042,0.021,0.063,0.032    v-3.883c21.159,10.436,45.656,22.521,72.926,43.582c-0.518,0.663-0.999,1.321-1.451,1.977c-0.019-0.014-0.039-0.028-0.059-0.042    c0.108,0.08,0.228,0.165,0.334,0.243c-7.333,10.495-6.686,20.199-6.686,31.413c0,13.44-1.007,24.655,12.077,37.74    c13.082,13.081,36.229,12.291,36.229,12.291s23.22,0.79,36.23-12.291c13.083-13.085,12.006-24.3,12.006-37.74    C276.02,261.882,277.097,250.595,264.014,237.584z M235.476,289.27c0,2.587-1.295,8.985-7.692,8.985    c-6.396,0-7.69-6.398-7.69-8.985v-29.042c0-6.253,5.247-7.834,7.69-7.834c2.444,0,7.692,1.509,7.692,7.834V289.27z"/><polygon points="391.249,323.413 432.871,323.413 432.871,183.023 391.249,202.648   "/><rect height="79.432" width="41.62" x="444.229" y="243.981"/><path d="M129.662,323.413l27.531,0.577c-9.489-3.31-18.69-7.336-27.531-12.079V323.413z"/><path d="M368.966,237.584c-13.083-13.083-36.23-12.292-36.23-12.292s-23.217-0.792-36.229,12.292    c-13.083,13.083-12.076,24.369-12.076,37.808c0,13.446-1.006,24.659,12.076,37.74c13.082,13.085,36.229,12.294,36.229,12.294    s23.219,0.791,36.23-12.294c13.083-13.081,12.077-24.294,12.077-37.74C380.97,261.882,381.978,250.595,368.966,237.584z     M340.355,289.27c0,2.587-1.296,8.985-7.692,8.985c-6.397,0-7.69-6.398-7.69-8.985v-29.042c0-6.253,5.246-7.834,7.69-7.834    s7.692,1.509,7.692,7.834V289.27z"/><path d="M72.657,270.523v52.89h41.62v-20.558c-4.672-3.021-9.344-6.256-13.945-9.777c-10.63-8.045-19.681-15.516-27.585-22.556    v0.083C72.717,270.578,72.688,270.551,72.657,270.523z"/><path d="M72.747,248.122c-0.03-0.035-0.06-0.068-0.09-0.103v0.131    c-35.008-39.176-27.964-54.63-25.304-56.86c9.701-8.191,26.943-5.752,46.271,1.501l4.557-2.065    c-38.971-15.781-63.994-13.067-69.948,0.061c0,0-14.65,21.354,33.764,69.619c3.263,3.22,6.807,6.562,10.66,10.027v0.09    c0.03,0.027,0.06,0.055,0.09,0.082v-0.083c-0.006-0.005-0.013-0.011-0.019-0.016v-22.283c0.006,0.007,0.013,0.014,0.019,0.02l0,0    V248.122z" style="fill:#008BFF;"/></g></g><g id="Layer_1"/></svg>