<?xml version="1.0" ?><!DOCTYPE svg  PUBLIC '-//W3C//DTD SVG 1.1//EN'  'http://www.w3.org/Graphics/SVG/1.1/DTD/svg11.dtd'><svg height="512px" style="enable-background:new 0 0 512 512;" version="1.1" viewBox="0 0 512 512" width="512px" xml:space="preserve" xmlns="http://www.w3.org/2000/svg" xmlns:xlink="http://www.w3.org/1999/xlink"><g id="_x31_0_x2C__Bridge_x2C__Adobe"><g><rect height="510.578" style="fill:#FBB500;" width="510.576" x="1.207" y="0.711"/><rect height="465.646" style="fill:#261C00;" width="465.646" x="23.669" y="23.179"/><g><g><g><g id="XMLID_297_"><g><path d="M133.938,127.367c0-2.107,0.312-2.812,1.85-3.161         c12.001-0.352,36.616-0.703,60.924-0.703c63.08,0,73.342,31.244,73.342,58.292c0,25.291-4.755,40.341-22.296,47.716v0.703         c18.772,5.621,32.336,26.069,32.336,58.038c0,38.892-34.152,65.685-87.379,65.685c-22.463,0.354-45.54-0.354-56.62-0.703         c-1.845-0.349-2.157-1.406-2.157-2.809V127.367z M170.251,218.346h42.961c12.252,0,20.592-13.524,20.592-30.735         c0-21.781-11.553-30.737-37.4-30.737c-12.307,0-22.77,0.352-26.153,0.704V218.346z M170.251,319.864         c3.072,0,11.076,0.699,24.615,0.699c28.306,0,44.726-8.43,44.726-34.071c0-20.725-9.959-34.072-40.421-34.072h-28.919         V319.864z" id="XMLID_299_" style="fill:#FBB500;"/></g></g><g id="XMLID_292_"><g><path d="M384.709,179.463c1.261-0.068,2.847,0,4.112,0.352         c1.585,0.349,1.901,0.704,1.901,3.514v30.464c0,1.756-0.636,2.458-2.536,2.458c-18.035-0.703-26.566-1.268-39.454,4.008         v132.143c0,2.109-0.632,2.808-2.531,2.808h-33.233c-1.896,0-2.53-0.698-2.53-2.808V234.024         c0-15.457-0.632-27.125-1.582-38.717c-0.319-1.406,0.315-2.109,1.896-2.109C310.752,193.198,341.363,181.796,384.709,179.463         z" id="XMLID_293_" style="fill:#FBB500;"/></g></g></g></g></g></g></g><g id="Layer_1"/></svg>