<?xml version="1.0" ?><!DOCTYPE svg  PUBLIC '-//W3C//DTD SVG 1.1//EN'  'http://www.w3.org/Graphics/SVG/1.1/DTD/svg11.dtd'><svg height="512px" style="enable-background:new 0 0 512 512;" version="1.1" viewBox="0 0 512 512" width="512px" xml:space="preserve" xmlns="http://www.w3.org/2000/svg" xmlns:xlink="http://www.w3.org/1999/xlink"><g id="_x35_7-cloudscale"><g><g><path d="M256,36c121.29,0,220,98.71,220,220s-98.71,220-220,220c-121.3,0-220-98.71-220-220     S134.7,36,256,36z M423.14,256c0-92.14-75-167.14-167.14-167.14c-92.14,0-167.14,75-167.14,167.14     c0,92.14,75,167.14,167.14,167.14C348.14,423.14,423.14,348.14,423.14,256z" style="fill:#04517D;"/></g><g><path d="M338.83,171.17l-47.471,47.47c-15.379-14.35-44.569-31.73-67.24-31.73     c-47.62,0-88.68,38.81-86.81,91.31c-0.94-5.91-1.31-12-1.31-18.189C136,193,190.18,136,257.31,136     C287.1,136,317.74,153.08,338.83,171.17z" style="fill:#47AE33;"/></g><g><path d="M250,290c-16.542,0-30-13.458-30-30s13.458-30,30-30s30,13.458,30,30S266.542,290,250,290z" style="fill:#04517D;"/></g><g><path d="M270,250c-2.559,0-5.119-0.976-7.071-2.929c-3.905-3.905-3.905-10.237,0-14.143l80.001-80     c3.904-3.904,10.236-3.905,14.142,0s3.905,10.237-0.001,14.142l-79.999,80C275.119,249.024,272.559,250,270,250z" style="fill:#04517D;"/></g></g></g><g id="Layer_1"/></svg>