<?xml version="1.0" ?><!DOCTYPE svg  PUBLIC '-//W3C//DTD SVG 1.1//EN'  'http://www.w3.org/Graphics/SVG/1.1/DTD/svg11.dtd'><svg height="512px" style="enable-background:new 0 0 512 512;" version="1.1" viewBox="0 0 512 512" width="512px" xml:space="preserve" xmlns="http://www.w3.org/2000/svg" xmlns:xlink="http://www.w3.org/1999/xlink"><g id="_x32_6_x2C__Media_Encoder_x2C__Adobe"><g><rect height="510.578" style="fill:#A28FFF;" width="510.576" x="1.207" y="0.711"/><rect height="465.646" style="fill:#0B004D;" width="465.646" x="23.669" y="23.179"/><g><g><g id="XMLID_521_"><g id="XMLID_539_"><g id="XMLID_545_"><polygon points="195.569,162.321 195.569,162.393 195.642,162.393        " style="fill:#A28FFF;"/></g><g id="XMLID_544_"><polygon points="164.48,131.041 164.48,131.079 164.515,131.079        " style="fill:#A28FFF;"/></g><g id="XMLID_543_"><polygon points="382.101,349.986 382.063,349.947 351.012,349.947 351.012,318.706 350.936,318.634          319.924,318.634 319.924,287.43 319.809,287.318 288.835,287.318 288.835,256.341 257.747,256.341 257.747,225.026          226.658,225.026 226.658,193.711 195.569,193.711 195.569,162.393 164.48,162.393 164.48,131.079 133.392,131.079          133.392,99.765 102.078,99.765 102.078,410.194 413.188,410.194 413.188,381.262 382.101,381.262        " style="fill:#A28FFF;"/></g><g id="XMLID_542_"><polygon points="226.658,193.597 226.658,193.711 226.769,193.711        " style="fill:#A28FFF;"/></g><g id="XMLID_541_"><polygon points="257.747,224.873 257.747,225.026 257.896,225.026        " style="fill:#A28FFF;"/></g></g><g id="XMLID_537_"><rect height="31.314" style="fill:#A28FFF;" width="31.088" x="164.48" y="99.765"/></g><g id="XMLID_536_"><rect height="31.314" style="fill:#A28FFF;" width="31.089" x="195.569" y="131.079"/></g><g id="XMLID_535_"><rect height="31.318" style="fill:#A28FFF;" width="31.089" x="226.658" y="162.393"/></g><g id="XMLID_534_"><rect height="31.315" style="fill:#A28FFF;" width="31.088" x="257.747" y="193.711"/></g><g id="XMLID_532_"><rect height="31.314" style="fill:#A28FFF;" width="31.089" x="288.835" y="225.026"/></g><g id="XMLID_531_"><rect height="31.318" style="fill:#A28FFF;" width="31.088" x="319.924" y="256"/></g><g id="XMLID_530_"><rect height="31.315" style="fill:#A28FFF;" width="31.089" x="351.012" y="287.318"/></g><g id="XMLID_529_"><rect height="31.313" style="fill:#A28FFF;" width="31.088" x="382.101" y="318.634"/></g><g id="XMLID_528_"><rect height="31.314" style="fill:#A28FFF;" width="31.088" x="257.747" y="131.079"/></g><g id="XMLID_527_"><rect height="31.315" style="fill:#A28FFF;" width="31.088" x="319.924" y="193.711"/></g><g id="XMLID_524_"><rect height="31.318" style="fill:#A28FFF;" width="31.088" x="382.101" y="256"/></g><g id="XMLID_523_"><rect height="31.314" style="fill:#A28FFF;" width="31.088" x="319.924" y="131.079"/></g><g id="XMLID_522_"><rect height="31.315" style="fill:#A28FFF;" width="31.088" x="382.101" y="193.711"/></g></g></g></g></g></g><g id="Layer_1"/></svg>