<?xml version="1.0" ?><!DOCTYPE svg  PUBLIC '-//W3C//DTD SVG 1.1//EN'  'http://www.w3.org/Graphics/SVG/1.1/DTD/svg11.dtd'><svg height="512px" style="enable-background:new 0 0 512 512;" version="1.1" viewBox="0 0 512 512" width="512px" xml:space="preserve" xmlns="http://www.w3.org/2000/svg" xmlns:xlink="http://www.w3.org/1999/xlink"><g id="_x33_4-avianex"><g><path d="M433.042,54.759h-280.3c-34.948,0-68.458,28.031-74.837,62.619L27.056,394.625    c-6.378,34.588,16.8,62.615,51.837,62.615h280.301c34.947,0,68.457-28.027,74.837-62.615l50.939-277.157    C491.26,82.79,468.079,54.759,433.042,54.759L433.042,54.759z M380.757,366.773l-28.75,12.129l-103.675-98.824    c-13.208,8.984-26.234,17.52-37.463,24.346l19.854,57.676l-16.081,11.412l-36.475-54.803l-47.077-43.213l14.105-13.834    l52.107,27.938c8.355-9.434,18.687-20.303,29.468-31.352l-18.418-26.594l-61.809-89.66l16.889-25.963l7.996-4.312l92.624,100.98    l4.403,4.042c17.429-16.89,30.365-29.107,30.365-29.107c6.918-5.84,19.316-2.606,27.581,7.096    c8.086,9.434,9.522,22.191,2.426,28.12c-1.617,1.169-13.926,10.242-31.714,23l4.043,6.557l85.259,107.27L380.757,366.773    L380.757,366.773z" style="fill:#2C3441;"/></g></g><g id="Layer_1"/></svg>