<?xml version="1.0" ?><!DOCTYPE svg  PUBLIC '-//W3C//DTD SVG 1.1//EN'  'http://www.w3.org/Graphics/SVG/1.1/DTD/svg11.dtd'><svg height="512px" style="enable-background:new 0 0 512 512;" version="1.1" viewBox="0 0 512 512" width="512px" xml:space="preserve" xmlns="http://www.w3.org/2000/svg" xmlns:xlink="http://www.w3.org/1999/xlink"><g id="_x31_90-keycdn"><g><path d="M83.321,393.998l54.354-53.008c28.84,38.454,63.879,59.296,113.743,60.556    c27.4,0.629,54.175-6.29,77.623-20.126c4.583,4.761,16.622,17.52,18.778,19.767c-28.93,18.598-62.531,27.941-97.122,27.132    c-38.9-0.986-76.006-15.005-105.745-39.891c0.271-0.538-34.319,33.692-34.68,34.051c8.535,26.774-11.768,56.064-41.597,56.064    c-24.078-0.093-42.676-19.498-42.676-43.574C26.001,404.149,55.739,384.114,83.321,393.998z" style="fill:#2E3234;"/><path d="M402.176,167.233c17.158,28.121,26.593,60.555,25.784,93.436    c-0.988,40.251-17.069,78.615-43.663,108.713c0.269,0.269,21.381,22.641,21.652,22.909c8.624-1.167,17.249,1.798,23.269,8.177    c10.152,10.781,9.795,27.762-0.986,38.093c-10.783,10.153-27.763,9.794-38.096-0.988c-6.021-6.29-8.444-15.094-6.828-23.629    c-22.37-23.897-39.89-42.405-39.89-42.405c38.364-30.637,56.87-71.517,57.858-111.587c0.63-25.964-6.468-51.39-18.957-73.852    L402.176,167.233L402.176,167.233z" style="fill:#2E3234;"/><path d="M119.438,73.977c6.02,6.289,8.444,15.094,6.827,23.628l41.238,43.215    c-4.223,3.414-11.948,9.344-20.483,19.138c-22.82,25.604-35.579,58.218-36.566,92.448c-0.63,25.964,5.48,51.391,17.969,74.029    l-19.766,19.317c-17.34-28.389-25.966-60.822-24.978-94.065c0.899-40.069,16.442-78.703,42.676-108.8l-22.73-23.72    c-8.625,1.169-17.249-1.797-23.269-8.175c-10.152-10.781-9.794-27.762,0.987-38.094C92.036,62.836,108.837,63.105,119.438,73.977z    " style="fill:#2E3234;"/><path d="M443.684,33.457c23.359,0,42.315,20.125,42.315,43.395c0,23.269-18.956,42.854-42.315,42.854    c-5.662,0.091-12.579-0.988-14.285-1.616l-56.513,53.636c-29.378-39.171-68.909-59.206-114.011-60.374    c-27.402-0.629-54.176,6.108-77.444,20.125l-18.958-19.766c28.93-18.688,62.531-27.942,97.121-27.134    c38.902,0.988,76.007,15.006,105.746,40.071l36.926-34.68c-1.35-4.223-1.978-8.625-1.978-13.027    C400.198,52.952,420.323,33.457,443.684,33.457z" style="fill:#2E3234;"/><path d="M271.363,129.141c-4.941-0.629-9.792-0.989-14.734-0.989    c-65.227,0.181-119.852,47.079-128.206,112.125c-8.626,70.167,41.059,134.227,111.227,143.03    c70.077,8.626,134.135-41.058,142.94-111.226C391.214,202.003,341.53,137.944,271.363,129.141z M279.18,282.324l9.882,46.448    h-66.214l9.883-46.448c-18.148-9.346-28.57-26.504-29.109-46.899c0.809-30.097,23.45-51.659,52.29-52.378    c29.198,0.719,52.02,22.909,52.379,52.378C308.02,256.269,297.238,272.53,279.18,282.324z" style="fill:#047AED;"/></g></g><g id="Layer_1"/></svg>