<?xml version="1.0" ?><!DOCTYPE svg  PUBLIC '-//W3C//DTD SVG 1.1//EN'  'http://www.w3.org/Graphics/SVG/1.1/DTD/svg11.dtd'><svg height="512px" style="enable-background:new 0 0 512 512;" version="1.1" viewBox="0 0 512 512" width="512px" xml:space="preserve" xmlns="http://www.w3.org/2000/svg" xmlns:xlink="http://www.w3.org/1999/xlink"><g id="_x31_5-amd"><g><g><polygon points="198.675,112.246 112.666,157.236 112.666,313.479 272.213,313.479 313.353,227.234      198.675,227.234    " style="fill:#009933;"/><polygon points="399.366,26.001 112.666,26.001 198.675,112.246 313.353,112.246 313.353,227.234      399.366,313.479    " style="fill:#009933;"/><path d="M413.7,342.227h-57.339c-7.917,0-14.337,6.438-14.337,14.368v115.001c0,7.932,6.42,14.372,14.337,14.372H413.7     c39.536,0,71.677-32.228,71.677-71.874C485.377,374.45,453.236,342.227,413.7,342.227z M413.7,457.218h-43.005v-86.243H413.7     c23.71,0,43.005,19.349,43.005,43.119C456.705,437.865,437.41,457.218,413.7,457.218z"/><path d="M304.493,343.321c-5.297-2.218-11.495-1.012-15.626,3.099l-47.192,47.352l-47.186-47.317     c-4.133-4.109-10.239-5.318-15.626-3.109c-5.364,2.184-8.859,7.452-8.859,13.253v114.998c0,7.932,6.421,14.372,14.336,14.372     c7.914,0,14.335-6.44,14.335-14.372v-80.297l32.854,32.944c5.59,5.605,14.684,5.605,20.271,0l32.886-32.944v80.297     c0,7.932,6.42,14.372,14.334,14.372c7.91,0,14.333-6.44,14.333-14.372V356.595C313.353,350.797,309.859,345.528,304.493,343.321z     "/><path d="M97.407,351.541c-4.181-11.239-22.646-11.239-26.858,0l-43.01,114.986c-2.777,7.448,0.979,15.725,8.376,18.517     c7.395,2.875,15.68-0.979,18.46-8.395l7.313-19.432h44.64l7.252,19.432c2.148,5.752,7.628,9.318,13.418,9.318     c1.689,0,3.378-0.29,5.047-0.924c7.394-2.792,11.151-11.068,8.372-18.517L97.407,351.541z M72.436,428.467l11.555-30.93     l11.557,30.93H72.436z"/></g></g></g><g id="Layer_1"/></svg>