<?xml version="1.0" ?><!DOCTYPE svg  PUBLIC '-//W3C//DTD SVG 1.1//EN'  'http://www.w3.org/Graphics/SVG/1.1/DTD/svg11.dtd'><svg height="512px" style="enable-background:new 0 0 512 512;" version="1.1" viewBox="0 0 512 512" width="512px" xml:space="preserve" xmlns="http://www.w3.org/2000/svg" xmlns:xlink="http://www.w3.org/1999/xlink"><g id="_x33_2_x2C__PHP_x2C__File_Type_x2C__Script"><g><polygon points="367.309,53.245 426.374,112.496 426.146,112.714 367.811,112.758 367.266,53.289   " style="fill:#3395FF;"/><path d="M125.65,94.625h183.182v105.766H125.65h-0.447H86.396V94.625h38.806H125.65z" style="fill:#3395FF;"/><path d="M426.593,112.714V458.81H125.65V200.391h183.182V94.625H125.65V53.191h241.616l0.043,0.054    l-0.043,0.043l0.545,59.469l58.335-0.044l0.229-0.218L426.593,112.714z" style="fill:#007AFF;"/><g><polygon points="314,285.211 314,308.829 378,344.266 378,344.701 314,380.139 314,403.756 397,354.733      397,334.234    " style="fill:#FFFFFF;"/><polygon points="249.375,413 266.93,413 304.122,252 286.567,252    " style="fill:#FFFFFF;"/><polygon points="152,354.057 236,403.756 236,380.139 173,344.701 173,344.266 236,308.829 236,285.211      152,334.898    " style="fill:#FFFFFF;"/></g><path d="M238.013,150.506c0-4.568-2.05-8.025-6.03-8.025c-2.519,0-4.743,1.875-5.332,4.514    c-0.12,0.469-0.174,1.047-0.174,1.582v3.925c0,0.698,0.054,1.341,0.174,1.864c0.589,2.41,2.639,4.22,5.212,4.22    C235.734,158.586,238.013,155.37,238.013,150.506z M247.03,150.092c0,10.424-6.618,15.353-12.997,15.353    c-3.456,0-6.15-1.407-7.436-3.282h-0.12v14.229h-8.898v-30.629c0-3.75-0.12-6.967-0.24-9.606h7.731l0.414,3.98h0.109    c2.115-3.042,5.397-4.624,9.551-4.624C241.415,135.514,247.03,140.966,247.03,150.092z" style="fill:#FFFFFF;"/><path d="M210.437,148.042v16.759h-8.908v-15.756c0-3.75-1.286-6.324-4.623-6.324    c-2.344,0-3.806,1.516-4.449,3.097c-0.24,0.588-0.294,1.352-0.294,1.995v16.988h-8.908v-41.586h8.908v16.344h0.12    c0.938-1.232,2.105-2.169,3.511-2.933c1.287-0.698,2.988-1.112,4.623-1.112C206.097,135.514,210.437,139.439,210.437,148.042z" style="fill:#FFFFFF;"/><path d="M168.676,150.506c0-4.568-2.05-8.025-6.029-8.025c-2.519,0-4.743,1.875-5.332,4.514    c-0.109,0.469-0.175,1.047-0.175,1.582v3.925c0,0.698,0.065,1.341,0.175,1.864c0.589,2.41,2.639,4.22,5.223,4.22    C166.397,158.586,168.676,155.37,168.676,150.506z M177.705,150.092c0,10.424-6.619,15.353-13.008,15.353    c-3.457,0-6.15-1.407-7.436-3.282h-0.121v14.229h-8.897v-30.629c0-3.75-0.12-6.967-0.24-9.606h7.73l0.415,3.98h0.12    c2.104-3.042,5.387-4.624,9.541-4.624C172.078,135.514,177.705,140.966,177.705,150.092z" style="fill:#FFFFFF;"/></g></g><g id="Layer_1"/></svg>