<?xml version="1.0" ?><!DOCTYPE svg  PUBLIC '-//W3C//DTD SVG 1.1//EN'  'http://www.w3.org/Graphics/SVG/1.1/DTD/svg11.dtd'><svg height="512px" style="enable-background:new 0 0 512 512;" version="1.1" viewBox="0 0 512 512" width="512px" xml:space="preserve" xmlns="http://www.w3.org/2000/svg" xmlns:xlink="http://www.w3.org/1999/xlink"><g id="_x34_0-bimobject"><g><path d="M282.285,226.019h-46.513c-29.674,0-45.281,6.571-45.281,36.655v19.508    c0,29.982,15.607,36.656,45.281,36.656h46.513c35.938,0,39.429-12.423,39.429-34.704V260.62    C321.714,238.341,318.223,225.814,282.285,226.019z" style="fill:#0099E5;"/><path d="M453.143,26.001H58.857c-18.07,0-32.855,14.786-32.855,32.857v394.283    c0,18.072,14.785,32.857,32.855,32.857h394.285c18.071,0,32.855-14.785,32.855-32.857V58.858    C485.998,40.787,471.214,26.001,453.143,26.001z M280.85,375.105h-17.354c-45.28,0-64.072-15.298-72.286-39.837h-0.924v35.73    h-65.714V132.786h65.714v76.701h1.129c4.724-31.316,40.764-39.84,71.567-39.84h17.763c94.875,0,106.581,33.987,106.581,84.71    v35.939h0.102C387.428,341.019,375.723,375.105,280.85,375.105z" style="fill:#0099E5;"/></g></g><g id="Layer_1"/></svg>