<?xml version="1.0" ?><!DOCTYPE svg  PUBLIC '-//W3C//DTD SVG 1.1//EN'  'http://www.w3.org/Graphics/SVG/1.1/DTD/svg11.dtd'><svg height="512px" style="enable-background:new 0 0 512 512;" version="1.1" viewBox="0 0 512 512" width="512px" xml:space="preserve" xmlns="http://www.w3.org/2000/svg" xmlns:xlink="http://www.w3.org/1999/xlink"><g id="_x35_4-CC"><path d="M313.498,83.036c-51.719,0-98.007,22.944-129.604,59.096c-4.712-0.494-9.313-1.446-14.141-1.446   c-79.378,0-143.752,64.549-143.752,144.142c0,79.59,64.374,144.137,143.752,144.137h143.745   c95.279,0,172.501-77.432,172.501-172.967C485.999,160.464,408.777,83.036,313.498,83.036z M169.754,400.143   c-63.422,0-115-51.719-115-115.314c0-63.593,51.578-115.313,115-115.313c12.878,0,25.526,2.222,37.661,6.634   c6.638,1.816,14.518,5.417,22.54,10.437c0.255,0.139,0.517,0.287,0.749,0.43l90.444,56.76c6.696,4.236,8.737,13.119,4.54,19.863   c-4.196,6.779-13.054,8.82-19.808,4.615l-89.786-56.361c-0.285-0.176-0.575-0.314-0.833-0.493   c-5.891-3.742-11.471-6.364-16.587-7.811c-60.063-21.473-115.176,24.017-115.176,81.239c0,47.678,38.696,86.48,86.254,86.48   c4.855,0,9.654-0.52,14.341-1.295c7.274,8.387,15.38,16.084,24.697,23.148C196.431,397.631,183.296,400.143,169.754,400.143z    M313.496,400.139c-31.106,0-60.72-9.861-85.643-28.512c-9.717-7.18-17.857-14.846-24.812-23.438   c-0.261-0.26-0.52-0.547-0.745-0.834l-43.676-53.389c-5.028-6.17-4.138-15.252,2.017-20.299c6.117-5.068,15.177-4.148,20.237,2.02   l42.836,52.35c0.373,0.373,0.692,0.754,1.006,1.158c5.523,6.971,12.134,13.287,20.24,19.283   c20.012,14.961,43.701,22.832,68.541,22.832c63.422,0,114.998-51.715,114.998-115.31c0-63.592-51.576-115.313-114.998-115.313   c-24.924,0-48.266,7.901-67.475,21.969l-0.085-0.059c-0.462-0.286-0.922-0.575-1.384-0.836   c-9.082-5.621-18.196-9.774-27.225-12.625c25.906-23.693,59.659-37.272,96.168-37.272c79.263,0,143.752,64.66,143.749,144.134   C457.247,335.48,392.759,400.139,313.496,400.139z" style="fill:#D30000;"/></g><g id="Layer_1"/></svg>