<?xml version="1.0" ?><!DOCTYPE svg  PUBLIC '-//W3C//DTD SVG 1.1//EN'  'http://www.w3.org/Graphics/SVG/1.1/DTD/svg11.dtd'><svg height="512px" style="enable-background:new 0 0 512 512;" version="1.1" viewBox="0 0 512 512" width="512px" xml:space="preserve" xmlns="http://www.w3.org/2000/svg" xmlns:xlink="http://www.w3.org/1999/xlink"><g id="_x32_9_x2C__PSD_x2C__File_Type_x2C__Photoshop"><g><path d="M235.788,279.062c13.565,0,21.229,8.199,21.229,21.927c0,15.287-8.919,24.369-23.367,24.369    c-3.925,0-6.782-0.228-9.093-0.893v-44.073C226.509,279.727,230.26,279.062,235.788,279.062z" style="fill:#4FC7EC;"/><polygon points="367.309,53.245 426.374,112.496 426.146,112.714 367.811,112.758 367.266,53.289   " style="fill:#242238;"/><path d="M125.65,94.625h183.182v105.766H125.65h-0.447H86.396V94.625h38.806H125.65z" style="fill:#242238;"/><path d="M426.593,112.714V458.81H125.65V200.391h183.182V94.625H125.65V53.191h241.616l0.043,0.054    l-0.043,0.043l0.545,59.469l58.335-0.044l0.229-0.218L426.593,112.714z M345.339,339.424l4.316-15.625    c-5.081-2.289-12.2-4.328-21.86-4.328c-20.206,0-32.407,11.188-32.407,25.798c0,12.463,9.279,20.335,23.521,25.297    c10.292,3.686,14.359,6.738,14.359,12.071c0,5.592-4.711,9.278-13.608,9.278c-8.254,0-16.257-2.671-21.469-5.343l-3.947,16.017    c4.83,2.673,14.491,5.214,24.283,5.214c23.508,0,34.564-12.203,34.564-26.563c0-12.069-7.12-19.952-22.244-25.547    c-11.057-4.197-15.886-6.607-15.886-12.07c0-4.449,4.066-8.266,12.451-8.266C335.809,335.356,341.903,337.778,345.339,339.424z     M272.894,335.543c7.142-8.418,11.067-20.827,11.067-35.438c0-14.622-5.18-27.02-12.845-34.554    c-8.036-7.971-19.986-11.961-36.756-11.961c-16.584,0-28.361,1.33-36.746,3.097v147.299h26.943v-53.386    c2.497,0.447,5.703,0.665,9.268,0.665C249.887,351.266,263.614,346.393,272.894,335.543z" style="fill:#4FC7EC;"/><g><g><path d="M330.847,355.692c-11.057-4.197-15.886-6.607-15.886-12.07c0-4.449,4.066-8.266,12.451-8.266      c8.396,0,14.491,2.422,17.927,4.067l4.316-15.625c-5.081-2.289-12.2-4.328-21.86-4.328c-20.206,0-32.407,11.188-32.407,25.798      c0,12.463,9.279,20.335,23.521,25.297c10.292,3.686,14.359,6.738,14.359,12.071c0,5.592-4.711,9.278-13.608,9.278      c-8.254,0-16.257-2.671-21.469-5.343l-3.947,16.017c4.83,2.673,14.491,5.214,24.283,5.214c23.508,0,34.564-12.203,34.564-26.563      C353.091,369.17,345.971,361.287,330.847,355.692z" style="fill:#242238;"/><path d="M234.053,253.59c-16.585,0-28.053,1.33-37.053,3.097V404h27v-53.399      c3,0.447,5.981,0.665,9.547,0.665c16.062,0,29.929-4.873,39.208-15.723c7.141-8.418,11.137-20.827,11.137-35.438      c0-14.622-5.298-27.02-12.963-34.554C262.894,257.581,250.823,253.59,234.053,253.59z M233.372,325.357      c-3.925,0-6.372-0.228-9.372-0.893v-44.073c1-0.665,5.981-1.33,11.51-1.33c13.564,0,21.229,8.199,21.229,21.927      C256.739,316.275,247.819,325.357,233.372,325.357z" style="fill:#242238;"/></g></g><g><path d="M247.183,129.397c-4.394-3.315-9.8-4.874-18.457-4.874c-5.201,0-10.726,0.338-13.726,0.949v44.749     c2,0.338,6.158,0.676,11.501,0.676c8.92,0,16.114-1.897,20.912-5.877c4.394-3.718,7.517-9.737,7.517-18.46     C254.93,138.512,251.915,132.908,247.183,129.397z M228.052,162.849c-1.287,0-3.052,0-4.052-0.196v-29.811     c1-0.207,2.841-0.403,5.131-0.403c8.854,0,14.403,5.004,14.328,14.458C243.459,157.779,237.385,162.915,228.052,162.849z" style="fill:#4FC7EC;"/><path d="M195.793,143.387c-5.877-2.236-8.439-3.511-8.439-6.422c0-2.366,2.159-4.395,6.619-4.395     c4.459,0,7.709,1.287,9.53,2.17l2.3-8.319c-2.704-1.211-6.487-2.301-11.623-2.301c-10.75,0-17.239,5.954-17.239,13.717     c0,6.629,4.939,10.816,12.506,13.456c5.474,1.962,7.633,3.576,7.633,6.422c0,2.977-2.497,4.939-7.229,4.939     c-4.394,0-8.658-1.428-11.427-2.846l-2.093,8.516c2.573,1.417,7.708,2.77,12.91,2.77c12.507,0,18.384-6.488,18.384-14.12     C207.625,150.55,203.84,146.363,195.793,143.387z" style="fill:#4FC7EC;"/><path d="M166.648,128.176c-3.042-2.432-7.967-3.653-14.324-3.653c-6.28,0-10.324,0.414-14.324,0.949V171     h10v-16.874c1,0.142,2.673,0.207,4.024,0.207c6.074,0,11.537-1.483,15.048-4.797c2.704-2.573,4.313-6.357,4.313-10.816     S169.559,130.476,166.648,128.176z M151.948,146.428c-1.482,0-2.948-0.065-3.948-0.272v-13.444c1-0.207,2.673-0.415,4.767-0.415     c5.136,0,8.036,2.508,8.036,6.695C160.803,143.659,157.422,146.428,151.948,146.428z" style="fill:#4FC7EC;"/></g></g></g><g id="Layer_1"/></svg>