<?xml version="1.0" ?><!DOCTYPE svg  PUBLIC '-//W3C//DTD SVG 1.1//EN'  'http://www.w3.org/Graphics/SVG/1.1/DTD/svg11.dtd'><svg height="512px" style="enable-background:new 0 0 512 512;" version="1.1" viewBox="0 0 512 512" width="512px" xml:space="preserve" xmlns="http://www.w3.org/2000/svg" xmlns:xlink="http://www.w3.org/1999/xlink"><g id="_x38_2-deploydog"><g><path d="M369.383,148.188h46.449v215.263h-46.449v-18.596c-17.79,22.279-47.438,21.652-66.305,13.205    c-23.539-10.51-39.801-34.229-39.801-64.508c0-26.771,13.296-52.018,38.902-63.607c18.146-8.177,47.347-9.524,67.203,11.589    V148.188z M311.255,293.553c0,16.352,12.218,30.098,29.828,30.098c17.788,0,29.827-14.732,29.827-29.557    c0-15.363-12.309-29.828-29.827-29.828C323.473,264.266,311.255,279,311.255,293.553z M195.355,148.188h46.449v215.263h-46.449    v-18.596c-17.788,22.279-47.438,21.652-66.304,13.205c-23.539-10.51-39.801-34.229-39.801-64.508    c0-26.771,13.297-52.018,38.902-63.607c18.147-8.177,47.347-9.524,67.202,11.589V148.188z M137.228,293.553    c0,16.352,12.218,30.098,29.827,30.098c17.789,0,29.829-14.732,29.829-29.557c0-15.363-12.31-29.828-29.829-29.828    C149.355,264.266,137.228,279,137.228,293.553z M428.5,112.25c15.723,0,28.75,12.938,28.75,28.75v230    c0,15.723-12.938,28.75-28.75,28.75H83.501c-15.723,0-28.75-12.939-28.75-28.75V141c0-15.723,12.938-28.75,28.75-28.75H428.5     M428.5,83.5H83.501c-31.625,0-57.5,25.875-57.5,57.5v230c0,31.623,25.875,57.5,57.5,57.5H428.5    c31.624,0,57.499-25.877,57.499-57.5V141C485.999,109.375,460.124,83.5,428.5,83.5z"/></g></g><g id="Layer_1"/></svg>