<?xml version="1.0" ?><!DOCTYPE svg  PUBLIC '-//W3C//DTD SVG 1.1//EN'  'http://www.w3.org/Graphics/SVG/1.1/DTD/svg11.dtd'><svg height="512px" style="enable-background:new 0 0 512 512;" version="1.1" viewBox="0 0 512 512" width="512px" xml:space="preserve" xmlns="http://www.w3.org/2000/svg" xmlns:xlink="http://www.w3.org/1999/xlink"><g id="_x37_3-creative-commons-sampling-plus"><g><path d="M255.628,26.001c131.509,0,230.371,102.109,230.371,229.999c0,136.422-109.898,229.999-230.371,229.999    C131.354,485.999,26.001,384.447,26.001,256C26.001,132.747,123.102,26.001,255.628,26.001z M256.371,67.457    c-109.62,0-188.914,90.795-188.914,188.543c0,101.829,84.579,188.08,188.914,188.08c95.709,0,188.081-75.213,188.081-188.08    C444.545,150.461,360.797,67.457,256.371,67.457L256.371,67.457z M355.604,258.133c-4.358,0-8.347,2.597-9.923,6.678l-3.709,8.811    l-10.202-86.064c-1.577-12.892-20.403-12.427-21.425,0.371l-3.987,47.67l-4.822-63.808c-1.02-13.261-20.496-13.168-21.517,0    l-3.246,41.643l-5.47-87.456c-0.837-13.448-20.683-13.354-21.518,0l-4.729,77.624l-3.989-61.486    c-0.834-13.355-20.587-13.355-21.515,0l-4.916,74.379l-3.802-52.863c-1.02-13.263-20.403-13.263-21.516-0.185l-7.142,83.281    l-1.67-11.315c-1.576-10.572-15.858-12.612-20.402-3.061l-12.244,25.69h-40.712v21.517h47.576c4.082,0,7.791-2.32,9.646-5.937    l9.922,67.793c1.855,12.521,20.31,12.057,21.423-0.647l3.523-40.438l5.287,72.617c1.02,13.355,20.682,13.171,21.516-0.091    l4.266-65.292l4.452,67.98c0.835,13.354,20.681,13.354,21.516-0.091l4.544-74.657l4.175,66.587    c0.835,13.264,20.496,13.446,21.516,0.187l4.267-54.347l4.544,59.724c1.02,13.264,20.403,13.171,21.424,0.093l6.307-76.974    l2.504,20.681c1.298,10.944,16.416,13.075,20.681,2.875l16.693-40.25h46.834v-21.517L355.604,258.133L355.604,258.133z     M283.266,262.954h-20.311v20.313c0,3.801-3.06,6.954-6.955,6.954c-3.803,0-6.957-3.06-6.957-6.954v-20.313h-20.31    c-3.802,0-6.956-3.06-6.956-6.954c0-3.801,3.154-6.956,6.956-6.956h20.31v-20.309c0-3.804,3.154-6.957,6.957-6.957    c3.802,0,6.955,3.061,6.955,6.957v20.309h20.311c3.803,0,6.956,3.061,6.956,6.956    C290.222,259.804,287.068,262.954,283.266,262.954z"/></g></g><g id="Layer_1"/></svg>