<?xml version="1.0" ?><!DOCTYPE svg  PUBLIC '-//W3C//DTD SVG 1.1//EN'  'http://www.w3.org/Graphics/SVG/1.1/DTD/svg11.dtd'><svg height="512px" style="enable-background:new 0 0 512 512;" version="1.1" viewBox="0 0 512 512" width="512px" xml:space="preserve" xmlns="http://www.w3.org/2000/svg" xmlns:xlink="http://www.w3.org/1999/xlink"><g id="_x31_3_x2C__Fuse_x2C__Adobe"><g><rect height="510.578" style="fill:#FF9100;" width="510.576" x="1.207" y="0.711"/><rect height="465.646" style="fill:#140C00;" width="465.646" x="23.669" y="23.179"/><g><g><g><g id="XMLID_221_"><g><path d="M172.088,351.442c0,2.11-0.605,2.813-2.417,2.813h-32.329         c-1.206,0-1.812-1.052-1.812-2.813V123.602c0-2.107,0.303-2.458,2.114-2.458h116.317c1.815,0,2.417,0.352,2.723,2.458         l2.718,28.453c0.303,2.107-0.302,3.159-2.116,3.159h-85.199v66.744h76.441c1.811,0,2.416,0.701,2.416,2.457v29.159         c0,1.753-0.908,2.458-2.416,2.458h-76.441V351.442z" id="XMLID_222_" style="fill:#FF9100;"/></g></g><g id="XMLID_218_"><g><path d="M336.709,211.769c-14.544,0-18.4,9.101-18.4,15.774         c0,8.429,3.856,12.998,26.123,23.534c30.572,14.75,43.641,27.748,43.641,53.045c0,35.124-22.86,55.11-55.518,55.11         c-15.734,0-35.584-1.499-48.054-10.636c-1.189-0.699-1.782-1.752-1.782-3.512v-32.313c0-1.755,1.189-2.463,2.076-1.755         c15.44,11.592,32.656,14.882,48.092,14.882c13.659,0,18.406-9.104,18.406-16.83c0-9.132-3.299-14.399-24.674-24.589         c-30.577-14.754-43.308-27.433-43.308-53.075c0-28.453,21.338-51.956,56.368-51.956c18.108,0,30.876,0.481,39.186,6.103         c1.483,1.405,1.783,2.459,1.783,4.567v28.805c0,2.107-1.189,3.161-2.673,2.107         C367.287,214.008,352.149,211.769,336.709,211.769z" id="XMLID_219_" style="fill:#FF9100;"/></g></g></g></g></g></g></g><g id="Layer_1"/></svg>