<?xml version="1.0" ?><!DOCTYPE svg  PUBLIC '-//W3C//DTD SVG 1.1//EN'  'http://www.w3.org/Graphics/SVG/1.1/DTD/svg11.dtd'><svg height="512px" style="enable-background:new 0 0 512 512;" version="1.1" viewBox="0 0 512 512" width="512px" xml:space="preserve" xmlns="http://www.w3.org/2000/svg" xmlns:xlink="http://www.w3.org/1999/xlink"><g id="_x33_4_x2C__Ai_x2C__Illustrator_x2C__Adobe"><g><polygon points="367.309,53.245 426.374,112.496 426.146,112.714 367.811,112.758 367.266,53.289   " style="fill:#FE7903;"/><path d="M426.593,112.714V458.81H125.65V200.391h183.182V94.625H125.65V53.191h241.616l0.043,0.054    l-0.043,0.043l0.545,59.469l58.335-0.044l0.229-0.218L426.593,112.714z" style="fill:#261003;"/><path d="M125.65,94.625h183.182v105.766H125.65h-0.447H86.396V94.625h38.806H125.65z" style="fill:#FE7903;"/><rect height="46.886" style="fill:#261003;" width="10.642" x="216.053" y="124.163"/><path d="M193.209,151.095l-2.922-9.955c-0.829-2.781-1.668-6.259-2.355-9.04h-0.142    c-0.698,2.78-1.396,6.324-2.16,9.04l-2.78,9.955H193.209z M195.227,124.163l14.545,46.886h-11.405l-3.62-12.026h-13.423    l-3.347,12.026h-10.991l14.338-46.886H195.227z" style="fill:#261003;"/><rect height="117.128" style="fill:#FE7903;" width="26.594" x="323.346" y="293.53"/><path d="M271.323,256.098l36.321,154.56h-28.504l-9.038-39.679h-33.54l-8.342,39.679h-27.456l35.797-154.56    H271.323z M266.287,344.833l-7.308-32.787c-2.082-9.171-4.175-20.63-5.909-29.8h-0.338c-1.744,9.17-3.489,20.858-5.397,29.8    l-6.946,32.787H266.287z" style="fill:#FE7903;"/></g></g><g id="Layer_1"/></svg>