<?xml version="1.0" ?><!DOCTYPE svg  PUBLIC '-//W3C//DTD SVG 1.1//EN'  'http://www.w3.org/Graphics/SVG/1.1/DTD/svg11.dtd'><svg height="512px" style="enable-background:new 0 0 512 512;" version="1.1" viewBox="0 0 512 512" width="512px" xml:space="preserve" xmlns="http://www.w3.org/2000/svg" xmlns:xlink="http://www.w3.org/1999/xlink"><g id="_x39_9-dribbble"><g><path d="M256,26.001c-126.823,0-230,103.178-230,229.999c0,126.822,103.177,229.999,230,229.999    c126.822,0,229.999-103.177,229.999-229.999C485.999,129.179,382.822,26.001,256,26.001z M408.067,132.066    c27.363,33.43,43.933,76.009,44.363,122.377c-6.476-1.37-71.427-14.544-136.795-6.323c-5.335-13.021-10.37-24.478-17.267-38.593    C371.007,179.87,403.926,137.669,408.067,132.066L408.067,132.066z M386.229,109.349c-3.534,5.032-33.107,44.781-102.964,70.964    c-32.192-59.146-67.873-107.735-73.303-115.007C272.263,50.288,337.915,66.483,386.229,109.349z M172.477,78.512    c5.179,7.104,40.286,55.752,72.837,113.617c-91.896,24.402-172.833,24.052-181.62,23.935    C76.433,155.102,117.516,104.436,172.477,78.512z M59.546,256.299c0-2.008,0.04-4.008,0.099-6.002    c8.596,0.176,103.797,1.403,201.904-27.958c5.625,11.007,10.996,22.179,15.928,33.34    c-71.039,20.009-135.583,77.464-167.427,131.976C78.672,352.826,59.546,306.758,59.546,256.299z M135.414,411.283    c20.521-41.95,76.213-96.102,155.416-123.122c27.58,71.677,38.986,131.745,41.908,148.98    C269.57,464.047,193.612,456.668,135.414,411.283z M365.767,419.156c-2.014-11.951-12.471-69.461-38.166-140.071    c61.563-9.855,115.65,6.277,122.37,8.397C441.215,342.146,409.839,389.354,365.767,419.156z" style="fill:#E84C88;"/></g></g><g id="Layer_1"/></svg>