<?xml version="1.0" ?><!DOCTYPE svg  PUBLIC '-//W3C//DTD SVG 1.1//EN'  'http://www.w3.org/Graphics/SVG/1.1/DTD/svg11.dtd'><svg height="512px" style="enable-background:new 0 0 512 512;" version="1.1" viewBox="0 0 512 512" width="512px" xml:space="preserve" xmlns="http://www.w3.org/2000/svg" xmlns:xlink="http://www.w3.org/1999/xlink"><g id="_x35__x2C__Digital_Editions_x2C__Adobe"><g><rect height="510.578" style="fill:#E8792A;" width="510.576" x="1.207" y="0.711"/><g><g><g id="XMLID_351_"><g id="XMLID_360_"><path d="M94.82,133.814c0-1.406,0.319-2.109,2.216-2.458        c18.99-0.703,42.727-1.058,63.298-1.058c71.527,0,107.606,45.314,107.606,112.759c0,100.114-70.893,118.027-113.935,118.027        c-22.471,0-38.93-0.35-56.969-0.7c-1.581,0-2.216-0.702-2.216-3.161V133.814z M133.12,327.365        c5.693,0.349,13.288,0.349,22.152,0.349c44.308,0,73.423-25.642,73.423-83.604c0-53.041-25.003-80.089-68.361-80.089        c-14.242,0-24.368,0.354-27.214,0.703V327.365z" id="XMLID_361_" style="fill:#F1D9D5;"/></g><g id="XMLID_352_"><path d="M323.389,283.394c0.635,26.695,15.508,45.663,47.474,45.663        c11.707,0,25.954-2.109,39.562-8.783c0.95-0.35,1.9,0,1.9,1.757v28.101c0,2.459-0.635,3.162-1.9,3.865        c-12.343,7.027-27.22,9.486-47.476,9.836c-57.6,0-78.489-43.559-78.489-87.818c0-50.233,26.903-89.926,74.377-89.926        c46.524,0,65.199,39.344,65.199,72.009c0,15.107-1.586,22.131-2.852,23.188c-3.797,1.756-15.823,2.109-33.232,2.109H323.389z         M374.029,256.341c11.706,0,13.607-1.402,13.922-2.809c0-0.703,0-2.458,0-3.865c0-10.534-6.328-33.368-30.7-33.368        c-20.571,0-31.331,17.562-33.862,40.042H374.029z" id="XMLID_353_" style="fill:#F1D9D5;"/></g></g></g></g></g></g><g id="Layer_1"/></svg>