<?xml version="1.0" ?><!DOCTYPE svg  PUBLIC '-//W3C//DTD SVG 1.1//EN'  'http://www.w3.org/Graphics/SVG/1.1/DTD/svg11.dtd'><svg height="512px" style="enable-background:new 0 0 512 512;" version="1.1" viewBox="0 0 512 512" width="512px" xml:space="preserve" xmlns="http://www.w3.org/2000/svg" xmlns:xlink="http://www.w3.org/1999/xlink"><g id="_x32_15-mendeley"><g><path d="M474.929,305.737c-8.839-8.912-21.345-13.798-34.786-12.361    c-31.121-0.719-35.72-25.082-26.951-71.009c16.388-41.327-10.709-94.512-62.816-94.009c-55.63,0.502-58.72,58.936-94.082,58.936    c-34.571,0-38.811-58.434-94.081-58.936c-52.396-0.575-79.131,52.683-62.816,94.009c8.768,45.927,4.168,70.29-26.953,71.009    c-15.237-1.651-26.592,4.674-38.092,16.171c-14.302,14.16-13.872,68.136,30.617,73.741c33.853,4.24,58.648-30.833,43.986-63.103    c-33.995-74.531,133.611-76.256,105.294-5.894c-0.073,0.071-0.145,0.142-0.216,0.288c-19.262,30.759,4.887,70.002,42.261,68.423    c37.447,1.508,61.378-37.807,42.26-68.423c-0.071-0.146-0.143-0.217-0.214-0.288c-28.318-70.362,139.288-68.638,105.293,5.894    c-3.308,7.186-4.816,15.309-4.098,23.718c3.522,38.379,49.376,53.256,75.394,25.3    C487.724,358.564,491.533,322.052,474.929,305.737L474.929,305.737z" style="fill:#A71925;"/><path d="M256.509,292.013h-0.432c-31.192,0-45.136-26.954-45.136-45.137    c0-24.94,20.267-45.135,45.136-45.135h0.432c24.94,0,45.135,20.195,45.135,45.135    C301.645,264.843,287.845,292.013,256.509,292.013z" style="fill:#FFFFFF;"/></g></g><g id="Layer_1"/></svg>