<?xml version="1.0" ?><!DOCTYPE svg  PUBLIC '-//W3C//DTD SVG 1.1//EN'  'http://www.w3.org/Graphics/SVG/1.1/DTD/svg11.dtd'><svg height="512px" style="enable-background:new 0 0 512 512;" version="1.1" viewBox="0 0 512 512" width="512px" xml:space="preserve" xmlns="http://www.w3.org/2000/svg" xmlns:xlink="http://www.w3.org/1999/xlink"><g id="_x32_10-medapps"><g><path d="M218.535,240.188c3.144-11.23,6.198-30.188,11.859-30.188c7.457,1.616,8.624,21.023,16.709,32.882    c4.134-21.113,4.763-76.457,12.669-77.894c8.086-0.63,17.698,59.746,19.766,69.629c8.895,3.683,43.934,5.93,43.934,5.93    c1.707,6.558-21.562,6.827-35.938,7.008c-4.133,13.295-4.851,24.886-10.241,25.156c-4.223,0.178-7.368-25.876-15.723-44.563    l-8.445,58.847c-3.955,11.681-13.927-20.213-19.677-35.307c-2.965-0.09-56.062-1.438-42.765-7.009L218.535,240.188    L218.535,240.188z" style="fill:#FF0D65;"/><path d="M317.093,428.499c19.047,0,19.047-28.748,0-28.748H194.905c-19.046,0-19.046,28.748,0,28.748    H317.093z" style="fill:#072E84;"/><path d="M295.53,485.999c19.047,0,19.047-28.749,0-28.749h-79.063c-19.046,0-19.046,28.749,0,28.749H295.53    z" style="fill:#072E84;"/><path d="M326.258,358.871c2.875-16.982,4.671-32.704,10.689-43.845    c7.099-13.205,14.466-25.246,21.563-36.835c22.103-36.297,41.24-67.563,41.24-112.753c0-76.906-64.509-139.438-143.75-139.438    c-79.243,0-143.75,62.531-143.75,139.438c0,45.101,19.137,76.456,41.237,112.753c7.099,11.589,14.374,23.63,21.563,36.835    c6.021,11.231,7.816,26.774,10.691,43.935c3.146,18.866,32.434,14.105,29.288-4.582c-3.232-19.495-5.029-36.565-13.745-52.648    c-29.289-54.266-59.387-85.891-59.387-136.292c0-61.005,51.211-110.688,114.103-110.688c62.89,0,114.101,49.683,114.101,110.688    c0,50.401-30.097,82.026-59.387,136.202c-8.715,16.173-10.512,33.601-13.746,52.647    C293.914,372.796,323.021,378.008,326.258,358.871L326.258,358.871z" style="fill:#072E84;"/></g></g><g id="Layer_1"/></svg>