<?xml version="1.0" ?><!DOCTYPE svg  PUBLIC '-//W3C//DTD SVG 1.1//EN'  'http://www.w3.org/Graphics/SVG/1.1/DTD/svg11.dtd'><svg height="512px" style="enable-background:new 0 0 512 512;" version="1.1" viewBox="0 0 512 512" width="512px" xml:space="preserve" xmlns="http://www.w3.org/2000/svg" xmlns:xlink="http://www.w3.org/1999/xlink"><g id="_x36_8-creative-commons-pd"><g><path d="M256,26.001c-127.057,0-230,103.035-230,229.999c0,127.057,102.943,229.999,230,229.999    c127.056,0,229.999-102.942,229.999-229.999C485.999,129.036,383.057,26.001,256,26.001z M256,442.874    c-129.097,0-218.685-127.981-176.396-248.454l73.081,32.553c-1.947,9.737-3.061,19.938-3.061,30.511    c0,91.815,68.537,117.689,111.662,117.689c21.237,0,49.616-6.213,73.637-27.358l-33.48-40.714    c-5.102,5.844-16.322,15.486-33.665,15.486c-35.057,0-49.803-37.002-49.988-66.679c213.677,95.151,200.785,89.494,202.085,89.772    C388.064,403.552,326.575,442.874,256,442.874L256,442.874z M436.104,303.764l-207.742-92.743    c17.435-31.531,50.915-28.473,69.279-10.202l37.467-38.58c-25.132-21.608-53.79-25.504-72.431-25.504    c-43.959,0-75.029,19.013-93.392,47.855l-69.464-30.976c33.48-50.916,90.981-84.581,156.271-84.581    c103.036,0,186.874,83.838,186.874,186.875c0,16.692-2.226,32.83-6.306,48.225C436.382,304.04,436.291,303.948,436.104,303.764    L436.104,303.764z"/></g></g><g id="Layer_1"/></svg>