<?xml version="1.0" ?><!DOCTYPE svg  PUBLIC '-//W3C//DTD SVG 1.1//EN'  'http://www.w3.org/Graphics/SVG/1.1/DTD/svg11.dtd'><svg height="512px" style="enable-background:new 0 0 512 512;" version="1.1" viewBox="0 0 512 512" width="512px" xml:space="preserve" xmlns="http://www.w3.org/2000/svg" xmlns:xlink="http://www.w3.org/1999/xlink"><g id="_x32_74-rebel"><g><g><path d="M256.458,485.999c-129.188,0-229.535-107.766-225.64-235.656     c2.597-73.45,40.064-141.152,108.043-185.854c0.279,0,1.764-0.557,1.021,0.742c-5.379,5.101-103.222,120.379-13.076,209.966     c46.186,45.908,83.468,2.319,83.468,2.319c35.705-46.465-0.557-116.762-0.557-116.762c-9.274-23.093-42.384-37.188-42.384-37.188     l26.71-29.492c22.629,9.737,40.064,35.891,40.064,35.891c0.742-27.452-20.311-56.943-20.311-56.943l41.363-47.021l41.085,46.464     c-19.013,26.71-20.312,58.057-20.312,58.057c12.798-21.331,40.343-36.447,40.343-36.447l26.432,29.492     c-25.411,8.254-42.104,37.003-42.104,37.003C285.95,187,275.471,243.48,301.16,278.629c30.047,41.363,81.335-2.598,81.335-2.598     c95.245-85.229-9.738-208.668-9.738-208.668c-5.657-5.101,0.742-2.597,0.742-2.597c46.462,33.852,106.281,78.273,107.766,189.936     C483.119,389.733,388.616,485.999,256.458,485.999z" style="fill:#D20003;"/></g></g></g><g id="Layer_1"/></svg>