<?xml version="1.0" ?><!DOCTYPE svg  PUBLIC '-//W3C//DTD SVG 1.1//EN'  'http://www.w3.org/Graphics/SVG/1.1/DTD/svg11.dtd'><svg height="512px" style="enable-background:new 0 0 512 512;" version="1.1" viewBox="0 0 512 512" width="512px" xml:space="preserve" xmlns="http://www.w3.org/2000/svg" xmlns:xlink="http://www.w3.org/1999/xlink"><g id="_x32_29-Neva"><g><g><path d="M447.912,83.4c-25.521,7.271-39.163,21.065-45.271,43.554     c-20.84,76.97-42.407,154.293-63.601,231.209c-2.882,10.184-6.107,20.367-10.077,34.484c-2.882-6.907-4.275-9.797-5.402-12.699     C284.041,277.237,244.145,174.85,205.716,71.79c-6.469-17.438-19.393-14.533-30.571-14.533     c-4.644-0.375-11.484,9.473-13.295,15.974c-31.988,113.592-63.223,227.598-94.513,341.921c-1.046,3.991-1.046,7.973-2.146,13.779     c24.068-7.577,38.453-21.36,44.557-43.549c20.494-75.132,40.959-150.642,61.469-225.786c3.22-11.936,7.202-23.945,11.836-39.525     c3.97,9.787,6.466,15.581,9.007,21.43c38.432,97.975,77.273,195.978,114.994,295.062c6.84,17.446,16.854,17.809,30.514,18.527     c15.116,0.695,13.315-11.959,15.475-19.946c29.816-109.283,59.262-218.494,89.146-327.789     C443.968,100.448,445.409,93.202,447.912,83.4z" style="fill:#007E0E;"/><path d="M158.272,56.882c-25.904,7.642-38.442,22.898-44.192,44.678     c-9.347,35.924-19.424,71.478-29.11,107.088c-19.781,71.817-39.184,143.708-58.969,215.605     c28.757,7.615,29.094,7.615,36.317-18.879c27.299-99.461,55.002-199.268,82.285-298.752     C148.937,91.019,153.235,75.414,158.272,56.882z" style="fill:#007E0E;"/><path d="M448.982,109.9c-22.265,81.3-44.579,162.96-66.85,244.293     c-8.609,31.547-17.226,63.484-26.582,98.688c23.37-6.864,35.558-20.294,41.009-39.892     c12.189-43.937,24.426-87.477,36.261-131.388c17.617-64.957,35.217-129.557,53.179-195.647     C456.189,83.055,456.189,83.055,448.982,109.9z" style="fill:#007E0E;"/></g></g></g><g id="Layer_1"/></svg>