<?xml version="1.0" ?><!DOCTYPE svg  PUBLIC '-//W3C//DTD SVG 1.1//EN'  'http://www.w3.org/Graphics/SVG/1.1/DTD/svg11.dtd'><svg height="512px" style="enable-background:new 0 0 512 512;" version="1.1" viewBox="0 0 512 512" width="512px" xml:space="preserve" xmlns="http://www.w3.org/2000/svg" xmlns:xlink="http://www.w3.org/1999/xlink"><g id="_x32_62-playstation"><g><path d="M483.355,346.422c-8.517,10.699-29.239,18.311-29.239,18.311l-154.56,55.464v-40.918    l113.716-36.753c12.886-4.599,14.921-11.154,4.37-14.621c-10.474-3.467-29.465-2.486-42.35,2.187l-75.736,22.963V310.55    c17.483-5.878,35.494-10.248,57.046-12.66c30.822-3.392,68.5,0.453,98.116,11.682C488.027,320.122,491.796,335.72,483.355,346.422    L483.355,346.422z" style="fill:#F3C202;"/><path d="M301.04,259.774v-89.269c0-12.282-2.261-23.586-13.791-26.827    c-8.817-2.864-14.315,5.351-14.315,17.633v262.171l-70.688-22.457V88.517c30.067,5.578,73.85,18.765,97.364,26.677    c59.909,20.573,80.18,46.195,80.18,103.843C379.789,275.178,345.125,281.026,301.04,259.774L301.04,259.774z" style="fill:#DE0029;"/><path d="M57.38,373.52c-34.213-9.645-39.939-29.764-24.34-41.295C47.433,321.525,72,313.461,72,313.461    l101.356-36.021v41.068l-72.947,26.076c-12.885,4.597-14.845,11.151-4.371,14.617c10.475,3.467,29.465,2.488,42.351-2.184    l34.966-12.735v36.773C134.472,388.064,96.943,386.557,57.38,373.52L57.38,373.52z" style="fill:#F3C202;"/></g></g><g id="Layer_1"/></svg>