<?xml version="1.0" ?><!DOCTYPE svg  PUBLIC '-//W3C//DTD SVG 1.1//EN'  'http://www.w3.org/Graphics/SVG/1.1/DTD/svg11.dtd'><svg height="512px" style="enable-background:new 0 0 512 512;" version="1.1" viewBox="0 0 512 512" width="512px" xml:space="preserve" xmlns="http://www.w3.org/2000/svg" xmlns:xlink="http://www.w3.org/1999/xlink"><g id="_x33_93-yelp"><g><g><path d="M122.278,241.91l89.501,43.671c17.25,8.446,14.555,33.701-4.042,38.374l-96.601,24.085     c-12.038,3.055-23.997-5.3-25.344-17.609c-3.055-26.423,0-52.477,8.086-76.653C97.841,242,111.228,236.519,122.278,241.91z      M161.818,456.858c21.292,14.555,45.648,24.535,71.353,28.849c12.22,2.067,23.54-7.097,23.908-19.495l3.503-99.563     c0.628-19.138-22.909-28.671-35.766-14.465l-66.673,74.047C149.868,435.466,151.575,449.852,161.818,456.858L161.818,456.858z      M292.386,358.103l52.837,84.471c6.56,10.511,20.935,12.847,30.555,4.94c20.126-16.621,36.216-37.383,47.357-60.741     c5.299-11.23-0.448-24.537-12.221-28.399l-94.711-30.734C297.956,321.799,282.234,341.833,292.386,358.103z M425.65,239.304     c-10.602-24.356-26.242-45.469-45.291-62.27c-9.253-8.175-23.628-6.289-30.555,3.954l-55.712,82.585     c-10.691,15.901,4.223,36.483,22.64,31.184l95.791-27.412C424.483,263.841,430.591,250.723,425.65,239.304L425.65,239.304z      M139.536,53.114c-10.781,5.121-14.822,18.418-8.894,28.758l93.544,162.104c10.512,18.149,38.282,10.692,38.282-10.242V46.555     c0.091-11.949-10.063-21.473-22.011-20.484C219.686,27.688,181.763,32.989,139.536,53.114z" style="fill:#D32323;"/></g></g></g><g id="Layer_1"/></svg>