<?xml version="1.0" ?><!DOCTYPE svg  PUBLIC '-//W3C//DTD SVG 1.1//EN'  'http://www.w3.org/Graphics/SVG/1.1/DTD/svg11.dtd'><svg height="512px" style="enable-background:new 0 0 512 512;" version="1.1" viewBox="0 0 512 512" width="512px" xml:space="preserve" xmlns="http://www.w3.org/2000/svg" xmlns:xlink="http://www.w3.org/1999/xlink"><g id="_x33_37-themeco"><g><path d="M236.738,29.98c9.032-5.231,23.734-5.314,32.821-0.195l174.476,98.261    c9.097,5.119,16.471,17.75,16.471,28.175v198.346c0,10.441-7.354,23.084-16.425,28.249l-174.558,99.362    c-9.07,5.167-23.725,5.084-32.729-0.194L67.799,383.013c-9.006-5.278-16.304-18.022-16.304-28.456V156.221    c0-10.444,7.327-23.149,16.351-28.371L236.738,29.98z" style="fill:#1F519D;"/><path d="M265.96,272.352c33.759-6.854,31.775-59.55-9.923-59.809c-14.69,0-29.372-0.131-44.062-0.131    v92.751h17.464v-30.958h16.813l26.987,30.958h20.774v-1.187L265.96,272.352z M229.447,258.459v-29.64h26.599    c21.313,0,21.237,29.64,0,29.64H229.447z" style="fill:#489FE9;"/><path d="M166.069,212.412c-14.551,0-29.112,0.131-43.663,0.131v92.62h17.463v-27.257h26.2    C211.456,277.906,211.317,212.412,166.069,212.412z M168.804,262.827h-29.502v-35.456l29.502-0.009    C188.141,227.362,188.076,262.827,168.804,262.827z" style="fill:#489FE9;"/><path d="M344.688,210.697c-62.506,0-64.789,96.589,0,96.589    C408.115,307.278,408.059,210.697,344.688,210.697z M344.688,291.271c-40.917,0-40.565-64.696,0-64.696    C384.968,226.574,385.588,291.271,344.688,291.271z" style="fill:#489FE9;"/></g></g><g id="Layer_1"/></svg>