<?xml version="1.0" ?><!DOCTYPE svg  PUBLIC '-//W3C//DTD SVG 1.1//EN'  'http://www.w3.org/Graphics/SVG/1.1/DTD/svg11.dtd'><svg height="512px" style="enable-background:new 0 0 512 512;" version="1.1" viewBox="0 0 512 512" width="512px" xml:space="preserve" xmlns="http://www.w3.org/2000/svg" xmlns:xlink="http://www.w3.org/1999/xlink"><g id="_x32_92-sellcast"><g><path d="M388.786,26.052h-265.57c-53.484,0-97.215,43.732-97.215,97.112v265.568    c0,53.483,43.73,97.216,97.215,97.216h265.57c53.483,0,97.213-43.732,97.213-97.113V123.164    C485.999,69.784,442.27,26.052,388.786,26.052L388.786,26.052z" style="fill:#F15B2F;"/><path d="M337.457,350.854c-28.641,49.479-92.286,66.622-141.869,38.188    c-23.509,40.857-56.357,8.829-43.424-13.55l16.118-27.925c6.057-10.571,19.709-14.269,30.282-8.109    c19.095,11.088-0.103-0.101,18.991,10.983c28.333,16.324,65.084,6.468,81.51-21.862c16.321-28.337,6.467-65.086-21.866-81.511    c-18.274-10.47-0.617-0.411-19.096-10.881c-25.253-14.577-3.489-53.278,22.175-38.495c19.094,11.087-0.103-0.103,18.992,10.984    C348.955,237.42,366.099,301.374,337.457,350.854L337.457,350.854z" style="fill:#FFFFFF;"/><path d="M359.837,136.509c-17.452,30.285-16.733,29.565-19.506,32.337    c-6.672,6.672-16.733,8.931-27.202,3.696c-19.095-11.087,0.102,0.102-18.992-10.985c-28.332-16.321-65.083-6.467-81.509,21.866    c-16.424,28.332-6.466,65.083,21.865,81.507c0,0,18.991,10.882,19.095,10.882c25.253,14.578,3.49,53.277-22.174,38.496    c-19.094-11.085,0.103,0.103-18.99-10.984c-49.481-28.537-66.624-92.492-38.085-142.074    c28.639-49.481,92.285-66.624,141.868-38.188l4.928-8.623C335.814,88.878,374.516,111.051,359.837,136.509L359.837,136.509z" style="fill:#FFFFFF;"/></g></g><g id="Layer_1"/></svg>