<?xml version="1.0" ?><!DOCTYPE svg  PUBLIC '-//W3C//DTD SVG 1.1//EN'  'http://www.w3.org/Graphics/SVG/1.1/DTD/svg11.dtd'><svg height="512px" style="enable-background:new 0 0 512 512;" version="1.1" viewBox="0 0 512 512" width="512px" xml:space="preserve" xmlns="http://www.w3.org/2000/svg" xmlns:xlink="http://www.w3.org/1999/xlink"><g id="_x33_84-wpexplorer"><g><path d="M485.999,256c0,126.86-103.051,229.999-229.998,229.999c-126.86,0-230-103.05-230-229.999    c0-126.948,103.052-229.999,230-229.999C382.948,26.001,485.999,129.052,485.999,256z" style="fill:#1796C6;"/><path d="M457.249,256c0-110.688-90.113-201.249-201.248-201.249C145.044,54.751,54.752,145.044,54.752,256    c0,110.957,90.292,201.25,201.249,201.25S457.249,366.957,457.249,256z" style="fill:#FFFFFF;"/><g><g><g><rect height="84.891" style="fill:#1796C6;" transform="matrix(0.9197 0.3926 -0.3926 0.9197 91.5297 -60.2012)" width="84.891" x="150.485" y="151.204"/></g><g><polygon points="284.212,296.251 289.602,283.403 227.969,257.258 222.579,269.837 242.612,278.282        196.703,374.323 209.281,374.323 253.215,284.479 298.137,374.323 311.255,374.323 269.386,289.872      " style="fill:#1796C6;"/></g><g><polygon points="294.004,273.161 320.418,211.797 258.785,185.383 232.641,247.016      " style="fill:#1796C6;"/></g><g><polygon points="330.93,223.926 310.177,272.712 358.96,293.466 379.984,244.68      " style="fill:#1796C6;"/></g></g></g></g></g><g id="Layer_1"/></svg>