<?xml version="1.0" ?><!DOCTYPE svg  PUBLIC '-//W3C//DTD SVG 1.1//EN'  'http://www.w3.org/Graphics/SVG/1.1/DTD/svg11.dtd'><svg height="512px" style="enable-background:new 0 0 512 512;" version="1.1" viewBox="0 0 512 512" width="512px" xml:space="preserve" xmlns="http://www.w3.org/2000/svg" xmlns:xlink="http://www.w3.org/1999/xlink"><g id="_x32_51-pepsi"><path d="M421.709,78.442c4.645,15.119,7.057,31.105,7.057,47.661c0,53.334-26.152,100.22-65.891,129.691   C293.605,306.913,192.678,307,53.39,350.984c41.976,50.511,105.145,82.573,175.847,82.573   c126.671,0,229.373-102.927,229.373-229.939C458.609,157.5,444.998,114.52,421.709,78.442z" style="fill:#0268AA;"/><path d="M439.429,128.267c-38.302-28.838-85.956-45.943-137.594-45.943   c-126.674,0-229.264,102.98-229.264,230.083c0,50.944,14.023,80.068,37.304,117.271   C266.395,387.01,393.356,282.448,439.429,128.267z" style="fill:#EC3841;"/></g><g id="Layer_1"/></svg>