<?xml version="1.0" ?><!DOCTYPE svg  PUBLIC '-//W3C//DTD SVG 1.1//EN'  'http://www.w3.org/Graphics/SVG/1.1/DTD/svg11.dtd'><svg height="512px" style="enable-background:new 0 0 512 512;" version="1.1" viewBox="0 0 512 512" width="512px" xml:space="preserve" xmlns="http://www.w3.org/2000/svg" xmlns:xlink="http://www.w3.org/1999/xlink"><g id="_x32_69-quinscape"><g><path d="M308.91,455.732h-0.928c-80.962,0-146.625-65.662-146.625-146.623    c0-80.964,65.663-146.626,146.625-146.626c88.012,0,155.992,77.069,145.604,163.784c3.711,4.727,7.605,8.901,10.389,14.188    c12.426-28.102,18.824-57.87,18.824-90.608c0-125.293-101.551-226.846-226.844-226.846    c-125.201,0-226.753,101.553-226.753,226.846c0,125.294,101.552,226.847,226.753,226.847c23,0,44.329-2.968,65.29-9.367    C316.424,464.078,312.99,459.812,308.91,455.732z" style="fill:#0078B9;"/><path d="M308.816,455.641C308.816,455.641,308.91,455.732,308.816,455.641l0.371,0.092L308.816,455.641z"/><path d="M381.527,292.999c-54.139,0-98,43.865-98,98.001s43.861,97.999,98,97.999    c54.137,0,97.998-43.863,97.998-97.999S435.664,292.999,381.527,292.999L381.527,292.999z" style="fill:#E3382A;"/></g></g><g id="Layer_1"/></svg>