<?xml version="1.0" ?><!DOCTYPE svg  PUBLIC '-//W3C//DTD SVG 1.1//EN'  'http://www.w3.org/Graphics/SVG/1.1/DTD/svg11.dtd'><svg height="512px" style="enable-background:new 0 0 512 512;" version="1.1" viewBox="0 0 512 512" width="512px" xml:space="preserve" xmlns="http://www.w3.org/2000/svg" xmlns:xlink="http://www.w3.org/1999/xlink"><g id="_x32_34-nutritionix"><g><path d="M152.137,26.124c0,0,123.708-7.605,112.21,96.815c0,0,17.713-69.459,95.517-37.651    c0,0-16.413,68.625-81.606,51.932c0,0,13.538-50.634,61.297-52.488c0,0-37-9.552-76.134,45.256c0,0-18.363-87.636-86.802-92.458    c0,0,69.737,17.99,71.963,99.689C248.581,137.313,149.911,143.712,152.137,26.124z" style="fill:#6AB316;"/><path d="M441.471,318.796c0,44.977-8.995,88.378-29.674,122.688    c-39.136,28.655-97.373,44.515-155.796,44.515c-58.333,0-116.663-15.859-155.795-44.515    c-20.682-34.311-29.677-77.712-29.677-122.688c0-44.884,16.415-87.82,37.095-122.132c39.134-28.655,90.044-45.07,148.377-45.07    c58.423,0,109.241,16.322,148.376,45.07C425.056,230.976,441.471,273.912,441.471,318.796z" style="fill:#6AB316;"/><path d="M181.812,415.521c0-14.376-11.592-25.967-25.966-25.967c-14.374,0-25.965,11.591-25.965,25.967    c0,14.373,11.592,25.964,25.965,25.964C170.22,441.484,181.812,429.894,181.812,415.521z" style="fill:#FFFFFF;"/><path d="M181.812,354.129c0-14.374-11.592-25.968-25.966-25.968c-14.374,0-25.965,11.594-25.965,25.968    c0,14.373,11.592,25.966,25.965,25.966C170.22,380.095,181.812,368.502,181.812,354.129z" style="fill:#FFFFFF;"/><path d="M181.812,292.738c0-14.376-11.592-25.966-25.966-25.966c-14.374,0-25.965,11.59-25.965,25.966    c0,14.373,11.592,25.966,25.965,25.966C170.22,318.704,181.812,307.111,181.812,292.738z" style="fill:#FFFFFF;"/><path d="M248.581,415.521c0-14.376-11.592-25.967-25.965-25.967c-14.374,0-25.967,11.591-25.967,25.967    c0,14.373,11.593,25.964,25.967,25.964C236.989,441.484,248.581,429.894,248.581,415.521z" style="fill:#FFFFFF;"/><path d="M248.581,354.129c0-14.374-11.592-25.968-25.965-25.968c-14.374,0-25.967,11.594-25.967,25.968    c0,14.373,11.593,25.966,25.967,25.966C236.989,380.095,248.581,368.502,248.581,354.129z" style="fill:#FFFFFF;"/><path d="M248.581,292.738c0-14.376-11.592-25.966-25.965-25.966c-14.374,0-25.967,11.59-25.967,25.966    c0,14.373,11.593,25.966,25.967,25.966C236.989,318.704,248.581,307.111,248.581,292.738z" style="fill:#FFFFFF;"/><path d="M315.351,415.521c0-14.376-11.592-25.967-25.966-25.967c-14.373,0-25.965,11.591-25.965,25.967    c0,14.373,11.592,25.964,25.965,25.964C303.759,441.484,315.351,429.894,315.351,415.521z" style="fill:#FFFFFF;"/><path d="M315.351,354.129c0-14.374-11.592-25.968-25.966-25.968c-14.373,0-25.965,11.594-25.965,25.968    c0,14.373,11.592,25.966,25.965,25.966C303.759,380.095,315.351,368.502,315.351,354.129z" style="fill:#FFFFFF;"/><path d="M315.351,292.738c0-14.376-11.592-25.966-25.966-25.966c-14.373,0-25.965,11.59-25.965,25.966    c0,14.373,11.592,25.966,25.965,25.966C303.759,318.704,315.351,307.111,315.351,292.738z" style="fill:#FFFFFF;"/><path d="M382.12,415.521c0-14.376-11.591-25.967-25.967-25.967c-14.373,0-25.965,11.591-25.965,25.967    c0,14.373,11.592,25.964,25.965,25.964C370.529,441.484,382.12,429.894,382.12,415.521z" style="fill:#FFFFFF;"/><path d="M382.12,354.129c0-14.374-11.591-25.968-25.967-25.968c-14.373,0-25.965,11.594-25.965,25.968    c0,14.373,11.592,25.966,25.965,25.966C370.529,380.095,382.12,368.502,382.12,354.129z" style="fill:#FFFFFF;"/><path d="M382.12,292.738c0-14.376-11.591-25.966-25.967-25.966c-14.373,0-25.965,11.59-25.965,25.966    c0,14.373,11.592,25.966,25.965,25.966C370.529,318.704,382.12,307.111,382.12,292.738z" style="fill:#FFFFFF;"/><path d="M404.377,256.014c-4.451-20.68-6.863-34.22-14.837-51.931    c-35.983-18.455-83.926-29.677-133.539-29.677c-49.614,0-97.558,11.222-133.541,29.677c-8.16,18.083-10.386,31.437-14.836,51.931    c39.134-7.326,91.529-13.725,148.377-13.725C312.847,242.289,365.242,248.688,404.377,256.014L404.377,256.014z" style="fill:#FFFFFF;"/></g></g><g id="Layer_1"/></svg>