<?xml version="1.0" ?><!DOCTYPE svg  PUBLIC '-//W3C//DTD SVG 1.1//EN'  'http://www.w3.org/Graphics/SVG/1.1/DTD/svg11.dtd'><svg height="512px" style="enable-background:new 0 0 512 512;" version="1.1" viewBox="0 0 512 512" width="512px" xml:space="preserve" xmlns="http://www.w3.org/2000/svg" xmlns:xlink="http://www.w3.org/1999/xlink"><g id="_x33_11-soundcloud_x2C__sound_x2C__music"><g><g><path d="M414.125,241.589c-5.121,0-10.148,0.545-14.978,1.581     c-6.466-65.524-61.753-116.895-128.772-116.895c-7.934,0-14.372,6.461-14.372,14.414V371.31c0,7.953,6.438,14.416,14.372,14.416     h143.75c39.646,0,71.874-32.319,71.874-72.068C486,273.931,453.771,241.589,414.125,241.589z" style="fill:#F7620E;"/><path d="M212.871,155.101c-7.93,0-14.368,6.457-14.368,14.414V371.31c0,7.953,6.439,14.416,14.368,14.416     c7.939,0,14.378-6.463,14.378-14.416V169.515C227.249,161.558,220.811,155.101,212.871,155.101z" style="fill:#F7620E;"/><path d="M155.373,212.758c-7.933,0-14.372,6.457-14.372,14.413V371.31c0,7.953,6.439,14.416,14.372,14.416     c7.935,0,14.379-6.463,14.379-14.416V227.17C169.752,219.214,163.308,212.758,155.373,212.758z" style="fill:#F7620E;"/><path d="M97.876,212.758c-7.935,0-14.379,6.457-14.379,14.413V371.31c0,7.953,6.444,14.416,14.379,14.416     c7.934,0,14.373-6.463,14.373-14.416V227.17C112.25,219.214,105.812,212.758,97.876,212.758z" style="fill:#F7620E;"/><path d="M40.379,256c-7.939,0-14.378,6.458-14.378,14.414v86.479c0,7.958,6.438,14.417,14.378,14.417     c7.933,0,14.374-6.459,14.374-14.417v-86.479C54.753,262.458,48.312,256,40.379,256z" style="fill:#F7620E;"/></g></g></g><g id="Layer_1"/></svg>