<?xml version="1.0" ?><!DOCTYPE svg  PUBLIC '-//W3C//DTD SVG 1.1//EN'  'http://www.w3.org/Graphics/SVG/1.1/DTD/svg11.dtd'><svg height="512px" style="enable-background:new 0 0 512 512;" version="1.1" viewBox="0 0 512 512" width="512px" xml:space="preserve" xmlns="http://www.w3.org/2000/svg" xmlns:xlink="http://www.w3.org/1999/xlink"><g id="_x32_28-Netko"><g><path d="M251.491,316.632c-0.375,28.371-22.431,50.99-50.852,52.072    c-27.036,1.065-53.373-22.284-56.207-49.919c-0.365-4.664,0-9.729,0-14.709c0-39.512-12.435-52.092-51.549-52.442    c-33.441-0.359-50.831-11.122-60.441-36.295c-8.546-22.257-2.858-41.632,12.444-57.445c14.906-15.096,34.483-19.412,55.089-12.239    c21.725,7.55,32.717,24.07,35.572,46.328c0.698,3.968,0,8.303,0.349,12.573c0.352,40.579,14.26,54.966,54.431,55.332    C229.457,260.592,251.491,281.078,251.491,316.632L251.491,316.632z" style="fill:#EC008C;"/><path d="M263.195,201.713c1.102-34.877,21.73-56.055,49.792-57.518    c27.051-1.394,50.479,19.101,54.067,47.083c7.829,62.52,7.829,62.52,69.336,70.787c29.842,3.915,49.432,27.98,46.937,58.169    c-2.138,27.279-25.969,48.835-53.319,47.79c-28.467-1.115-49.447-23.364-50.49-53.181c-0.396-5.782,0-11.17,0-16.894    c-1.086-30.523-17.788-47.029-48.396-47.425c-24.171-0.348-47.661-2.518-60.461-27.295    C266.037,214.984,264.297,205.265,263.195,201.713L263.195,201.713z" style="fill:#D5E14D;"/><path d="M367.057,315.543c0,24.075-17.446,46.331-41.26,50.673c-10.654,2.158-22.034,1.413-32.703,2.158    c-24.931,1.764-40.542,17.574-41.974,42.748c-0.681,10.406-0.337,20.818-2.135,31.211c-4.285,26.96-28.457,45.644-54.428,43.499    c-27.343-2.532-48.688-25.897-48.348-53.182c0.372-26.934,20.656-49.224,47.326-51.734c2.819-0.364,5.303,0,8.16,0    c48.333-1.069,61.153-14.352,61.153-62.836c0-39.149,31.982-63.927,68.28-52.794C353.193,271.376,367.404,291.852,367.057,315.543    L367.057,315.543z" style="fill:#D5E14D;"/><path d="M198.516,249.109c-28.12-0.35-50.149-20.843-52.306-48.82    c-2.142-28.051,18.493-52.453,47.649-56.021c8.198-1.113,16.358-0.415,24.926-0.744c24.869-1.067,40.87-16.172,43.711-41.296    c1.092-9.719,0.352-19.427,1.44-29.084c2.846-29.465,25.961-48.484,55.48-47.068c25.555,1.461,47.279,24.405,47.638,51.342    c0.697,29.093-20.282,52.104-49.095,53.917c-4.622,0.324-9.579,0-14.551,0c-36.627,0.683-52.293,16.856-51.917,54.21    C251.491,224.702,230.489,249.826,198.516,249.109L198.516,249.109z" style="fill:#D5E14D;"/></g></g><g id="Layer_1"/></svg>