<?xml version="1.0" ?><!DOCTYPE svg  PUBLIC '-//W3C//DTD SVG 1.1//EN'  'http://www.w3.org/Graphics/SVG/1.1/DTD/svg11.dtd'><svg height="512px" style="enable-background:new 0 0 512 512;" version="1.1" viewBox="0 0 512 512" width="512px" xml:space="preserve" xmlns="http://www.w3.org/2000/svg" xmlns:xlink="http://www.w3.org/1999/xlink"><g id="_x33_58-viadeo"><g><path d="M302.925,161.244v0.63C286.839,114.605,264.641,68.955,239.301,26    C278.213,52.242,299.51,115.864,302.925,161.244z" style="fill:#4D4D4C;"/><path d="M332.311,270.608c6.828,16.355,9.885,33.699,9.885,51.222c0,69.823-51.942,126.706-123.833,125.27    l3.416-0.27c66.678-41.966,98.221-106.578,98.221-184.309c0-34.24-5.842-68.206-16.985-100.647    c0.898,10.514,0.898,21.297,0.898,31.811c0,82.495-16.265,217.11-104.778,251.618c-59.04-10.244-100.02-61.646-100.02-123.473    c0-67.937,51.582-127.875,121.676-127.875c15.097,0,30.283,2.787,44.122,8.627c1.526-13.569,5.841-26.869,12.041-38.911    c-17.883-6.47-37.023-9.615-56.163-9.615c-145.129,0-214.504,176.042-116.732,281.901c61.017,67.037,172.537,66.407,233.464,0    c50.862-55.087,54.726-127.965,32.709-180.625C358.818,262.521,345.879,267.822,332.311,270.608L332.311,270.608z" style="fill:#4D4D4C;"/><path d="M430.439,36.516c-27.857,59.758-73.058,42.415-104.062,71.979    c-11.142,10.783-18.511,30.554-18.511,45.38c0,12.671,4.044,24.354,10.783,34.868c42.595-9.885,88.335-41.336,106.219-81.506    c-0.63,4.943-4.314,12.94-6.472,17.254c-18.24,32.081-58.051,58.95-89.593,76.294c13.299,12.939,30.283,23.184,49.426,23.184    C449.221,223.969,477.169,103.015,430.439,36.516L430.439,36.516z" style="fill:#EE7355;"/></g></g><g id="Layer_1"/></svg>