<?xml version="1.0" ?><!DOCTYPE svg  PUBLIC '-//W3C//DTD SVG 1.1//EN'  'http://www.w3.org/Graphics/SVG/1.1/DTD/svg11.dtd'><svg height="512px" style="enable-background:new 0 0 512 512;" version="1.1" viewBox="0 0 512 512" width="512px" xml:space="preserve" xmlns="http://www.w3.org/2000/svg" xmlns:xlink="http://www.w3.org/1999/xlink"><g id="_x33_00-simplybuilt"><g><path d="M461.61,80.623h-96.822c-13.244,0-24.297,10.779-24.297,24.022v36.171H171.235v-36.171    c0-13.243-10.962-24.022-24.298-24.022H50.115c-13.336,0-24.114,10.779-24.114,24.022v302.707    c0,13.245,10.778,24.024,24.297,24.024h411.403c13.52,0,24.298-10.779,24.298-24.024V104.646    C485.816,91.402,475.038,80.623,461.61,80.623L461.61,80.623z" style="fill:#455A64;"/><path d="M158.903,347.158c-33.431,0-60.65-27.129-60.65-60.647c0-33.708,27.129-60.837,60.65-60.837    c33.706,0,60.835,27.129,60.835,60.837C219.738,320.029,192.609,347.158,158.903,347.158L158.903,347.158z" style="fill:#FFFFFF;"/><path d="M352.913,347.158c-33.705,0-60.833-27.129-60.833-60.831c0-33.433,27.128-60.653,60.833-60.653    c33.433,0,60.652,27.129,60.652,60.653C413.565,320.029,386.346,347.158,352.913,347.158z" style="fill:#FFFFFF;"/></g></g><g id="Layer_1"/></svg>