<?xml version="1.0" ?><!DOCTYPE svg  PUBLIC '-//W3C//DTD SVG 1.1//EN'  'http://www.w3.org/Graphics/SVG/1.1/DTD/svg11.dtd'><svg height="512px" style="enable-background:new 0 0 512 512;" version="1.1" viewBox="0 0 512 512" width="512px" xml:space="preserve" xmlns="http://www.w3.org/2000/svg" xmlns:xlink="http://www.w3.org/1999/xlink"><g id="_x33_50-untappd"><g><path d="M316.932,101.436c-59.842,120.057-63.44,114.358-65.914,129.88l-3.899,24.597    c-1.426,8.998-4.949,17.623-10.274,25.048L125.187,436.783c-5.699,7.95-15.298,12.15-25.047,10.949    c-30.22-3.749-58.341-24.145-71.464-51.366c-4.274-8.849-3.375-19.347,2.325-27.295l111.657-155.903    c5.324-7.424,12.298-13.497,20.397-17.772l21.972-11.623c13.873-7.348,7.273-8.923,101.684-104.159    c0.75-3.6,0.75-5.474,2.699-5.999c2.252-0.524,4.949-0.75,4.725-3.449l-0.299-3.449c-0.152-1.425,0.973-2.699,2.4-2.699    c3.373-0.074,9.896,0.9,19.195,7.499c9.225,6.674,12.299,12.598,13.273,15.822c0.449,1.35-0.449,2.774-1.801,3.149l-3.373,0.825    c-2.549,0.675-1.875,3.3-1.725,5.549C321.881,98.961,320.082,99.562,316.932,101.436L316.932,101.436z" style="fill:#C57029;"/><path d="M188.552,91.313c2.548,0.675,1.874,3.3,1.724,5.549c-0.15,2.024,1.575,2.624,4.799,4.499    c5.924,11.924,11.472,22.872,16.646,32.995c0.526,0.976,1.726,1.125,2.476,0.375c8.398-8.998,18.447-19.647,30.369-31.945    c0.976-1.05,1.05-2.624,0.076-3.674c-5.999-6.149-12.372-12.673-19.196-19.572c-0.75-3.525-0.75-5.475-2.7-5.999    c-2.25-0.6-4.949-0.75-4.724-3.449c0.225-2.475,1.049-6.074-2.101-6.148c-3.374-0.076-9.897,0.823-19.197,7.497    c-9.223,6.675-12.296,12.599-13.271,15.823C182.402,90.412,186.152,90.712,188.552,91.313z" style="fill:#83491F;"/><path d="M480.932,368.995l-111.584-155.9c-9.896-13.874-19.947-17.549-42.293-29.322    c-8.398-4.424-10.646-8.173-22.871-21.672c-0.752-0.823-2.174-0.675-2.699,0.376c-34.719,66.589-35.32,62.09-36.744,71.089    c-1.275,8.024-0.975,14.998,0.225,22.347c1.424,8.998,4.949,17.623,10.273,25.048l111.656,155.9    c5.699,7.949,15.15,12.147,24.822,11.021c30.221-3.673,58.49-23.996,71.766-51.441    C487.531,387.518,486.707,377.02,480.932,368.995z" style="fill:#83491F;"/></g></g><g id="Layer_1"/></svg>