<?xml version="1.0" ?><!DOCTYPE svg  PUBLIC '-//W3C//DTD SVG 1.1//EN'  'http://www.w3.org/Graphics/SVG/1.1/DTD/svg11.dtd'><svg height="512px" style="enable-background:new 0 0 512 512;" version="1.1" viewBox="0 0 512 512" width="512px" xml:space="preserve" xmlns="http://www.w3.org/2000/svg" xmlns:xlink="http://www.w3.org/1999/xlink"><g id="_x33_09-smugmug"><g><g><g id="_x32_9-smugmug_9_"><g><g><g><path d="M411.697,60.503c0,19.053-19.863,34.494-44.357,34.494c-24.496,0-44.357-15.441-44.357-34.494         s19.859-34.502,44.357-34.502C391.834,26.001,411.697,41.449,411.697,60.503L411.697,60.503z" style="fill:#6EB803;"/><path d="M452.9,164.036H73.904c0,0-10.836,2.299-21.649,24.977         C-1.905,302.258,19.77,485.999,214.684,485.999c194.892,0,270.699-250.644,270.699-284.594         C485.383,167.393,452.9,164.036,452.9,164.036L452.9,164.036z M214.684,440.081c-41.086,0-95.991-10.026-124.379-58.125         c-30.734-52.151-21.356-125.924,1.578-171.925h347.566C428.443,256.032,362.469,440.081,214.684,440.081L214.684,440.081z" style="fill:#6EB803;"/></g><path d="M212.136,60.503c0,19.053-19.848,34.494-44.327,34.494c-24.478,0-44.329-15.441-44.329-34.494        s19.852-34.502,44.329-34.502C192.287,26.001,212.136,41.449,212.136,60.503L212.136,60.503z" style="fill:#6EB803;"/></g></g></g></g></g></g><g id="Layer_1"/></svg>