<?xml version="1.0" ?><!DOCTYPE svg  PUBLIC '-//W3C//DTD SVG 1.1//EN'  'http://www.w3.org/Graphics/SVG/1.1/DTD/svg11.dtd'><svg height="512px" style="enable-background:new 0 0 512 512;" version="1.1" viewBox="0 0 512 512" width="512px" xml:space="preserve" xmlns="http://www.w3.org/2000/svg" xmlns:xlink="http://www.w3.org/1999/xlink"><g id="_x33_36-tencent-weibo"><g><path d="M226.813,217.212c-7.631-4.745-14.052-11.249-18.688-18.954    c-59.412,66.08-94.913,161.847-84.839,274.653c1.888,17.341,27.947,15.275,26.689-2.606    C140.431,367.516,170.646,280.854,226.813,217.212z" style="fill:#8AC24A;"/><path d="M256.036,27.125c-113.133,0-183.582,120.59-133.261,217.728    c7.818,15.635,31.72,4.043,23.632-12.042c-41.604-83.209,18.871-178.998,109.629-178.998c67.753,0,123.016,55.173,123.016,123.017    c0,81.591-78.087,138.291-150.693,119.601c-17.163-3.684-23.004,21.927-5.931,26.148    c99.472,20.849,183.312-53.914,183.312-145.839C405.739,94.16,338.704,27.125,256.036,27.125z" style="fill:#04A9F3;"/><circle cx="255.147" cy="171.375" r="56.594" style="fill:#04A9F3;"/></g></g><g id="Layer_1"/></svg>