<?xml version="1.0" ?><!DOCTYPE svg  PUBLIC '-//W3C//DTD SVG 1.1//EN'  'http://www.w3.org/Graphics/SVG/1.1/DTD/svg11.dtd'><svg height="512px" style="enable-background:new 0 0 512 512;" version="1.1" viewBox="0 0 512 512" width="512px" xml:space="preserve" xmlns="http://www.w3.org/2000/svg" xmlns:xlink="http://www.w3.org/1999/xlink"><g id="_x32_58-pied-piper"><g><path d="M58.852,423.328l-32.851,61.799l0.821-336.709c0-67.651,54.613-122.366,122.365-122.366h335.889    c-95.469,29.668-194.943,96.702-260.643,173.078C151.959,282.689,110.794,340.177,58.852,423.328" style="fill:#047863;"/><path d="M485.896,26.052c0,0-146.591,68.574-191.35,171.538c-23.815,55.023-29.666,121.235-72.886,162.812    c-29.667,28.537-71.653,39.215-108.095,57.795c-23.816,12.318-68.164,41.576-87.155,67.752h337.12    c67.753,0,122.468-54.717,122.468-122.366C485.896,363.582,485.896,26.052,485.896,26.052L485.896,26.052z" style="fill:#06A261;"/></g></g><g id="Layer_1"/></svg>