<?xml version="1.0" ?><!DOCTYPE svg  PUBLIC '-//W3C//DTD SVG 1.1//EN'  'http://www.w3.org/Graphics/SVG/1.1/DTD/svg11.dtd'><svg height="512px" style="enable-background:new 0 0 512 512;" version="1.1" viewBox="0 0 512 512" width="512px" xml:space="preserve" xmlns="http://www.w3.org/2000/svg" xmlns:xlink="http://www.w3.org/1999/xlink"><g id="_x32_44-page4"><g><path d="M256,485.999c-127.057,0-230-102.942-230-229.999c0-127.056,102.943-229.999,230-229.999    c19.381,0,38.302,2.411,56.294,6.957L65.23,382.13H256V485.999z" style="fill:#48638E;"/><polygon points="256,340 270,160 140,340   " style="fill:#48638E;"/><path d="M345.031,382.13v85.97c42.384-17.806,78.367-47.947,103.314-85.97H345.031z" style="fill:#48638E;"/><path d="M485.999,256c0,34.593-7.604,67.424-21.331,96.822H345.031V43.9    C427.851,78.678,485.999,160.569,485.999,256z" style="fill:#48638E;"/><path d="M420.11,241.55v-14.039l-56.659,24.674v10.303l56.659,24.506v-13.79l-11.964-4.736v-22.015    L420.11,241.55z M397.596,264.563l-17.611-6.896l17.611-6.978V264.563z" style="fill:#FFFFFF;"/><path d="M420.11,313.081h-22.017v-9.141c0-12.792-4.651-20.936-17.362-20.936    c-12.794,0-17.197,8.807-17.197,21.518v21.021h56.658v-12.462H420.11z M387.544,313.081h-13.459v-6.399    c0-5.483,1.08-10.715,6.646-10.715c4.903,0,6.813,3.903,6.813,8.807V313.081z" style="fill:#FFFFFF;"/><polygon points="363.534,159.138 420.192,159.138 420.192,119.593 408.646,119.593 408.646,146.676     397.098,146.676 397.098,122.086 385.551,122.086 385.551,146.676 374.999,146.676 374.999,119.593 363.451,119.593     363.451,159.138   " style="fill:#FFFFFF;"/><path d="M416.122,170.603h-29.576v22.099h11.548v-10.137h9.14c7.145,13.127,1.079,29.327-15.452,29.327    c-18.693,0-23.512-21.02-12.877-31.32l-9.638-8.807c-13.459,14.539-10.135,53.087,22.515,53.087    C420.027,224.852,428.916,195.027,416.122,170.603L416.122,170.603z" style="fill:#FFFFFF;"/></g></g><g id="Layer_1"/></svg>