<?xml version="1.0" ?><!DOCTYPE svg  PUBLIC '-//W3C//DTD SVG 1.1//EN'  'http://www.w3.org/Graphics/SVG/1.1/DTD/svg11.dtd'><svg height="512px" style="enable-background:new 0 0 512 512;" version="1.1" viewBox="0 0 512 512" width="512px" xml:space="preserve" xmlns="http://www.w3.org/2000/svg" xmlns:xlink="http://www.w3.org/1999/xlink"><g id="_x32_96-shirtsinbulk"><g><polygon points="50.899,33 50.899,389.117 254.803,479 461.101,389.117 461.101,33   " style="fill:#37474F;"/><polygon points="143.859,389.662 171.755,401.879 175.766,392.852 147.87,380.639   " style="fill:#FFFFFF;"/><polygon points="179.776,405.615 207.672,417.832 211.683,408.807 183.788,396.59   " style="fill:#FFFFFF;"/><polygon points="336.666,392.852 340.677,401.879 368.572,389.662 364.561,380.639   " style="fill:#FFFFFF;"/><polygon points="215.968,421.293 243.589,433.785 247.601,424.76 219.979,412.545   " style="fill:#FFFFFF;"/><polygon points="107.759,373.709 135.655,385.926 139.666,377.172 111.771,364.684   " style="fill:#FFFFFF;"/><polygon points="300.474,408.807 304.485,417.832 332.38,405.615 328.37,396.59   " style="fill:#FFFFFF;"/><polygon points="264.648,424.76 268.658,433.785 296.554,421.293 292.543,412.545   " style="fill:#FFFFFF;"/><polygon points="372.583,377.172 376.594,385.926 404.49,373.709 400.479,364.684   " style="fill:#FFFFFF;"/><rect height="80" style="fill:#FF5722;" width="410.167" x="50.92" y="33.016"/><g><g><rect height="9.572" style="fill:#FFFFFF;" width="30.538" x="177.134" y="66.108"/><polygon points="134.014,75.681 164.554,75.681 164.644,66.108 134.014,66.108     " style="fill:#FFFFFF;"/><polygon points="91.259,66.108 91.259,75.681 121.616,75.681 121.524,66.108     " style="fill:#FFFFFF;"/><rect height="9.572" style="fill:#FFFFFF;" width="30.265" x="220.253" y="66.108"/><rect height="9.572" style="fill:#FFFFFF;" width="30.54" x="306.126" y="66.108"/><rect height="9.572" style="fill:#FFFFFF;" width="30.539" x="349.246" y="66.108"/><rect height="9.572" style="fill:#FFFFFF;" width="30.266" x="263.28" y="66.108"/><rect height="9.572" style="fill:#FFFFFF;" width="30.354" x="392.185" y="66.108"/></g></g><rect height="30.539" style="fill:#FFFFFF;" width="9.846" x="90.986" y="335.695"/><polygon points="164.644,152.878 134.014,152.878 134.014,162.449 164.554,162.449   " style="fill:#FFFFFF;"/><polygon points="100.832,162.54 121.616,162.54 121.616,152.968 90.986,152.968 90.986,169.507     100.832,169.507   " style="fill:#FFFFFF;"/><path d="M254.803,190.475c-45.763,0-83.231,37.468-83.231,83.229c0,46.039,37.469,83.232,83.231,83.232    c46.037,0,83.23-37.193,83.23-83.232C338.033,227.942,300.84,190.475,254.803,190.475z" style="fill:#FF5722;"/><path d="M253.07,317.645c-16.5,0-29.537-2.645-43.027-11.121l8.204-16.773h0.821    c5.561,11.121,21.514,13.582,32.727,13.582c7.931,0,29.81-1.092,29.81-13.035c0-23.793-70.742,5.742-70.742-34.642    c0-23.155,26.894-28.989,45.216-28.989c15.407,0,26.619,5.287,40.386,10.939l-8.022,15.404h-0.821    c-5.833-9.023-22.608-11.941-32.453-11.941c-8.205,0-27.166,1.642-27.166,13.583c0,19.692,71.563-9.297,71.563,34.552    C299.563,312.359,270.847,317.645,253.07,317.645z" style="fill:#FFFFFF;"/><rect height="30.632" style="fill:#FFFFFF;" width="9.846" x="90.986" y="178.259"/><rect height="30.539" style="fill:#FFFFFF;" width="9.846" x="412.968" y="335.695"/><rect height="30.537" style="fill:#FFFFFF;" width="9.846" x="90.986" y="296.314"/><rect height="30.539" style="fill:#FFFFFF;" width="9.846" x="90.986" y="217.642"/><rect height="30.537" style="fill:#FFFFFF;" width="9.846" x="90.986" y="257.023"/><rect height="9.571" style="fill:#FFFFFF;" width="30.538" x="177.134" y="152.878"/><rect height="30.537" style="fill:#FFFFFF;" width="9.846" x="412.968" y="257.023"/><rect height="30.539" style="fill:#FFFFFF;" width="9.846" x="412.968" y="217.642"/><rect height="9.571" style="fill:#FFFFFF;" width="30.265" x="220.253" y="152.878"/><rect height="30.539" style="fill:#FFFFFF;" width="9.846" x="412.968" y="178.352"/><rect height="30.539" style="fill:#FFFFFF;" width="9.846" x="412.968" y="296.404"/><rect height="9.571" style="fill:#FFFFFF;" width="30.266" x="263.28" y="152.878"/><rect height="9.571" style="fill:#FFFFFF;" width="30.54" x="306.126" y="152.878"/><polygon points="412.968,169.507 422.813,169.507 422.813,152.968 392.273,152.968 392.273,162.54     413.058,162.54   " style="fill:#FFFFFF;"/><rect height="9.571" style="fill:#FFFFFF;" width="30.539" x="349.246" y="152.878"/></g></g><g id="Layer_1"/></svg>