<?xml version="1.0" ?><!DOCTYPE svg  PUBLIC '-//W3C//DTD SVG 1.1//EN'  'http://www.w3.org/Graphics/SVG/1.1/DTD/svg11.dtd'><svg height="512px" style="enable-background:new 0 0 512 512;" version="1.1" viewBox="0 0 512 512" width="512px" xml:space="preserve" xmlns="http://www.w3.org/2000/svg" xmlns:xlink="http://www.w3.org/1999/xlink"><g id="_x33_86-wpressr"><g><path d="M256,26.001c-127.03,0-230,102.971-230,229.999s102.97,229.999,230,229.999c127.027,0,229.999-102.971,229.999-229.999    S383.027,26.001,256,26.001z"/><path d="M414.896,173.089c-14.079,32.006-28.166,64.011-42.32,95.988    c-2.261,5.108-6.389,7.644-12.027,7.644c-21.35-0.011-42.689,0.054-64.038-0.05c-4.748-0.026-7.652,1.755-9.59,6.233    c-9.45,21.85-19.134,43.588-28.704,65.382c-1.428,3.255-3.765,4.906-7.344,4.906c-42.606-0.008-85.203-0.018-127.808,0    c-2.903,0-5.222-1.064-7.16-3.198c-10.396-11.436-20.83-22.843-31.236-34.26c-2.496-2.736-2.587-5.729-1.122-9.023    c8.033-18.121,16.016-36.261,24.011-54.401c11.992-27.221,24.012-54.431,35.937-81.688c1.577-3.598,3.97-5.268,7.921-5.239    c13.205,0.094,26.413,0.019,39.62,0.046c5.786,0.01,8.531,4.488,6.175,9.822c-12.613,28.536-25.198,57.082-37.782,85.627    c-5.306,12.046-10.591,24.104-15.85,36.169c-3.626,8.301,6.565,11.102,10.155,5.193c0.213-0.342-1.317,3.879,27.833-62.776    c1.261-2.875,3.162-4.08,6.278-4.07c14.105,0.074,28.221,0.018,42.327,0.037c5.156,0.009,7.336,3.376,5.249,8.115    c-7.726,17.584-15.498,35.149-23.167,52.761c-4.618,10.602,7.494,11.583,10.46,4.941c0.038-0.072,25.867-58.733,29.854-67.849    c1.873-4.276,5.045-6.038,9.598-6.029c24.513,0.047,49.024,0,73.536,0.047c11.536,0.02,12.919-12.659,3.616-12.649    c-23.426,0.027-46.854,0.018-70.279,0.018c-5.815,0-7.271-2.29-4.887-7.669c5.358-12.112,10.748-24.215,16.044-36.363    c1.604-3.673,4.192-5.37,8.198-5.361c21.413,0.057,24.095,0.019,121.289,0.028C415.321,165.41,417.131,168.007,414.896,173.089    L414.896,173.089z" style="fill:#FFFFFF;"/></g></g><g id="Layer_1"/></svg>