<?xml version="1.0" ?><!DOCTYPE svg  PUBLIC '-//W3C//DTD SVG 1.1//EN'  'http://www.w3.org/Graphics/SVG/1.1/DTD/svg11.dtd'><svg height="512px" style="enable-background:new 0 0 512 512;" version="1.1" viewBox="0 0 512 512" width="512px" xml:space="preserve" xmlns="http://www.w3.org/2000/svg" xmlns:xlink="http://www.w3.org/1999/xlink"><g id="_x33_53-usps"><g><g><path d="M407.836,243.487c22.734-36.396,13.394-43.004-10.313-43.004h-23.792     c-0.088,0-1.322-1.233-9.606,7.05c-9.87,4.936-33.396,5.551-33.396,7.667c0,3.966,61.949-2.731,77.635,0     c8.373,1.321-1.321,17.977-3.878,28.198C404.046,247.364,406.603,245.426,407.836,243.487z M309.05,263.402     c56.396-18.77,85.743-21.062,89.884-23.087c3.879-2.557-3.876-5.816-23.088-5.112c-45.557,1.939-121.255,32.693-152.099,47.497     l-27.052-82.217h173.248c-2.38-24.85-134.739-19.916-297.768-19.916l-46.175,216.34     C199.074,311.165,254.15,282.085,309.05,263.402L309.05,263.402z M85.66,115.093c223.214,47.322,290.804,57.896,292.653,75.08     c32.076,0,40.448,0,46.176,5.816c18.595,17.359-12.865,59.658-12.865,59.658c-3.878,2.556-358.129,141.172-358.129,141.172     h372.844l59.66-281.727H85.66z" style="fill:#02599E;"/></g></g></g><g id="Layer_1"/></svg>