<?xml version="1.0" ?><!DOCTYPE svg  PUBLIC '-//W3C//DTD SVG 1.1//EN'  'http://www.w3.org/Graphics/SVG/1.1/DTD/svg11.dtd'><svg height="512px" style="enable-background:new 0 0 512 512;" version="1.1" viewBox="0 0 512 512" width="512px" xml:space="preserve" xmlns="http://www.w3.org/2000/svg" xmlns:xlink="http://www.w3.org/1999/xlink"><g id="_x33_96-Zcash"><g><g><g><path d="M216.712,87.387c0-21.54,0-40.916,0-61.386c25.208,0,49.763,0,76.069,0      c0,19.726,0,39.508,0,60.688c31.305,0,60.451,0,92.429,0c-3.193,29.432,7.107,57.784-14.928,85.116      c-43.379,53.838-83.571,110.566-125.139,166.214c-0.337,0.72-0.337,1.821-0.727,4.693c48.368,0,96.698,0,145.444,0      c0,28.737,0,55.299,0,83.645c-32.046,0-63.287,0-96.375,0c0,20.834,0,39.855,0,59.643c-25.974,0-49.778,0-75.738,0      c0-19.091,0-38.114,0-58.542c-32.332,0-62.937,0-95.609,0c1.787-30.183-5.689-57.818,16.7-84.745      c44.44-53.862,84.975-110.976,126.943-166.636c0.696-1.057,1.043-2.519,2.089-5.398c-44.791,0-88.843,0-133.635,0      c0-27.982,0-54.557,0-82.562C161.247,87.387,187.894,87.387,216.712,87.387L216.712,87.387z" style="fill:#231F20;"/></g></g></g></g><g id="Layer_1"/></svg>