<?xml version="1.0" ?><!DOCTYPE svg  PUBLIC '-//W3C//DTD SVG 1.1//EN'  'http://www.w3.org/Graphics/SVG/1.1/DTD/svg11.dtd'><svg height="512px" style="enable-background:new 0 0 512 512;" version="1.1" viewBox="0 0 512 512" width="512px" xml:space="preserve" xmlns="http://www.w3.org/2000/svg" xmlns:xlink="http://www.w3.org/1999/xlink"><g id="_x33_54-ussunnah"><g><path d="M433.979,299.034c-1.886,12.4-5.12,24.349-9.434,35.668l38.632,21.023l-40.249-16.89    c-4.762,11.86-10.781,23-17.878,33.421l30.726,27.133l-33.063-23.717c-7.546,10.6-16.17,20.303-25.784,29.019l22.371,31.174    l-25.246-28.568c-9.883,8.624-20.753,16.173-32.433,22.552l14.105,33.421l-17.341-31.716c-11.77,6.11-24.257,10.871-37.374,14.286    l6.02,34.5l-9.435-33.603c-12.847,3.056-26.233,4.761-39.98,4.852l-1.615,34.41l-1.708-34.501    c-13.746-0.09-27.133-1.796-39.979-4.761l-9.523,33.512l6.02-34.319c-13.117-3.325-25.696-8.177-37.466-14.195l-17.249,31.535    l14.015-33.241c-11.68-6.29-22.64-13.837-32.521-22.553l-25.068,28.39l22.192-30.905c-9.614-8.716-18.328-18.417-25.875-29.019    l-32.793,23.538l30.456-26.862c-7.097-10.423-13.115-21.652-17.969-33.513l-39.89,16.802l38.272-20.845    c-4.312-11.409-7.547-23.449-9.433-35.847l-45.819,8.086l45.189-12.759c-0.986-7.635-1.527-15.361-1.527-23.268    c0-4.224,0.181-8.447,0.449-12.669L26.001,256l50.313-2.516c1.167-11.77,3.412-23.179,6.738-34.229l-51.302-14.466l52.917,9.345    c3.594-10.781,8.177-21.113,13.657-30.907l-49.504-26.952l52.38,22.102c5.659-9.524,12.129-18.328,19.404-26.594L76.134,112.61    l48.427,34.77c7.275-7.727,15.273-14.825,23.896-21.204L112.52,76.224l40.97,46.359c8.535-5.931,17.698-11.051,27.223-15.454    l-24.528-58.308l30.369,55.794c9.433-3.955,19.225-7.099,29.377-9.345l-11.14-63.52l17.519,62.172    c9.883-1.887,20.035-2.875,30.366-3.056l3.326-64.866l3.233,64.866c10.332,0.181,20.482,1.258,30.367,3.146l17.61-62.262    l-11.142,63.52c10.151,2.336,19.945,5.48,29.289,9.434l30.457-55.883l-24.617,58.488c9.523,4.401,18.598,9.613,27.133,15.453    l41.147-46.539l-36.027,50.222c8.535,6.38,16.532,13.478,23.809,21.204l48.695-34.949l-44.652,39.441    c7.187,8.176,13.655,16.979,19.316,26.412l52.738-22.189l-49.864,27.132c5.481,9.794,9.975,20.036,13.568,30.817l53.277-9.344    l-51.661,14.555c3.324,10.961,5.571,22.37,6.739,34.051L485.999,256l-50.313,2.516c0.27,4.133,0.45,8.355,0.45,12.668    c0,7.816-0.539,15.543-1.438,23.179l45.55,12.849L433.979,299.034L433.979,299.034z" style="fill:#2C834B;"/><path d="M414.394,271.184c0-87.598-70.976-158.573-158.573-158.573    c-87.597,0-158.574,70.976-158.574,158.573c0,87.597,70.978,158.574,158.574,158.574    C343.418,429.758,414.394,358.78,414.394,271.184z" style="fill:#EFF1F1;"/><path d="M392.831,271.184c0,75.738-61.363,137.103-137.102,137.103c-75.737,0-137.1-61.364-137.1-137.103    s61.362-137.102,137.1-137.102C331.468,134.082,392.831,195.445,392.831,271.184z" style="fill:#FFFFFF;"/><path d="M323.833,290.409V189.516c-7.369,11.23-12.759,16.712-16.174,16.712    c5.661,12.937,8.536,21.472,8.536,25.426v57.768c0,1.979-1.977,5.841-4.223,5.841H295.8c-2.516-6.737-9.163-24.168-13.745-36.207    c-1.797,2.247-6.468,8.268-9.613,12.308c2.155,1.438,3.683,3.235,4.672,5.663c2.336,6.018,5.749,14.822,7.099,18.146h-8.266    c-3.505-9.343-8.626-22.819-10.604-27.94c-1.797,2.245-6.468,8.264-9.613,12.307c2.157,1.438,3.685,3.236,4.673,5.661    c0.72,1.796,2.516,6.56,3.863,9.794h-8.265c-1.349-3.684-5.032-13.119-7.548-19.767c-1.797,2.245-6.469,8.266-9.613,12.309    c2.246,1.437,3.863,3.234,4.672,5.66c0.18,0.539,0.449,1.257,0.539,1.525h-15.901c-4.133-12.486-10.243-24.884-10.243-30.635    c0-1.976,0.27-4.582,0.989-7.367c-7.907,9.703-12.578,14.284-12.578,22.462c0,6.736,9.343,25.425,9.343,29.917    c0,1.527-0.449,2.964-1.257,4.401c-8.626-11.409-13.926-18.598-16.892-18.598H186.73l-10.062-25.154    c-3.415-8.626-5.122-14.375-5.122-16.892c0-3.414,0.449-6.918,1.528-10.961c-0.898,1.169-3.325,4.224-4.941,6.38    c-0.72-1.888-2.785-6.919-4.134-10.332c-1.887,2.246-6.737,8.176-10.063,12.218c0.809,2.066,2.965,7.277,4.403,10.961    c-2.246,2.965-8.175,10.603-12.218,15.904c-3.595,4.761-5.212,11.946-2.427,19.584c2.246,6.019,1.797,7.098-1.528,12.669h55.434    c4.942,0,12.848,12.578,13.926,19.764c11.86-14.374,13.836-17.607,15.094-19.406h96.134c3.503,0,6.468-1.705,8.894-5.209    C324.102,301.73,323.833,298.316,323.833,290.409z M164.63,295.082c-1.169-2.875-2.785-6.918-3.414-8.535    c-2.247-5.659-0.988-7.547,0-8.984c1.706-2.426,2.875-3.953,3.233-4.673c0,1.979,0.719,5.122,2.426,9.255l5.121,12.938H164.63z     M201.195,242.523c0-1.527,2.785-5.211,8.626-11.319c0.09,2.246,1.077,4.671,2.964,6.917c1.887,2.336,2.875,4.313,2.875,6.289    c0,1.527-1.347,4.942-3.862,10.063c-1.798-3.234-4.403-5.66-7.368-7.367C202.363,245.938,201.195,244.41,201.195,242.523z     M164.63,225.453c0-1.527,2.784-5.21,8.624-11.319c0.09,2.246,1.079,4.672,2.967,6.917c1.885,2.337,2.873,4.313,2.873,6.289    c0,1.527-1.348,4.942-3.863,10.063c-1.797-3.233-4.223-5.66-7.367-7.366C165.798,228.867,164.63,227.34,164.63,225.453z     M147.559,225.453c0-1.527,2.876-5.21,8.625-11.319c0.09,2.246,1.079,4.672,2.967,6.917c1.885,2.337,2.874,4.313,2.874,6.289    c0,1.527-1.349,4.942-3.864,10.063c-1.797-3.233-4.401-5.66-7.367-7.366C148.728,228.867,147.559,227.34,147.559,225.453z     M374.593,306.852c-1.077,1.706-5.031,2.427-12.308,2.427c-13.837,0-21.563-2.607-21.563-18.328v-59.567    c0-3.952-3.234-12.487-9.615-25.426c4.313,0,10.514-5.48,18.6-16.71v91.28c0,16.711,8.714,20.484,15.991,23.358    C367.765,304.605,370.729,305.415,374.593,306.852z" style="fill:#2C834B;"/></g></g><g id="Layer_1"/></svg>