<?xml version="1.0" ?><!DOCTYPE svg  PUBLIC '-//W3C//DTD SVG 1.1//EN'  'http://www.w3.org/Graphics/SVG/1.1/DTD/svg11.dtd'><svg height="512px" style="enable-background:new 0 0 512 512;" version="1.1" viewBox="0 0 512 512" width="512px" xml:space="preserve" xmlns="http://www.w3.org/2000/svg" xmlns:xlink="http://www.w3.org/1999/xlink"><g id="_x33_85-wpforms"><g><path d="M485.947,70.348v371.304c0,24.947-19.504,44.348-44.347,44.348H70.399    c-24.536-0.103-44.347-19.194-44.347-44.45V70.348c0-24.74,19.298-44.347,44.347-44.347h371.305    C466.341,26.001,485.947,45.3,485.947,70.348L485.947,70.348z" style="fill:#7EAABA;"/><path d="M447.658,441.549V70.348c0-3.079-2.67-5.954-5.954-5.954h-9.548l-113.229,76.58L256.001,89.75    l-62.827,51.224L79.947,64.292h-9.547c-3.286,0-5.955,2.874-5.955,5.953v371.304c0,3.081,2.669,5.955,5.955,5.955h371.305    C444.988,447.606,447.658,444.732,447.658,441.549L447.658,441.549z" style="fill:#FFFFFF;"/><rect height="37.983" style="fill:#0399ED;" width="75.452" x="104.789" y="184.09"/><rect height="38.292" style="fill:#0399ED;" width="75.452" x="104.789" y="260.465"/><polygon points="191.635,109.256 247.068,64.394 125.422,64.394   " style="fill:#FFFFFF;"/><rect height="37.983" style="fill:#0399ED;" width="201.204" x="206.007" y="184.09"/><rect height="38.292" style="fill:#0399ED;" width="201.204" x="206.007" y="260.465"/><polygon points="320.364,109.256 386.578,64.394 265.033,64.394 320.364,109.256   " style="fill:#FFFFFF;"/><rect height="38.291" style="fill:#0399ED;" width="102.039" x="305.172" y="337.047"/></g></g><g id="Layer_1"/></svg>