<?xml version="1.0" ?><!DOCTYPE svg  PUBLIC '-//W3C//DTD SVG 1.1//EN'  'http://www.w3.org/Graphics/SVG/1.1/DTD/svg11.dtd'><svg height="512px" style="enable-background:new 0 0 512 512;" version="1.1" viewBox="0 0 512 512" width="512px" xml:space="preserve" xmlns="http://www.w3.org/2000/svg" xmlns:xlink="http://www.w3.org/1999/xlink"><g id="_x33_31-swarm"><g><g id="_x32_5-swarm_2_"><g><g><g><path d="M263.038,199.543c-0.633-0.633-2.558-5.706-3.191-6.976        C195.357,60.099,51.23,64.515,28.494,124.102C10.781,169.733,87.289,278.132,263.038,199.543L263.038,199.543z" style="fill:#F46D00;"/><path d="M292.109,187.493c99.22-44.367,85.328-121.049,59.402-131.198        c-34.161-13.322-97.358,38.055-61.328,127.394C290.816,184.322,292.109,186.858,292.109,187.493L292.109,187.493z" style="fill:#F46D00;"/><path d="M197.293,306.901c-18.348,28.537-32.265,57.685-41.754,78.614        c-0.596,1.266-0.596,1.903-1.229,3.174c-3.164,8.242-6.362,14.584-8.224,20.299c-2.53,6.306,0.633,13.949,7.582,16.457        c5.035,1.932,11.992,4.44,20.242,7.608c1.239,0.634,1.897,0.634,3.164,1.242c22.132,7.607,52.471,15.855,85.366,21.562        c-19.611-18.997-35.428-41.86-46.814-67.201C204.223,362.71,197.913,334.803,197.293,306.901L197.293,306.901z" style="fill:#F46D00;"/><path d="M474.758,272.046c-15.152-33.583-42.345-58.289-74.581-69.71        c-3.161-1.235-6.324-1.899-10.113-1.899c-16.448,0-32.869,13.954-34.134,31.076c-2.529,29.146,3.166,58.29,15.789,86.833        c12.626,27.905,30.332,51.343,52.497,69.071c5.695,4.441,13.285,6.341,20.217,6.341c13.306,0,25.927-6.947,30.989-18.993        C489.301,343.656,489.971,306.266,474.758,272.046L474.758,272.046z" style="fill:#F46D00;"/></g><path d="M334.429,336.078c-15.786-35.522-22.111-71.643-18.95-107.158       c0.606-10.118,3.796-19.63,8.196-27.876c-0.604,0-1.896,0.602-2.529,0.602c-1.266,0.636-3.162,0.636-4.429,1.271       c-9.489,2.535-18.941,6.978-27.165,11.414c-4.402,2.569-8.194,5.104-12.627,7.64c-21.471,14.588-39.184,39.929-41.715,66.566       c-2.556,28.508,2.531,57.687,14.516,85.568c12.02,27.267,29.706,49.468,51.212,66.561       c13.274,10.781,36.656,17.127,56.294,17.127c21.472,0,44.21-8.247,62.554-19.664c0,0,0.636,0,0.636-0.604       c1.238-0.636,2.53-1.935,3.794-2.57c0.607-0.634,1.239-1.235,1.871-1.235c-10.121-2.566-18.952-6.973-26.532-12.712       C371.747,399.47,349.639,370.933,334.429,336.078L334.429,336.078z" style="fill:#F46D00;"/></g></g></g></g></g><g id="Layer_1"/></svg>