<?xml version="1.0" ?><!DOCTYPE svg  PUBLIC '-//W3C//DTD SVG 1.1//EN'  'http://www.w3.org/Graphics/SVG/1.1/DTD/svg11.dtd'><svg height="512px" style="enable-background:new 0 0 512 512;" version="1.1" viewBox="0 0 512 512" width="512px" xml:space="preserve" xmlns="http://www.w3.org/2000/svg" xmlns:xlink="http://www.w3.org/1999/xlink"><g id="_x32_60-pinterest"><g><g id="_x34_8-pinterest_4_"><g><g><path d="M262.236,26c-125.732,0-192.6,80.791-192.6,168.885c0,40.856,22.768,91.799,59.213,107.963       c5.534,2.497,8.544,1.435,9.773-3.714c1.09-3.906,5.88-22.737,8.206-31.625c0.713-2.848,0.341-5.319-1.951-7.996       c-12.104-14.028-21.707-39.591-21.707-63.568c0-61.438,48.716-121.095,131.611-121.095       c71.686,0,121.837,46.694,121.837,113.479c0,75.472-39.83,127.685-91.583,127.685c-28.644,0-49.982-22.542-43.212-50.43       c8.17-33.208,24.197-68.918,24.197-92.866c0-21.482-12.098-39.245-36.815-39.245c-29.158,0-52.816,28.952-52.816,67.823       c0,24.698,8.719,41.375,8.719,41.375S156.264,359.515,150.9,381.336c-9.063,36.944,1.232,96.778,2.122,101.924       c0.545,2.849,3.727,3.736,5.502,1.411c2.841-3.737,37.707-53.626,47.484-89.674c3.555-13.143,18.152-66.419,18.152-66.419       c9.605,17.397,37.333,31.976,66.868,31.976c87.854,0,151.334-77.427,151.334-173.516C442.05,94.919,363.424,26,262.236,26" style="fill:#BD081C;"/></g></g></g></g></g><g id="Layer_1"/></svg>