<?xml version="1.0" ?><!DOCTYPE svg  PUBLIC '-//W3C//DTD SVG 1.1//EN'  'http://www.w3.org/Graphics/SVG/1.1/DTD/svg11.dtd'><svg height="512px" style="enable-background:new 0 0 512 512;" version="1.1" viewBox="0 0 512 512" width="512px" xml:space="preserve" xmlns="http://www.w3.org/2000/svg" xmlns:xlink="http://www.w3.org/1999/xlink"><g id="_x33_22-Stratis"><g><g><g><path d="M34.683,328.774c3.229-5.097,6.122-9.451,9.351-14.538c1.8,1.096,3.634,2.193,5.401,3.274      c67.698,43.998,135.752,88.038,203.464,132.366c3.948,2.55,6.463,2.9,10.451,0c64.433-42.193,129.244-83.996,194.059-125.838      c7.553-4.716,11.547-10.913,11.147-19.984c-0.365-9.076,0-18.215,0-28.749c-2.485,1.478-4.647,2.543-6.46,3.67      c-64.798,41.787-129.61,83.279-194.442,125.081c-7.955,5.113-14.753,5.456-22.679,0.348      c-65.912-42.562-131.808-85.081-198.032-126.902c-14.432-9.082-21.605-21.112-20.894-38.55c0.699-12.748,0-25.484,0-38.174      c0-5.816,2.166-10.205,7.168-13.468c71.313-47.641,143.322-94.907,214.982-142.197c2.878-1.849,5.761-4.378,8.987-4.749      c3.987-0.348,8.661,0.374,11.554,2.551c69.859,44.75,139.685,89.474,209.537,134.569c10.799,6.932,10.111,18.555-1.061,25.476      c-53.636,34.156-107.282,68.362-160.988,102.544c-15.844,10.159-31.644,19.644-47.13,30.203c-7.568,5.083-14.086,5.083-21.953,0      c-65.552-41.849-131.808-83.658-197.672-125.501c-1.815-1.069-3.65-2.182-6.167-3.624c0,13.805-0.352,26.913,0,40.01      c0.356,6.528,5.048,10.925,10.448,14.187c52.232,33.442,104.417,66.902,156.639,100.337      c13.707,8.733,27.01,17.146,40.329,26.216c3.237,2.199,5.759,2.199,9.348,0c66.244-42.906,132.868-85.821,199.493-128.399      c1.811-1.065,3.586-2.543,5.397-3.261c9.743-4.737,20.192,1.067,20.545,12.023c0.349,14.164,0.349,28.357,0,42.53      c-0.352,12.362-6.849,21.082-17.314,27.648c-43.888,28.352-87.868,56.739-131.768,85.442      c-23.046,14.945-46.435,29.826-69.488,45.112c-6.471,4.389-12.26,4.389-18.729,0c-69.853-45.837-140.454-91.64-210.644-137.476      C36.493,330.596,35.742,329.889,34.683,328.774L34.683,328.774z M56.279,192.792c1.452,1.418,2.895,2.17,3.993,3.252      c64.8,41.076,129.602,82.183,194.05,123.279c3.236,2.182,5.374,1.439,8.269-0.348c65.555-41.836,131.07-83.641,196.61-125.117      c1.46-1.067,3.224-2.192,5.055-3.633c-1.466-1.125-2.169-1.848-3.229-2.544c-65.555-42.208-131.062-84.365-196.978-126.567      c-3.587-2.566-6.105-1.056-9.035,0.72c-44.617,29.455-89.605,59.274-134.295,88.736      C99.134,164.396,77.89,178.606,56.279,192.792L56.279,192.792z" style="fill:#1382C6;"/></g></g></g></g><g id="Layer_1"/></svg>