<?xml version="1.0" ?><!DOCTYPE svg  PUBLIC '-//W3C//DTD SVG 1.1//EN'  'http://www.w3.org/Graphics/SVG/1.1/DTD/svg11.dtd'><svg height="512px" style="enable-background:new 0 0 512 512;" version="1.1" viewBox="0 0 512 512" width="512px" xml:space="preserve" xmlns="http://www.w3.org/2000/svg" xmlns:xlink="http://www.w3.org/1999/xlink"><g id="_x32_52-periscope"><g><path d="M387.172,83.141c-34.68-36.835-80.41-57.14-128.836-57.14    c-103.051,0-186.964,86.431-186.964,192.625c0,67.472,51.929,143.568,74.301,173.126c32.882,43.486,82.116,94.247,112.663,94.247    c37.376,0,101.434-84.633,108.621-94.334c22.1-29.739,73.671-106.287,73.671-173.039    C440.628,167.864,421.672,119.707,387.172,83.141z" style="fill:#FFFFFF;"/><path d="M358.422,211.797c0,53.097-45.91,98.56-99.548,98.56c-90.382,0-135.394-97.212-83.464-163.337v0.36    c0,22.011,18.058,39.89,40.249,39.89c22.192,0,40.251-17.879,40.251-39.89c0-16.352-9.973-30.368-24.168-36.566    C300.562,93.563,358.422,146.122,358.422,211.797L358.422,211.797z" style="fill:#E94F3C;"/></g></g><g id="Layer_1"/></svg>