<?xml version="1.0" ?><!DOCTYPE svg  PUBLIC '-//W3C//DTD SVG 1.1//EN'  'http://www.w3.org/Graphics/SVG/1.1/DTD/svg11.dtd'><svg height="512px" style="enable-background:new 0 0 512 512;" version="1.1" viewBox="0 0 512 512" width="512px" xml:space="preserve" xmlns="http://www.w3.org/2000/svg" xmlns:xlink="http://www.w3.org/1999/xlink"><g id="_x33_01-sistrix"><g><g><path d="M485.999,454.118L335.268,301.333c20.536-28.648,32.755-63.866,32.755-101.857     c0-95.594-76.7-173.423-170.96-173.423c-94.361-0.103-171.062,77.726-171.062,173.32c0,95.593,76.7,173.425,170.96,173.425     c40.864,0,78.343-14.582,107.812-38.917l149.909,152.066L485.999,454.118z M196.961,332.751     c-72.492,0-131.532-59.862-131.532-133.378c0-73.518,59.04-133.379,131.532-133.379c72.489,0,131.53,59.861,131.53,133.379     C328.491,272.889,269.554,332.751,196.961,332.751z" style="fill:#007FC4;"/></g></g></g><g id="Layer_1"/></svg>