<?xml version="1.0" ?><!DOCTYPE svg  PUBLIC '-//W3C//DTD SVG 1.1//EN'  'http://www.w3.org/Graphics/SVG/1.1/DTD/svg11.dtd'><svg height="512px" style="enable-background:new 0 0 512 512;" version="1.1" viewBox="0 0 512 512" width="512px" xml:space="preserve" xmlns="http://www.w3.org/2000/svg" xmlns:xlink="http://www.w3.org/1999/xlink"><g id="_x33_83-wpbeginner"><g><path d="M256.005,34.729c-173.388,0-282.447,156.593-204.272,286.837    c-55.805,63.843-3.59,155.706,90.734,155.706c39.039,0,77.822-17.404,98.925-49.431c6.805,0.352,22.427,0.352,29.229,0    c21.06,31.957,59.803,49.431,98.924,49.431c94.846,0,146.261-92.183,90.735-155.706    C538.395,191.422,429.498,34.729,256.005,34.729z" style="fill:#FF6600;"/><rect height="57.368" style="fill:#FFFFFF;" width="41.022" x="124.77" y="182.237"/><path d="M339.305,324.629c-54.92,24.656-134.583,13.29-185.062-32.515L154,267.522    c54.561,42.642,125.535,54.218,185.305,33.557V324.629z" style="fill:#FFFFFF;"/><rect height="57.368" style="fill:#FFFFFF;" width="164.036" x="190.387" y="182.237"/></g></g><g id="Layer_1"/></svg>