<?xml version="1.0" ?><!DOCTYPE svg  PUBLIC '-//W3C//DTD SVG 1.1//EN'  'http://www.w3.org/Graphics/SVG/1.1/DTD/svg11.dtd'><svg height="512px" style="enable-background:new 0 0 512 512;" version="1.1" viewBox="0 0 512 512" width="512px" xml:space="preserve" xmlns="http://www.w3.org/2000/svg" xmlns:xlink="http://www.w3.org/1999/xlink"><g id="_x32_25-Nem"><g><path d="M255.635,26c79.737,1.452,154.113,21.212,223.916,60.051c3.538,2.171,4.236,4.704,4.236,8.266    c-0.694,66.514-14.92,130.14-43.056,190.186c-25.992,56.074-62.302,104.599-107.849,146.31    c-22.064,20.152-46.643,37.757-72.262,53.565c-3.576,2.162-6.075,2.162-9.591,0C162.02,430.11,97.956,354.22,59.151,256.459    c-13.527-34.507-23.105-70.128-27.061-107.166c-2.13-18.296-2.822-36.979-3.878-55.67c0-2.171,1.748-5.793,3.878-6.85    c48.056-27.667,99.338-46.012,154.171-53.583C209.357,29.982,232.484,28.171,255.635,26L255.635,26z" style="fill:#FFFFFF;"/><path d="M312.503,62.32c-3.198-0.969-5.149-1.624-6.771-1.938c-9.987-1.307-20.327-2.644-30.652-3.603    c-33.938-2.285-67.837,0-101.112,6.866c-38.415,7.797-74.576,21.512-108.801,40.767c-3.57,1.958-4.846,4.232-4.531,8.449    c1.631,17.958,2.589,35.896,4.531,53.486c1.274,11.104,2.898,22.858,7.423,32.973c19.68,45.01,74.273,65.225,117.862,43.367    c33.253-16.318,49.423-44.336,51.04-81.551c1.898-43.387,22.268-74.684,60.696-93.949    C305.088,65.583,307.985,64.279,312.503,62.32L312.503,62.32z" style="fill:#F7A800;"/><path d="M369.095,345.857c0.316,0.31,0.962,0.31,1.252,0.629c3.384-4.392,6.495-8.77,9.879-13.129    c45.69-62.671,69.137-133.138,70.104-211.097c0-3.111-0.655-5.297-3.727-6.556c-18.218-8.43-36.146-17.442-54.665-24.966    c-23.748-9.345-47.544-7.472-70.093,4.694c-32.41,17.162-50.626,56.759-42.272,92.933c5.883,24.925,20.066,43.026,41.365,56.43    c32.409,20.293,48.473,49.903,48.784,88.252C369.723,337.418,369.409,341.795,369.095,345.857L369.095,345.857z" style="fill:#67B2E8;"/><path d="M102.426,274.132c0.577,1.764,1.189,4.096,2.322,6.437c6.643,13.442,12.441,27.476,19.954,40.335    c28.958,50.556,68.6,90.615,117.771,121.313c3.776,2.334,6.944,2.903,10.695,0c15.069-11.122,30.721-21.925,45.446-33.338    c5.787-4.376,12.167-9.639,15.914-15.79c11.854-19.302,15.339-40.358,10.155-62.555c-8.401-34.481-40.236-59.863-75.238-60.201    c-15.08,0-28.672,3.511-41.961,10.814c-24.618,13.472-50.376,16.372-76.691,7.044    C121.249,284.658,112.289,279.101,102.426,274.132L102.426,274.132z" style="fill:#00C4B3;"/></g></g><g id="Layer_1"/></svg>