<?xml version="1.0" ?><!DOCTYPE svg  PUBLIC '-//W3C//DTD SVG 1.1//EN'  'http://www.w3.org/Graphics/SVG/1.1/DTD/svg11.dtd'><svg height="512px" style="enable-background:new 0 0 512 512;" version="1.1" viewBox="0 0 512 512" width="512px" xml:space="preserve" xmlns="http://www.w3.org/2000/svg" xmlns:xlink="http://www.w3.org/1999/xlink"><g id="_x33_61-vimeo"><g><g><path d="M485.785,149.001c-2.053,44.766-33.267,106.063-93.846,183.893     c-62.529,81.32-115.408,121.98-158.736,121.98c-26.8,0-49.491-24.747-68.075-74.236     c-36.143-132.658-51.545-210.384-81.422-210.384c-3.492,0-15.505,7.29-36.143,21.665L26,163.991     C78.981,117.479,129.602,65.73,161.328,62.855c35.836-3.491,57.808,21.049,66.125,73.414     c29.467,186.359,42.506,214.491,96.103,130.093c19.202-30.394,29.572-53.497,31.009-69.411     c4.929-47.128-36.757-43.946-64.993-31.831c22.59-74.03,65.814-109.966,129.577-107.912     C466.176,58.439,488.456,89.14,485.785,149.001L485.785,149.001z" style="fill:#1AB7EA;"/></g></g></g><g id="Layer_1"/></svg>