<?xml version="1.0" ?><!DOCTYPE svg  PUBLIC '-//W3C//DTD SVG 1.1//EN'  'http://www.w3.org/Graphics/SVG/1.1/DTD/svg11.dtd'><svg height="512px" style="enable-background:new 0 0 512 512;" version="1.1" viewBox="0 0 512 512" width="512px" xml:space="preserve" xmlns="http://www.w3.org/2000/svg" xmlns:xlink="http://www.w3.org/1999/xlink"><g id="_x32_35-nvidia"><g><path d="M198.518,195.78c-38.096,0.373-72.593,29.687-74.061,30.932c-4.45,3.835-6.119,10.003-4.225,15.563    c0.922,2.769,21.479,60.739,78.287,71.951v-29.837c-25.759-7.723-40.451-29.312-46.949-42.024    c10.347-7.007,28.804-17.44,46.949-17.732v-28.851c0.227-0.002,0.452-0.057,0.713-0.057c38.351,0,73.311,29.742,74.777,31.018    c6.006,5.183,6.667,14.236,1.522,20.288c-5.146,6.059-14.201,6.718-20.238,1.589c-0.293-0.229-28.465-24.04-56.062-24.04    c-0.224-0.025-0.487,0.055-0.713,0.055v59.729c5.918,1.792,12.24,3.058,19.402,3.058c41.054,0,89.576-33.178,118.699-58.715    c-32.487-26.812-87.68-59.185-128.043-59.185c-3.282,0-6.671,0.408-10.061,0.808V195.78z" style="fill:#77B900;"/><path d="M471.623,83.045H212.889c-7.932,0-14.369,6.457-14.369,14.413v43.957    c3.355-0.316,6.723-0.723,10.059-0.723c57.156,0,128.101,47.447,159.374,77.372c2.851,2.683,4.433,6.429,4.461,10.318    c0.031,3.891-1.553,7.674-4.312,10.406c-8.078,7.924-80.897,77.481-150.209,77.481c-6.93,0-13.315-0.837-19.405-2.042v26.654    c-33.987-7.601-88.3-50.458-135.808-107.684c10.351-5.565,20.929-11.588,31.537-17.677c35.735-20.434,72.53-41.306,104.303-45.196    v-28.911c-38.558,3.573-79.151,26.551-118.535,49.092c-15.61,8.905-31.018,17.726-45.91,25.016    c-3.881,1.907-6.727,5.482-7.703,9.719c-0.977,4.232,0,8.682,2.675,12.106c48.841,62.582,118.269,124.93,169.474,132.454v-28.904    c3.522,0.807,7.022,1.58,10.059,1.58c40.075,0,158.284-32.774,195.489-69.268c5.634-5.57,14.804-5.446,20.32,0.231    c5.55,5.678,5.438,14.811-0.224,20.38c-44.795,43.983-169.993,77.481-215.586,77.481c-3.19,0-6.702-0.98-10.059-1.501v44.736    c0,7.957,6.438,14.417,14.369,14.417h258.734c7.938,0,14.376-6.46,14.376-14.417V97.458    C485.999,89.503,479.562,83.045,471.623,83.045z" style="fill:#77B900;"/></g></g><g id="Layer_1"/></svg>