<?xml version="1.0" ?><!DOCTYPE svg  PUBLIC '-//W3C//DTD SVG 1.1//EN'  'http://www.w3.org/Graphics/SVG/1.1/DTD/svg11.dtd'><svg height="512px" style="enable-background:new 0 0 512 512;" version="1.1" viewBox="0 0 512 512" width="512px" xml:space="preserve" xmlns="http://www.w3.org/2000/svg" xmlns:xlink="http://www.w3.org/1999/xlink"><g id="_x33_05-skype"><g><path d="M462.172,301.034c2.978-14.379,4.828-29.681,4.828-44.983    c0-116.566-94.383-210.845-210.847-210.845c-15.302,0-30.502,1.746-44.982,4.827c-19.514-15.096-43.75-24.032-70.145-24.032    c-63.47,0-115.025,51.556-115.025,115.025c0,26.394,8.936,50.63,23.93,70.043c-2.979,14.377-4.828,29.68-4.828,44.982    c0,116.566,94.383,210.843,210.846,210.843c15.303,0,30.501-1.745,44.982-4.825c19.515,14.993,43.751,23.93,70.043,23.93    c63.469,0,115.024-51.557,115.024-115.024C486.101,344.683,477.166,320.445,462.172,301.034L462.172,301.034z" style="fill:#00AFF0;"/><path d="M262.315,395.007c-67.371,0-123.754-29.989-123.754-66.757c0-16.431,9.242-31.426,30.297-31.426    c32.042,0,35.021,46.111,90.479,46.111c26.394,0,43.443-11.707,43.443-27.011c0-19.204-16.432-22.184-43.134-28.755    c-64.189-15.816-120.982-22.595-120.982-89.555c0-60.8,60.183-83.291,112.046-83.291c56.591,0,113.793,22.491,113.793,56.895    c0,17.357-11.708,32.661-31.118,32.661c-29.063,0-29.988-34.405-77.026-34.405c-26.394,0-43.134,7.189-43.134,23.107    c0,20.334,21.362,22.389,70.966,33.891c42.52,9.552,93.151,27.524,93.151,79.697C377.342,366.865,318.699,395.007,262.315,395.007    L262.315,395.007z" style="fill:#FFFFFF;"/></g></g><g id="Layer_1"/></svg>