<?xml version="1.0" ?><!DOCTYPE svg  PUBLIC '-//W3C//DTD SVG 1.1//EN'  'http://www.w3.org/Graphics/SVG/1.1/DTD/svg11.dtd'><svg height="512px" style="enable-background:new 0 0 512 512;" version="1.1" viewBox="0 0 512 512" width="512px" xml:space="preserve" xmlns="http://www.w3.org/2000/svg" xmlns:xlink="http://www.w3.org/1999/xlink"><g id="_x37_8-Dash"><g><g><path d="M36.762,385.802c7.208-21.074,13.663-40.729,20.876-60.66c0.695-1.837,4.282-3.607,6.443-3.607     c11.88-0.354,23.713,0,35.608,0c77.283,0,154.914,0,232.194,0c6.094,0,8.977-1.838,10.787-7.99     c12.947-38.507,26.24-76.991,39.535-115.456c0.705-2.192,1.045-4.022,2.127-7.264c-93.817,0-187.249,0-281.409,0     c7.198-21.433,13.99-41.397,21.196-61.362c0.709-1.436,3.591-2.921,5.387-2.921c7.213-0.339,14.015,0,21.214,0     c95.218,0,190.487,0.772,286.099-0.339c28.412-0.37,58.613,21.756,46.386,63.889c-9.023,31.594-20.842,62.08-31.29,92.924     c-3.602,10.521-7.188,21.422-10.763,31.595c-13.308,37.04-40.267,59.167-77.292,69.688c-3.218,1.068-6.838,1.068-10.402,1.068     c-102.824,0-205.955,0-308.765,0C42.521,385.802,40.001,385.802,36.762,385.802L36.762,385.802z" style="fill:#1C74BC;"/><path d="M215.045,225.3c-7.188,20.315-13.993,39.584-21.199,58.105c-0.337,1.438-3.23,2.515-5.026,2.515     c-53.188,0-106.745,0-159.952,0c-0.719,0-1.414-0.35-2.867-1.076c6.851-18.882,13.295-37.386,20.493-55.899     c0.709-1.817,3.602-3.641,5.398-3.641C105.437,225.3,159.348,225.3,215.045,225.3L215.045,225.3z" style="fill:#1C74BC;"/></g></g></g><g id="Layer_1"/></svg>