<?xml version="1.0" ?><!DOCTYPE svg  PUBLIC '-//W3C//DTD SVG 1.1//EN'  'http://www.w3.org/Graphics/SVG/1.1/DTD/svg11.dtd'><svg height="512px" style="enable-background:new 0 0 512 512;" version="1.1" viewBox="0 0 512 512" width="512px" xml:space="preserve" xmlns="http://www.w3.org/2000/svg" xmlns:xlink="http://www.w3.org/1999/xlink"><g id="_x32_4_x2C__Dimension_x2C__Adobe"><g><rect height="510.578" style="fill:#3CF2A5;" width="510.576" x="1.207" y="0.711"/><rect height="465.646" style="fill:#01271A;" width="465.646" x="23.669" y="23.179"/><g><g><g><path d="M157.957,140.135c-19.101,0-41.138,0.354-58.769,1.061c-1.764,0.349-2.058,1.057-2.058,2.467       v224.323c0,2.468,0.588,3.172,2.058,3.172c16.749,0.354,32.031,0.707,52.891,0.707c39.966,0,105.787-17.988,105.787-118.512       C257.866,185.636,224.365,140.135,157.957,140.135z M153.256,338.356c-8.229,0-15.282,0-20.571-0.35V174.701       c2.646-0.354,12.048-0.704,25.272-0.704c40.259,0,63.472,27.155,63.472,80.417       C221.429,312.611,194.393,338.356,153.256,338.356z M368.787,198.638c-27.662-2.182-73.871,11.898-73.871,11.898       c-1.684,0-1.981,0.989-1.981,2.775c0.592,6.941,0.099,17.054,0.099,28.954h0.199V368.69c0,2.48,0.494,3.175,1.982,3.175h30.24       c1.688,0,2.284-0.694,2.284-2.778V238.002c11.302-5.454,16.16-7.137,26.87-7.137c17.255,0,26.673,15.567,26.673,38.273v99.552       c0,2.083,0.891,3.175,2.578,3.175h29.947c1.385,0,2.279-0.993,2.279-2.778v-99.552       C416.087,212.915,390.901,200.424,368.787,198.638z" style="fill:#D4FDEF;"/></g></g></g></g></g><g id="Layer_1"/></svg>