<?xml version="1.0" ?><!DOCTYPE svg  PUBLIC '-//W3C//DTD SVG 1.1//EN'  'http://www.w3.org/Graphics/SVG/1.1/DTD/svg11.dtd'><svg height="512px" style="enable-background:new 0 0 512 512;" version="1.1" viewBox="0 0 512 512" width="512px" xml:space="preserve" xmlns="http://www.w3.org/2000/svg" xmlns:xlink="http://www.w3.org/1999/xlink"><g id="_x31_35-forumbee"><g><path d="M451.603,373.26c15.606-25.774,26.08-55.139,30.29-85.019    c-81.526,44.048-148.884,113.562-192.624,195.396c30.803-4.518,60.476-15.709,86.864-32.139    c35.938,13.452,72.8,24.952,109.865,34.5C476.451,448.521,465.053,409.504,451.603,373.26z" style="fill:#86AC2F;"/><path d="M435.379,113.791c-14.066-17.969-30.496-33.576-49.08-46.514    C232.691,112.765,112.866,233.719,68.305,387.635c12.835,18.584,28.75,36.553,46.411,50.312    C158.969,282.594,280.231,158.97,435.379,113.791z" style="fill:#86AC2F;"/><path d="M305.696,31.648c-16.428-3.594-33.575-5.647-50.621-5.647    c-126.602,0-229.073,102.679-229.073,229.28c0,17.662,2.052,35.321,5.955,52.776C79.29,181.045,178.992,79.907,305.696,31.648z" style="fill:#86AC2F;"/><path d="M482.098,223.862c-2.67-20.021-8.112-39.736-16.223-58.32    c-141.594,47.026-253,160.793-299.104,303.001c18.587,7.803,37.992,12.837,58.117,15.607    C272.429,366.994,365.352,271.813,482.098,223.862z" style="fill:#86AC2F;"/></g></g><g id="Layer_1"/></svg>