<?xml version="1.0" ?><!DOCTYPE svg  PUBLIC '-//W3C//DTD SVG 1.1//EN'  'http://www.w3.org/Graphics/SVG/1.1/DTD/svg11.dtd'><svg height="512px" style="enable-background:new 0 0 512 512;" version="1.1" viewBox="0 0 512 512" width="512px" xml:space="preserve" xmlns="http://www.w3.org/2000/svg" xmlns:xlink="http://www.w3.org/1999/xlink"><g id="_x33_-accessible-icon"><g><g><g><path d="M435.602,255.827L424.01,397.154c-2.963,36.568-57.412,31.538-54.445-4.402l8.984-110.061      l-36.928,2.065c9.074,18.601,14.195,39.444,14.195,61.544c0,37.018-14.465,70.711-38.004,95.688l-35.311-35.309      c52.021-57.232,11.77-150.225-66.486-150.225c-23.27,0-44.473,8.896-60.376,23.36l-35.309-35.309      c19.766-18.598,45.013-31.535,73.135-36.118l67.654-76.999l-38.274-22.282l-46.361,41.33      c-26.953,24.078-63.431-16.622-36.387-40.791l61.096-54.536c8.805-7.907,21.652-9.165,31.895-3.235      c0,0,125.155,72.687,125.337,72.866c14.553,9.074,18.598,32.344,5.479,47.26l-52.469,59.747l95.324-5.3      C423.381,225.458,436.947,239.385,435.602,255.827L435.602,255.827z M377.291,117.464c25.246,0,45.73-20.484,45.73-45.732      c0-25.247-20.484-45.731-45.73-45.731c-25.248,0-45.734,20.485-45.734,45.731C331.557,96.979,352.043,117.464,377.291,117.464z" style="fill:#0099E5;"/></g></g><path d="M216.106,436.149c-72.416,0-114.463-81.401-74.302-140.251l-35.669-35.666    c-18.688,23.627-29.829,53.545-29.829,85.98c0,117.429,135.398,180.949,225.871,110.062l-35.668-35.669    C252.135,430.397,234.793,436.149,216.106,436.149L216.106,436.149z" style="fill:#0073AC;"/></g></g><g id="Layer_1"/></svg>