<?xml version="1.0" ?><!DOCTYPE svg  PUBLIC '-//W3C//DTD SVG 1.1//EN'  'http://www.w3.org/Graphics/SVG/1.1/DTD/svg11.dtd'><svg height="512px" style="enable-background:new 0 0 512 512;" version="1.1" viewBox="0 0 512 512" width="512px" xml:space="preserve" xmlns="http://www.w3.org/2000/svg" xmlns:xlink="http://www.w3.org/1999/xlink"><g id="_x34_6-bity"><g><g><path d="M98.72,92.736c88.458-82.709,228.191-84.563,318.132,3.523     c13.261,13.074-5.935,34.402-20.77,19.936c-78.628-76.403-200.096-74.456-277.148-2.968     C103.82,127.229,85.089,105.532,98.72,92.736z M190.422,480.874c17.896,5.286,27.168-21.882,7.326-27.816     C93.712,421.625,34.74,314.251,60.981,211.05c4.636-18.172-23.088-26.055-28.002-6.584     C3.215,322.597,71.088,445.361,190.422,480.874z M327.745,479.021c113.029-37.276,178.863-154.755,152.438-269.825     c-4.173-18.266-32.36-12.796-27.817,7.325c22.438,99.862-34.4,202.041-132.781,234.96     C299.929,457.971,309.943,484.861,327.745,479.021z M269.423,405.769l0.185-66.575c0-7.603-6.118-13.724-13.723-13.724     c-7.602,0-13.723,6.212-13.723,13.724l-0.185,66.575c0,7.602,6.12,13.724,13.723,13.724     C263.303,419.492,269.423,413.37,269.423,405.769z M335.255,156.343c1.947,84.286,4.359,122.303-79.277,122.859     c-85.769-0.649-80.576-41.077-79.278-122.859c0-20.213-30.135-18.172-30.135,0v66.39c0,64.257,56.283,84.285,109.413,83.545     c53.13,0.74,109.413-19.288,109.413-83.545v-66.39C365.391,138.171,335.255,136.13,335.255,156.343z" style="fill:#00A5B3;"/></g></g></g><g id="Layer_1"/></svg>