<?xml version="1.0" ?><!DOCTYPE svg  PUBLIC '-//W3C//DTD SVG 1.1//EN'  'http://www.w3.org/Graphics/SVG/1.1/DTD/svg11.dtd'><svg height="512px" style="enable-background:new 0 0 512 512;" version="1.1" viewBox="0 0 512 512" width="512px" xml:space="preserve" xmlns="http://www.w3.org/2000/svg" xmlns:xlink="http://www.w3.org/1999/xlink"><g id="_x38_3-deskpro"><g><path d="M225.416,485.973l27.943-34.506c11.053-0.178,23.002-1.256,32.797-5.929    c34.953-16.712,34.505-55.618,34.413-57.325c-0.089-4.493-0.718-3.955-25.967-33.606h71.073c-0.18,45.019-6.56,61.55-9.165,68.02    c-8.445,21.296-39.445,56.429-85.54,62.358C263.154,485.973,241.5,486.061,225.416,485.973L225.416,485.973z M405.48,335.289    c34.686,0,52.564-12.221,66.222-27.764l-157.691-0.271l-15.636,28.124L405.48,335.289z M366.306,134.108v151.224h-66.043    l-29.381,49.866h-5.841c-46.994,0-52.205-50.767-52.385-52.924c-1.078-11.86-19.14-10.423-18.061,1.617    c1.258,14.198,7.907,35.943,23.722,51.307h-81.767c-22.912,0-99.557-24.08-96.143-102.432V41.11    c0-14.376,8.716-14.916,13.478-15.095h73.68c0.18,0,0.269,0.09,0.45,0.09c3.862-0.359,45.016-1.886,45.016,39.266    c0,11.951,18.15,12.04,18.15,0c0-16.353-4.941-29.471-14.196-39.266h75.656C350.312,25.746,366.306,97.449,366.306,134.108    L366.306,134.108z M247.25,184.426l57.506,26.328C316.706,169.87,266.838,146.328,247.25,184.426z" style="fill:#1568B4;"/></g></g><g id="Layer_1"/></svg>