<?xml version="1.0" ?><!DOCTYPE svg  PUBLIC '-//W3C//DTD SVG 1.1//EN'  'http://www.w3.org/Graphics/SVG/1.1/DTD/svg11.dtd'><svg height="512px" style="enable-background:new 0 0 512 512;" version="1.1" viewBox="0 0 512 512" width="512px" xml:space="preserve" xmlns="http://www.w3.org/2000/svg" xmlns:xlink="http://www.w3.org/1999/xlink"><g id="_x31_38-galactic-republic"><g><path d="M116.499,152.89l-16.129-16.128c-20.458,26.636-34.23,58.67-38.812,93.587h22.861    C88.685,201.635,99.962,175.213,116.499,152.89z"/><path d="M152.806,116.535c22.323-16.545,48.735-27.877,77.458-32.153V61.623c-34.91,4.581-66.923,18.363-93.559,38.813    l16.025,16.1H152.806z"/><path d="M375.248,100.324c-26.664-20.458-58.705-34.213-93.633-38.767v22.834c28.077,4.137,54.7,15.141,77.504,32.032    L375.248,100.324z"/><path d="M61.558,281.652v0.01c4.563,34.908,18.316,66.939,38.766,93.576l16.1-16.13c-16.517-22.322-27.748-48.754-32.005-77.456    H61.558z"/><path d="M450.45,230.339c-4.591-34.954-18.389-67.043-38.885-93.697l-16.101,16.101c16.937,22.827,27.98,49.48,32.153,77.597    H450.45z"/><path d="M359.119,395.511c-22.34,16.546-48.764,27.898-77.504,32.152v22.789c34.936-4.562,66.969-18.354,93.633-38.812    l-16.054-16.13H359.119z"/><path d="M395.456,359.194l16.1,16.099c20.477-26.652,34.295-58.696,38.887-93.631H427.61    C423.334,310.402,412.028,336.843,395.456,359.194z"/><path d="M256,26.001c-126.824,0-230,103.175-230,229.999s103.175,229.999,230,229.999c126.824,0,229.999-103.175,229.999-229.999    S382.824,26.001,256,26.001z M256,470.669c-118.367,0-214.67-96.304-214.67-214.669S137.634,41.332,256,41.332    c118.366,0,214.667,96.303,214.667,214.668S374.366,470.669,256,470.669z"/><path d="M350.402,370.676l20.337-20.339l-54.411-54.43c5.064-7.633,8.781-16.248,10.666-25.541h76.854v-28.75h-76.854    c-1.874-9.293-5.593-17.974-10.666-25.615l54.411-54.411l-20.337-20.338l-54.411,54.411c-7.651-5.092-16.296-8.783-25.616-10.666    v-76.845h-28.75v76.854c-9.312,1.883-18.01,5.509-25.661,10.591l-54.366-54.337l-20.338,20.338l54.412,54.412    c-5.074,7.632-8.765,16.313-10.638,25.613h-76.882v28.75h76.882c1.873,9.295,5.575,17.909,10.638,25.542l-54.412,54.432    l20.338,20.336l54.366-54.364c7.784,5.172,16.5,8.786,25.661,10.636v76.884h28.75v-76.884c9.32-1.88,17.965-5.618,25.616-10.711    L350.402,370.676z"/><path d="M136.641,411.564c26.645,20.488,58.706,34.295,93.632,38.888v-22.854c-28.74-4.292-55.209-15.57-77.531-32.132    L136.641,411.564z"/></g></g><g id="Layer_1"/></svg>