<?xml version="1.0" ?><!DOCTYPE svg  PUBLIC '-//W3C//DTD SVG 1.1//EN'  'http://www.w3.org/Graphics/SVG/1.1/DTD/svg11.dtd'><svg height="512px" style="enable-background:new 0 0 512 512;" version="1.1" viewBox="0 0 512 512" width="512px" xml:space="preserve" xmlns="http://www.w3.org/2000/svg" xmlns:xlink="http://www.w3.org/1999/xlink"><g id="_x31_05-earlybirds"><g><path d="M476.906,318.325c-9.18,22.253-37.737,10.199-59.248-1.112    c-12.517,64.068-53.87,103.288-117.104,115.156c0.278,0.834-1.854-0.093,22.254,0.929c31.154,1.297,59.153-2.876,90.308-7.418    c-18.359-12.795-10.57-34.4-9.087-35.327c1.298-0.833,13.63,1.577,20.028,10.662c7.974-11.588,26.331-13.721,28-12.609    c1.485,1.021,6.12,19.38-6.396,32.082c4.358-0.834,7.603-1.483,9.085-1.947c2.413-0.742,16.413,10.477,2.875,12.331    c-13.259,2.132-20.954,4.729-43.67,10.013c-42.558,9.921-79.646,10.943-109.132,11.87l0.927,10.754    c3.524,16.782-21.694,22.53-25.59,5.75c0.742,16.597-25.127,20.212-26.332-0.927l-0.464,4.913    c-0.649,17.061-26.331,16.597-26.238-0.557c-6.955,12.518-26.055,6.305-24.479-7.88l1.113-11.497    c-34.029,0.833-55.354,2.872-57.302,2.872c-19.378,0-19.378-29.298,0-29.298c2.226,0,25.684,1.205,58.6,2.596    c-56.651-14.372-96.15-50.996-106.535-109.594c-23.179,11.869-53.313,24.85-63.234,0.742    c-9.735-23.552,19.935-39.499,61.938-68.057c0.648-6.121,1.482-12.332,2.503-18.358c-13.352-18.173-10.756-33.658-14.929-56.004    c-15.576,2.226-21.511-8.436-21.881-21.417c0.277-6.769,1.946-13.816,2.225-14.279c1.02-1.669,9.365-1.854,11.775-2.411    c5.563-29.391,46.916-30.782,84.282-31.987c18.266-20.213,41.908-38.479,75.01-44.783c-14.187-17.988-3.152-36.995-2.226-37.458    c1.576-0.743,19.656,3.986,24.386,21.51c4.821-8.159,16.967-10.57,18.174-9.922c1.019,0.556,5.933,13.908-4.545,24.015    c37.366,3.245,66.944,22.902,89.012,47.009c33.47,1.391,66.571,5.47,71.485,31.524c2.504,0.557,10.756,0.742,11.774,2.411    c0.279,0.464,1.948,7.51,2.227,14.279c-0.463,12.888-6.305,23.551-21.882,21.419c-2.967,16.04-2.504,30.505-8.067,44.226    c2.227,10.848,3.709,22.067,4.452,33.75C455.304,279.846,486.18,295.7,476.906,318.325L476.906,318.325z" style="fill:#CCD82E;"/><path d="M225.822,166.914c0.834-40.797-35.141-39.127-72.877-37.366    c-20.12,0.927-36.068,1.762-42.188,12.888c-10.57,19.379,5.471,86.136,21.512,93.833c9.086,4.356,68.055,7.324,80.016-6.584    C219.889,220.97,226.193,183.881,225.822,166.914L225.822,166.914z" style="fill:#FFFFFF;"/><path d="M399.855,142.436c-6.118-11.219-22.994-11.96-43.114-12.888    c-37.272-1.761-72.505-3.523-71.671,37.366c-0.465,16.967,4.635,54.056,12.238,62.864c12.054,13.814,71.023,10.94,80.018,6.582    C391.975,229.313,411.169,163.204,399.855,142.436z" style="fill:#FFFFFF;"/><path d="M323.92,62.698c1.111-12.055,19.749-12.981,33.934-8.067c0.837,0.278,24.295,8.994,17.618,14.094    C349.604,61.863,323.178,85.6,323.92,62.698z" style="fill:#669014;"/><path d="M137.555,69.095c28.464-7.51,57.485,18.543,56.649-6.583c-1.203-13.166-21.696-14.185-37.271-8.9    C156.005,53.889,130.321,63.347,137.555,69.095z" style="fill:#669014;"/><path d="M329.668,167.006c-8.16,0-14.834,6.675-14.834,14.835s6.674,14.834,14.834,14.834    c8.159,0,14.836-6.675,14.836-14.834S337.827,167.006,329.668,167.006z" style="fill:#586136;"/><path d="M181.596,167.006c-8.16,0-14.836,6.675-14.836,14.835s6.676,14.834,14.836,14.834    c8.159,0,14.834-6.675,14.834-14.834S189.755,167.006,181.596,167.006z" style="fill:#586136;"/><path d="M274.037,220.97c-3.988-11.498-5.563-27.91-14.186-30.32c-1.854-0.463-8.346-0.463-10.2,0    c-9.271,2.597-10.015,20.491-15.763,34.493c14.278,0,17.895,8.993,21.975,8.993C259.852,234.135,261.706,223.658,274.037,220.97z" style="fill:#F8D203;"/></g></g><g id="Layer_1"/></svg>