<?xml version="1.0" ?><!DOCTYPE svg  PUBLIC '-//W3C//DTD SVG 1.1//EN'  'http://www.w3.org/Graphics/SVG/1.1/DTD/svg11.dtd'><svg height="512px" style="enable-background:new 0 0 512 512;" version="1.1" viewBox="0 0 512 512" width="512px" xml:space="preserve" xmlns="http://www.w3.org/2000/svg" xmlns:xlink="http://www.w3.org/1999/xlink"><g id="_x31_96-lastfm-square"><g><g><path d="M436.714,26.001H75.287c-27.21,0-49.285,22.075-49.285,49.286v361.427     c0,27.211,22.075,49.285,49.285,49.285h361.427c27.211,0,49.284-22.074,49.284-49.285V75.287     C485.998,48.076,463.925,26.001,436.714,26.001z" style="fill:#D42127;"/></g><path d="M342.044,347.281c-65.099,0-87.688-29.367-99.7-65.816c-16.737-52.366-22.075-86.559-64.687-86.559    c-23,0-46.309,16.532-46.309,62.84c0,36.143,18.482,58.732,44.46,58.732c29.366,0,48.876-21.873,48.876-21.873l12.013,32.757    c0,0-20.332,19.919-62.84,19.919c-52.673,0-82.04-30.906-82.04-88.1c0-59.448,29.367-94.461,84.709-94.461    c75.469,0,82.965,42.507,103.5,104.628c9.037,27.519,24.847,47.438,62.84,47.438c25.567,0,39.12-5.647,39.12-19.612    c0-20.433-22.384-22.588-51.237-29.367c-31.212-7.495-43.639-23.717-43.639-49.283c0-41.072,33.166-53.803,66.948-53.803    c38.401,0,61.709,13.964,64.686,47.848l-37.683,4.518c-1.539-16.225-11.295-23.001-29.365-23.001    c-16.531,0-26.696,7.496-26.696,20.33c0,11.296,4.929,18.072,21.46,21.871c33.576,7.289,73.723,12.321,73.723,59.039    C420.286,333.009,388.66,347.281,342.044,347.281L342.044,347.281z" style="fill:#FFFFFF;"/></g></g><g id="Layer_1"/></svg>