<?xml version="1.0" ?><!DOCTYPE svg  PUBLIC '-//W3C//DTD SVG 1.1//EN'  'http://www.w3.org/Graphics/SVG/1.1/DTD/svg11.dtd'><svg height="512px" style="enable-background:new 0 0 512 512;" version="1.1" viewBox="0 0 512 512" width="512px" xml:space="preserve" xmlns="http://www.w3.org/2000/svg" xmlns:xlink="http://www.w3.org/1999/xlink"><g id="_x31_69-ibooks"><g><g><path d="M133.812,68.62c-59.539,0-107.811,38.718-107.811,86.482v248.119     c0,5.799,7.474,7.963,10.438,2.975c17.338-29.15,54.421-49.301,97.373-49.301c59.546,0,107.817,38.719,107.817,86.486V155.102     C241.629,107.338,193.357,68.62,133.812,68.62z" style="fill:#FFAB15;"/><path d="M378.189,68.62c-59.545,0-107.814,38.718-107.814,86.482v288.279     c0-47.768,48.27-86.486,107.814-86.486c42.954,0,80.034,20.15,97.373,49.301c2.963,4.988,10.437,2.824,10.437-2.975V155.102     C485.999,107.338,437.729,68.62,378.189,68.62z" style="fill:#FFAB15;"/></g></g></g><g id="Layer_1"/></svg>