<?xml version="1.0" ?><!DOCTYPE svg  PUBLIC '-//W3C//DTD SVG 1.1//EN'  'http://www.w3.org/Graphics/SVG/1.1/DTD/svg11.dtd'><svg height="512px" style="enable-background:new 0 0 512 512;" version="1.1" viewBox="0 0 512 512" width="512px" xml:space="preserve" xmlns="http://www.w3.org/2000/svg" xmlns:xlink="http://www.w3.org/1999/xlink"><g id="_x31_77-Iota"><g><g><path d="M333.977,60.006c-0.35-13.794,11.902-26.847,27.668-26.147c13.705,0.755,25.162,12.726,25.162,27.215     c0,14.908-12.238,26.518-27.287,26.147C345.111,86.875,333.627,74.916,333.977,60.006L333.977,60.006z"/><path d="M390.033,410.288c14.754,0,26.264,11.607,26.264,26.521c0,14.908-11.854,26.87-26.596,26.87     c-14.354,0-26.248-11.962-26.248-26.5C363.455,421.903,375.346,410.288,390.033,410.288L390.033,410.288z"/><path d="M52.196,301.425c-15.071,0-26.195-12.006-26.195-27.219c0-14.559,11.845-26.148,26.592-25.797     c14.699,0,26.195,11.962,26.195,27.215C78.45,289.777,66.594,301.425,52.196,301.425L52.196,301.425z"/><path d="M345.111,131.147c0-12.682,10.066-22.864,22.676-22.864c12.17,0,22.246,10.183,22.617,22.505     c0,12.354-10.031,22.885-22.617,23.233C355.178,154.021,345.111,143.859,345.111,131.147L345.111,131.147z"/><path d="M109.008,210.299c12.565,0,22.973,10.171,22.973,22.479c0,12.377-10.407,22.899-22.618,22.899     c-12.587,0-22.672-10.172-22.672-22.899C86.691,220.47,96.411,210.299,109.008,210.299L109.008,210.299z"/><path d="M426.354,162.021c-12.236,0-22.654-10.172-22.305-22.502c0-12.703,10.438-22.876,22.67-22.876     c12.234,0.35,22.254,10.533,22.254,22.876C449.332,152.198,438.951,162.021,426.354,162.021L426.354,162.021z"/><path d="M325.697,431.005c-12.574,0-22.607-10.532-22.607-22.896c0-12.311,10.033-22.48,22.607-22.83     c12.26-0.373,22.693,10.521,22.693,22.83C348.387,420.473,337.957,431.005,325.697,431.005L325.697,431.005z"/><path d="M109.36,177.289c0,12.665-10.071,22.838-22.672,22.467c-12.19,0-22.242-10.172-22.242-22.872     c0-12.333,10.056-22.863,22.242-22.863C98.931,154.021,109.36,164.552,109.36,177.289L109.36,177.289z"/><path d="M288.701,478.168c-12.582,0-22.264-10.138-22.264-22.849c0-12.699,10.08-22.479,22.264-22.479     c12.602,0,22.654,10.122,22.654,22.837C311.355,468.413,301.303,478.168,288.701,478.168L288.701,478.168z"/><path d="M222.195,418.997c0-10.889,8.616-19.228,19.042-19.228c10.811,0,19.449,9.107,19.058,19.992     c0,10.893-8.615,19.227-19.395,19.227C230.475,438.988,221.847,430.306,222.195,418.997L222.195,418.997z"/><path d="M438.559,199.407c0,10.892-8.617,19.6-19.396,19.6c-10.422,0-19.053-8.708-19.053-19.6     c0-10.88,8.627-19.634,19.402-19.634C429.941,179.773,438.559,188.527,438.559,199.407L438.559,199.407z"/><path d="M160.739,153.672c0,10.88-8.61,19.24-19.032,19.24c-10.775,0-19.403-8.71-19.044-19.578     c0-10.916,8.269-19.251,19.044-19.251C152.84,134.083,161.096,142.42,160.739,153.672L160.739,153.672z"/><path d="M183.391,209.185c0,10.889-8.244,19.633-19.08,19.633c-10.761,0-19.393-8.347-19.393-19.229     c0-11.3,8.255-19.635,19.393-19.635C175.147,189.955,183.391,198.294,183.391,209.185L183.391,209.185z"/><path d="M114.758,102.849c0-10.891,8.602-19.24,19.398-19.24c10.762,0,19.018,8.694,19.018,19.562     c0,10.917-8.255,19.262-19.018,19.621C123.013,122.438,114.396,113.738,114.758,102.849L114.758,102.849z"/><path d="M341.188,191.07c0-10.891,8.604-19.636,19.031-19.636c10.785,0,19.391,8.744,19.391,19.636     c0,10.878-8.607,19.229-19.391,19.229C349.443,210.672,341.188,201.949,341.188,191.07L341.188,191.07z"/><path d="M277.916,352.245c10.428,0,19.041,8.696,19.041,19.589c0,10.891-8.609,19.587-19.396,19.229     c-10.773,0-19.043-8.696-19.043-19.574C258.512,360.941,267.141,352.245,277.916,352.245L277.916,352.245z"/><path d="M221.138,451.718c0,10.89-8.255,19.245-19.042,19.245c-10.775,0-19.437-8.765-19.437-19.245     c0-10.937,8.662-19.62,19.437-19.62C212.882,432.098,221.138,440.781,221.138,451.718L221.138,451.718z"/><path d="M466.248,237.169c-10.426,0-19.041-9.104-19.041-19.25c0-10.869,8.988-19.625,19.764-19.625     c10.402,0,19.389,9.104,19.018,19.625C485.986,228.46,477.037,237.169,466.248,237.169L466.248,237.169z"/><path d="M225.086,380.194c0,9.03-7.566,16.672-16.546,16.672c-9.302,0-16.511-7.642-16.511-16.672     c0-9.481,7.558-16.697,16.866-16.697C217.924,363.497,225.086,370.713,225.086,380.194L225.086,380.194z"/><path d="M192.03,127.909c9.323,0,16.511,7.245,16.511,16.672c0,9.094-7.549,16.72-16.511,16.72     c-9.027,0-16.883-7.629-16.527-17.09C175.504,135.503,183.005,127.909,192.03,127.909L192.03,127.909z"/><path d="M228.699,332.639c0-9.429,7.147-16.723,16.156-16.723c9.341,0,16.883,7.294,16.883,16.723     c0,9.076-7.2,16.673-16.521,16.673C235.849,348.96,228.699,342.066,228.699,332.639L228.699,332.639z"/><path d="M169.366,428.803c-9.324,0-16.879-7.253-16.879-16.309c0-9.068,7.199-16.698,16.532-16.698     c9.336,0,16.909,7.243,16.511,16.698C185.526,421.552,178.723,428.803,169.366,428.803L169.366,428.803z"/><path d="M359.158,239.699c0,9.045-7.213,16.336-16.213,16.336c-9.322,0-16.52-7.295-16.52-16.685     c0-9.476,7.197-16.747,16.52-16.747C352.311,222.604,359.158,229.875,359.158,239.699L359.158,239.699z"/><path d="M183.749,110.49c-9.347,0-16.511-6.934-16.511-16.349c0-9.451,7.511-17.092,16.511-17.092     c8.989,0,16.54,7.638,16.54,16.743C200.285,103.176,193.087,110.49,183.749,110.49L183.749,110.49z"/><path d="M401.914,264.036c-9.348,0-16.152-7.279-16.152-16.698c0-9.116,7.152-16.326,16.514-16.744     c9.336,0,16.535,7.268,16.197,17.09C418.469,257.488,411.26,264.372,401.914,264.036L401.914,264.036z"/><path d="M213.939,216.815c-8.985,0-16.174-7.629-16.174-16.683c0-9.06,7.908-16.337,16.883-16.337     c9.011,0,16.163,7.63,16.163,16.705C230.811,209.589,223.296,216.815,213.939,216.815L213.939,216.815z"/><path d="M448.971,282.558c-9.313-0.381-16.512-8-16.146-17.474c0.334-9.048,7.881-16.338,16.912-15.978     c9.314,0.374,16.512,8.012,16.162,17.824C465.508,275.993,457.992,282.92,448.971,282.558L448.971,282.558z"/><path d="M257.424,216.815c-7.905,0-14.022-6.143-14.022-14.133c0-8.013,6.5-14.155,14.407-14.155     c7.895,0,14.004,6.143,14.004,14.155C271.463,210.672,265.318,216.815,257.424,216.815L257.424,216.815z"/><path d="M411.607,302.491c0-7.989,6.129-14.142,14.051-14.515c7.865,0,14,6.153,14,14.155c0,7.989-6.834,15.257-14,14.872     C418.1,317.009,411.965,310.482,411.607,302.491L411.607,302.491z"/><path d="M240.899,96.299c0,7.965-6.107,14.191-14.026,14.191c-7.904,0-13.991-6.584-13.991-14.55c0-8,6.445-14.153,14.711-14.153     C235.154,82.146,240.899,88.335,240.899,96.299L240.899,96.299z"/><path d="M239.471,293.784c0,7.992-6.144,14.168-13.654,14.168c-8.302,0-14.398-6.176-14.398-14.168     c0-7.987,6.097-14.14,14.016-14.14C233.328,279.247,239.471,285.445,239.471,293.784L239.471,293.784z"/><path d="M189.149,355.16c-7.902,0-14.399-6.2-14.399-14.2c0-7.987,6.497-14.502,14.399-14.502     c7.553,0,14.015,6.519,14.015,14.144C203.163,348.96,197.066,355.16,189.149,355.16L189.149,355.16z"/><path d="M392.566,284.334c0,8.338-6.107,14.19-14.016,14.19c-7.547,0-14.002-6.919-14.002-14.534     c0-7.993,6.459-14.168,14.363-14.168C386.459,269.819,392.566,276.344,392.566,284.334L392.566,284.334z"/><path d="M319.625,261.854c8.266,0,14.002,5.781,14.002,14.144c0,7.993-6.098,14.563-14.002,14.19     c-7.896,0-14.416-6.573-14.416-14.19C305.213,268.007,311.355,261.854,319.625,261.854L319.625,261.854z"/><path d="M163.627,373.261c0,8.002-6.466,14.203-14.011,14.203c-7.905,0-14.001-6.206-14.001-14.203     c0-7.992,6.455-14.502,14.001-14.502C157.161,359.13,163.627,365.691,163.627,373.261L163.627,373.261z"/><path d="M235.154,160.953c-7.918,0-14.016-6.211-14.016-14.19c0-7.639,6.456-14.143,14.354-14.512     c7.567-0.35,14.025,6.522,14.025,14.512C249.154,154.742,243.062,160.953,235.154,160.953L235.154,160.953z"/><path d="M364.152,309.76c0,6.875-5.389,12.727-12.203,12.727c-6.838,0-11.883-5.482-11.883-12.365     c0-6.908,5.389-12.366,11.883-12.366C358.764,297.755,364.152,303.213,364.152,309.76L364.152,309.76z"/><path d="M228.699,257.837c0,6.893-5.406,12.354-12.238,12.354c-6.106,0-12.25-6.154-12.25-12.354     c0-6.517,5.794-12.683,12.597-12.333C223.296,245.504,228.699,250.94,228.699,257.837L228.699,257.837z"/><path d="M141.008,325.381c6.793,0,12.17,5.444,11.833,12.318c0,6.569-5.748,12.356-12.191,12.356     c-6.84-0.352-12.238-6.203-12.238-12.703C128.411,330.056,133.81,324.981,141.008,325.381L141.008,325.381z"/><path d="M292.676,224.801c-6.852,0-12.238-5.098-12.238-11.947c0-6.918,5.025-12.357,12.238-12.357     c6.803,0,12.189,5.433,12.189,11.982C304.865,219.356,299.479,224.801,292.676,224.801L292.676,224.801z"/><path d="M270.357,144.578c6.846,0,11.881,5.435,11.881,12.356c0,6.924-5.389,12.363-12.24,12.363     c-6.803,0-12.191-5.444-12.191-12.728C258.166,150.017,263.555,144.578,270.357,144.578L270.357,144.578z"/><path d="M192.03,305.024c0,6.932-5.387,12.364-11.88,12.727c-6.458,0-12.179-6.199-12.179-12.727     c0-6.898,5.362-11.938,12.179-11.938C187,293.086,192.03,298.126,192.03,305.024L192.03,305.024z"/><path d="M293.396,289.777c6.789,0,11.813,5.426,11.813,12.356c0,6.909-5.369,11.974-12.191,11.974     c-7.199,0-12.24-5.461-12.24-12.334C281.135,294.849,286.543,289.419,293.396,289.777L293.396,289.777z"/><path d="M411.607,327.92c0,7.221-5.051,12.682-12.197,12.331c-6.846,0-11.889-5.454-12.232-12.331     c0-6.549,5.387-12.354,11.887-12.354C405.861,315.916,411.607,321.371,411.607,327.92L411.607,327.92z"/><path d="M262.449,94.141c6.852,0,11.879,5.097,11.879,11.96c0,6.92-5.377,12.363-11.879,12.363     c-6.808,0-12.207-5.445-12.207-12.363C250.247,99.24,255.646,94.141,262.449,94.141L262.449,94.141z"/><path d="M299.84,121.729c0,5.806-4.643,10.522-10.814,10.172c-5.727,0-10.057-4.726-10.057-10.545     c0-5.793,4.695-10.52,10.418-10.52C295.553,111.211,300.186,115.925,299.84,121.729L299.84,121.729z"/><path d="M129.851,305.396c0-5.806,4.661-10.193,10.397-10.193c5.796,0,10.787,5.106,10.44,10.913     c-0.365,5.842-5.041,10.521-10.44,10.521C134.16,316.285,129.458,311.55,129.851,305.396L129.851,305.396z"/><path d="M383.229,344.266c0,6.133-4.678,10.893-10.4,10.893c-5.766,0-10.789-4.76-10.789-10.54     c0-5.806,4.645-10.524,10.789-10.524C378.551,334.098,382.848,338.419,383.229,344.266L383.229,344.266z"/><path d="M189.857,273.813c0,5.831-4.679,10.521-10.411,10.521c-5.752,0-10.428-5.087-10.428-10.866     c0-5.828,5.03-10.158,10.428-10.158C185.178,263.31,189.857,267.637,189.857,273.813L189.857,273.813z"/><path d="M297.318,182.726c-6.107,0-10.428-4.715-10.428-10.543c0-5.795,4.67-10.161,10.428-10.161     c6.133,0,10.41,4.361,10.41,10.521C308.08,178.368,303.811,182.726,297.318,182.726L297.318,182.726z"/><path d="M325.361,315.916c5.734,0,10.076,4.363,10.076,10.542c0,6.181-4.689,10.89-10.773,10.89     c-5.789,0-10.068-4.714-10.068-10.53C314.934,320.279,319.625,315.916,325.361,315.916L325.361,315.916z"/><path d="M154.294,279.645c0,5.049-3.974,9.056-9.011,9.056c-4.633,0-9.329-4.366-8.963-9.449c0-5.04,4.33-9.056,9.322-9.056     C150.683,270.54,154.652,274.558,154.294,279.645L154.294,279.645z"/><path d="M356.244,352.963c0,5.086-3.934,9.066-8.975,9.066c-4.668,0-8.945-4.338-8.945-9.066c0-5.085,4.277-9.114,9.311-9.114     C352.67,343.849,356.244,347.878,356.244,352.963L356.244,352.963z"/><path d="M309.197,130.787c5.398,0,9.313,3.645,9.313,9.078c0,5.124-3.914,9.081-8.951,9.081c-5.047,0-8.971-3.613-8.971-8.709     C300.186,134.432,303.811,130.787,309.197,130.787L309.197,130.787z"/></g></g></g><g id="Layer_1"/></svg>