<?xml version="1.0" ?><!DOCTYPE svg  PUBLIC '-//W3C//DTD SVG 1.1//EN'  'http://www.w3.org/Graphics/SVG/1.1/DTD/svg11.dtd'><svg height="512px" style="enable-background:new 0 0 512 512;" version="1.1" viewBox="0 0 512 512" width="512px" xml:space="preserve" xmlns="http://www.w3.org/2000/svg" xmlns:xlink="http://www.w3.org/1999/xlink"><g id="_x31_55-gratipay"><g><g><g><path d="M256,26.5C129.311,26.5,26.5,129.312,26.5,256c0,126.688,102.811,229.5,229.5,229.5      c126.687,0,229.5-102.813,229.5-229.5C485.5,129.312,382.688,26.5,256,26.5z" style="fill:#663300;"/></g></g><path d="M362.051,236.012L257.481,377.32L153.188,236.012c-8.05-11.013-17.675-46.64,12.585-66.629    c26.004-16.75,50.527-3.887,63.391,11.013c14.713,16.564,43.121,15.638,57.097,0c12.862-14.899,37.388-27.763,63.019-11.013    C379.727,189.372,370.195,224.906,362.051,236.012L362.051,236.012z" style="fill:#FFFFFF;"/></g></g><g id="Layer_1"/></svg>