<?xml version="1.0" ?><!DOCTYPE svg  PUBLIC '-//W3C//DTD SVG 1.1//EN'  'http://www.w3.org/Graphics/SVG/1.1/DTD/svg11.dtd'><svg height="512px" style="enable-background:new 0 0 512 512;" version="1.1" viewBox="0 0 512 512" width="512px" xml:space="preserve" xmlns="http://www.w3.org/2000/svg" xmlns:xlink="http://www.w3.org/1999/xlink"><g id="_x39__x2C__Fireworks_x2C__Adobe"><g><rect height="510.578" style="fill:#D2D529;" width="510.576" x="1.207" y="0.711"/><rect height="465.646" style="fill:#373627;" width="465.646" x="23.669" y="23.179"/><g><g><g id="XMLID_258_"><g id="XMLID_263_"><g><path d="M123.365,355.53c0,2.109-0.605,2.809-2.421,2.809H88.619         c-1.206,0-1.811-1.048-1.811-2.809V131.771c0-2.109,0.298-2.458,2.114-2.458h116.317c1.811,0,2.42,0.349,2.718,2.458         l2.719,28.453c0.303,2.107-0.298,3.16-2.114,3.16h-85.198v66.743h76.437c1.815,0,2.421,0.702,2.421,2.458v29.161         c0,1.751-0.913,2.454-2.421,2.454h-76.437V355.53z" id="XMLID_264_" style="fill:#D2D529;"/></g></g><g id="XMLID_260_"><g><path d="M361.556,358.339c-2.013,0-2.587-0.699-3.162-2.809         c-16.101-78.333-21.563-107.841-24.441-124.35h-0.285c-2.872,17.564-9.776,48.831-27.889,124.35         c-0.575,2.109-1.439,2.809-3.161,2.809h-31.916c-2.586,0-3.162-1.048-3.737-3.163L229.3,190.433         c-0.576-1.756,0-2.811,1.726-2.811h30.765c1.721,0,2.297,0.352,2.582,2.107c19.553,90.98,23.575,116.622,25.591,129.267         h0.575c1.151-5.968,8.336-42.502,27.317-128.563c0.286-2.107,0.571-2.811,2.583-2.811h30.765         c1.436,0,2.016,0.704,2.302,2.107c18.687,89.574,23.29,117.675,25.3,130.323h0.576c3.447-20.728,8.911-54.446,26.737-129.97         c0.29-1.756,1.15-2.46,2.302-2.46h28.463c1.15,0,2.012,0.704,1.722,2.46L396.918,355.53c-0.574,2.109-0.86,2.809-3.162,2.809         H361.556z" id="XMLID_261_" style="fill:#D2D529;"/></g></g></g></g></g></g></g><g id="Layer_1"/></svg>