<?xml version="1.0" ?><!DOCTYPE svg  PUBLIC '-//W3C//DTD SVG 1.1//EN'  'http://www.w3.org/Graphics/SVG/1.1/DTD/svg11.dtd'><svg height="512px" style="enable-background:new 0 0 512 512;" version="1.1" viewBox="0 0 512 512" width="512px" xml:space="preserve" xmlns="http://www.w3.org/2000/svg" xmlns:xlink="http://www.w3.org/1999/xlink"><g id="_x36_7-creative-commons-nd"><g><path d="M255.628,26.001c131.509,0,230.371,102.109,230.371,229.999c0,136.422-109.898,229.999-230.371,229.999    C131.354,485.999,26.001,384.447,26.001,256C26.001,132.747,123.102,26.001,255.628,26.001z M256.371,67.457    c-109.62,0-188.914,90.795-188.914,188.543c0,101.829,84.579,188.08,188.914,188.08c95.709,0,188.081-75.213,188.081-188.08    C444.545,150.461,360.797,67.457,256.371,67.457L256.371,67.457z M343.548,201.283v39.415H176.334v-39.415H343.548z     M343.548,275.291v39.415H176.334v-39.415H343.548z"/></g></g><g id="Layer_1"/></svg>