<?xml version="1.0" ?><!DOCTYPE svg  PUBLIC '-//W3C//DTD SVG 1.1//EN'  'http://www.w3.org/Graphics/SVG/1.1/DTD/svg11.dtd'><svg height="512px" style="enable-background:new 0 0 512 512;" version="1.1" viewBox="0 0 512 512" width="512px" xml:space="preserve" xmlns="http://www.w3.org/2000/svg" xmlns:xlink="http://www.w3.org/1999/xlink"><g id="_x31_9_x2C__Dreamweaver_x2C__Adobe"><g><rect height="510.578" style="fill:#AFFC00;" width="510.576" x="1.207" y="0.711"/><rect height="465.646" style="fill:#072600;" width="465.646" x="23.669" y="23.179"/><g><g><g id="XMLID_281_"><g id="XMLID_288_"><g><path d="M70.567,126.664c0-1.402,0.292-2.106,2.048-2.456         c17.56-0.703,39.509-1.056,58.531-1.056c66.138,0,99.502,45.313,99.502,112.758c0,100.114-65.555,118.026-105.355,118.026         c-20.778,0-35.997-0.35-52.678-0.698c-1.464,0-2.048-0.704-2.048-3.163V126.664z M105.977,320.214         c5.268,0.354,12.292,0.354,20.488,0.354c40.969,0,67.894-25.642,67.894-83.604c0-53.041-23.119-80.089-63.212-80.089         c-13.171,0-22.536,0.354-25.169,0.704V320.214z" id="XMLID_289_" style="fill:#AFFC00;"/></g></g><g id="XMLID_282_"><g><path d="M379.203,355.214c-2.012,0-2.587-0.702-3.158-2.812         c-16.101-78.333-21.563-107.841-24.445-124.346h-0.285c-2.876,17.562-9.771,48.826-27.888,124.346         c-0.575,2.109-1.437,2.812-3.162,2.812H288.35c-2.583,0-3.162-1.052-3.733-3.161L246.95,187.307         c-0.576-1.756,0-2.813,1.724-2.813h30.765c1.726,0,2.297,0.354,2.586,2.11c19.553,90.977,23.575,116.624,25.588,129.267         h0.579c1.146-5.97,8.335-42.501,27.313-128.564c0.285-2.109,0.575-2.813,2.588-2.813h30.76c1.44,0,2.015,0.703,2.301,2.11         c18.691,89.576,23.289,117.676,25.306,130.32h0.571c3.452-20.724,8.914-54.446,26.737-129.966         c0.29-1.76,1.15-2.463,2.301-2.463h28.464c1.15,0,2.016,0.703,1.727,2.463l-41.688,165.445         c-0.579,2.109-0.865,2.812-3.161,2.812H379.203z" id="XMLID_284_" style="fill:#AFFC00;"/></g></g></g></g></g></g></g><g id="Layer_1"/></svg>