<?xml version="1.0" ?><!DOCTYPE svg  PUBLIC '-//W3C//DTD SVG 1.1//EN'  'http://www.w3.org/Graphics/SVG/1.1/DTD/svg11.dtd'><svg height="512px" style="enable-background:new 0 0 512 512;" version="1.1" viewBox="0 0 512 512" width="512px" xml:space="preserve" xmlns="http://www.w3.org/2000/svg" xmlns:xlink="http://www.w3.org/1999/xlink"><g id="_x31_78-ioxhost"><g><path d="M468.748,187h-48.369c-26.954-64.185-90.42-109.25-164.378-109.25    c-98.469,0-178.25,79.781-178.25,178.25c0,11.787,1.149,23.358,3.377,34.499H43.251c-9.561,0-17.25,7.762-17.25,17.251    c0,9.559,7.689,17.249,17.25,17.249h48.373c26.952,64.185,90.416,109.251,164.377,109.251c98.466,0,178.249-79.783,178.249-178.25    c0-11.788-1.151-23.359-3.379-34.5h37.877c9.561,0,17.251-7.762,17.251-17.25C485.999,194.691,478.309,187,468.748,187z     M256.001,399.751c-54.41,0-101.775-30.188-126.142-74.752h200.89c9.56,0,17.251-7.761,17.251-17.249    c0-9.56-7.691-17.251-17.251-17.251h-214.33c-2.73-11.067-4.167-22.567-4.167-34.499c0-79.422,64.327-143.75,143.749-143.75    c54.407,0,101.774,30.187,126.141,74.75H181.25c-9.559,0-17.25,7.762-17.25,17.249c0,9.56,7.691,17.25,17.25,17.25h214.332    c2.73,11.069,4.168,22.569,4.168,34.5C399.75,335.422,335.422,399.751,256.001,399.751z" style="fill:#BDBDBD;"/><path d="M181.25,238.75h149.499c9.56,0,17.251,7.69,17.251,17.25c0,9.488-7.691,17.251-17.251,17.251    H181.25c-9.559,0-17.25-7.69-17.25-17.251C164,246.512,171.691,238.75,181.25,238.75z" style="fill:#FFC107;"/></g></g><g id="Layer_1"/></svg>