<?xml version="1.0" ?><!DOCTYPE svg  PUBLIC '-//W3C//DTD SVG 1.1//EN'  'http://www.w3.org/Graphics/SVG/1.1/DTD/svg11.dtd'><svg height="512px" style="enable-background:new 0 0 512 512;" version="1.1" viewBox="0 0 512 512" width="512px" xml:space="preserve" xmlns="http://www.w3.org/2000/svg" xmlns:xlink="http://www.w3.org/1999/xlink"><g id="_x31_7_x2C__Muse_x2C__Adobe"><g><rect height="510.578" style="fill:#C1E800;" width="510.576" x="1.207" y="0.711"/><rect height="465.646" style="fill:#1F2600;" width="465.646" x="23.669" y="23.179"/><g><g><g id="XMLID_167_"><g id="XMLID_168_"><g><path d="M88.059,120.377h49.849c1.747,0,2.454,0.362,2.802,2.118         c8.775,32.644,34.057,138.653,40.019,174.458h0.348c6.678-32.657,36.164-139.948,45.286-174.348         c0.348-1.75,1.053-2.229,2.813-2.229h48.086c1.746,0,2.109,0.345,2.454,1.751l8.431,229.988         c0.349,2.104-0.708,2.799-2.456,2.799h-34.056c-2.107,0-2.455-0.963-2.455-2.723c-1.4-75.119-1.4-181.302-1.4-199.904h-0.36         c-5.962,29.844-36.846,149.711-50.193,199.904c-0.349,2.105-1.402,2.723-2.802,2.723h-30.897c-1.75,0-2.802-0.617-3.16-2.373         c-12.99-52.29-36.848-160.596-44.928-200.254h-0.708c0,27.734-2.8,123.732-5.612,199.904c0,2.105-1.053,2.723-2.455,2.723         H75.777c-2.107,0-2.813-0.694-2.813-2.454l12.64-229.979C85.954,120.723,86.301,120.377,88.059,120.377z M440.633,319.303         c0,2.441,0.351,9.818,1.041,21.764c0,1.39-0.132,2.104-1.543,2.441c-18.605,7.027-39.224,14.4-65.203,14.4         c-31.936,0-62.475-12.29-62.475-61.423V184.35c0-1.76,0.702-2.813,2.454-2.813h33.381c1.762,0,2.455,1.053,2.455,2.813         v107.563c0,20.711,7.833,31.94,29.597,31.94c8.779,0,16.731-1.751,21.999-3.857V184.35c0-1.76,0.699-2.813,2.455-2.813         h33.378c2.104,0,2.461,1.053,2.461,2.813V319.303z" style="fill-rule:evenodd;clip-rule:evenodd;fill:#C1E800;"/></g></g></g></g></g></g></g><g id="Layer_1"/></svg>