<?xml version="1.0" ?><!DOCTYPE svg  PUBLIC '-//W3C//DTD SVG 1.1//EN'  'http://www.w3.org/Graphics/SVG/1.1/DTD/svg11.dtd'><svg height="512px" style="enable-background:new 0 0 512 512;" version="1.1" viewBox="0 0 512 512" width="512px" xml:space="preserve" xmlns="http://www.w3.org/2000/svg" xmlns:xlink="http://www.w3.org/1999/xlink"><g id="_x33_8-beatspill"><g><ellipse cx="256" cy="256" rx="57.342" ry="57.501" style="fill:#D30000;"/><path d="M256.002,26.001c-19.845,0-38.996,2.788-57.345,7.534v123.451    c16.944-9.889,36.358-15.985,57.345-15.985c63.248,0,114.683,51.579,114.683,114.999c0,63.421-51.436,114.997-114.683,114.997    c-63.251,0-114.69-51.576-114.69-114.997V57.022C72.817,96.816,26.623,170.933,26.623,256    c0,127.019,102.702,229.999,229.38,229.999c126.673,0,229.375-102.98,229.375-229.999S382.676,26.001,256.002,26.001z" style="fill:#D30000;"/></g></g><g id="Layer_1"/></svg>