<?xml version="1.0" ?><!DOCTYPE svg  PUBLIC '-//W3C//DTD SVG 1.1//EN'  'http://www.w3.org/Graphics/SVG/1.1/DTD/svg11.dtd'><svg height="512px" style="enable-background:new 0 0 512 512;" version="1.1" viewBox="0 0 512 512" width="512px" xml:space="preserve" xmlns="http://www.w3.org/2000/svg" xmlns:xlink="http://www.w3.org/1999/xlink"><g id="_x36_2-creative-commons"><g><path d="M197.711,296.668c-22.267,0-30.808-18.799-30.808-40.659c0-27.108,10.285-40.656,30.808-40.656    c2.06,0,16.721,0.323,25.467,18.482l30.81-16.025c-12.325-22.176-32.711-33.267-61.201-33.258    c-27.479,0-67.357,17.037-67.357,71.467c0,61.888,47.632,71.457,68.592,71.457c36.548,0,54.651-25.477,60.375-36.149    l-28.332-14.376C220.573,290.092,211.131,296.668,197.711,296.668z"/><path d="M255.591,26.001C123.139,26.001,26.001,132.71,26.001,256c0,128.438,105.354,229.999,229.59,229.999    c120.5,0,230.408-93.549,230.408-229.999C485.999,128.138,387.118,26.001,255.591,26.001z M256.398,444.091    c-104.371,0-188.915-86.288-188.915-188.091c0-97.768,79.23-188.516,188.935-188.516c104.363,0,188.098,82.968,188.098,188.507    C444.506,368.849,352.071,444.091,256.398,444.091z"/><path d="M330.379,296.668c-22.249,0-30.809-18.818-30.809-40.659c0-27.108,10.276-40.656,30.809-40.656    c2.021,0,17.063,0.146,25.874,18.482l30.401-16.025c-12.037-22.176-32.319-33.267-60.801-33.258    c-27.507,0-67.36,17.056-67.36,71.467c0,62.304,47.551,71.457,68.594,71.457c40.527,0,58.417-32.672,60.365-36.149l-28.75-14.376    C353.24,290.092,343.78,296.668,330.379,296.668z"/></g></g><g id="Layer_1"/></svg>