<?xml version="1.0" ?><!DOCTYPE svg  PUBLIC '-//W3C//DTD SVG 1.1//EN'  'http://www.w3.org/Graphics/SVG/1.1/DTD/svg11.dtd'><svg height="512px" style="enable-background:new 0 0 512 512;" version="1.1" viewBox="0 0 512 512" width="512px" xml:space="preserve" xmlns="http://www.w3.org/2000/svg" xmlns:xlink="http://www.w3.org/1999/xlink"><g id="_x31_39-get-pocket"><g><g><path d="M444.518,50.643H67.688c-22.69,0-41.687,18.996-41.687,41.688v138.821     c0,128.041,102.371,230.206,230.205,230.206c127.32,0,229.793-102.165,229.793-230.206V92.331     C485.999,69.331,467.825,50.643,444.518,50.643z M278.179,326.335c-12.732,12.115-32.24,11.396-43.535,0     c-116.746-111.816-117.979-107.916-117.979-126.5c0-17.353,14.17-31.521,31.523-31.521c17.454,0,16.53,3.901,108.018,91.692     c93.025-89.228,90.973-91.692,108.325-91.692c17.351,0,31.522,14.169,31.522,31.521     C396.054,218.111,393.076,215.956,278.179,326.335L278.179,326.335z" style="fill:#F94877;"/></g></g></g><g id="Layer_1"/></svg>