<?xml version="1.0" ?><!DOCTYPE svg  PUBLIC '-//W3C//DTD SVG 1.1//EN'  'http://www.w3.org/Graphics/SVG/1.1/DTD/svg11.dtd'><svg height="512px" style="enable-background:new 0 0 512 512;" version="1.1" viewBox="0 0 512 512" width="512px" xml:space="preserve" xmlns="http://www.w3.org/2000/svg" xmlns:xlink="http://www.w3.org/1999/xlink"><g id="_x31_07-ebay"><g><g id="XMLID_3_"><g><g><polygon points="486,208.16 414.69,348.19 388.88,348.19 409.37,309.3 365.16,225.84 363.57,222.97        355.74,208.16 382.7,208.16 422.16,287.16 461.56,208.16      " style="fill:#86B817;"/></g><g><path d="M369.32,309.38H347.9c-0.57-4.97-0.79-9.78-0.79-14.53c-11.57,14.24-25.37,18.33-44.5,18.33       c-28.391,0-43.561-15.02-43.561-32.34c0-2.3,0.15-4.46,0.51-6.47l0.86-3.601c5.101-17.54,24.65-24.08,55.13-24.729       c9.851-0.21,20.851-0.28,29.98-0.28v-2.45c0-16.819-10.78-23.72-29.471-23.72c-13.88,0-24.159,5.75-25.159,15.67h-24.23       c2.59-24.73,28.54-30.98,51.4-30.98c19.7,0,37.239,5.03,45.5,18.69l1.59,2.87c2.22,4.75,3.45,10.43,3.45,17.11v47.16       C368.61,296.8,368.82,303.48,369.32,309.38z M345.53,263.51v-2.37c-8.48,0-18.91,0.07-28.32,0.431       c-20.92,0.649-33.93,4.46-33.93,18.189c0,8.91,7.12,18.54,25.16,18.54C332.66,298.3,345.53,285.08,345.53,263.51z" style="fill:#F5AF02;"/></g><g><path d="M261.5,259.13c0,4.021-0.36,7.91-1.08,11.64l-0.86,3.601c-6.04,23.22-26.17,38.96-52.7,38.96       c-16.75,0-32.42-5.97-42.19-17.9c0,4.74-0.29,9.49-0.8,14.021h-22.64c0.36-7.34,0.79-16.391,0.79-23.8v-5.46v-15.53v-6.11       v-94.74h23.08v57.94c11.28-13.45,26.88-17.4,42.19-17.4c19.65,0,40.99,10.15,49.911,31.72       C259.93,242.68,261.5,250.35,261.5,259.13z M237.2,258.84c0-23.29-14.67-38.68-36.09-38.68c-21.28,0-36.09,15.39-36.09,38.68       c0,23.22,14.81,38.68,36.09,38.68C222.53,297.52,237.2,282.06,237.2,258.84z" style="fill:#0064D2;"/></g><g><path d="M142.02,258.55v6.11H49.43c2.52,41.91,56.94,41.26,65.56,15.53h23.8       c-4.6,24.729-30.91,33.14-53.49,33.14c-41.12,0-59.3-22.64-59.3-53.2c0-33.64,18.83-55.78,59.66-55.78       C118.23,204.35,142.02,221.39,142.02,258.55z M49.86,249.279h67.86C116.07,209.96,54.82,208.59,49.86,249.279z" style="fill:#E53238;"/></g></g><g><g><path d="M414.69,353.19H388.88c-1.752,0-3.376-0.917-4.28-2.417c-0.905-1.5-0.96-3.364-0.143-4.914       l19.258-36.554l-30.104-56.832v37.637c0,7.088,0.232,13.429,0.691,18.848c0.118,1.395-0.353,2.774-1.3,3.805       s-2.282,1.617-3.682,1.617H347.9c-2.541,0-4.678-1.905-4.968-4.43c-0.131-1.14-0.245-2.286-0.345-3.442       c-10.08,8.186-22.435,11.672-39.978,11.672c-14.52,0-26.817-3.729-35.565-10.782c-4.839-3.902-8.423-8.697-10.587-14.048       c-10.531,15.594-28.491,24.98-49.598,24.98c-14.482,0-27.678-4.178-37.683-11.717c-0.099,1.131-0.211,2.264-0.339,3.396       c-0.285,2.529-2.424,4.44-4.969,4.44h-22.64c-1.369,0-2.677-0.561-3.621-1.552s-1.44-2.326-1.373-3.693       c0.313-6.368,0.784-15.991,0.784-23.555v-20.99c0-1.15,0.389-2.21,1.042-3.056c-0.653-0.845-1.042-1.904-1.042-3.055v-94.74       c0-2.761,2.239-5,5-5h23.08c2.761,0,5,2.239,5,5v46.411c9.801-7.222,22.259-10.871,37.19-10.871       c24.34,0,45.713,13.616,54.486,34.7c2.722-22.431,22.679-34.771,56.295-34.771c13.313,0,24.51,2.206,33.28,6.485       c0.034-0.062,0.069-0.124,0.106-0.185c0.905-1.502,2.53-2.42,4.283-2.42h26.96c1.895,0,3.626,1.07,4.473,2.766l34.983,70.038       l34.929-70.035c0.847-1.696,2.579-2.769,4.475-2.769H486c1.739,0,3.354,0.903,4.263,2.387c0.909,1.483,0.982,3.332,0.193,4.882       l-71.311,140.03C418.292,352.135,416.57,353.19,414.69,353.19z M397.166,343.19h14.459l66.218-130.03h-13.189l-38.019,76.231       c-0.847,1.696-2.578,2.768-4.474,2.769c-1.895,0.001-3.627-1.07-4.475-2.766l-38.078-76.234h-15.569l3.951,7.473       c0.252,0.478,0.42,0.978,0.508,1.482c0.428,0.383,0.796,0.848,1.08,1.384l44.21,83.46c0.773,1.461,0.775,3.209,0.006,4.672       L397.166,343.19z M164.669,290.43c1.471,0,2.901,0.649,3.87,1.832c8.362,10.212,22.33,16.068,38.321,16.068       c23.509,0,42.296-13.824,47.861-35.219c0.155-0.598,0.414-1.144,0.75-1.621c-0.079-0.541-0.07-1.103,0.04-1.668       c0.656-3.402,0.989-7,0.989-10.692c0-7.734-1.319-14.851-3.922-21.151c-8.738-21.131-29.858-28.629-45.289-28.629       c-17,0-29.548,5.107-38.359,15.613c-1.351,1.61-3.567,2.204-5.541,1.485c-1.976-0.719-3.291-2.597-3.291-4.698v-52.94h-13.08       v89.74c0,1.15-0.389,2.21-1.042,3.055c0.653,0.846,1.042,1.905,1.042,3.056v20.99c0,5.904-0.274,12.929-0.544,18.8h12.845       c0.232-3.039,0.349-6.059,0.349-9.021c0-2.113,1.328-3.998,3.318-4.709C163.539,290.524,164.106,290.43,164.669,290.43z        M264.509,273.649c0.075,0.52,0.07,1.059-0.027,1.602c-0.29,1.622-0.432,3.45-0.432,5.589c0,13.608,11.924,27.34,38.561,27.34       c19.593,0,30.981-4.621,40.619-16.483c1.334-1.643,3.559-2.266,5.554-1.559c1.994,0.708,3.327,2.596,3.327,4.712       c0,3.324,0.111,6.475,0.339,9.53h11.516c-0.235-4.354-0.354-9.131-0.354-14.27v-47.16c0-5.719-1.003-10.763-2.98-14.993       c-0.191-0.411-0.323-0.836-0.397-1.263c-0.359-0.322-0.679-0.703-0.941-1.137c-8.135-13.454-26.906-16.278-41.221-16.278       c-18.115,0-39.793,3.806-45.288,20.98h14.132c3.371-9.657,14.267-15.67,29.146-15.67c28.49,0,34.471,15.618,34.471,28.72v2.45       c0,2.761-2.239,5-5,5c-7.654,0-19.05,0.048-29.874,0.279c-30.406,0.647-46.433,7.361-50.435,21.127       C265.063,272.711,264.819,273.209,264.509,273.649z M263.646,239.241c1.383,4.491,2.267,9.252,2.645,14.238       c12.739-10.2,33.072-12.096,49.153-12.438c8.711-0.186,17.779-0.254,25.001-0.274c-0.604-8.369-4.799-16.177-24.385-16.177       c-8.792,0-19.354,2.926-20.185,11.171c-0.258,2.555-2.407,4.499-4.975,4.499h-24.23       C265.569,240.26,264.509,239.896,263.646,239.241z" style="fill:#000D23;"/></g><g><path d="M201.11,302.52c-24.193,0-41.09-17.962-41.09-43.68s16.897-43.68,41.09-43.68       s41.09,17.962,41.09,43.68S225.303,302.52,201.11,302.52z M201.11,225.16c-18.596,0-31.09,13.534-31.09,33.68       c0,20.145,12.494,33.68,31.09,33.68c18.886,0,31.09-13.22,31.09-33.68S219.996,225.16,201.11,225.16z" style="fill:#000D23;"/></g><g><path d="M308.44,303.3c-20.835,0-30.16-11.823-30.16-23.54c0-21.983,26.188-22.797,38.774-23.188       c7.596-0.291,16.922-0.433,28.476-0.433c2.761,0,5,2.238,5,5v2.37C350.53,288.425,334.796,303.3,308.44,303.3z        M340.459,266.149c-9.119,0.036-16.698,0.174-23.058,0.417c-26.874,0.835-29.121,7.248-29.121,13.193       c0,6.546,5.296,13.54,20.16,13.54C328.465,293.3,339.485,283.928,340.459,266.149z" style="fill:#000D23;"/></g><g><path d="M85.3,318.33c-20.997,0-37.337-5.574-48.567-16.566C26.44,291.688,21,277.292,21,260.13       c0-38.627,23.567-60.78,64.66-60.78c38.422,0,61.36,22.131,61.36,59.2v6.11c0,2.762-2.239,5-5,5H55.089       c3.404,17.182,17.747,23.439,29.862,23.439c0.001,0,0.001,0,0.003,0c12.224-0.001,22.389-5.827,25.294-14.497       c0.683-2.038,2.592-3.412,4.741-3.412h23.8c1.486,0,2.896,0.661,3.845,1.804c0.95,1.144,1.342,2.649,1.07,4.11       C138.6,308.551,110.188,318.33,85.3,318.33z M85.66,209.35c-35.759,0-54.66,17.56-54.66,50.78c0,31.082,19.284,48.2,54.3,48.2       c18.821,0,39.961-6.208,46.852-23.14H118.31c-5.446,10.845-18.348,17.908-33.354,17.909c-0.001,0-0.003,0-0.005,0       c-19.024,0.001-38.928-11.792-40.512-38.14c-0.083-1.375,0.406-2.725,1.351-3.728s2.262-1.572,3.64-1.572h87.59v-1.11       C137.02,215.741,104.841,209.35,85.66,209.35z" style="fill:#000D23;"/></g><g><path d="M117.74,254.279c-0.007,0-0.013,0-0.02,0H49.86c-1.432,0-2.794-0.613-3.743-1.685       c-0.949-1.072-1.394-2.499-1.22-3.92c2.881-23.636,22.609-34.401,39.72-34.401c17.528,0,36.834,10.744,38.076,34.317       c0.031,0.226,0.047,0.455,0.047,0.688C122.74,252.041,120.501,254.279,117.74,254.279z M55.996,244.279h56.069       c-3.012-13.772-15.41-20.006-27.449-20.006C72.835,224.273,60.199,230.511,55.996,244.279z" style="fill:#000D23;"/></g></g></g></g></g><g id="Layer_1"/></svg>