<?xml version="1.0" ?><!DOCTYPE svg  PUBLIC '-//W3C//DTD SVG 1.1//EN'  'http://www.w3.org/Graphics/SVG/1.1/DTD/svg11.dtd'><svg height="512px" style="enable-background:new 0 0 512 512;" version="1.1" viewBox="0 0 512 512" width="512px" xml:space="preserve" xmlns="http://www.w3.org/2000/svg" xmlns:xlink="http://www.w3.org/1999/xlink"><g id="Layer_1"/><g id="_x38_-adversal_1_"><g><g><path d="M189.874,296.52c-21.921,4.313-44.292,7.907-66.213,13.207     c-10.781,2.516-18.148,10.691-17.79,23.178c0.629,22.014,23.54,23.81,30.277,24.978c37.285,0.36,61.992-23.18,60.735-52.827     C196.523,300.472,197.871,294.721,189.874,296.52z" style="fill:#666666;"/><path d="M320.507,239.648c-14.285,29.918-13.924,61.272-0.357,91.191     c15.361,34.23,63.34,38.094,80.859-4.673c6.107-14.824,11.23-64.955-7.279-90.83     C374.146,207.574,335.151,209.013,320.507,239.648z" style="fill:#666666;"/><path d="M459.136,54.75H51.786c-20.573,0-25.785,5.302-25.785,25.966v350.567     c0,20.935,5.212,25.967,25.785,25.967h407.35c21.922,0,26.863-4.674,26.863-26.685V81.883     C485.999,59.781,481.147,54.75,459.136,54.75z M186.281,223.926c-24.706-18.148-64.777-7.817-75.647,21.023     c-3.863,9.973-8.355,8.535-15.723,7.457c-8.715-1.348-15.453-2.875-20.215-4.941c-25.875-10.242,7.726-49.684,22.371-57.77     c36.926-19.227,74.929-19.945,112.573-4.313c36.747,15.094,30.996,53.188,30.996,115.45c2.426,23.181-3.863,52.378,8.356,79.781     c1.705,3.953,0.358,7.096-2.427,9.614c-7.547,6.017-35.308,1.976-41.867-6.649c-1.707-1.977-1.617-3.233-3.504-5.57     c-3.234-3.504-6.558-1.977-10.691,0.898c-51.569,32.703-126.05,19.227-132.069-38.901c-2.785-26.325,11.141-51.302,35.579-63.789     c34.318-17.52,100.803-10.603,102.421-27.764C197.422,239.289,194.727,230.395,186.281,223.926z M427.872,432.273H73.078     c-6.647,0-16.351,4.312-15.992-9.613c0.36-12.488,9.435-8.177,15.365-8.177c118.861-0.358,237.636-0.358,356.499,0     c6.107,0,14.912-3.952,14.912,8.894C443.862,436.943,433.892,432.273,427.872,432.273z M447.278,117.461v261.445     c0,5.121-0.631,12.487-7.279,12.487c-11.139-0.358-24.705,6.379-32.432-5.031c-5.213-7.815-7.01-3.595-11.143-1.076     c-47.975,26.682-115.088,6.379-129.734-76.548c-5.48-30.007-0.627-60.286,14.107-89.844     c10.602-21.472,51.121-68.37,122.275-27.402v-63.788c0-23.539-0.09-23.539,23.359-23.539c2.785,0,5.93,0.359,8.717,0     c9.074-0.719,12.217,3.953,12.217,12.847C447.278,117.191,447.278,117.281,447.278,117.461z" style="fill:#666666;"/></g><path d="M427.872,432.273H73.078c-6.647,0-16.351,4.312-15.992-9.613c0.36-12.488,9.435-8.177,15.365-8.177    c118.861-0.358,237.636-0.358,356.499,0c6.107,0,14.912-3.952,14.912,8.894C443.862,436.943,433.892,432.273,427.872,432.273z" style="fill:#67D9F5;"/></g></g></svg>