<?xml version="1.0" ?><!DOCTYPE svg  PUBLIC '-//W3C//DTD SVG 1.1//EN'  'http://www.w3.org/Graphics/SVG/1.1/DTD/svg11.dtd'><svg height="512px" style="enable-background:new 0 0 512 512;" version="1.1" viewBox="0 0 512 512" width="512px" xml:space="preserve" xmlns="http://www.w3.org/2000/svg" xmlns:xlink="http://www.w3.org/1999/xlink"><g id="_x31_54-google-wallet"><g><path d="M182.125,97.565c38.607,62.222,77.738,127.813,98.375,178.535    c-8.521,34.708-20.394,74.723-33.229,107.374c-13.552-53.699-37.938-122.138-68.229-170.603    C185.719,175.497,181.406,137.3,182.125,97.565z" style="fill:#FFD14D;"/><path d="M434.818,48.502c-1.849-6.981-8.42-11.809-15.606-11.809h-90.663    c-5.444,0-9.243,5.135-8.012,10.576c13.553,47.746,22.899,98.058,27.209,149.91c49.492,88.51,81.835,183.076,93.027,278.052    c16.224-62.12,25.979-137.075,25.979-208.436C466.753,191.225,454.329,117.811,434.818,48.502z" style="fill:#4C8CF5;"/><path d="M149.258,178.101H53.563c-6.673,0-10.781,7.7-6.673,13.039    c43.329,55.756,73.619,120.956,94.154,192.316h106.272c-16.634-71.567-39.736-137.281-84.709-198.683    C159.526,180.667,154.392,178.101,149.258,178.101z" style="fill:#1DA362;"/><path d="M182.183,97.452c70.334,110.892,133.481,240.78,141.899,377.854h116.746    c-12.321-141.695-70.232-272.096-147.036-377.854H182.183z" style="fill:#DE5347;"/></g></g><g id="Layer_1"/></svg>