<?xml version="1.0" ?><!DOCTYPE svg  PUBLIC '-//W3C//DTD SVG 1.1//EN'  'http://www.w3.org/Graphics/SVG/1.1/DTD/svg11.dtd'><svg height="512px" style="enable-background:new 0 0 512 512;" version="1.1" viewBox="0 0 512 512" width="512px" xml:space="preserve" xmlns="http://www.w3.org/2000/svg" xmlns:xlink="http://www.w3.org/1999/xlink"><g id="_x31_2_x2C__Flash_x2C__Adobe_x2C__Professional"><g><rect height="510.578" style="fill:#E01F2D;" width="510.576" x="1.207" y="0.711"/><rect height="465.646" style="fill:#45221B;" width="465.646" x="23.669" y="23.179"/><g><g><g id="XMLID_190_"><g id="XMLID_193_"><g><path d="M186.385,350.425c0,2.109-0.605,2.809-2.417,2.809h-32.328         c-1.206,0-1.812-1.049-1.812-2.809V126.667c0-2.111,0.3-2.46,2.114-2.46H268.26c1.815,0,2.42,0.349,2.723,2.46l2.715,28.45         c0.308,2.109-0.298,3.163-2.113,3.163h-85.199v66.741h76.436c1.816,0,2.422,0.703,2.422,2.459v29.156         c0,1.756-0.908,2.461-2.422,2.461h-76.436V350.425z" id="XMLID_194_" style="fill:#E01F2D;"/></g></g><g id="XMLID_191_"><path d="M366.732,326.062c-2.373,0.35-5.629,0.698-7.41,0.698c-5.344,0-9.789-2.459-9.789-13.347        V137.695v-13.661v-1.805h1.253c-0.294,0-0.929,0-2.152,0h-30.875c-1.305,0-1.965,0-2.229,0h-0.717v1.805v13.661v177.823        c0,34.076,13.646,43.204,32.645,43.204c8.31,0,15.273-1.75,18.538-3.512c1.781-0.698,1.918-1.405,1.918-3.861v-23.532        C367.914,326.411,367.624,325.703,366.732,326.062z" style="fill:#E01F2D;"/></g></g></g></g></g></g><g id="Layer_1"/></svg>