<?xml version="1.0" ?><!DOCTYPE svg  PUBLIC '-//W3C//DTD SVG 1.1//EN'  'http://www.w3.org/Graphics/SVG/1.1/DTD/svg11.dtd'><svg height="512px" style="enable-background:new 0 0 512 512;" version="1.1" viewBox="0 0 512 512" width="512px" xml:space="preserve" xmlns="http://www.w3.org/2000/svg" xmlns:xlink="http://www.w3.org/1999/xlink"><g id="_x36_9-creative-commons-pd-alt"><g><path d="M255.628,26.001C123.102,26.001,26.001,132.747,26.001,256c0,128.447,105.354,229.999,229.627,229.999    c120.473,0,230.371-93.577,230.371-229.999C485.999,128.11,387.137,26.001,255.628,26.001z M256.371,444.08    c-104.334,0-188.914-86.251-188.914-188.08c0-97.748,79.294-188.543,188.914-188.543c104.426,0,188.174,83.004,188.081,188.543    C444.451,368.867,352.08,444.08,256.371,444.08z M319.713,191.081h-49.338v127.241h49.338c19.847,0,64.92-4.729,64.92-63.62    C384.633,195.903,339.56,191.081,319.713,191.081z M320.455,291.705h-18.456v-73.914l17.993-0.093    c3.522,0,32.459-1.947,32.459,37.004C352.451,277.517,342.713,291.705,320.455,291.705z M214.916,191.081h-63.25v127.333h32.087    V277.33h25.042c50.173,0,52.955-34.777,52.955-43.124C261.75,205.456,246.169,191.081,214.916,191.081L214.916,191.081z     M210.372,253.496H183.29v-38.58h26.245C238.193,214.916,236.246,253.496,210.372,253.496L210.372,253.496z"/></g></g><g id="Layer_1"/></svg>