<?xml version="1.0" ?><!DOCTYPE svg  PUBLIC '-//W3C//DTD SVG 1.1//EN'  'http://www.w3.org/Graphics/SVG/1.1/DTD/svg11.dtd'><svg height="512px" style="enable-background:new 0 0 512 512;" version="1.1" viewBox="0 0 512 512" width="512px" xml:space="preserve" xmlns="http://www.w3.org/2000/svg" xmlns:xlink="http://www.w3.org/1999/xlink"><g id="_x37_0-creative-commons-remix"><g><path d="M255.628,26.001c131.509,0,230.371,102.109,230.371,229.999c0,136.422-109.898,229.999-230.371,229.999    C131.354,485.999,26.001,384.447,26.001,256C26.001,132.747,123.102,26.001,255.628,26.001z M256.371,67.457    c-109.62,0-188.914,90.795-188.914,188.543c0,101.829,84.579,188.08,188.914,188.08c95.709,0,188.081-75.213,188.081-188.08    C444.545,150.461,360.797,67.457,256.371,67.457L256.371,67.457z M406.334,260.08l4.544,2.041v64.919    c-6.677,3.339-58.798,25.504-62.415,26.711c-6.026-1.67-105.446-43.405-127.334-52.122l-59.54,24.668l-58.707-25.501v-59.172    l54.998-22.998c-0.65-0.649-0.371,4.637-0.371-65.29l62.414-27.545l140.874,58.335v57.128L406.334,260.08z M341.045,335.667    v-40.623h-0.373v-1.669L235.133,250.25v41.919l105.539,43.498v-0.373L341.045,335.667z M347.999,282.245l37.004-15.208    l-34.129-14.375l-36.169,15.209L347.999,282.245z M396.503,317.58v-39.876l-41.084,17.248v40.249L396.503,317.58z"/></g></g><g id="Layer_1"/></svg>