<?xml version="1.0" ?><!DOCTYPE svg  PUBLIC '-//W3C//DTD SVG 1.1//EN'  'http://www.w3.org/Graphics/SVG/1.1/DTD/svg11.dtd'><svg height="512px" style="enable-background:new 0 0 512 512;" version="1.1" viewBox="0 0 512 512" width="512px" xml:space="preserve" xmlns="http://www.w3.org/2000/svg" xmlns:xlink="http://www.w3.org/1999/xlink"><g id="_x36_1-contao"><g><path d="M85.589,295.608c11.652,54.295,21.362,104.382,55.186,141.604h-64.41    c-15.131,0-27.512-12.299-27.512-27.511V102.218c0-15.132,12.3-27.512,27.512-27.512h46.689    c-11.166,10.195-21.12,22.01-29.858,35.28C56.459,166.628,71.349,228.772,85.589,295.608z M435.636,74.706h-72.987    c17.316,17.315,31.72,40.053,42.643,68.052l-110.937,23.708c-12.056-23.467-30.586-43.129-66.836-35.522    c-19.906,4.288-33.177,15.616-39.084,27.998c-7.12,15.13-10.681,32.204,6.637,113.526c17.072,81.077,27.267,95.238,40.053,106.16    c10.438,8.983,27.026,13.756,47.175,9.47c36.008-7.606,45.07-32.934,46.446-59.231l111.18-23.952    c2.59,57.856-15.132,101.309-46.446,132.38h42.157c15.131,0,27.512-12.3,27.512-27.512V102.218    C463.147,87.005,450.847,74.706,435.636,74.706z" style="fill:#F47C00;"/></g></g><g id="Layer_1"/></svg>