<?xml version="1.0" ?><!DOCTYPE svg  PUBLIC '-//W3C//DTD SVG 1.1//EN'  'http://www.w3.org/Graphics/SVG/1.1/DTD/svg11.dtd'><svg height="512px" style="enable-background:new 0 0 512 512;" version="1.1" viewBox="0 0 512 512" width="512px" xml:space="preserve" xmlns="http://www.w3.org/2000/svg" xmlns:xlink="http://www.w3.org/1999/xlink"><g id="_x32_05-markdown"><g><path d="M452.792,114.479H59.207C40.878,114.479,26,129.357,26,147.613v216.703c0,18.327,14.878,33.205,33.206,33.205h393.658    c18.326,0,33.206-14.878,33.135-33.133V147.613C485.999,129.357,471.12,114.479,452.792,114.479z M269.296,331.182h-44.203v-86.25    l-44.203,55.272l-44.202-55.272v86.25H92.34V180.819h44.204l44.203,55.272l44.203-55.272h44.202v150.362H269.296z M366.542,333.41    l-66.34-77.409h44.203v-75.182h44.203v75.182h44.203L366.542,333.41z"/></g></g><g id="Layer_1"/></svg>