<?xml version="1.0" ?><!DOCTYPE svg  PUBLIC '-//W3C//DTD SVG 1.1//EN'  'http://www.w3.org/Graphics/SVG/1.1/DTD/svg11.dtd'><svg height="512px" style="enable-background:new 0 0 512 512;" version="1.1" viewBox="0 0 512 512" width="512px" xml:space="preserve" xmlns="http://www.w3.org/2000/svg" xmlns:xlink="http://www.w3.org/1999/xlink"><g id="_x31_46-glide"><g><g><path d="M406.128,215.751c-3.145-1.258-10.421-3.414-13.836-3.414c-33.332,0-55.882,15.094-84.002,30.995     l-0.81-0.809c6.29-42.495,21.113-82.565,21.113-126.14c0-64.238-34.32-90.383-97.392-90.383     c-103.409,0-155.788,102.152-155.788,178.25c0,78.973,46.09,122.727,124.522,122.727c10.782,0,9.884-0.9,9.884,3.414     c-15.184,115.808-81.577,119.582-81.577,84.99c0-35.217,40.429-52.648,40.878-54.804c-0.27-10.96-42.227-24.797-52.918-24.797     c-30.457,0.09-47.078,46.001-47.078,71.245c0,46.63,29.468,78.973,76.816,78.973c69.538,0,120.391-69.897,136.023-130.633     c13.566-54.354,10.063-56.871,17.699-60.733c28.93-14.555,51.659-24.259,84.273-24.259c15.992,0,27.401,3.325,52.917,7.547     c2.605,0,6.021-2.605,6.021-5.209C442.875,265.523,412.866,218.355,406.128,215.751L406.128,215.751z M248.633,139.923     c-8.355,40.159-16.711,80.5-24.976,120.66c-2.067,9.164-11.95,7.007-19.767,7.007c-34.409,0-44.023-37.554-44.023-65.675     c0-42.228,16.172-98.199,55.524-119.853c6.288-3.683,13.295-6.018,20.303-6.018c16.712,0,17.969,11.948,17.969,25.784     C253.574,114.677,251.237,127.434,248.633,139.923z" style="fill:#388EE5;"/></g></g></g><g id="Layer_1"/></svg>