<?xml version="1.0" ?><!DOCTYPE svg  PUBLIC '-//W3C//DTD SVG 1.1//EN'  'http://www.w3.org/Graphics/SVG/1.1/DTD/svg11.dtd'><svg height="512px" style="enable-background:new 0 0 512 512;" version="1.1" viewBox="0 0 512 512" width="512px" xml:space="preserve" xmlns="http://www.w3.org/2000/svg" xmlns:xlink="http://www.w3.org/1999/xlink"><g id="_x33_0_x2C__AEP_x2C__File_Type_x2C__After_Effects"><g><polygon points="367.309,53.245 426.374,112.496 426.146,112.714 367.811,112.758 367.266,53.289   " style="fill:#D291FF;"/><path d="M239.866,140.006c0,4.187-3.031,6.662-7.927,6.662c-1.331,0-2.301-0.054-3.086-0.24V134.38    c0.665-0.175,1.93-0.36,3.806-0.36C237.26,134.02,239.866,136.266,239.866,140.006z" style="fill:#D291FF;"/><path d="M164.958,142.132l2.541,8.647h-9.017l2.421-8.647c0.665-2.355,1.275-5.441,1.875-7.872h0.131    C163.508,136.691,164.238,139.712,164.958,142.132z" style="fill:#D291FF;"/><path d="M181.902,168.16l-12.647-40.791h-12.104l-12.463,40.791h9.563l2.9-10.479h11.678l3.151,10.479    H181.902z M213.403,168.16v-7.567h-16.77v-9.682h15.015v-7.513h-15.015v-8.461h15.919v-7.567h-25.177v40.791H213.403z     M219.716,127.903v40.256h9.137V153.57c0.84,0.12,1.93,0.175,3.14,0.175c5.452,0,10.108-1.331,13.259-4.296    c2.421-2.29,3.75-5.681,3.75-9.671c0-3.991-1.755-7.382-4.361-9.443c-2.715-2.181-6.771-3.271-12.462-3.271    C226.553,127.063,222.562,127.423,219.716,127.903z M125.65,94.625h183.182v105.766H125.65h-0.447H86.396V94.625h38.806H125.65z" style="fill:#D291FF;"/><path d="M426.593,112.714V458.81H125.65V200.391h183.182V94.625H125.65V53.191h241.616l0.043,0.054    l-0.043,0.043l0.545,59.469l58.335-0.044l0.229-0.218L426.593,112.714z" style="fill:#1F0040;"/><g><path d="M244.642,130.334c-2.715-2.181-7.129-3.271-12.821-3.271c-5.626,0-9.821,0.36-12.821,0.84V168h10     v-14.43c0,0.12,1.856,0.175,3.067,0.175c5.452,0,10.071-1.331,13.222-4.296c2.421-2.29,3.732-5.681,3.732-9.671     C249.021,135.787,247.248,132.396,244.642,130.334z M232.013,146.668c-1.331,0-3.013-0.054-3.013-0.24V134.38     c0-0.175,1.856-0.36,3.732-0.36c4.602,0,7.207,2.246,7.207,5.986C239.939,144.193,236.909,146.668,232.013,146.668z" style="fill:#1F0040;"/><polygon points="196,151 211,151 211,144 196,144 196,135 212,135 212,127 187,127 187,168 212,168      212,161 196,161    " style="fill:#1F0040;"/><path d="M157.151,127l-12.463,41h9.563l2.9-10h11.678l3.151,10h9.922l-12.647-41H157.151z M158.481,151     l2.421-8.888c0.665-2.354,1.275-5.112,1.875-8.112h0.131c0.6,3,1.331,5.692,2.05,8.112l2.541,8.888H158.481z" style="fill:#1F0040;"/></g><g><path d="M366.339,360c0.327-3,0.808-5.779,0.808-9.977c0-19.539-9.694-39.559-35.21-39.559     c-27.466,0-39.907,22.063-39.907,42.094c0,24.718,15.353,40.188,42.165,40.188c10.664,0,20.511-1.633,28.59-4.871l-3.229-16.636     c-6.629,2.094-13.41,3.506-21.807,3.506c-11.471,0-21.49-5.746-22.298-14.746h44.104H366.339z M315.298,342     c0.644-6,4.842-15.985,15.178-15.985c11.309,0,13.892,10.985,13.892,15.985H315.298z" style="fill:#D291FF;"/><path d="M221.69,261l-35.95,130h27.576l8.374-34h33.692l9.072,34h28.634l-36.484-130H221.69z M225.539,336     l6.979-27.76c1.919-7.523,3.664-17.24,5.409-25.24h0.349c1.745,8,3.838,17.52,5.932,25.24l7.338,27.76H225.539z" style="fill:#D291FF;"/></g></g></g><g id="Layer_1"/></svg>