<?xml version="1.0" ?><!DOCTYPE svg  PUBLIC '-//W3C//DTD SVG 1.1//EN'  'http://www.w3.org/Graphics/SVG/1.1/DTD/svg11.dtd'><svg height="512px" style="enable-background:new 0 0 512 512;" version="1.1" viewBox="0 0 512 512" width="512px" xml:space="preserve" xmlns="http://www.w3.org/2000/svg" xmlns:xlink="http://www.w3.org/1999/xlink"><g id="_x31_4_x2C__Edge_Inspect_x2C__Adobe"><g><rect height="510" style="fill:#FFAB41;" width="511" y="1"/><rect height="465.646" style="fill:#2B1A10;" width="465.646" x="23.772" y="23.144"/><g><g><g><g id="XMLID_243_"><g id="XMLID_255_"><g><path d="M239.427,229.962c0-11.943,0.52-22.113-0.077-29.141          c0-1.756,0.298-2.809,2.08-2.809c0,0,47.615-14.21,76.07-11.96c22.787,1.803,48.685,14.402,48.685,71.309v100.115          c0,1.755-0.892,2.804-2.373,2.804h-30.876c-1.781,0-2.668-1.049-2.668-3.157V257.009c0-22.832-9.688-38.487-27.5-38.487          c-10.982,0-16.066,1.701-27.718,7.149v131.806c0,2.105-0.597,2.804-2.374,2.804h-31.169c-1.487,0-2.08-0.698-2.08-3.157          V229.962z" id="XMLID_256_" style="fill:#FFAB41;"/></g></g><g id="XMLID_252_"><g><path d="M197.723,357.188c0,2.105-0.605,3.161-2.723,3.161h-31.421          c-1.811,0-2.412-1.056-2.412-3.161v-223.41c0-2.107,0.903-2.459,2.412-2.459h31.724c1.815,0,2.421,0.352,2.421,2.459          V357.188z" id="XMLID_253_" style="fill:#FFAB41;"/></g></g></g></g></g></g></g></g><g id="Layer_1"/></svg>