<?xml version="1.0" ?><!DOCTYPE svg  PUBLIC '-//W3C//DTD SVG 1.1//EN'  'http://www.w3.org/Graphics/SVG/1.1/DTD/svg11.dtd'><svg height="512px" style="enable-background:new 0 0 512 512;" version="1.1" viewBox="0 0 512 512" width="512px" xml:space="preserve" xmlns="http://www.w3.org/2000/svg" xmlns:xlink="http://www.w3.org/1999/xlink"><g id="_x37__x2C__Extension_Manager_x2C__Adobe"><g><rect height="510.578" style="fill:#EAEAEA;" width="510.576" x="1.207" y="0.711"/><g><g><g id="XMLID_378_"><g id="XMLID_390_"><g><polygon id="XMLID_396_" points="129.987,339.731 207.591,339.731 159.09,260.082 207.591,180.433          129.987,180.433 81.481,260.082        " style="fill:#4C1118;"/><polygon id="XMLID_395_" points="222.912,332.073 179.512,260.082 222.912,188.095 266.308,260.082                 " style="fill:#4C1118;"/></g></g><g id="XMLID_384_"><g><polygon id="XMLID_389_" points="413.363,353.392 374.944,280.334 329.623,354.541 239.434,354.46          277.797,428.313 369.031,428.313        " style="fill:#4C1118;"/><polygon id="XMLID_388_" points="364.854,264.341 322.557,338.718 239.251,339.051 283.491,264.341                 " style="fill:#4C1118;"/></g></g><g id="XMLID_379_"><g><polygon id="XMLID_383_" points="287.173,93.137 243.585,159.883 337.281,159.755 379.22,238.587          423.06,169.71 379.659,93.137        " style="fill:#4C1118;"/><polygon id="XMLID_382_" points="238.996,176.375 320.686,176.375 365.105,251.022 282.127,251.022                 " style="fill:#4C1118;"/></g></g></g></g></g></g></g><g id="Layer_1"/></svg>