<?xml version="1.0" ?><!DOCTYPE svg  PUBLIC '-//W3C//DTD SVG 1.1//EN'  'http://www.w3.org/Graphics/SVG/1.1/DTD/svg11.dtd'><svg height="512px" style="enable-background:new 0 0 512 512;" version="1.1" viewBox="0 0 512 512" width="512px" xml:space="preserve" xmlns="http://www.w3.org/2000/svg" xmlns:xlink="http://www.w3.org/1999/xlink"><g id="_x36_6-creative-commons-nc-jp"><g><path d="M255.721,26.001c-133.641,0-229.72,108.323-229.72,229.999c0,126.5,103.685,229.999,229.72,229.999    c120.75,0,230.278-93.482,230.278-229.999C485.999,127.274,386.302,26.001,255.721,26.001z M256.277,443.986    c-103.87,0-188.82-85.784-188.82-187.986c0-19.568,2.781-38.209,8.347-55.923l117.782,52.399h-25.876v35.798h53.883l5.287,10.944    v17.342h-59.169v35.892h59.169v51.935H284.1v-51.935h59.542v-33.108l75.12,33.479C417.37,354.861,365.806,443.986,256.277,443.986    z M337.521,316.653H284.1V299.31l2.691-5.193L337.521,316.653L337.521,316.653z M343.548,268.984v-16.508H307.75l58.426-107.58    h-61.022l-40.249,89.032l-21.332-9.46l-36.726-79.479h-61.024l25.318,47.298l-75.956-33.851    c25.782-40.899,76.605-90.979,161.092-90.979c104.613,0,188.268,83.468,188.268,188.637c0,19.475-2.507,37.652-7.327,54.717    L343.548,268.984z"/></g></g><g id="Layer_1"/></svg>