<?xml version="1.0" ?><!DOCTYPE svg  PUBLIC '-//W3C//DTD SVG 1.1//EN'  'http://www.w3.org/Graphics/SVG/1.1/DTD/svg11.dtd'><svg height="512px" style="enable-background:new 0 0 512 512;" version="1.1" viewBox="0 0 512 512" width="512px" xml:space="preserve" xmlns="http://www.w3.org/2000/svg" xmlns:xlink="http://www.w3.org/1999/xlink"><g id="_x32_1_x2C__Edge_Animate_x2C__Adobe"><g><rect height="510.578" style="fill:#FF4A19;" width="510.576" x="1.207" y="0.711"/><rect height="465.646" style="fill:#260600;" width="465.646" x="23.669" y="23.179"/><g><g><g id="XMLID_478_"><g><path d="M147.123,296.451l-18.427,61.125c-0.302,2.105-1.21,2.808-3.021,2.808H94.858        c-2.118,0-2.723-1.052-2.118-3.511c16.313-53.743,43.809-143.319,63.144-204.09c0.908-3.512,1.812-7.028,2.417-19.322        c0-1.402,0.908-2.105,1.816-2.105h41.691c1.513,0,1.816,0.349,2.417,1.756c22.36,72.008,46.831,151.399,69.792,224.111        c0.604,2.109,0,3.161-1.812,3.161h-33.837c-1.513,0-2.118-0.702-2.723-2.109l-19.335-61.823H147.123z M208.154,262.03        c-6.043-23.537-20.848-70.96-26.891-95.546h-0.299c-4.534,23.184-16.918,62.876-25.983,95.546H208.154z" id="XMLID_132_" style="fill:#FF4A19;"/></g></g><g id="XMLID_472_"><g><path d="M290.386,230c0-11.945,0.517-22.113-0.077-29.141        c0-1.756,0.299-2.812,2.077-2.812c0,0,47.618-14.209,76.073-11.959c22.787,1.803,48.685,14.405,48.685,71.311v100.109        c0,1.759-0.895,2.813-2.378,2.813h-30.871c-1.781,0-2.672-1.054-2.672-3.162V257.044c0-22.83-9.687-38.487-27.495-38.487        c-10.987,0-16.071,1.701-27.719,7.151v131.8c0,2.109-0.596,2.813-2.378,2.813h-31.169c-1.487,0-2.076-0.703-2.076-3.162V230z" id="XMLID_84_" style="fill:#FF4A19;"/></g></g></g></g></g></g><g id="Layer_1"/></svg>