<?xml version="1.0" ?><!DOCTYPE svg  PUBLIC '-//W3C//DTD SVG 1.1//EN'  'http://www.w3.org/Graphics/SVG/1.1/DTD/svg11.dtd'><svg height="512px" style="enable-background:new 0 0 512 512;" version="1.1" viewBox="0 0 512 512" width="512px" xml:space="preserve" xmlns="http://www.w3.org/2000/svg" xmlns:xlink="http://www.w3.org/1999/xlink"><g id="_x32_5-appnet"><g><g id="_x31_31-appnet_x2C__app_net_4_"><g><g><g><g><path d="M269.738,105.052c-18.082-23.47-38.519-40.162-62.072-47.856l-0.745-0.178         c-44.649-7.121-83.694-1.151-114.631,23.841c-30.648,24.794-52.93,68.183-64.229,136.043l-0.058,0.407         c-4.054,50.74-2.156,95.077,7.532,130.909c9.863,36.439,27.829,64.203,55.806,81.124         c41.801,26.868,80.301,32.838,116.212,22.257c33.752-9.947,64.891-34.479,94.073-69.965         c12.936,24.184,28.289,43.473,46.577,56.581c20.211,14.508,43.897,21.43,71.761,19.127l1.436-0.384         c24.438-9.943,41.313-23.463,51.693-39.728c11.159-17.468,14.716-37.936,12.075-60.509l-0.518-4.383l-4.428,0.086         l-43.876,0.75l-2.037,0.027l-1.411,1.444c-17.451,18.021-32.286,22.052-44.852,13.664         c-13.597-9.055-25.44-31.535-35.767-65.759L429.308,80.51c2.498-6.14,3.682-11.466,2.985-15.737         c-0.889-5.564-4.277-9.11-10.893-10.001l-0.662,0.054l-62.104,0.377l-3.479,0.031l-1.116,3.253l-41.982,121.577         C299.358,150.917,285.41,125.399,269.738,105.052L269.738,105.052z M162.643,125.949c28.15,0.088,50.348,9.17,69.206,33.244         c18.256,23.288,33.202,60.77,47.353,118.196l-0.197,3.002c-17.517,42.49-37.266,69.554-58.661,85.268         c-21.82,16.03-45.188,20.267-69.545,16.956l-0.746-0.151c-31.656-9.481-50.461-38.917-58.683-74.666         c-5.347-23.264-6.176-49.206-3.19-73.995c3.023-24.854,9.893-48.64,20.066-67.406c13.054-24.098,31.541-40.163,54.34-40.449         L162.643,125.949L162.643,125.949z" style="fill:#CCCCCC;"/></g></g></g></g></g></g></g><g id="Layer_1"/></svg>