<?xml version="1.0" ?><!DOCTYPE svg  PUBLIC '-//W3C//DTD SVG 1.1//EN'  'http://www.w3.org/Graphics/SVG/1.1/DTD/svg11.dtd'><svg height="512px" style="enable-background:new 0 0 512 512;" version="1.1" viewBox="0 0 512 512" width="512px" xml:space="preserve" xmlns="http://www.w3.org/2000/svg" xmlns:xlink="http://www.w3.org/1999/xlink"><g id="_x37_5-creative-commons-zero"><g><path d="M255.628,26.001c131.509,0,230.371,102.109,230.371,229.999c0,136.422-109.898,229.999-230.371,229.999    C131.354,485.999,26.001,384.447,26.001,256C26.001,132.747,123.102,26.001,255.628,26.001z M256.371,67.457    c-109.62,0-188.914,90.795-188.914,188.543c0,101.829,84.579,188.08,188.914,188.08c95.709,0,188.081-75.213,188.081-188.08    C444.545,150.461,360.797,67.457,256.371,67.457L256.371,67.457z M256,123.566c-75.957,0-95.06,71.688-95.06,132.434    c0,60.746,19.104,132.435,95.06,132.435c75.954,0,95.059-71.688,95.059-132.435C351.06,195.255,331.954,123.566,256,123.566    L256,123.566z M256,173.554c3.06,0,5.934,0.464,8.532,1.111c5.471,4.73,8.161,11.223,2.874,20.312l-50.543,92.928    c-1.578-11.78-1.763-23.279-1.763-31.904C215.101,229.291,216.956,173.554,256,173.554L256,173.554z M293.837,216.399    c2.691,14.282,3.061,29.121,3.061,39.601c0,26.805-1.854,82.448-40.897,82.448c-12.521,0-30.234-7.142-18.642-24.485    L293.837,216.399L293.837,216.399z"/></g></g><g id="Layer_1"/></svg>