<?xml version="1.0" ?><!DOCTYPE svg  PUBLIC '-//W3C//DTD SVG 1.1//EN'  'http://www.w3.org/Graphics/SVG/1.1/DTD/svg11.dtd'><svg height="512px" style="enable-background:new 0 0 512 512;" version="1.1" viewBox="0 0 512 512" width="512px" xml:space="preserve" xmlns="http://www.w3.org/2000/svg" xmlns:xlink="http://www.w3.org/1999/xlink"><g id="_x39_5-disqus"><g><path d="M264.365,39.795c-122.33,0-221.599,96.771-221.599,216.204c0,31.968,7.038,62.32,19.916,89.65    L26.001,433.4l95.104-12.477c38.61,31.965,88.635,51.281,143.285,51.281c122.479,0,221.608-96.78,221.608-216.206    C485.999,136.565,386.869,39.795,264.365,39.795z M385.373,255.366c0,66.502-44.532,115.942-120.72,115.942h-80.527V140.688    h81.679c75.613,0,119.568,47.591,119.568,114.071V255.366z" style="fill:#2E9FFF;"/><path d="M266.663,197.249h-23.856v117.326h23.856c35.138,0,58.42-21.073,58.42-58.431v-0.608    C325.083,218.638,301.801,197.249,266.663,197.249z" style="fill:#2E9FFF;"/></g></g><g id="Layer_1"/></svg>