<?xml version="1.0" ?><!DOCTYPE svg  PUBLIC '-//W3C//DTD SVG 1.1//EN'  'http://www.w3.org/Graphics/SVG/1.1/DTD/svg11.dtd'><svg height="512px" style="enable-background:new 0 0 512 512;" version="1.1" viewBox="0 0 512 512" width="512px" xml:space="preserve" xmlns="http://www.w3.org/2000/svg" xmlns:xlink="http://www.w3.org/1999/xlink"><g id="_x39_8-draft2digital"><path d="M470.848,390.528l-84-46.564c-3.098-1.718-6.872-1.669-9.923,0.13   c-3.052,1.797-4.925,5.074-4.925,8.616v42.5H241.91l84.284-144.487c16.363-28.051,22.659-61.178,17.727-93.276   c-4.932-32.099-20.882-61.807-44.911-83.652c-22.418-20.38-51.448-31.604-81.74-31.604c-3.659,0-7.362,0.168-11.008,0.5   c-44.995,4.09-85.24,29.952-107.656,69.179l-8.788,15.379c-0.92,1.611-1.345,3.395-1.31,5.16C81.917,141.123,78,151.966,78,163.709   c0,28.673,23.327,52,52,52s52-23.327,52-52c0-19.874-11.212-37.172-27.638-45.922c2.018-0.303,4.053-0.474,6.104-0.474   c12.096,0,23.72,5.308,31.89,14.563c8.04,9.108,11.625,20.867,10.094,33.111l-0.755,6.04   c-5.047,40.375-22.424,77.405-50.252,107.089L38.705,398.37c-2.726,2.908-3.465,7.157-1.88,10.815   c1.584,3.657,5.19,6.024,9.176,6.024h178.5H372v44.6c0,3.754,2.102,7.19,5.443,8.901c1.438,0.735,2.999,1.099,4.556,1.099   c2.062,0,4.112-0.637,5.848-1.887l84-60.535c2.778-2.002,4.339-5.286,4.136-8.704C475.78,395.266,473.843,392.188,470.848,390.528z    M130,195.709c-17.645,0-32-14.355-32-32s14.355-32,32-32s32,14.355,32,32S147.645,195.709,130,195.709z M166.033,291.796   c30.739-32.788,49.933-73.691,55.507-118.288l0.755-6.04c2.252-18.017-3.056-35.358-14.946-48.827   c-11.965-13.554-29.053-21.327-46.883-21.327c-9.645,0-19.028,2.247-27.889,6.677l-6.98,3.49   c19.976-25.468,49.759-41.899,82.476-44.873c3.046-0.277,6.141-0.417,9.198-0.417c25.306,0,49.558,9.377,68.287,26.403   c42.43,38.573,52.255,102.52,23.362,152.052L218.756,395.21H69.083L166.033,291.796z M392,440.276v-70.589l55.365,30.69   L392,440.276z" style="fill:#EF4720;"/></g><g id="Layer_1"/></svg>