<?xml version="1.0" ?><!DOCTYPE svg  PUBLIC '-//W3C//DTD SVG 1.1//EN'  'http://www.w3.org/Graphics/SVG/1.1/DTD/svg11.dtd'><svg height="512px" style="enable-background:new 0 0 512 512;" version="1.1" viewBox="0 0 512 512" width="512px" xml:space="preserve" xmlns="http://www.w3.org/2000/svg" xmlns:xlink="http://www.w3.org/1999/xlink"><g id="_x31_20-expedited_ssl"><g><path d="M153.335,239.585h-8.255c-2.318,0-4.079,1.763-4.079,4.081v123.253c0,2.317,1.761,4.081,4.079,4.081h8.255    c2.318,0,4.081-1.764,4.081-4.081V243.666C157.416,241.348,155.653,239.585,153.335,239.585z"/><path d="M256,58.831c-108.879,0-197.17,88.291-197.17,197.169c0,108.879,88.291,197.168,197.17,197.168    c108.878,0,197.167-88.289,197.167-197.168C453.168,147.122,364.879,58.831,256,58.831z M165.483,182.085h0.186    c0-49.802,40.529-90.33,90.332-90.33c49.803,0,90.33,40.528,90.33,90.33v24.669c0,4.637-3.617,8.254-8.255,8.254h-16.414    c-4.638,0-8.255-3.617-8.255-8.254v-24.669c0-76.14-115-76.14-115,0v24.669c0,4.637-3.616,8.254-8.253,8.254h-16.416    c-4.637,0-8.255-3.617-8.255-8.254V182.085z M387.415,371c0,8.996-7.419,16.414-16.415,16.414H141.001    c-8.997,0-16.416-7.418-16.416-16.414V239.585c0-8.996,7.419-16.415,16.416-16.415H371c8.996,0,16.415,7.419,16.415,16.415V371z"/><path d="M256,26.001c-127.057,0-230,102.943-230,229.999c0,127.057,102.943,229.999,230,229.999    c127.056,0,229.999-102.942,229.999-229.999C485.999,128.944,383.057,26.001,256,26.001z M256,469.583    c-117.783,0-213.585-95.801-213.585-213.583c0-117.781,95.802-213.584,213.585-213.584c117.782,0,213.583,95.803,213.583,213.584    C469.584,373.782,373.782,469.583,256,469.583z"/><path d="M255.907,256c-18.177,0-32.831,14.562-32.831,32.831c0,12.056,6.678,22.536,16.417,28.192v29.308    c0,4.638,3.616,8.254,8.253,8.254h16.417c4.636,0,8.254-3.616,8.254-8.254v-29.308c9.737-5.563,16.415-16.137,16.415-28.192    C288.831,270.654,274.085,256,255.907,256z"/></g></g><g id="Layer_1"/></svg>