<?xml version="1.0" ?><!DOCTYPE svg  PUBLIC '-//W3C//DTD SVG 1.1//EN'  'http://www.w3.org/Graphics/SVG/1.1/DTD/svg11.dtd'><svg height="512px" style="enable-background:new 0 0 512 512;" version="1.1" viewBox="0 0 512 512" width="512px" xml:space="preserve" xmlns="http://www.w3.org/2000/svg" xmlns:xlink="http://www.w3.org/1999/xlink"><g id="_x35_8-cloudsmith"><g><path d="M409.951,408.005c0,43.03-34.871,77.994-77.902,77.994c-43.033,0-77.904-34.964-77.904-77.994    c0-43.033,34.871-77.904,77.904-77.904C375.08,330.101,409.951,364.972,409.951,408.005z" style="fill:#12587F;"/><path d="M332.049,181.807c43.031,0,74.193-34.87,74.193-77.902s-31.162-77.903-74.193-77.903    c-43.033,0-81.613,34.871-81.613,77.903s-27.451,70.483-70.484,70.483c-43.032,0-77.903,38.582-77.903,81.612    c0,43.032,34.871,74.194,77.903,74.194c43.033,0,77.903-31.162,77.903-74.194C257.854,212.97,289.016,181.807,332.049,181.807z" style="fill:#549ABC;"/></g></g><g id="Layer_1"/></svg>