<?xml version="1.0" ?><!DOCTYPE svg  PUBLIC '-//W3C//DTD SVG 1.1//EN'  'http://www.w3.org/Graphics/SVG/1.1/DTD/svg11.dtd'><svg height="512px" style="enable-background:new 0 0 512 512;" version="1.1" viewBox="0 0 512 512" width="512px" xml:space="preserve" xmlns="http://www.w3.org/2000/svg" xmlns:xlink="http://www.w3.org/1999/xlink"><g id="_x33_3_x2C__INDD_x2C__Indesign_x2C__File_Type"><g><polygon points="367.309,53.245 426.374,112.496 426.146,112.714 367.811,112.758 367.266,53.289   " style="fill:#26000D;"/><path d="M125.65,94.625h183.182v105.766H125.65h-0.447H86.396V94.625h38.806H125.65z" style="fill:#26000D;"/><path d="M426.593,112.714V458.81H125.65V200.391h183.182V94.625H125.65V53.191h241.616l0.043,0.054    l-0.043,0.043l0.545,59.469l58.335-0.044l0.229-0.218L426.593,112.714z" style="fill:#FF418A;"/><path d="M251.119,146.941c0.055-7.818-4.525-11.95-11.841-11.95c-1.896,0-3.129,0.174-3.849,0.338v24.621    c0.719,0.174,1.897,0.174,2.955,0.174C246.092,160.178,251.119,155.926,251.119,146.941z M238.384,128.459    c7.153,0,11.787,1.287,15.407,4.024c3.914,2.9,6.367,7.534,6.367,14.186c0,7.196-2.616,12.157-6.247,15.232    c-3.968,3.293-9.999,4.863-17.369,4.863c-4.405,0-7.535-0.272-9.661-0.557v-36.963    C230.009,128.731,234.088,128.459,238.384,128.459z" style="fill:#FF418A;"/><path d="M199.501,160.124c7.708,0.055,12.725-4.198,12.725-13.183c0.065-7.818-4.515-11.95-11.831-11.95    c-1.897,0-3.129,0.174-3.86,0.338v24.621C197.266,160.124,198.443,160.124,199.501,160.124z M214.908,132.483    c3.915,2.9,6.368,7.534,6.368,14.186c0,7.196-2.617,12.157-6.259,15.232c-3.958,3.293-9.988,4.863-17.358,4.863    c-4.405,0-7.535-0.272-9.661-0.557v-36.963c3.129-0.513,7.207-0.785,11.503-0.785    C206.643,128.459,211.288,129.746,214.908,132.483z" style="fill:#FF418A;"/><path d="M173.354,155.424h0.164c-0.556-4.972-0.73-10.053-0.73-15.69v-11.002h7.818v37.64h-8.93    l-8.046-14.512c-2.225-4.024-4.678-8.887-6.532-13.303l-0.164,0.054c0.229,4.983,0.338,10.282,0.338,16.432v11.329h-7.818v-37.64    h9.933l7.818,13.794C169.439,146.494,171.674,151.183,173.354,155.424z" style="fill:#FF418A;"/><rect height="37.64" style="fill:#FF418A;" width="8.538" x="133.533" y="128.731"/><path d="M339.047,416.219H316.27l-1.178-12.146h-0.339c-5.222,9.269-15.178,14.001-25.81,14.001    c-19.571,0-35.251-16.704-35.251-42.351c-0.174-27.827,17.206-43.854,36.942-43.854c10.118,0,18.044,3.544,21.752,9.289h0.339    v-44.716h25.645v95.146C338.37,400.866,338.709,410.658,339.047,416.219z M312.726,379.453v-10.796    c0-1.362-0.164-3.217-0.339-4.568c-1.516-6.913-7.077-12.649-15.014-12.649c-11.635,0-17.708,10.458-17.708,23.443    c0,14.001,6.913,22.778,17.544,22.778c7.415,0,13.325-5.049,14.84-12.311C312.562,383.486,312.726,381.634,312.726,379.453z" style="fill:#26000D;"/><rect height="128.5" style="fill:#26000D;" width="25.809" x="211.658" y="287.719"/></g></g><g id="Layer_1"/></svg>