<?xml version="1.0" ?><!DOCTYPE svg  PUBLIC '-//W3C//DTD SVG 1.1//EN'  'http://www.w3.org/Graphics/SVG/1.1/DTD/svg11.dtd'><svg height="512px" style="enable-background:new 0 0 512 512;" version="1.1" viewBox="0 0 512 512" width="512px" xml:space="preserve" xmlns="http://www.w3.org/2000/svg" xmlns:xlink="http://www.w3.org/1999/xlink"><g id="_x31_24-fantasy-flight-games"><g><path d="M256.001,26.001L26.001,256l230,229.999L485.999,256L256.001,26.001z M40.377,256L256.001,40.377    L471.623,256L256.001,471.624L40.377,256z" style="fill:#1256A3;"/><rect height="283.518" style="fill:#1872D9;" transform="matrix(0.7071 -0.7071 0.7071 0.7071 -106.038 255.9997)" width="283.519" x="114.242" y="114.24"/><path d="M105.369,255.848c1.761-1.798,10.708-11.052,86.689-87.579    c37.239-37.51,77.436-39.325,107.605-16.792c22.128,16.531,55.757,52.918,55.838,53.008c0.61,0.665,0.961,2.568,0.521,3.036    c-10.125,10.638-20.377,21.148-30.098,31.168c-30.735-29.03-36.403-34.356-43.584-39.487c-15.964-11.4-37.194-9.101-51.191,4.582    c-1.95,1.914-1.608,3.081,0.108,4.808c2.641,2.649,25.245,25.452,31.526,32.145c-10.737,10.422-21.258,20.637-32.066,31.141    c-10.799-11.268-21.993-22.938-32.829-34.24c-19.217,18.949-37.455,36.935-55.567,54.795    C129.996,280.246,117.678,268.051,105.369,255.848z" style="fill:#F9F8F4;"/><path d="M316.339,347.128c-31.885,31.831-70.159,34.266-96.124,18.392    c-19.837-12.129-35.38-28.821-65.521-60.052c10.824-11.113,21.373-21.939,31.776-32.621    c29.666,28.669,33.295,32.353,40.143,37.814c16.602,13.242,38.201,12.281,53.294-1.617c3.306-3.045,3.314-3.271,0.126-6.506    c-9.514-9.64-19.037-19.262-28.543-28.911c-1.186-1.204-2.723-2.228-0.719-4.214c9.693-9.621,19.298-19.333,28.938-29.01    c0.233-0.233,0.584-0.342,1.717-0.962c11.113,11.564,22.389,23.288,33.467,34.814c18.877-18.624,37.051-36.547,55.028-54.282    c12.291,12.037,24.374,23.88,36.71,35.964C388.51,274.677,333.248,330.247,316.339,347.128z" style="fill:#F9F8F4;"/></g></g><g id="Layer_1"/></svg>