<?xml version="1.0" ?><!DOCTYPE svg  PUBLIC '-//W3C//DTD SVG 1.1//EN'  'http://www.w3.org/Graphics/SVG/1.1/DTD/svg11.dtd'><svg height="512px" style="enable-background:new 0 0 512 512;" version="1.1" viewBox="0 0 512 512" width="512px" xml:space="preserve" xmlns="http://www.w3.org/2000/svg" xmlns:xlink="http://www.w3.org/1999/xlink"><g id="_x38_0-Decred"><g><path d="M279.852,424.947c-3.387,0.318-6.085,0.318-8.464,0.318c-31.901,0-63.42,0-95.312,0    c-65.102,0-119.723-43.484-133.921-107.182c-13.929-61.696,16.924-126.394,73.56-153.469c2.048-1.015,3.729-2.067,6.81-3.74    c-13.926-12.366-27.473-24.338-40.738-36.348c-13.538-11.946-27.1-23.956-41.672-36.629c2.697-0.331,4.036-1.017,5.727-1.017    c28.163,0,55.965-0.329,84.132,0c3.728,0,8.482,1.685,11.182,4.097C185.924,129.699,273.417,220,270.678,220    c-31.189,0-62.709-5.707-93.936-5.377c-29.127,0.345-51.513,13.364-66.111,39.751c-22.039,40.411,2.728,95.198,47.48,103.804    c14.928,2.723,30.847,2.007,46.107,3.071c2.38,0,5.43,0.317,7.126,2.051c22.059,18.824,43.723,38.019,65.463,57.179    C277.806,421.501,278.504,422.894,279.852,424.947L279.852,424.947z" style="fill:#2972FF;"/><path d="M471.815,424.604c-6.809,0-11.886,0-16.963,0c-24.112,0-48.497,0.344-72.584,0    c-4.088,0-8.849-1.712-11.874-4.125C324.94,381.12,233.074,302.404,231.683,300c3.771-0.375,71.197-2.803,102.777-3.18    c29.509-0.35,52.217-12.686,66.434-39.367c20.346-38.032,1.054-87.373-38.972-101.727c-14.931-5.472-30.171-5.472-45.771-4.794    c-9.505,0.323-16.626-1.737-23.77-8.595c-18.297-17.087-37.314-32.834-55.927-49.303c-1.359-1.347-3.05-2.06-5.409-3.763    c2.356-1.374,3.03-2.059,4.048-2.059c37.623,0,75.266,0,112.908,0.686c25.416,0.344,48.145,9.934,68.498,25.017    c27.844,20.546,45.813,47.965,53.255,81.503c6.434,28.429,3.74,56.512-7.785,83.248c-12.54,29.416-32.922,51.703-61.074,67.109    c-1.652,1.039-3.707,1.722-5.743,2.739c-1.711,1.047-3.049,2.058-6.085,3.795C416.526,375.981,443.288,399.599,471.815,424.604    L471.815,424.604z" style="fill:#2ED8A3;"/></g></g><g id="Layer_1"/></svg>