<?xml version="1.0" ?><!DOCTYPE svg  PUBLIC '-//W3C//DTD SVG 1.1//EN'  'http://www.w3.org/Graphics/SVG/1.1/DTD/svg11.dtd'><svg height="512px" style="enable-background:new 0 0 512 512;" version="1.1" viewBox="0 0 512 512" width="512px" xml:space="preserve" xmlns="http://www.w3.org/2000/svg" xmlns:xlink="http://www.w3.org/1999/xlink"><g id="_x31_33-fonticons"><g><polygon points="329.258,164.851 339.906,175.501 385.479,151.222 431.055,175.501 441.705,164.851 428.5,116.297 460.445,80.945     455.334,66.89 414.871,66.89 392.297,26.001 378.666,26.001 356.092,66.89 315.629,66.89 310.518,77.537 342.463,116.297   "/><path d="M299.871,154.417c0-65.166-44.723-77.093-94.557-77.093c-74.111,0-112.871,29.815-112.871,102.223v30.667H51.555v54.52    h32.37c4.259,0,8.518,0,8.518,3.407v165.896c0,8.093-2.13,10.648-9.795,11.499l-31.093,2.982v37.48h190.816v-36.628l-63.465-5.963    c-7.667-0.852-4.684-2.129-4.684-10.648V264.733h81.351l16.185-54.52H173.37c-4.26,0,0.853-2.981,0.853-6.389V169.75    c0-25.555,0.852-40.036,27.685-40.036c17.462,0,24.278,6.388,23.852,33.648L299.871,154.417z"/><path d="M433.186,434.889V213.409H316.057l-9.799,43.018l35.352,9.371c5.537,1.703,9.797,5.535,9.797,11.498v157.593    c0,8.094-3.406,9.797-11.074,10.647l-29.814,3.835v36.628h149.928v-36.628l-23-3.835    C429.352,444.258,433.186,443.408,433.186,434.889z"/></g></g><g id="Layer_1"/></svg>