<?xml version="1.0" ?><!DOCTYPE svg  PUBLIC '-//W3C//DTD SVG 1.1//EN'  'http://www.w3.org/Graphics/SVG/1.1/DTD/svg11.dtd'><svg height="512px" style="enable-background:new 0 0 512 512;" version="1.1" viewBox="0 0 512 512" width="512px" xml:space="preserve" xmlns="http://www.w3.org/2000/svg" xmlns:xlink="http://www.w3.org/1999/xlink"><g id="_x32_19-mizuni"><g><path d="M256,26.001c-127.057,0-230,103.035-230,229.999c0,127.057,102.943,229.999,230,229.999    c127.056,0,229.999-102.942,229.999-229.999C485.999,129.036,383.057,26.001,256,26.001z" style="fill:#221E1F;"/><path d="M181.807,352.359c-29.121,9.829-54.532,25.317-74.193,44.699V144.71    c0-20.495,16.6-37.097,37.096-37.097s37.097,16.602,37.097,37.097V352.359z" style="fill:#E93A41;"/><path d="M293.096,343.179c-11.963-1.857-24.298-2.876-36.91-2.876c-12.799,0-25.226,1.019-37.282,2.876    V144.71c0-20.495,16.6-37.097,37.097-37.097c20.496,0,37.095,16.602,37.095,37.097V343.179z" style="fill:#FCD24A;"/><path d="M404.387,396.688c-19.661-19.289-45.072-34.685-74.193-44.517V144.71    c0-20.495,16.602-37.097,37.096-37.097c20.497,0,37.098,16.602,37.098,37.097V396.688z" style="fill:#0869B0;"/></g></g><g id="Layer_1"/></svg>