<?xml version="1.0" ?><!DOCTYPE svg  PUBLIC '-//W3C//DTD SVG 1.1//EN'  'http://www.w3.org/Graphics/SVG/1.1/DTD/svg11.dtd'><svg height="512px" style="enable-background:new 0 0 512 512;" version="1.1" viewBox="0 0 512 512" width="512px" xml:space="preserve" xmlns="http://www.w3.org/2000/svg" xmlns:xlink="http://www.w3.org/1999/xlink"><g id="_x31_8_x2C__Audition_x2C__Adobe"><rect height="510.578" style="fill:#00E4BB;" width="510.576" x="1.207" y="0.711"/><rect height="465.646" style="fill:#002620;" width="465.646" x="23.671" y="23.177"/><g><g><g id="XMLID_44_"><g id="XMLID_46_"><g><path d="M147.252,306.264l-18.476,62.876c-0.303,2.165-1.212,2.89-3.03,2.89H94.849        c-2.121,0-2.728-1.082-2.121-3.613c16.358-55.286,43.92-147.432,63.307-209.946c0.91-3.613,1.82-7.227,2.425-19.876        c0-1.445,0.91-2.169,1.818-2.169h41.802c1.513,0,1.816,0.362,2.421,1.807c22.416,74.079,46.952,155.745,69.971,230.546        c0.61,2.169,0,3.251-1.815,3.251h-33.927c-1.512,0-2.12-0.725-2.725-2.168l-19.386-63.598H147.252z M208.438,270.85        c-6.056-24.21-20.899-72.993-26.957-98.286h-0.305c-4.543,23.848-16.961,64.678-26.049,98.286H208.438z" id="XMLID_47_" style="fill:#00E4BB;"/></g></g><g id="XMLID_45_"><path d="M419.439,336.969c0,2.442,0.345,9.819,1.044,21.765       c0,1.389-0.136,2.105-1.547,2.441c-18.603,7.027-39.224,14.399-65.203,14.399c-31.94,0-62.475-12.294-62.475-61.423V202.016       c0-1.76,0.703-2.813,2.454-2.813h33.381c1.766,0,2.456,1.052,2.456,2.813v107.563c0,20.712,7.833,31.941,29.601,31.941       c8.771,0,16.731-1.751,21.998-3.856V202.016c0-1.76,0.691-2.813,2.455-2.813h33.368c2.109,0,2.468,1.052,2.468,2.813V336.969z" style="fill-rule:evenodd;clip-rule:evenodd;fill:#00E4BB;"/></g></g></g></g></g><g id="Layer_1"/></svg>