<?xml version="1.0" ?><!DOCTYPE svg  PUBLIC '-//W3C//DTD SVG 1.1//EN'  'http://www.w3.org/Graphics/SVG/1.1/DTD/svg11.dtd'><svg height="512px" style="enable-background:new 0 0 512 512;" version="1.1" viewBox="0 0 512 512" width="512px" xml:space="preserve" xmlns="http://www.w3.org/2000/svg" xmlns:xlink="http://www.w3.org/1999/xlink"><g id="_x31_97-leanpub"><g><path d="M336.633,137.743l12.354,203.72l-8.983-0.223c-29.648-0.676-58.624,7.186-84.006,22.906    c-25.381-15.721-54.354-22.906-84.003-22.906c-37.285,0-67.158,8.756-101.074,22.684l25.606-211.356    c23.358-9.66,50.312-14.824,75.469-14.824c33.691,0,60.419,10.781,84.004,34.814C278.686,149.423,304.289,138.416,336.633,137.743    z M485.999,413.113c-20.888,0-38.856-4.268-57.725-12.803c-28.075-12.801-57.275-20.438-88.27-20.438    c-31.896,0-61.319,10.555-84.005,33.24c-22.686-22.686-52.11-33.24-84.004-33.24c-30.996,0-60.195,7.637-88.271,20.438    c-18.192,8.084-36.612,12.803-56.601,12.803h-1.123l34.813-285.702c32.119-18.193,71.201-28.525,108.261-28.525    c30.322,0,61.544,6.289,86.925,23.809c25.38-17.521,56.602-23.809,86.923-23.809c37.061,0,76.143,10.332,108.263,28.525    L485.999,413.113z M450.512,376.5l-27.853-229.324c-25.156-11.455-55.028-17.519-82.654-17.519    c-31.446,0-60.87,9.882-84.005,31.67c-23.136-21.788-52.559-31.67-84.004-31.67c-27.627,0-57.5,6.064-82.656,17.519L61.487,376.5    c38.635-15.945,67.834-27.398,110.509-27.398c30.771,0,57.948,7.859,84.004,24.256c26.054-16.396,53.232-24.256,84.005-24.256    C382.68,349.102,411.878,360.555,450.512,376.5L450.512,376.5z"/></g></g><g id="Layer_1"/></svg>