<?xml version="1.0" ?><!DOCTYPE svg  PUBLIC '-//W3C//DTD SVG 1.1//EN'  'http://www.w3.org/Graphics/SVG/1.1/DTD/svg11.dtd'><svg height="512px" style="enable-background:new 0 0 512 512;" version="1.1" viewBox="0 0 512 512" width="512px" xml:space="preserve" xmlns="http://www.w3.org/2000/svg" xmlns:xlink="http://www.w3.org/1999/xlink"><g id="_x32_12-medrt"><g><path d="M122.141,256c0,102.99,70.942,188.39,163.614,203.865c-15.812,3.803-32.299,5.834-49.21,5.834    c-116.35,0-210.544-93.857-210.544-209.699c0-115.842,94.194-209.699,210.46-209.699c16.995,0,33.482,2.029,49.21,5.834    C192.999,67.609,122.141,153.011,122.141,256 M373.61,340.811c-65.7,46.844-151.863,40.162-203.272-12.346    c4.65,11.924,10.739,23.422,18.349,34.246c52.086,74.576,154.229,92.418,228.049,39.742    c73.815-52.678,91.403-155.839,39.316-230.502c-7.609-10.907-16.319-20.546-25.79-28.918    C461.887,209.664,439.31,293.965,373.61,340.811 M188.602,134.494c-1.184,0.845-2.282,1.776-3.382,2.62    c54.369-15.05,114.909,3.383,151.27,51.157c30.187,39.742,36.274,90.136,20.633,133.599    c47.943-47.521,57.159-120.154,18.855-170.635C333.7,95.851,249.904,88.325,188.602,134.494 M276.286,228.942    c-3.722,0-6.765-3.043-6.765-6.764v-33.822c0-3.72-3.044-6.765-6.765-6.765h-40.586c-3.721,0-6.764,3.045-6.764,6.765v33.822    c0,3.721-3.046,6.764-6.766,6.764h-33.822c-3.721,0-6.765,3.044-6.765,6.764v40.587c0,3.723,3.044,6.764,6.765,6.764h33.822    c3.72,0,6.766,3.047,6.766,6.766v33.824c0,3.719,3.043,6.764,6.764,6.764h40.586c3.721,0,6.765-3.045,6.765-6.764v-33.824    c0-3.719,3.043-6.766,6.765-6.766h33.822c3.72,0,6.765-3.041,6.765-6.764v-40.587c0-3.719-3.045-6.764-6.765-6.764H276.286z"/></g></g><g id="Layer_1"/></svg>