<?xml version="1.0" ?><!DOCTYPE svg  PUBLIC '-//W3C//DTD SVG 1.1//EN'  'http://www.w3.org/Graphics/SVG/1.1/DTD/svg11.dtd'><svg height="512px" style="enable-background:new 0 0 512 512;" version="1.1" viewBox="0 0 512 512" width="512px" xml:space="preserve" xmlns="http://www.w3.org/2000/svg" xmlns:xlink="http://www.w3.org/1999/xlink"><g id="_x32_0_x2C__Captivate_x2C__Adobe"><g><rect height="510.575" style="fill:#28EA90;" width="510.576" x="1.207" y="0.712"/><rect height="465.647" style="fill:#333333;" width="465.646" x="23.669" y="23.177"/><g><g><g><g id="XMLID_209_"><g><path d="M203.839,111.02c18.121,0,30.616,0.153,38.293,4.44c1.229,0.716,1.536,1.428,1.536,3.576         v31.093c0,2.859-1.229,2.859-2.15,2.144c-9.523-4.645-20.479-6.179-36.452-6.179c-39.62,0-66.649,30.739-66.649,82.561         c0,65.761,38.086,81.844,65.729,81.844c16.279,0,27.651-0.511,37.172-5.514c1.537-0.718,2.15-0.357,2.15,1.785v30.377         c0,2.145-0.307,3.218-1.843,4.291c-10.136,5.721-23.965,5.207-43.622,5.207c-49.143,0.36-96.136-31.859-96.136-116.921         C101.867,162.176,141.796,111.02,203.839,111.02z" style="fill:#28EA90;"/></g></g><g id="XMLID_203_"><g><path d="M410.803,253.021c0,62.398-44.04,95.917-87.755,95.917         c-5.105,0-9.252-0.358-12.13-1.069v46.979c0,1.427-0.634,2.498-2.548,2.856l-32.235,3.209         c-1.909,0.354-2.232-0.718-2.232-2.141V205.239c0-4.278-0.635-15.333-0.954-19.965c0-0.716,0-1.786,0.954-2.14         c13.723-4.995,38.934-13.91,63.188-13.91C386.554,169.225,410.803,205.593,410.803,253.021z M310.918,205.951v109.11         c3.836,1.429,8.618,2.14,13.407,2.14c26.482,0,48.822-21.395,48.822-62.041c0-35.657-16.91-52.772-39.89-52.772         C323.687,202.388,317.302,204.169,310.918,205.951z" id="XMLID_204_" style="fill:#28EA90;"/></g></g></g></g></g></g></g><g id="Layer_1"/></svg>