<?xml version="1.0" ?><!DOCTYPE svg  PUBLIC '-//W3C//DTD SVG 1.1//EN'  'http://www.w3.org/Graphics/SVG/1.1/DTD/svg11.dtd'><svg height="512px" style="enable-background:new 0 0 512 512;" version="1.1" viewBox="0 0 512 512" width="512px" xml:space="preserve" xmlns="http://www.w3.org/2000/svg" xmlns:xlink="http://www.w3.org/1999/xlink"><g id="_x31_10-ello"><g><path d="M256,26.001c-127.03,0-230,102.971-230,229.999s102.97,229.999,230,229.999c127.027,0,229.999-102.971,229.999-229.999    S383.027,26.001,256,26.001z M389.399,290.499C374.068,351.069,318.869,394,256,394c-62.87,0-118.07-42.931-133.4-103.501    c-1.531-6.899,2.299-14.568,9.2-16.099c6.899-1.53,14.57,2.301,16.1,9.199c13.031,49.069,57.499,83.57,108.1,83.57    c50.598,0,95.069-34.501,108.099-83.57c1.53-6.898,9.2-11.501,16.1-9.199C387.1,275.931,391.699,283.6,389.399,290.499z"/></g></g><g id="Layer_1"/></svg>