<?xml version="1.0" ?><!DOCTYPE svg  PUBLIC '-//W3C//DTD SVG 1.1//EN'  'http://www.w3.org/Graphics/SVG/1.1/DTD/svg11.dtd'><svg height="512px" style="enable-background:new 0 0 512 512;" version="1.1" viewBox="0 0 512 512" width="512px" xml:space="preserve" xmlns="http://www.w3.org/2000/svg" xmlns:xlink="http://www.w3.org/1999/xlink"><g id="_x39_-adwords"><g><path d="M480.252,464.784L340.231,43.574l-86.808,261.082l39.915,120.081    c11.729,35.277,44.531,58.97,81.603,58.97h91.693c4.618,0,8.946-2.215,11.607-5.983    C480.969,473.983,481.683,469.153,480.252,464.784z" style="fill:#28B04C;"/><path d="M342.561,47.021c1.419-4.323,0.709-9.11-1.989-12.809c-2.637-3.726-6.929-5.919-11.499-5.919    H187.138c-6.099,0-11.523,3.926-13.448,9.733L31.756,464.973c-1.445,4.325-0.71,9.104,1.927,12.811    c2.667,3.731,6.96,5.924,11.528,5.924h90.778c36.704,0,69.179-23.456,80.787-58.382l38.274-115.112l84.113-252.98L342.561,47.021z    " style="fill:#3285FF;"/></g></g><g id="Layer_1"/></svg>