<?xml version="1.0" ?><!DOCTYPE svg  PUBLIC '-//W3C//DTD SVG 1.1//EN'  'http://www.w3.org/Graphics/SVG/1.1/DTD/svg11.dtd'><svg height="512px" style="enable-background:new 0 0 512 512;" version="1.1" viewBox="0 0 512 512" width="512px" xml:space="preserve" xmlns="http://www.w3.org/2000/svg" xmlns:xlink="http://www.w3.org/1999/xlink"><g id="_x35_5-centercode"><g><path d="M475.824,249.741C471.39,90.827,304.052-10.71,161.279,57.661    C96.276,88.788,47.857,151.13,37.926,227.925C21.697,353.14,114.722,468.866,244.813,475.696    C370.827,482.259,479.459,380.099,475.824,249.741z M404.349,316.073c-90.364,74.313-179.31,111.736-240.321,97.725    c-31.304-138.162-21.018-255.486,29.974-305.412C262.018,133.482,429.09,211.431,404.349,316.073z" style="fill:#F89A3E;"/><path d="M320.902,267.211c-3.371,31.215-31.394,53.739-62.608,50.37    c-31.216-3.371-53.739-31.395-50.37-62.608c3.37-31.215,31.392-53.74,62.608-50.37    C301.658,207.973,324.27,235.996,320.902,267.211L320.902,267.211z" style="fill:#62C9D3;"/></g></g><g id="Layer_1"/></svg>