<?xml version="1.0" ?><!DOCTYPE svg  PUBLIC '-//W3C//DTD SVG 1.1//EN'  'http://www.w3.org/Graphics/SVG/1.1/DTD/svg11.dtd'><svg height="512px" style="enable-background:new 0 0 512 512;" version="1.1" viewBox="0 0 512 512" width="512px" xml:space="preserve" xmlns="http://www.w3.org/2000/svg" xmlns:xlink="http://www.w3.org/1999/xlink"><g id="_x31_48-gofore"><g><path d="M383.319,321.509h-13.553v35.63c-25.154,23.718-57.807,36.76-92.308,36.76    c-75.159,0-135.945-61.814-135.945-138c0-76.086,60.786-138,135.945-138c36.247,0,70.438,14.375,96.107,40.456l63.969-64.996    c-42.92-43.433-99.7-67.357-160.281-67.357C151.27,26.001,50.645,129.295,50.645,256c0,125.782,99.597,229.999,226.609,229.999    c64.895,0,127.835-26.9,175.581-84.709C450.78,372.95,439.075,321.509,383.319,321.509z" style="fill:#FF8551;"/><path d="M370.898,205.996H261.749v91.384h121.57c34.399,0,62.121,15.504,78.036,42.919V308.88    C461.355,241.934,419.875,205.996,370.898,205.996z" style="fill:#FF8551;"/></g></g><g id="Layer_1"/></svg>