<?xml version="1.0" ?><!DOCTYPE svg  PUBLIC '-//W3C//DTD SVG 1.1//EN'  'http://www.w3.org/Graphics/SVG/1.1/DTD/svg11.dtd'><svg height="512px" style="enable-background:new 0 0 512 512;" version="1.1" viewBox="0 0 512 512" width="512px" xml:space="preserve" xmlns="http://www.w3.org/2000/svg" xmlns:xlink="http://www.w3.org/1999/xlink"><g id="_x31_06-Earth"><g><path d="M256.002,36.001C135.026,36.001,36.596,134.697,36.596,256    c0,121.299,98.431,219.999,219.407,219.999c120.971,0,219.402-98.7,219.402-219.999    C475.404,134.697,376.974,36.001,256.002,36.001z" style="fill:#F2F2F2;"/><path d="M342.644,418.639c-50.852-0.238-89.089-10.62-117.022-18.262    c-16.321-4.481-29.176-8.013-39.658-8.013c-11.851,0-27.09,3.792-39.234,11.757c-31.799-23.723-55.791-57.342-67.199-96.394    c22.891-0.74,72.609,12.778,126.985,39.371c64.935,31.719,108.56,45.266,145.906,45.266c10.565,0,20.048-0.522,28.402-1.265    C369.318,401.797,356.571,411.148,342.644,418.639z" style="fill:#3366FF;"/><path d="M244.832,253.417c-76.368-41.477-129.112-56.339-165.905-46.748    c9.037-32.62,26.781-61.609,50.612-84.296c44.677,2.634,123.359,41.212,161.886,73.653    c21.92,18.445,103.855,80.709,144.906,96.175c-2.053,10.305-5.101,20.243-8.806,29.862h-22.519    C390.525,322.063,358.202,314.922,244.832,253.417z" style="fill:#3366FF;"/><path d="M435.751,217.104c-4.258-4.98-8.646-10.277-12.955-15.545    c-14.559-17.813-34.479-42.188-61.073-68.881c-26.702-26.802-52.93-45.591-76.79-58.633    C359.881,86.011,419.881,143.326,435.751,217.104z" style="fill:#3366FF;"/></g></g><g id="Layer_1"/></svg>