<?xml version="1.0" ?><!DOCTYPE svg  PUBLIC '-//W3C//DTD SVG 1.1//EN'  'http://www.w3.org/Graphics/SVG/1.1/DTD/svg11.dtd'><svg height="512px" style="enable-background:new 0 0 512 512;" version="1.1" viewBox="0 0 512 512" width="512px" xml:space="preserve" xmlns="http://www.w3.org/2000/svg" xmlns:xlink="http://www.w3.org/1999/xlink"><g id="_x32_84-rockrms"><g><path d="M256,26.001c-127.057,0-230,102.943-230,229.999c0,127.057,102.943,229.999,230,229.999    c127.056,0,229.999-102.942,229.999-229.999C485.999,128.944,383.057,26.001,256,26.001z" style="fill:#E76B18;"/><path d="M401.976,415.053h-83.467L214.637,293.282c-16.601-18.919-3.617-52.028,24.669-52.028h69.834    l-78.459-92.093L152.5,240.883H69.032L205.456,80.904c13.354-17.064,38.302-16.045,50.544,0l146.251,171.665    c17.623,21.145,1.855,53.047-25.596,52.026c-0.556,0-68.813,0.187-68.813,0.187L401.976,415.053L401.976,415.053z" style="fill:#FFFFFF;"/></g></g><g id="Layer_1"/></svg>