<?xml version="1.0" ?><!DOCTYPE svg  PUBLIC '-//W3C//DTD SVG 1.1//EN'  'http://www.w3.org/Graphics/SVG/1.1/DTD/svg11.dtd'><svg height="512px" style="enable-background:new 0 0 512 512;" version="1.1" viewBox="0 0 512 512" width="512px" xml:space="preserve" xmlns="http://www.w3.org/2000/svg" xmlns:xlink="http://www.w3.org/1999/xlink"><g id="_x33_70-waze"><g><path d="M485.999,227.171c0-103.321-90.305-187.376-201.254-187.376    c-110.973,0-201.252,84.055-201.072,189.592c0.056,0.375,5.316,37.706-11.476,57.399c-7.157,8.357-17.568,12.452-31.818,12.452    c-7.944,0-14.378,6.456-14.378,14.416c0,39.916,29.275,67.769,88.778,83.948c-1.642,5.359-2.529,11.05-2.529,16.948    c0,31.842,25.745,57.654,57.5,57.654c31.757,0,57.494-25.813,57.494-57.654c0-0.46-0.023-0.913-0.034-1.37    c17.959,0.91,37.124,1.37,57.535,1.37c0,31.842,25.748,57.654,57.503,57.654c31.758,0,57.502-25.813,57.502-57.654    c0-10.535-2.832-20.403-7.754-28.903C448.432,352.417,485.999,293.801,485.999,227.171z" style="fill:#496269;"/><path d="M370.831,364.526c-8.422-4.85-18.175-7.637-28.583-7.637c-21.209,0-39.726,11.526-49.693,28.664    c-2.59,0.106-5.191,0.17-7.81,0.17c-23.92,0-46.041-0.633-66.343-1.883c-10.181-16.188-28.156-26.951-48.652-26.951    c-15.022,0-28.695,5.784-38.938,15.246c-41.75-9.931-66.695-25.213-73.878-45.566c15.183-2.857,27.6-9.913,37.115-21.046    c25.53-29.896,18.372-78.353,18.2-78.353c0-87.438,77.364-158.554,172.496-158.554c95.13,0,172.499,71.115,172.499,158.554    C457.244,285.786,422.445,337.089,370.831,364.526z" style="fill:#FFFFFF;"/><path d="M227.823,198.34c7.935,0,14.377-6.457,14.378-14.41c0-7.959-6.442-14.417-14.376-14.417h-0.289    c-7.938,0-14.234,6.458-14.234,14.417C213.302,191.886,219.89,198.34,227.823,198.34z" style="fill:#496269;"/><path d="M342.828,198.34c7.925,0,14.367-6.457,14.367-14.41c0-7.959-6.442-14.417-14.367-14.417h-0.299    c-7.936,0-14.225,6.458-14.225,14.417C328.305,191.886,334.912,198.34,342.828,198.34z" style="fill:#496269;"/><path d="M359.779,241.931c-7.813-1.735-15.408,3.141-17.188,10.895    c-6.129,27.327-29.906,46.413-57.847,46.413c-27.913,0-51.717-19.086-57.843-46.413c-1.756-7.786-9.426-12.567-17.19-10.895    c-7.735,1.755-12.597,9.452-10.871,17.24c9.119,40.584,44.443,68.894,85.904,68.894c41.49,0,76.825-28.332,85.934-68.894    C372.405,251.382,367.543,243.684,359.779,241.931z" style="fill:#496269;"/></g></g><g id="Layer_1"/></svg>