<?xml version="1.0" ?><!DOCTYPE svg  PUBLIC '-//W3C//DTD SVG 1.1//EN'  'http://www.w3.org/Graphics/SVG/1.1/DTD/svg11.dtd'><svg height="512px" style="enable-background:new 0 0 512 512;" version="1.1" viewBox="0 0 512 512" width="512px" xml:space="preserve" xmlns="http://www.w3.org/2000/svg" xmlns:xlink="http://www.w3.org/1999/xlink"><g id="_x33_29-superpowers"><g><path d="M485.998,26.001C400.469,37.296,314.732,48.59,229.305,59.885C134.84,72.72,61.631,148.907,55.778,244.707    c-3.389,56.984,18.481,112.432,59.348,152.169l-89.124,89.123c85.53-11.296,170.959-22.589,256.489-33.884    c94.258-12.834,167.673-89.123,173.218-184.615c3.594-56.985-18.482-112.433-59.244-152.168L485.998,26.001z M404.165,264.522    c-4.314,81.63-75.982,142.928-156.893,138.102c-81.63-4.826-144.468-72.902-139.95-155.044    c4.621-81.32,76.29-143.03,157.097-138.102C345.844,114.304,408.682,182.38,404.165,264.522z"/></g></g><g id="Layer_1"/></svg>