<?xml version="1.0" ?><!DOCTYPE svg  PUBLIC '-//W3C//DTD SVG 1.1//EN'  'http://www.w3.org/Graphics/SVG/1.1/DTD/svg11.dtd'><svg height="512px" style="enable-background:new 0 0 512 512;" version="1.1" viewBox="0 0 512 512" width="512px" xml:space="preserve" xmlns="http://www.w3.org/2000/svg" xmlns:xlink="http://www.w3.org/1999/xlink"><g id="_x33_69-Waves"><g><path d="M404.361,155.426L291.611,40.829c-19.546-19.771-51.193-19.771-70.792,0L108.054,155.067    c-6.722,6.793-6.722,17.242,0,24.07l34.158,34.498l22.783,21.535c6.781,6.095,17.032,6.095,23.825,0l45.502-42.378    c12.456-11.879,31.668-11.879,44.134,0l45.5,42.378c6.784,6.095,17.105,6.095,23.837,0l22.77-21.535l34.137-34.498    C410.746,172.671,410.746,161.861,404.361,155.426L404.361,155.426z" style="fill:#2FB1D5;"/><path d="M43.707,291.924l176.764,179.238c19.551,19.783,51.208,19.783,70.789,0L468.36,291.924    c30.623-30.911,9.288-40.231-13.506-61.772l-27.753-26.6c-6.73-6.492-17.05-6.085-23.836,0l-45.15,42.399    c-12.424,11.821-31.656,11.821-44.076,0l-45.906-42.399c-6.734-6.085-17.058-6.085-23.837,0l-45.517,42.399    c-12.456,11.821-31.655,11.821-44.119,0l-45.506-42.399c-6.767-6.085-17.078-6.085-23.835,0l-25.602,24.081    C36.231,249.545,11.717,259.597,43.707,291.924L43.707,291.924z" style="fill:#DEDEDE;"/></g></g><g id="Layer_1"/></svg>