<?xml version="1.0" ?><!DOCTYPE svg  PUBLIC '-//W3C//DTD SVG 1.1//EN'  'http://www.w3.org/Graphics/SVG/1.1/DTD/svg11.dtd'><svg height="512px" style="enable-background:new 0 0 512 512;" version="1.1" viewBox="0 0 512 512" width="512px" xml:space="preserve" xmlns="http://www.w3.org/2000/svg" xmlns:xlink="http://www.w3.org/1999/xlink"><g id="_x33_19-staylinked"><g><g><path d="M401.857,288.021l2.42,2.421L251.985,140.565c-3.136-3.136-8.691-3.315-12.363-0.448     l-51.332,39.058c-3.762,2.867-4.12,7.795-0.985,10.93l61.006,57.601c3.226,3.136,8.87,3.315,12.542,0.449l0.091-0.09     c3.67-2.867,9.315-2.688,12.541,0.448l75.252,72.834c3.225,3.134,2.867,8.063-0.809,10.928l-83.491,66.294     c-3.762,2.956-9.407,2.775-12.721-0.36L115.638,266.072c-3.134-3.136-8.689-3.316-12.453-0.447l-41.028,31.266     c-3.763,2.866-4.211,7.793-1.076,10.929l186.961,175.675c0,0,6.629,6.09,15.496-0.719l177.377-146.828     c3.584-2.866,3.941-7.793,0.628-10.93L401.857,288.021z M450.681,213.308L262.107,28.228c-1.344-1.075-7.167-4.927-14.602,0.985     L62.246,174.428c-3.763,2.866-4.3,7.793-1.076,10.929l37.895,37.357L252.88,370.619c3.314,3.134,9.048,3.313,12.81,0.355     l44.972-34.757l-0.269-0.271l6.896-5.375c3.765-2.865,4.123-7.793,0.807-10.93l-51.151-48.732     c-3.227-3.134-8.959-3.314-12.721-0.447l-0.09,0.091c-3.763,2.864-9.406,2.775-12.721-0.359l-84.746-82.239     c-3.225-3.135-2.777-7.973,0.985-10.93l82.596-64.052c3.673-2.868,9.227-2.688,12.452,0.449L396.393,255.86     c3.315,3.136,8.959,3.313,12.633,0.447l41.029-32.071C453.728,221.37,453.996,216.443,450.681,213.308L450.681,213.308z" style="fill:#63B246;"/></g></g></g><g id="Layer_1"/></svg>