<?xml version="1.0" ?><!DOCTYPE svg  PUBLIC '-//W3C//DTD SVG 1.1//EN'  'http://www.w3.org/Graphics/SVG/1.1/DTD/svg11.dtd'><svg height="512px" style="enable-background:new 0 0 512 512;" version="1.1" viewBox="0 0 512 512" width="512px" xml:space="preserve" xmlns="http://www.w3.org/2000/svg" xmlns:xlink="http://www.w3.org/1999/xlink"><g id="_x32_45-pagelines"><g><g><path d="M435.896,309.179c-51.631,128.095-175.324,50.601-175.324,50.601     c-37.949,76.649-100.637,125.938-172.978,126.22c-15.086,0-15.555-22.865,0-22.865c60.347-0.28,112.914-40.013,147.304-103.167     c-38.513,14.898-111.134,26.141-151.426-77.025c102.137-42.074,149.084,10.494,167.075,42.635     c9.277-22.864,15.931-47.696,20.241-74.683c0,0-130.906,20.52-140.091-91.924c111.603-44.886,142.995,71.871,142.995,71.871     c1.499-15.649,3.092-49.289,3.092-50.038c0,0-99.608-69.062-35.701-154.802c116.756,40.293,57.535,152.177,57.535,152.177     c0.469,1.5,0.469,22.302,0,31.298c0,0,42.354-83.397,127.814-53.88c-3.938,125.564-132.97,99.702-132.97,99.702     c-4.121,25.674-10.494,50.037-18.74,72.622C274.724,327.92,352.5,241.897,435.896,309.179z" style="fill:#135CAA;"/></g></g></g><g id="Layer_1"/></svg>