<?xml version="1.0" ?><!DOCTYPE svg  PUBLIC '-//W3C//DTD SVG 1.1//EN'  'http://www.w3.org/Graphics/SVG/1.1/DTD/svg11.dtd'><svg height="512px" style="enable-background:new 0 0 512 512;" version="1.1" viewBox="0 0 512 512" width="512px" xml:space="preserve" xmlns="http://www.w3.org/2000/svg" xmlns:xlink="http://www.w3.org/1999/xlink"><g id="_x32_57-picasa"><g><path d="M365.698,65.673v272.828h93.608c10.309-25.495,16.099-53.294,16.099-82.502    C475.405,174.63,431.219,103.737,365.698,65.673z" style="fill:#FFD34E;"/><path d="M338.275,52.142c-25.426-10.337-53.15-16.141-82.273-16.141c-26.441,0-51.668,4.921-75.149,13.528    l157.422,147.316V52.142z" style="fill:#E04A3F;"/><path d="M173.725,459.856c25.424,10.332,53.152,16.143,82.278,16.143    c81.148,0,151.851-44.307,189.809-110.003H173.725V459.856z" style="fill:#0DAB62;"/><path d="M153.483,61.548C83.987,98.483,36.595,171.658,36.595,255.999c0,19.391,2.742,38.111,7.461,56.013    l185.173-179.599L153.483,61.548z" style="fill:#9B479F;"/><path d="M146.297,446.322V251.133L53.6,341.031C72.22,385.467,105.052,422.369,146.297,446.322z" style="fill:#448AFD;"/></g></g><g id="Layer_1"/></svg>