<?xml version="1.0" ?><!DOCTYPE svg  PUBLIC '-//W3C//DTD SVG 1.1//EN'  'http://www.w3.org/Graphics/SVG/1.1/DTD/svg11.dtd'><svg height="512px" style="enable-background:new 0 0 512 512;" version="1.1" viewBox="0 0 512 512" width="512px" xml:space="preserve" xmlns="http://www.w3.org/2000/svg" xmlns:xlink="http://www.w3.org/1999/xlink"><g id="_x33_60-viddler"><g><g><g id="_x32_2-viddler_9_"><g><g><path d="M374.934,289.416c61.325,0,111.065-49.44,111.065-110.415        c0-60.936-49.74-110.383-111.065-110.383c-55.801,0-101.916,40.879-109.799,94.125h-3.586        c-7.905-53.246-54.051-94.125-109.852-94.125c-61.325,0-111.037,49.447-111.037,110.383        c0,60.398,48.79,109.489,109.364,110.387v0.027h3.336v37.617L26.001,292.727v146.822l127.357-38.084v41.916H340.55        l-54.855-153.965H374.934L374.934,289.416z M151.697,210.17c-17.334,0-31.37-13.928-31.37-31.19        c0-17.216,14.053-31.17,31.37-31.17c17.304,0,31.356,13.954,31.356,31.17C183.055,196.242,169.002,210.17,151.697,210.17         M345.846,179.001c0-17.207,13.987-31.16,31.305-31.16c17.357,0,31.422,13.954,31.422,31.16        c0,17.241-14.064,31.223-31.422,31.223C359.833,210.192,345.846,196.242,345.846,179.001" style="fill:#2299F8;"/></g></g></g></g></g></g><g id="Layer_1"/></svg>