<?xml version="1.0" ?><!DOCTYPE svg  PUBLIC '-//W3C//DTD SVG 1.1//EN'  'http://www.w3.org/Graphics/SVG/1.1/DTD/svg11.dtd'><svg height="512px" style="enable-background:new 0 0 512 512;" version="1.1" viewBox="0 0 512 512" width="512px" xml:space="preserve" xmlns="http://www.w3.org/2000/svg" xmlns:xlink="http://www.w3.org/1999/xlink"><g id="_x33_14-speakap"><g><path d="M91.279,395.416c-81.537-90.551-73.886-230.365,17.085-312.28    C199.337,1.218,339.184,8.222,420.72,98.782c81.537,90.563,73.888,230.367-17.085,312.282    c-19.24,17.324,65.746,44.245,43.146,53.661c-84.257,35.126-260.709,35.977-355.502-69.307V395.416z" style="fill:#FB4A36;"/><path d="M310.301,178.153l39.531-41.953c-9.866-9.129-32.877-27.548-78.21-28.34    c-53.731-0.935-98.426,29.058-99.361,82.102c-0.205,11.633,0.297,37.702,30.208,56.298c35.383,21.991,88.837,22.083,88.282,53.657    c-0.381,21.851-27.127,26.503-39.624,26.287c-3.06-0.051-31.04-0.473-48.885-25.278l-41.019,43.75    c28.914,27.731,60.569,33.494,85.726,33.936c10.502,0.184,99.001,0.338,100.459-83.17c0.287-16.234-2.125-40.782-29.633-58.104    c-35.281-22.22-87.235-19.971-86.69-51.083c0.42-23.872,31.787-26.049,38.535-25.936    C270.061,160.318,296.954,160.585,310.301,178.153L310.301,178.153z" style="fill:#FBFFFF;"/></g></g><g id="Layer_1"/></svg>