<?xml version="1.0" ?><!DOCTYPE svg  PUBLIC '-//W3C//DTD SVG 1.1//EN'  'http://www.w3.org/Graphics/SVG/1.1/DTD/svg11.dtd'><svg height="512px" style="enable-background:new 0 0 512 512;" version="1.1" viewBox="0 0 512 512" width="512px" xml:space="preserve" xmlns="http://www.w3.org/2000/svg" xmlns:xlink="http://www.w3.org/1999/xlink"><g id="_x33_42-tumblr-square"><g><path d="M428.857,36.001H83.145c-26.027,0-47.143,21.116-47.143,47.144v345.713    c0,26.027,21.115,47.142,47.143,47.142h345.713c26.027,0,47.141-21.114,47.141-47.142V83.145    C475.998,57.117,454.885,36.001,428.857,36.001z" style="fill:#314358;"/><path d="M348.027,393.696c-8.35,8.937-30.644,19.448-59.813,19.448c-74.152,0-90.259-54.511-90.259-86.332    V238.42h-29.169c-3.34,0-6.09-2.75-6.09-6.09v-41.74c0-4.42,2.75-8.349,6.974-9.822c38.106-13.455,49.991-46.652,51.759-71.893    c0.491-6.777,4.025-10.018,9.82-10.018h43.508c3.341,0,6.09,2.75,6.09,6.089v70.714h50.974c3.34,0,6.09,2.75,6.09,6.089v50.187    c0,3.338-2.75,6.089-6.09,6.089h-51.17v81.813c0,21.016,14.536,32.9,41.741,22c2.946-1.18,5.5-1.967,7.856-1.376    c2.161,0.49,3.537,2.062,4.521,4.812l13.551,39.482C349.303,387.903,350.285,391.34,348.027,393.696L348.027,393.696z" style="fill:#FFFFFF;"/></g></g><g id="Layer_1"/></svg>