<?xml version="1.0" ?><!DOCTYPE svg  PUBLIC '-//W3C//DTD SVG 1.1//EN'  'http://www.w3.org/Graphics/SVG/1.1/DTD/svg11.dtd'><svg height="512px" style="enable-background:new 0 0 512 512;" version="1.1" viewBox="0 0 512 512" width="512px" xml:space="preserve" xmlns="http://www.w3.org/2000/svg" xmlns:xlink="http://www.w3.org/1999/xlink"><g id="_x33_65-vlc"><g><path d="M309.56,98.06l24.14,86.47c-19.24,6.02-47.119,9.63-77.7,9.63c-30.64,0-58.58-3.62-77.82-9.66    l23.73-86.52c15.77,2.69,34.48,4.18,54.09,4.18C275.39,102.16,293.91,100.7,309.56,98.06z" style="fill:#F8A03E;"/><path d="M374.91,332.17h34.01c5.779,0,11.07,3.271,13.67,8.46l61.16,122.66    c2.369,4.79,2.15,10.4-0.631,14.94c-2.819,4.51-7.739,7.27-13.029,7.27H41.91c-5.29,0-10.21-2.79-12.99-7.3    c-2.79-4.51-3.07-10.15-0.68-14.91l61.18-122.66c2.59-5.189,7.88-8.46,13.66-8.46h34.29l-3.09,11.34    c-0.31,1.23-0.62,2.76-0.62,3.99c0,44.77,109.8,46,122.34,46c12.54,0,122.331-1.23,122.331-46c0-1.23-0.301-2.76-0.601-3.99    l-3.09-11.34H374.91z" style="fill:#F8A447;"/><path d="M137.66,338.25l18.11-66.04c15.26,11.51,54.44,19.96,100.23,19.96c46.02,0,85.35-8.53,100.45-20.13    l18.461,66.13h-0.271l3.09,11.34c0.3,1.23,0.601,2.76,0.601,3.99c0,44.77-109.791,46-122.331,46c-12.54,0-122.34-1.23-122.34-46    c0-1.23,0.31-2.76,0.62-3.99l3.09-11.34L137.66,338.25z" style="fill:#E5953D;"/><path d="M137.66,332.25l18.11-66.04c15.26,11.51,54.44,19.96,100.23,19.96c46.02,0,85.35-8.53,100.45-20.13    l18.461,66.13h-0.271l3.09,11.34c0.3,1.23,0.601,2.76,0.601,3.99c0,44.77-109.791,46-122.331,46c-12.54,0-122.34-1.23-122.34-46    c0-1.23,0.31-2.76,0.62-3.99l3.09-11.34L137.66,332.25z" style="fill:#F8A03E;"/><path d="M333.699,184.53l22.75,81.51c-15.1,11.6-54.43,20.13-100.45,20.13    c-45.79,0-84.97-8.45-100.23-19.96l22.41-81.71c19.24,6.04,47.18,9.66,77.82,9.66C286.58,194.16,314.459,190.55,333.699,184.53z" style="fill:#F4F4F4;"/><path d="M308.411,99.06c-15.412,2.64-33.649,4.1-52.745,4.1c-19.311,0-37.736-1.49-53.266-4.18    c-0.217-0.04-0.424-0.07-0.64-0.11l10.537-38.95c5.722-20.54,22.896-33.42,43.369-33.42s37.648,12.88,43.37,33.12l10.537,39.25    C309.189,98.94,308.805,99.01,308.411,99.06z" style="fill:#F4F4F4;"/></g></g><g id="Layer_1"/></svg>