<?xml version="1.0" ?><!DOCTYPE svg  PUBLIC '-//W3C//DTD SVG 1.1//EN'  'http://www.w3.org/Graphics/SVG/1.1/DTD/svg11.dtd'><svg height="512px" style="enable-background:new 0 0 512 512;" version="1.1" viewBox="0 0 512 512" width="512px" xml:space="preserve" xmlns="http://www.w3.org/2000/svg" xmlns:xlink="http://www.w3.org/1999/xlink"><g id="_x33_26-stumbleupon"><g><path d="M485.999,265.104v63.751c0,56.802-46.01,102.812-102.813,102.812    c-56.526,0-102.81-45.552-102.81-101.806v-64.212l31.373,14.635l46.741-13.901v64.575c0,13.446,10.977,24.239,24.422,24.239    c13.447,0,24.514-10.793,24.514-24.239v-65.854H485.999z" style="fill:#B0361A;"/><path d="M280.469,211.866l31.373,14.636l46.741-13.903v-32.563c0-55.339-46.741-99.702-102.537-99.702    c-55.613,0-102.538,44.089-102.538,98.97v148.548c0,13.629-10.976,24.423-24.42,24.423c-13.447,0-24.423-10.794-24.423-24.423    v-62.746H26.001v63.751c0,56.712,46.009,102.719,102.811,102.719c56.346,0,102.812-45.276,102.812-101.347V183.603    c0-13.446,10.977-24.423,24.423-24.423s24.423,10.977,24.423,24.423V211.866z" style="fill:#EB4823;"/></g></g><g id="Layer_1"/></svg>