<?xml version="1.0" ?><!DOCTYPE svg  PUBLIC '-//W3C//DTD SVG 1.1//EN'  'http://www.w3.org/Graphics/SVG/1.1/DTD/svg11.dtd'><svg height="512px" style="enable-background:new 0 0 512 512;" version="1.1" viewBox="0 0 512 512" width="512px" xml:space="preserve" xmlns="http://www.w3.org/2000/svg" xmlns:xlink="http://www.w3.org/1999/xlink"><g id="_x32_31-nimblr"><g><path d="M256.001,161.808c-31.23,0-91.921,17.807-119.053,61.138L96.294,33v287.408    c0,87.73,71.525,158.592,159.707,158.592c88.26,0,159.705-70.932,159.705-158.592    C415.706,232.846,344.379,161.808,256.001,161.808L256.001,161.808z" style="fill:#F77C38;"/><path d="M256.001,438.633c-65.83,0-119.053-52.918-119.053-118.225    c0-65.297,53.223-118.226,119.053-118.226c65.827,0,119.051,52.928,119.051,118.226    C375.052,385.705,321.819,438.633,256.001,438.633z" style="fill:#FFFFFF;"/><path d="M305.27,287.893c13.989,0,24.393,10.297,24.393,24.223c0,13.971-10.439,24.223-24.393,24.223    c-14.104,0-24.393-10.396-24.393-24.223C280.877,298.182,291.281,287.893,305.27,287.893z" style="fill:#F77C38;"/><path d="M185.249,312.115c0-14.025,10.492-24.223,24.391-24.223c13.988,0,24.394,10.297,24.394,24.223    c0,13.846-10.305,24.223-24.394,24.223C195.77,336.338,185.249,326.178,185.249,312.115" style="fill:#F77C38;"/></g></g><g id="Layer_1"/></svg>