<?xml version="1.0" ?><!DOCTYPE svg  PUBLIC '-//W3C//DTD SVG 1.1//EN'  'http://www.w3.org/Graphics/SVG/1.1/DTD/svg11.dtd'><svg height="512px" style="enable-background:new 0 0 512 512;" version="1.1" viewBox="0 0 512 512" width="512px" xml:space="preserve" xmlns="http://www.w3.org/2000/svg" xmlns:xlink="http://www.w3.org/1999/xlink"><g id="_x33_04-skyatlas"><g><g><path d="M485.999,308.649c0,47.361-37.733,82.224-84.452,82.224     c-119.241,0-141.308-179.472-258.533-179.472c-105.584,0-105.729,152.518,4.024,152.518c30.546,0,65.334-12.793,90.059-30.547     c4.025-2.947,12.147-11.715,16.388-11.715c4.239,0,7.833,3.595,7.833,7.836c0,5.604-9.414,13.727-13.439,17.321     c-29.396,25.585-72.091,43.986-111.188,43.986c-59.944,0.072-110.688-42.407-110.688-104.147     c0-61.74,48.516-107.164,109.824-107.164c133.184,0,159.921,176.74,260.115,176.74c71.803,0,68.137-100.409,2.444-100.409     c-12.578,0-25.156,8.338-33.709,8.338c-6.039,0-11.43-5.175-11.43-11.213c0-8.337,3.811-17.034,3.811-26.09     c0-47.868-36.585-82.44-84.022-82.44c-38.165,0-57.5,26.522-63.825,26.522c-4.456,0-8.05-3.593-8.05-8.05     c0-4.025,2.947-7.403,5.607-10.35c18.184-20.7,46.503-31.409,73.886-31.409c57.069,0,99.979,41.975,99.979,99.043     c0,4.959-0.215,9.847-0.862,14.806c8.554-2.228,17.321-3.377,25.804-3.377C449.198,231.599,485.999,264.158,485.999,308.649z" style="fill:#4CC3C8;"/></g></g></g><g id="Layer_1"/></svg>