<?xml version="1.0" ?><!DOCTYPE svg  PUBLIC '-//W3C//DTD SVG 1.1//EN'  'http://www.w3.org/Graphics/SVG/1.1/DTD/svg11.dtd'><svg height="512px" style="enable-background:new 0 0 512 512;" version="1.1" viewBox="0 0 512 512" width="512px" xml:space="preserve" xmlns="http://www.w3.org/2000/svg" xmlns:xlink="http://www.w3.org/1999/xlink"><g id="_x32_59-pied-piper-pp"><g><path d="M485.998,75.287v361.427c0,27.211-22.073,49.285-49.284,49.285H75.287    c-27.209,0-49.285-22.074-49.285-49.285V75.287c0-27.211,22.076-49.286,49.285-49.286h361.427    C463.925,26.001,485.998,48.076,485.998,75.287z" style="fill:#398E3C;"/><g><g><path d="M219.956,92.612c-12.322,0-24.746,3.286-35.528,9.036h-46.923v211.826l53.188-10.371v-51.955      c8.83,3.182,18.584,4.929,29.263,4.929c42.098,0,76.188-36.554,76.188-81.733C296.144,129.166,262.054,92.612,219.956,92.612z       M208.25,212.541c-7.29,0-13.143-1.232-17.661-3.799V138.92c4.519-2.771,10.371-4.313,17.661-4.313      c17.968,0,32.549,17.354,32.549,38.813C240.799,195.085,226.219,212.541,208.25,212.541z" style="fill:#273237;"/><path d="M326.759,230.035c-3.285,0-6.57,0.205-9.856,0.718c-3.798,12.836-10.37,24.438-19.714,34.294      c-14.17,15.402-33.063,24.438-53.188,25.467V451l53.188-10.372v-51.955c8.829,3.284,18.688,4.826,29.47,4.826      c41.892,0,75.98-36.553,75.98-81.733C402.639,266.588,368.55,230.035,326.759,230.035z M314.849,349.861      c-7.29,0-13.144-1.234-17.66-3.799v-69.823c4.517-2.772,10.37-4.312,17.66-4.312c17.867,0,32.549,17.454,32.549,39.121      C347.397,332.507,332.716,349.861,314.849,349.861z" style="fill:#273237;"/></g></g><g><path d="M215.956,81.612c-12.322,0-24.746,3.286-35.528,9.036h-46.923v211.826l53.188-10.371v-51.955     c8.83,3.182,18.584,4.929,29.263,4.929c42.098,0,76.188-36.554,76.188-81.733C292.144,118.166,258.054,81.612,215.956,81.612z      M204.25,201.541c-7.29,0-13.143-1.232-17.661-3.799V127.92c4.519-2.771,10.371-4.313,17.661-4.313     c17.968,0,32.549,17.354,32.549,38.813C236.799,184.085,222.219,201.541,204.25,201.541z" style="fill:#FFFFFF;"/><path d="M322.759,219.035c-3.285,0-6.57,0.205-9.856,0.718c-3.798,12.836-10.37,24.438-19.714,34.294     c-14.17,15.402-33.063,24.438-53.188,25.467V440l53.188-10.372v-51.955c8.829,3.284,18.688,4.826,29.47,4.826     c41.892,0,75.98-36.553,75.98-81.733C398.639,255.588,364.55,219.035,322.759,219.035z M310.849,338.861     c-7.29,0-13.144-1.234-17.66-3.799v-69.823c4.517-2.772,10.37-4.312,17.66-4.312c17.867,0,32.549,17.454,32.549,39.121     C343.397,321.507,328.716,338.861,310.849,338.861z" style="fill:#FFFFFF;"/></g></g></g><g id="Layer_1"/></svg>