<?xml version="1.0" ?><!DOCTYPE svg  PUBLIC '-//W3C//DTD SVG 1.1//EN'  'http://www.w3.org/Graphics/SVG/1.1/DTD/svg11.dtd'><svg height="512px" style="enable-background:new 0 0 512 512;" version="1.1" viewBox="0 0 512 512" width="512px" xml:space="preserve" xmlns="http://www.w3.org/2000/svg" xmlns:xlink="http://www.w3.org/1999/xlink"><g id="_x32_64-pocket"><g><path d="M457.25,54.209H54.753c-15.844,0-28.752,12.94-28.752,28.822v158.556    c0,119.232,96.713,216.204,215.627,216.204h28.747c118.906,0,215.624-96.972,215.624-216.204V83.031    C486,67.149,473.119,54.209,457.25,54.209z" style="fill:#EF4056;"/><path d="M391.33,218.728L276.324,334.035c-5.605,5.619-12.963,8.451-20.321,8.451    c-7.362,0-14.722-2.832-20.333-8.451L120.677,218.728c-11.242-11.274-11.242-29.494,0-40.766    c11.238-11.269,29.406-11.269,40.652,0l94.674,94.928l94.67-94.928c11.241-11.269,29.411-11.269,40.657,0    C402.566,189.234,402.566,207.454,391.33,218.728z" style="fill:#FFFFFF;"/></g></g><g id="Layer_1"/></svg>