<?xml version="1.0" ?><!DOCTYPE svg  PUBLIC '-//W3C//DTD SVG 1.1//EN'  'http://www.w3.org/Graphics/SVG/1.1/DTD/svg11.dtd'><svg height="512px" style="enable-background:new 0 0 512 512;" version="1.1" viewBox="0 0 512 512" width="512px" xml:space="preserve" xmlns="http://www.w3.org/2000/svg" xmlns:xlink="http://www.w3.org/1999/xlink"><g id="_x33_90-yahoo"><g><g><path d="M281.2,288.345l3.594,197.654c-11.409-1.976-21.113-3.505-29.019-3.505     c-7.547,0-17.25,1.529-29.019,3.505l3.593-197.654c-49.413-85.172-99.188-176.813-156.327-262.344     c10.691,2.785,20.665,3.504,29.828,3.504c8.086,0,18.326-0.719,30.637-3.504c36.746,64.866,73.761,124.614,121.288,202.597     c33.512-55.343,81.847-129.464,121.197-202.597c9.975,2.604,19.767,3.504,29.559,3.504c10.332,0,20.845-0.899,31.446-3.504     C407.071,69.035,319.743,220.872,281.2,288.345z" style="fill:#8E3B94;"/></g></g></g><g id="Layer_1"/></svg>