<?xml version="1.0" ?><!DOCTYPE svg  PUBLIC '-//W3C//DTD SVG 1.1//EN'  'http://www.w3.org/Graphics/SVG/1.1/DTD/svg11.dtd'><svg height="512px" style="enable-background:new 0 0 512 512;" version="1.1" viewBox="0 0 512 512" width="512px" xml:space="preserve" xmlns="http://www.w3.org/2000/svg" xmlns:xlink="http://www.w3.org/1999/xlink"><g id="_x33_41-tumblr"><g><g><path d="M390.594,457.518c-12.219,13.027-44.922,28.481-87.507,28.481     c-108.533,0-132.071-79.78-132.071-126.318V230.306H128.34c-4.941,0-8.984-4.044-8.984-8.985v-61.093     c0-6.469,4.043-12.22,10.153-14.375c55.703-19.587,73.222-68.282,75.736-105.206c0.719-9.884,5.84-14.646,14.465-14.646h63.7     c4.94,0,8.984,4.043,8.984,8.984v103.501h74.57c4.94,0,8.985,3.952,8.985,8.894v73.401c0,4.94-4.045,8.985-8.985,8.985h-74.929     v119.671c0,30.728,21.292,48.156,61.093,32.164c4.313-1.708,8.086-2.877,11.41-1.977c3.145,0.809,5.211,3.056,6.647,7.099     l19.767,57.767C392.57,448.982,393.918,454.017,390.594,457.518L390.594,457.518z" style="fill:#314358;"/></g></g></g><g id="Layer_1"/></svg>