<?xml version="1.0" ?><!DOCTYPE svg  PUBLIC '-//W3C//DTD SVG 1.1//EN'  'http://www.w3.org/Graphics/SVG/1.1/DTD/svg11.dtd'><svg height="512px" style="enable-background:new 0 0 512 512;" version="1.1" viewBox="0 0 512 512" width="512px" xml:space="preserve" xmlns="http://www.w3.org/2000/svg" xmlns:xlink="http://www.w3.org/1999/xlink"><g id="_x32_95-shazam"><g><g><g id="_x33_8-shazam_9_"><g><g><g><path d="M316.788,125.541c92.328-0.836,160.398,80.841,153.83,166.61         c-2.666,34.849-15.424,66.183-39.68,91.547c-29.623,30.933-60.244,61.032-90.7,91.337         c-11.096,10.931-24.682,13.835-39.08,8.055c-14.395-5.778-22.619-17.108-24.456-32.58c-1.233-9.887,1.435-18.768,8.63-25.987         c20.561-21.047,41.118-42.064,61.705-63.11c10.068-10.523,20.36-20.813,29.416-31.968         c20.766-25.36,23.661-53.622,9.669-82.692c-14.801-30.505-39.883-45.371-74.034-44.333         c-18.927,0.399-34.753,7.62-48.113,20.618c-12.967,12.589-25.922,25.555-39.289,37.75         c-12.956,11.757-29.82,12.991-44.015,4.107c-14.618-9.029-21.617-26.564-16.887-43.042c1.032-3.708,2.87-7.618,5.332-10.72         c18.928-22.686,38.887-44.34,63.542-60.844C258.181,132.958,286.764,124.933,316.788,125.541L316.788,125.541z" style="fill:#0075BE;"/><path d="M193.978,386.195c-90.293,0.632-159.167-81.25-152.601-166.811         c2.667-33.61,14.393-64.146,37.219-88.676c28.787-30.931,59.238-60.432,89.058-90.332c3.3-3.308,6.999-5.979,10.896-8.454         c14.797-9.085,30.025-7.616,43.61,3.714c11.732,9.886,16.864,28.259,10.7,42.257c-2.269,5.38-6.595,10.122-10.7,14.435         c-25.72,26.399-51.608,52.789-77.128,79.183c-10.294,10.524-19.329,21.852-23.858,36.485         c-15.019,48.073,21.597,104.368,78.136,101.493c18.729-1.033,34.752-7.217,48.317-20.21         c12.96-12.599,25.725-25.362,39.281-37.752c12.963-11.759,28.789-13.399,42.775-5.348         c14.399,8.05,22.231,23.915,19.132,40.421c-1.033,5.146-3.298,10.726-6.599,14.633c-18.923,22.49-39.079,44.138-63.536,60.84         C253.218,379.384,224.4,385.994,193.978,386.195L193.978,386.195z" style="fill:#0075BE;"/></g></g></g></g></g></g></g><g id="Layer_1"/></svg>