<?xml version="1.0" ?><!DOCTYPE svg  PUBLIC '-//W3C//DTD SVG 1.1//EN'  'http://www.w3.org/Graphics/SVG/1.1/DTD/svg11.dtd'><svg height="512px" style="enable-background:new 0 0 512 512;" version="1.1" viewBox="0 0 512 512" width="512px" xml:space="preserve" xmlns="http://www.w3.org/2000/svg" xmlns:xlink="http://www.w3.org/1999/xlink"><g id="_x33_97-zootool"><g><g><g id="_x32_-zootool_9_"><g><g><path d="M165.708,329.563c71.6,134.58,91.728,156.437,140.847,156.437        c53.332,0,107.152-39.592,107.152-75.416c0-12.134-6.539-22.828-13.072-26.078c-22.457,12.104-42.582,18.636-60.846,18.636        c-23.4,0-36.504-10.268-110.914-119.208c56.603-48.419,89.867-80.565,132.876-141.544        c36.99-24.211,51.469-45.634,51.469-65.182c0-16.762-14.506-39.102-33.203-39.102c-8.918,0-15.912,8.396-25.287,22.832        c-68.797-26.08-101.083-34.937-136.634-34.937c-33.237,0-60.361,28.864-60.361,62.39c0,19.094,7.971,29.786,20.097,33.523        c15.917-9.289,29.023-13.024,37.422-13.024c22.02,0,56.171,9.774,98.267,22.341c-21.047,30.247-75.788,86.143-115.099,116.876        c-14.965-12.596-24.342-17.225-37.876-17.225c-43.528,0-62.254,50.286-62.254,81.483c0,31.655,7.485,40.512,19.182,40.512        C130.579,352.822,152.115,341.664,165.708,329.563L165.708,329.563z" style="fill:#303C42;"/></g></g></g></g></g></g><g id="Layer_1"/></svg>