<?xml version="1.0" ?><!DOCTYPE svg  PUBLIC '-//W3C//DTD SVG 1.1//EN'  'http://www.w3.org/Graphics/SVG/1.1/DTD/svg11.dtd'><svg height="512px" style="enable-background:new 0 0 512 512;" version="1.1" viewBox="0 0 512 512" width="512px" xml:space="preserve" xmlns="http://www.w3.org/2000/svg" xmlns:xlink="http://www.w3.org/1999/xlink"><g id="_x32_93-sellsy"><g><path d="M417.045,242.299c2.246-8.984,3.145-18.193,3.145-27.401c0-67.833-55.254-123.087-123.086-123.087    c-56.602,0-106.016,38.857-119.492,93.662c-11.23-9.657-25.606-15.049-40.429-15.049c-33.917,0-61.544,27.627-61.544,61.543    c0,5.391,0.674,11.006,2.247,16.396c-31.445,14.823-51.885,46.719-51.885,81.534c0,49.862,40.653,90.292,90.292,90.292h279.414    c49.639,0,90.292-40.43,90.292-90.292C486,288.567,457.475,252.182,417.045,242.299L417.045,242.299z" style="fill:#0175C8;"/><path d="M167.953,362.691c0,6.063-5.166,11.229-11.23,11.229h-22.685c-6.064,0-11.23-5.167-11.23-11.229    v-81.311c0-6.064,5.167-11.229,11.23-11.229h22.685c6.065,0,11.23,5.165,11.23,11.229V362.691L167.953,362.691z" style="fill:#FFFFFF;"/><path d="M233.539,362.691c0,6.063-5.167,11.229-11.23,11.229h-22.686c-6.065,0-11.229-5.167-11.229-11.229    v-96.357c0-6.066,5.166-11.231,11.229-11.231h22.686c6.063,0,11.23,5.165,11.23,11.231V362.691L233.539,362.691z" style="fill:#FFFFFF;"/><path d="M299.124,362.691c0,6.063-5.165,11.229-11.229,11.229h-22.686c-6.064,0-11.23-5.167-11.23-11.229    V243.423c0-6.065,5.166-11.231,11.23-11.231h22.686c6.064,0,11.229,5.168,11.229,11.231V362.691L299.124,362.691z" style="fill:#FFFFFF;"/><path d="M362.914,362.691c0,6.063-5.166,11.229-11.23,11.229h-20.888c-6.065,0-11.229-5.167-11.229-11.229    V198.051c0-6.288,5.164-11.455,11.229-11.455h20.888c6.064,0,11.23,5.166,11.23,11.455V362.691L362.914,362.691z" style="fill:#FFFFFF;"/></g></g><g id="Layer_1"/></svg>