<?xml version="1.0" ?><!DOCTYPE svg  PUBLIC '-//W3C//DTD SVG 1.1//EN'  'http://www.w3.org/Graphics/SVG/1.1/DTD/svg11.dtd'><svg height="512px" style="enable-background:new 0 0 512 512;" version="1.1" viewBox="0 0 512 512" width="512px" xml:space="preserve" xmlns="http://www.w3.org/2000/svg" xmlns:xlink="http://www.w3.org/1999/xlink"><g id="_x33_94-yoast"><g><path d="M126.673,80.578h181.271l-6.822,18.419H126.673c-38.689,0-70.071,30.797-70.071,68.513v200.178    c0,34.501,24.267,68.513,81.864,68.513v18.614h-11.793c-48.825,0-88.978-39.177-88.978-87.224V167.51    C37.695,119.464,77.36,80.578,126.673,80.578z" style="fill:#A4286A;"/><path d="M349.947,26.001h64.811C274.612,394.487,272.764,414.759,234.755,454.133    c-20.272,21.052-48.048,30.896-76.311,31.866V436.2c47.95-7.504,62.957-48.633,62.957-73.388    c0-19.586,0.585-12.278-80.013-217.522h59.839l49.119,152.618L349.947,26.001L349.947,26.001z" style="fill:#9FDA4F;"/><path d="M474.305,163.904v290.91H265.746c6.432-9.356,10.427-15.885,11.792-18.908h177.858V163.904    c0-31.674-16.664-50.58-46.973-61.302l6.529-17.152C455.594,98.705,474.305,127.455,474.305,163.904z" style="fill:#A4286A;"/></g></g><g id="Layer_1"/></svg>