<?xml version="1.0" ?><!DOCTYPE svg  PUBLIC '-//W3C//DTD SVG 1.1//EN'  'http://www.w3.org/Graphics/SVG/1.1/DTD/svg11.dtd'><svg height="512px" style="enable-background:new 0 0 512 512;" version="1.1" viewBox="0 0 512 512" width="512px" xml:space="preserve" xmlns="http://www.w3.org/2000/svg" xmlns:xlink="http://www.w3.org/1999/xlink"><g id="_x33_62-vine"><g><g><path d="M457.546,254.629v54.69c-19.315,4.408-38.735,6.403-54.69,6.403     c-38.734,81.25-108.121,150.949-131.321,163.965c-14.696,8.293-28.445,8.817-44.822-0.839     c-28.447-17.11-136.357-105.6-172.258-383.777h78.204c19.63,167.011,67.707,252.667,120.507,316.805     c29.287-29.288,57.525-68.336,79.36-112.216c-52.278-26.557-84.084-84.921-84.084-152.838C248.441,77.962,288.017,26,355.723,26     c120.613,0,111.48,134.258,85.656,190.524c0,0-48.706,9.657-66.656-21.521c3.568-11.861,8.607-32.33,8.607-50.91     c0-32.856-11.862-48.917-29.812-48.917c-19.104,0-32.331,17.951-32.331,52.486C321.293,230.8,383.541,272.264,457.546,254.629     L457.546,254.629z" style="fill:#0DB289;"/></g></g></g><g id="Layer_1"/></svg>