<?xml version="1.0" ?><!DOCTYPE svg  PUBLIC '-//W3C//DTD SVG 1.1//EN'  'http://www.w3.org/Graphics/SVG/1.1/DTD/svg11.dtd'><svg height="512px" style="enable-background:new 0 0 512 512;" version="1.1" viewBox="0 0 512 512" width="512px" xml:space="preserve" xmlns="http://www.w3.org/2000/svg" xmlns:xlink="http://www.w3.org/1999/xlink"><g id="_x32_97-shopware"><g><g><path d="M392.798,440.935c-39.832,29.484-87.129,45.064-136.773,45.064     C128.774,485.999,26.007,383.055,26.007,256c0-127.232,102.98-229.999,230.018-229.999c56.849,0,111.418,20.914,153.654,58.892     c2.429,2.188,0.537,6.157-2.654,5.731c-16.385-2.255-34.082-3.395-52.593-3.395c-119.969,0-206.256,49.589-206.256,144.074     c0,101.123,85.444,135.29,163.995,165.755c31.196,12.094,60.652,23.521,80.646,38.572     C394.579,436.966,394.571,439.63,392.798,440.935L392.798,440.935z M485.041,234.754c-0.075-0.873-0.511-1.698-1.179-2.264     c-48.004-39.841-86.824-56.09-133.992-56.09c-78.024,0-74.426,48.384-74.426,49.737c0,39.507,48.281,57.509,104.187,78.357     c28.814,10.747,58.603,21.859,85.952,37.03c1.743,0.975,3.95,0.177,4.683-1.688C487.784,294.96,486.904,256.158,485.041,234.754z     " style="fill:#189EFF;"/></g></g></g><g id="Layer_1"/></svg>