<?xml version="1.0" ?><!DOCTYPE svg  PUBLIC '-//W3C//DTD SVG 1.1//EN'  'http://www.w3.org/Graphics/SVG/1.1/DTD/svg11.dtd'><svg height="512px" style="enable-background:new 0 0 512 512;" version="1.1" viewBox="0 0 512 512" width="512px" xml:space="preserve" xmlns="http://www.w3.org/2000/svg" xmlns:xlink="http://www.w3.org/1999/xlink"><g id="_x32_66-pushed"><g><g><path d="M452.13,107.99l-101.156-9.242l14.376-34.302c10.682-24.135-11.091-41.49-29.473-37.999     L57.255,72.046c-15.507,2.772-26.702,18.793-21.977,37.588l107.936,357.699c6.676,21.874,37.691,24.854,48.987,7.19l36.253-82.98     L470.001,154C486.843,136.746,474.417,109.942,452.13,107.99z M339.778,48.117c5.239-0.718,7.703,2.568,5.34,7.6l-17.253,40.977     l-182.186-16.74L339.778,48.117z M57.462,103.883c-3.185-5.238,1.026-10.271,6.264-9.346l255.411,23.313l-99.515,236.927     L57.462,103.883z M173.818,461.791c-2.67,4.105-8.113,3.182-9.654-1.232L78.822,177.621l131.146,202.934     C202.78,395.959,173.818,461.791,173.818,461.791z M453.979,138.8L249.918,339.475l92.12-219.468l109.271,9.96     C455.418,131.098,457.165,135.411,453.979,138.8z" style="fill:#1B242E;"/></g></g></g><g id="Layer_1"/></svg>