<?xml version="1.0" ?><!DOCTYPE svg  PUBLIC '-//W3C//DTD SVG 1.1//EN'  'http://www.w3.org/Graphics/SVG/1.1/DTD/svg11.dtd'><svg height="512px" style="enable-background:new 0 0 512 512;" version="1.1" viewBox="0 0 512 512" width="512px" xml:space="preserve" xmlns="http://www.w3.org/2000/svg" xmlns:xlink="http://www.w3.org/1999/xlink"><g id="_x32_46-palfed"><g><path d="M26.001,194.505c0,0-0.082,30.727,31.549,30.727h24.646L100.6,403.679c0,0,0,36.396,36.725,36.396    h237.353c0,0,36.723-0.328,36.723-36.396l18.406-178.447h24.646c0,0,31.548,0.985,31.548-30.727c0,0,0.083-30.728-31.548-30.728    h-24.729c-5.997-21.03-24.812-61.042-98.095-61.042h-23.005V87.043c0,0-2.219-15.117-17.335-15.117h-70.491    c0,0-17.336,0-17.336,15.117v15.692h-23.086c0,0-86.266,3.45-99,61.042H57.55C57.55,163.777,26.001,162.792,26.001,194.505z" style="fill:#0E1B3C;"/><path d="M258.341,145.046c-2.381-11.995-15.034-16.514-24.235-9.119c-6.162,5.093-7.805,12.98-8.627,23.168    c-47.486,25.387-82.731,69.424-82.731,103.929c0,20.459,12.815,35.328,30.479,35.328c28.837,0,33.685-36.231,11.831-36.231    c-3.861,0-9.037,2.219-9.202,2.219c-0.164-0.492-0.328-1.725-0.493-3.78c0-21.031,30.398-50.033,48.063-62.356    c-0.986,29.906-4.52,162.753-1.15,199.231c2.465,26.537,22.019,27.031,29.905,18.321c4.848-5.422,4.519-12.897,4.354-15.691    v-0.166c-1.479-21.032-2.301-49.786-2.218-82.155c49.952,11.83,115.101-49.543,115.101-113.543    C369.417,145.867,317.66,126.808,258.341,145.046z M267.214,284.056c-10.27,0-11.829-2.792-12.405-5.093    c0.411-32.123,1.397-66.055,2.465-98.425c33.028-11.831,78.378-14.459,78.378,24.482    C335.734,248.893,297.447,284.056,267.214,284.056z" style="fill:#FFFFFF;"/></g></g><g id="Layer_1"/></svg>