<?xml version="1.0" ?><!DOCTYPE svg  PUBLIC '-//W3C//DTD SVG 1.1//EN'  'http://www.w3.org/Graphics/SVG/1.1/DTD/svg11.dtd'><svg height="512px" style="enable-background:new 0 0 512 512;" version="1.1" viewBox="0 0 512 512" width="512px" xml:space="preserve" xmlns="http://www.w3.org/2000/svg" xmlns:xlink="http://www.w3.org/1999/xlink"><g id="_x33_74-weixin"><g><path d="M337.295,182.024c5.352,0,10.536,0.252,15.725,0.919c-13.885-65.57-84.225-114.33-164.18-114.33    c-89.657,0-162.839,60.888-162.839,138.334c0,44.661,24.505,81.545,65.151,110.065l-16.142,49.013l56.874-28.522    c20.406,4.016,36.632,8.113,57.039,8.113c5.186,0,10.121-0.251,15.306-0.669c-3.346-10.79-5.185-22.248-5.185-34.123    C198.96,239.817,260.014,182.024,337.295,182.024z" style="fill:#78AB34;"/><path d="M249.894,137.78c12.128,0,20.241,8.112,20.241,20.407c0,12.127-8.113,20.241-20.241,20.241    c-12.377,0-24.505-8.114-24.505-20.241C225.473,145.893,237.6,137.78,249.894,137.78z" style="fill:#FFFFFF;"/><path d="M135.814,178.428c-12.126,0-24.505-8.114-24.505-20.241c0-12.378,12.379-20.407,24.505-20.407    c12.379,0,20.408,8.112,20.408,20.407C156.223,170.399,148.193,178.428,135.814,178.428z" style="fill:#FFFFFF;"/><path d="M485.999,308.983c0-65.151-65.151-118.178-138.334-118.178    c-77.53,0-138.334,53.026-138.334,118.178c0,65.152,60.888,118.179,138.334,118.179c16.142,0,32.533-4.267,49.011-8.281    l44.661,24.506l-12.377-40.646C461.745,378.151,485.999,345.616,485.999,308.983z" style="fill:#78AB34;"/><path d="M302.753,288.493c-8.113,0-16.142-8.112-16.142-16.393c0-8.113,8.112-16.143,16.142-16.143    c12.379,0,20.408,8.112,20.408,16.143C323.161,280.465,315.048,288.493,302.753,288.493z" style="fill:#FFFFFF;"/><path d="M392.326,288.493c-8.111,0-16.142-8.112-16.142-16.393c0-8.113,8.112-16.143,16.142-16.143    c12.127,0,20.409,8.112,20.409,16.143C412.817,280.465,404.453,288.493,392.326,288.493z" style="fill:#FFFFFF;"/></g></g><g id="Layer_1"/></svg>