<?xml version="1.0" ?><!DOCTYPE svg  PUBLIC '-//W3C//DTD SVG 1.1//EN'  'http://www.w3.org/Graphics/SVG/1.1/DTD/svg11.dtd'><svg height="512px" style="enable-background:new 0 0 512 512;" version="1.1" viewBox="0 0 512 512" width="512px" xml:space="preserve" xmlns="http://www.w3.org/2000/svg" xmlns:xlink="http://www.w3.org/1999/xlink"><g id="_x32_87-safari"><g><path d="M485.999,256c0,127.057-102.942,229.999-229.999,229.999c-127.057,0-230-102.942-230-229.999    c0-127.056,102.943-229.999,230-229.999C383.057,26.001,485.999,128.944,485.999,256z" style="fill:#CFD8DC;"/><path d="M461.33,256c0-113.423-91.906-205.329-205.33-205.329C142.578,50.671,50.669,142.577,50.669,256    S142.578,461.331,256,461.331C369.424,461.331,461.33,369.423,461.33,256z" style="fill:#448AFF;"/><path d="M394.093,345.588c0,3.341,12.057,9.458,15.117,11.315c-25.412,38.487-64.734,66.216-109.343,77.254    l-4.081-17.158c-0.277-2.319-1.763-2.596-3.896-2.596c-1.762,0-2.782,2.596-2.596,3.895l4.08,17.436    c-12.335,2.596-24.854,3.896-37.468,3.896c-33.665,0-66.775-9.46-95.525-26.988c1.577-2.599,11.315-16.694,11.315-18.734    c0-1.763-1.578-3.339-3.338-3.339c-3.617,0-11.314,15.394-13.634,18.454c-38.766-25.688-66.773-65.475-77.531-110.917    l17.714-3.896c2.041-0.556,2.596-2.04,2.596-3.895c0-1.763-2.596-2.782-4.08-2.596l-17.343,3.986    c-2.319-11.777-3.617-23.648-3.617-35.705c0-34.407,9.738-68.258,28.008-97.285c2.597,1.575,14.931,10.016,16.971,10.016    c1.763,0,3.339-1.299,3.339-3.061c0-3.617-13.633-10.48-16.693-12.612c26.153-38.21,65.939-65.754,111.104-75.955l3.895,17.156    c0.557,2.041,2.04,2.598,3.895,2.598c1.855,0,2.782-2.598,2.597-4.081l-3.896-16.972c11.315-2.041,22.814-3.339,34.407-3.339    c34.406,0,67.979,9.737,97.286,28.007c-1.763,2.599-10.018,14.654-10.018,16.693c0,1.764,1.299,3.34,3.063,3.34    c3.617,0,10.479-13.355,12.333-16.415c38.025,25.688,65.197,64.919,75.771,109.621l-14.375,3.06    c-2.318,0.556-2.596,2.041-2.596,4.081c0,1.762,2.596,2.782,3.895,2.598l14.653-3.341c2.318,11.779,3.616,23.836,3.616,35.892    c0,33.665-9.273,66.773-26.709,95.246c-2.597-1.3-13.355-8.995-15.395-8.995C395.668,342.251,394.093,343.827,394.093,345.588    L394.093,345.588z" style="fill:#69A1FF;"/><path d="M363.302,120.97c-12.056,11.313-124.459,114.72-127.612,120.1l-89.588,148.852    c11.778-11.038,124.46-115,127.334-119.917L363.302,120.97z" style="fill:#FF3D00;"/><path d="M238.285,256.742c0-8.439,6.122-16.414,15.118-16.414c8.254,0,16.136,5.935,16.136,14.93    c0,8.439-5.935,16.415-14.93,16.415C246.262,271.673,238.285,265.46,238.285,256.742z" style="fill:#FFFFFF;"/></g></g><g id="Layer_1"/></svg>