<?xml version="1.0" ?><!DOCTYPE svg  PUBLIC '-//W3C//DTD SVG 1.1//EN'  'http://www.w3.org/Graphics/SVG/1.1/DTD/svg11.dtd'><svg height="512px" style="enable-background:new 0 0 512 512;" version="1.1" viewBox="0 0 512 512" width="512px" xml:space="preserve" xmlns="http://www.w3.org/2000/svg" xmlns:xlink="http://www.w3.org/1999/xlink"><g id="_x33_28-Sun_Contract"><g><g><path d="M26.001,423.355c3.973-16.314,7.534-31.562,11.459-47.551c18.336,1.853,27.342-8.683,31.976-23.935     c8.291-26.481,15.795-53.326,24.104-81.577c-20.828,10.512-40.613,2.896-61.038,6.504c3.197-13.434,5.729-25.372,9.275-36.958     c0.366-1.834,5.053-3.294,7.571-3.294c16.855-0.377,33.359,0,50.624,0c6.094-22.839,11.832-45.308,17.985-67.835     c5.364-19.568,13.63-37.713,24.742-54.388c25.116-37.713,74.011-31.916,95.175,1.079c14.351,22.513,21.896,47.166,28.684,72.534     c13.696,52.598,26.205,105.175,39.515,157.772c1.813,7.283,4.688,14.152,7.905,20.719c5.032,9.752,13.289,10.146,17.255-0.378     c6.809-17.444,12.55-35.579,17.218-54.085c12.925-50.02,24.803-100.807,38.084-150.849c5.392-20.295,15.065-38.457,29.056-54.063     c9.701-11.239,21.586-17.743,36.299-18.102c11.113-0.406,21.88,0,34.11,0c-3.973,16.313-7.561,31.525-11.471,47.132     c-19.427-2.546-28.029,9.462-32.721,25.032c-7.897,26.102-15.05,52.586-22.948,80.5c20.851-9.395,40.561-3.263,61.052-5.804     c-3.621,14.127-6.5,26.854-9.706,39.907c-19.391,0-38.063,0-57.847,0c-3.565,14.15-6.794,28.316-10.759,42.448     c-7.557,29.028-15.46,57.642-33.726,81.934c-23.369,30.886-65.37,31.579-89.438,1.134     c-15.094-19.227-22.641-41.727-28.745-64.908c-13.984-54.434-27.275-108.843-41.266-163.237     c-2.869-9.439-6.479-18.859-10.425-27.543c-1.425-3.31-6.129-6.922-9.351-7.282c-2.531-0.348-7.139,4.352-7.881,7.631     c-6.826,20.285-13.306,40.973-18.694,61.664c-12.182,47.463-22.94,95.351-36.577,142.534     c-4.688,17.022-14.396,32.981-23.73,48.235c-9.698,16.328-25.138,24.663-44.183,25.389     C47.552,423.717,37.46,423.355,26.001,423.355L26.001,423.355z"/></g></g></g><g id="Layer_1"/></svg>