<?xml version="1.0" ?><!DOCTYPE svg  PUBLIC '-//W3C//DTD SVG 1.1//EN'  'http://www.w3.org/Graphics/SVG/1.1/DTD/svg11.dtd'><svg height="512px" style="enable-background:new 0 0 512 512;" version="1.1" viewBox="0 0 512 512" width="512px" xml:space="preserve" xmlns="http://www.w3.org/2000/svg" xmlns:xlink="http://www.w3.org/1999/xlink"><g id="_x33_33-teamspeak"><g><g><path d="M245.482,337.588c2.157-11.052-10.781-26.954-29.11-43.757     c-18.779-17.25-43.307-35.131-56.964-41.869c-19.497-10.782-37.467-1.617-41.6,20.396c-4.492,23.543,0,46.183,13.028,66.398     c9.164,13.926,22.821,20.395,38.995,21.563c10.422,0.539,47.17,1.977,55.436-0.899     C235.958,355.557,243.326,348.818,245.482,337.588z M429.672,356.277c-2.695-2.158-6.47-0.9-7.457,2.155     c-7.189,22.822-40.164,101.078-154.63,109.165c-134.502,9.434,72.149,39.175,130.639-5.751     c20.396-15.632,42.77-31.446,41.871-76.729C439.734,376.042,435.691,361.127,429.672,356.277z M485.378,246.302     c-0.27-16.983-7.727-30.01-23.361-37.916c-2.605-1.168-4.492-2.427-5.301-5.75c-5.57-30.729-17.699-58.94-36.299-84.099     c-0.986-1.348-3.144-2.875-1.977-4.493c7.637-10.333-0.27-16.172-6.289-21.923c-64.872-62.714-140.614-80.774-226.688-54.358     c-36.029,11.052-66.398,31.987-91.645,60.558c-3.594,3.863-6.021,8.176-2.696,13.028c2.696,3.593,1.168,5.571-0.898,8.355     c-17.791,24.888-29.83,52.382-35.31,82.392c-0.629,3.863-2.606,5.392-5.751,7.008c-12.757,6.289-20.215,16.621-22.372,30.548     l-0.719,23.809v18.782c0,27.671,18.87,45.281,46.542,44.024c6.918-0.271,10.512-3.863,10.782-10.334     c1.797-69.631-2.156-85.716,3.324-113.028C108.823,91.043,236.588,30.486,336.319,84.753     c59.389,32.885,90.207,84.098,91.915,152.204c0.719,25.338,0,50.764,0,76.013c0,6.29,1.978,11.231,8.445,12.759     c21.653,4.49,44.206-10.783,47.8-32.974C487.086,277.389,485.378,261.755,485.378,246.302L485.378,246.302z M341.98,364.452     c32.794,2.515,53.279-25.606,52.471-54.358c-1.887-40.61-59.479-14.825-78.888-7.188c-65.768,25.248-40.433,49.326-19.945,54.627     L341.98,364.452z" style="fill:#2880C3;"/></g></g></g><g id="Layer_1"/></svg>