<?xml version="1.0" ?><!DOCTYPE svg  PUBLIC '-//W3C//DTD SVG 1.1//EN'  'http://www.w3.org/Graphics/SVG/1.1/DTD/svg11.dtd'><svg height="512px" style="enable-background:new 0 0 512 512;" version="1.1" viewBox="0 0 512 512" width="512px" xml:space="preserve" xmlns="http://www.w3.org/2000/svg" xmlns:xlink="http://www.w3.org/1999/xlink"><g id="_x33_55-utorrent"><g><g><g id="_x31_4-utorrent_9_"><g><g><path d="M463.945,325.248c-14.921,0.142-26.764-1.042-35.249-3.462        c-25.643-7.354-33.576-17.871-33.576-17.871c-1.812-2.71-4.976-4.183-8.225-3.727c-3.223,0.44-5.922,2.657-6.958,5.748        c-0.113,0.341-12.186,35.369-42.576,50.586c-31.542,15.823-88.72,11.966-89.295,11.934c-3.108-0.286-5.863,1.157-7.563,3.606        c-1.726,2.454-2.039,5.621-0.838,8.361l43.877,99.678c1.381,3.147,4.453,5.108,7.788,5.108c0.433,0,0.888-0.029,1.356-0.118        c81.99-13.198,150.703-70.052,179.344-148.374c0.969-2.619,0.572-5.563-1.037-7.864        C469.381,326.602,466.562,325.069,463.945,325.248L463.945,325.248z" style="fill:#00863E;"/><path d="M256.003,26.79c-126.818,0-230.002,103.465-230.002,230.624        c0,100.814,67.132,191.589,163.27,220.761c0.805,0.258,1.635,0.379,2.477,0.379c2.355,0,4.628-0.979,6.262-2.774        c2.216-2.417,2.849-5.874,1.642-8.935C109,237.666,92.586,184.337,89.997,172.056c12.222-6.456,53.158-15.396,64.025-13.609        c3.194,4.587,9.806,20.79,15.672,35.197c22.279,54.663,55.948,137.284,102.725,140.625        c33.2,2.393,63.075-10.234,80.182-33.696c10.382-14.272,13.914-30.387,9.255-42.066        c-7.101-17.757-39.788-92.561-51.407-119.114l51.235-12.855c11.186,26.668,51.752,121.83,70.901,144.891        c8.361,10.032,22.741,16.198,42.72,18.276c4.74,0.402,8.854-2.911,9.344-7.584c0.919-8.13,1.351-16.463,1.351-24.703        C485.999,130.255,382.816,26.79,256.003,26.79L256.003,26.79z" style="fill:#00863E;"/></g></g></g></g></g></g><g id="Layer_1"/></svg>