<?xml version="1.0" ?><!DOCTYPE svg  PUBLIC '-//W3C//DTD SVG 1.1//EN'  'http://www.w3.org/Graphics/SVG/1.1/DTD/svg11.dtd'><svg enable-background="new 0 0 32 32" height="32px" version="1.1" viewBox="0 0 32 32" width="32px" xml:space="preserve" xmlns="http://www.w3.org/2000/svg" xmlns:xlink="http://www.w3.org/1999/xlink"><g id="weibo"><g><path d="M3.632,21.41c0,3.377,4.396,6.116,9.821,6.116s9.821-2.739,9.821-6.116c0-3.376-4.396-6.115-9.821-6.115    C8.029,15.294,3.632,18.033,3.632,21.41L3.632,21.41z" fill="#FFFFFF"/><path d="M13.453,28.025c-5.691,0-10.321-2.968-10.321-6.616c0-3.647,4.63-6.615,10.321-6.615    s10.321,2.968,10.321,6.615C23.774,25.058,19.145,28.025,13.453,28.025z M13.453,15.794c-5.14,0-9.321,2.519-9.321,5.615    c0,3.097,4.182,5.616,9.321,5.616s9.321-2.519,9.321-5.616C22.774,18.313,18.593,15.794,13.453,15.794z" fill="#455A64"/></g><path d="M13.682,27.027c-4.801,0.473-8.944-1.696-9.256-4.848s3.328-6.091,8.129-6.565   c4.801-0.475,8.944,1.695,9.256,4.846C22.123,23.612,18.483,26.552,13.682,27.027L13.682,27.027z M23.285,16.564   c-0.408-0.122-0.688-0.206-0.475-0.742c0.463-1.165,0.511-2.17,0.009-2.887c-0.941-1.345-3.518-1.272-6.47-0.036   c0-0.002-0.927,0.405-0.69-0.33c0.455-1.46,0.386-2.683-0.321-3.389c-1.602-1.603-5.86,0.061-9.515,3.712   C3.089,15.628,1.5,18.527,1.5,21.035c0,4.795,6.149,7.711,12.166,7.711c7.887,0,13.134-4.583,13.134-8.22   C26.8,18.327,24.948,17.08,23.285,16.564L23.285,16.564z" fill="#FFFFFF"/><path d="M6.823,13.892C4.089,16.628,2.5,19.527,2.5,22.035c0,1.385,0.525,2.608,1.4,3.654   c2.341,1.956,6.075,3.057,9.766,3.057c7.887,0,13.134-4.583,13.134-8.22c0-2.198-1.852-3.446-3.515-3.961   c-0.408-0.122-0.688-0.206-0.475-0.742c0.397-1,0.464-1.869,0.165-2.553c-1.246-0.581-3.314-0.338-5.626,0.63   c-1.015,0.371-1.257-0.153-1.242-0.922c-0.257,0.064-0.604,0.077-0.448-0.408c0.343-1.102,0.387-2.068,0.085-2.779   C13.844,8.956,10.094,10.624,6.823,13.892z M21.811,20.459c0.313,3.153-3.327,6.093-8.129,6.568   c-4.801,0.473-8.944-1.696-9.256-4.848s3.328-6.091,8.129-6.565C17.355,15.139,21.499,17.309,21.811,20.459z" fill="#FF8A80"/><path d="M13.666,29.246C7.44,29.246,1,26.174,1,21.035c0-2.595,1.587-5.612,4.47-8.496   c0.932-0.931,1.916-1.752,2.929-2.442c0.227-0.153,0.539-0.098,0.694,0.131c0.155,0.229,0.097,0.54-0.132,0.695   c-0.96,0.655-1.897,1.436-2.784,2.323C3.483,15.94,2,18.707,2,21.035c0,4.514,5.932,7.211,11.666,7.211   c7.827,0,12.634-4.497,12.634-7.72c0-2.32-2.414-3.251-3.16-3.483c-0.307-0.092-0.653-0.196-0.822-0.545   c-0.172-0.356-0.021-0.736,0.028-0.86c0.422-1.061,0.443-1.874,0.064-2.416c-0.753-1.072-3.109-1.017-5.867,0.139   c-0.007,0.003-0.013,0.005-0.02,0.008c-0.524,0.208-0.922,0.189-1.182-0.055c-0.128-0.12-0.319-0.396-0.158-0.896   c0.41-1.318,0.341-2.344-0.199-2.883c-0.506-0.506-1.452-0.601-2.67-0.265C12.053,9.342,11.772,9.186,11.7,8.92   c-0.074-0.266,0.082-0.542,0.349-0.615c1.6-0.443,2.859-0.263,3.643,0.521c0.777,0.776,0.96,2.011,0.535,3.583   c3.271-1.354,5.951-1.264,7.002,0.239c0.585,0.835,0.601,1.965,0.047,3.358c-0.004,0.01-0.008,0.019-0.011,0.028   c0.052,0.017,0.112,0.035,0.163,0.051l0,0c0.002,0,0.004,0.001,0.006,0.001c2.421,0.75,3.866,2.41,3.866,4.439   C27.3,24.642,21.469,29.246,13.666,29.246z M12.391,27.591c-4.48,0-8.154-2.249-8.463-5.363c-0.338-3.421,3.51-6.611,8.578-7.112   c2.413-0.239,4.759,0.158,6.592,1.118c1.902,0.996,3.043,2.479,3.211,4.176c0.168,1.698-0.659,3.376-2.33,4.727   c-1.61,1.301-3.829,2.149-6.248,2.388l0,0C13.278,27.569,12.83,27.591,12.391,27.591z M13.877,16.048   c-0.419,0-0.845,0.021-1.273,0.063c-4.519,0.447-7.964,3.146-7.68,6.019s4.199,4.84,8.709,4.4c2.227-0.22,4.257-0.991,5.717-2.171   c1.4-1.131,2.098-2.498,1.963-3.85c-0.133-1.351-1.084-2.554-2.679-3.389C17.292,16.417,15.637,16.048,13.877,16.048z" fill="#455A64"/><path d="M28.522,7.788c-1.904-2.112-4.715-2.917-7.308-2.366l0,0c-0.601,0.128-0.982,0.718-0.854,1.318   c0.128,0.6,0.718,0.982,1.317,0.854c1.845-0.392,3.841,0.182,5.196,1.681c1.308,1.448,1.741,3.484,1.141,5.34l0,0   c-0.188,0.583,0.13,1.208,0.713,1.397c0,0,0.001,0,0.003,0.001c0.583,0.188,1.208-0.131,1.397-0.713v-0.005   C30.94,12.773,30.428,9.897,28.522,7.788L28.522,7.788z" fill="#FFB74D"/><path d="M25.598,10.427c-0.928-1.028-2.296-1.419-3.56-1.15c-0.52,0.095-0.863,0.593-0.769,1.112   s0.594,0.863,1.112,0.768c0.018-0.003,0.037-0.007,0.055-0.011v0c0.639-0.137,1.302,0.078,1.74,0.562   c0.438,0.485,0.584,1.168,0.381,1.79h0.001c-0.162,0.502,0.113,1.041,0.615,1.204c0.503,0.162,1.041-0.114,1.203-0.616   C26.774,12.856,26.526,11.456,25.598,10.427L25.598,10.427z" fill="#FFB74D"/><path d="M30.128,15.798c-0.276,0-0.5-0.221-0.5-0.498v-0.005c0-0.052,0.008-0.104,0.024-0.153   c0.784-2.436,0.209-5.125-1.501-7.019c-0.185-0.205-0.169-0.521,0.036-0.706c0.204-0.186,0.52-0.17,0.706,0.036   c1.945,2.153,2.603,5.211,1.715,7.982C30.548,15.644,30.355,15.798,30.128,15.798z" fill="#455A64"/><path d="M28.522,8.288c-0.137,0-0.272-0.056-0.371-0.165c-1.71-1.896-4.328-2.745-6.833-2.211   c-0.258,0.057-0.535-0.114-0.593-0.385c-0.058-0.27,0.115-0.536,0.386-0.593c2.849-0.606,5.834,0.359,7.782,2.52   c0.186,0.205,0.169,0.521-0.036,0.706C28.762,8.246,28.642,8.288,28.522,8.288z" fill="#455A64"/><path d="M26.377,14.585c-0.051,0-0.103-0.008-0.154-0.024c-0.263-0.085-0.406-0.367-0.321-0.629   c0.355-1.1,0.097-2.314-0.675-3.169c-0.185-0.205-0.169-0.521,0.036-0.706c0.205-0.186,0.521-0.169,0.706,0.036   c1.011,1.119,1.35,2.708,0.884,4.146C26.784,14.45,26.588,14.585,26.377,14.585z" fill="#455A64"/><path d="M25.598,10.927c-0.137,0-0.272-0.056-0.371-0.165c-0.772-0.855-1.955-1.237-3.084-0.996   c-0.263,0.057-0.536-0.114-0.594-0.385c-0.058-0.27,0.115-0.536,0.385-0.593c1.481-0.313,3.026,0.186,4.035,1.304   c0.186,0.205,0.169,0.521-0.036,0.706C25.837,10.885,25.717,10.927,25.598,10.927z" fill="#455A64"/><path d="M13.947,21.318c-0.168,0.288-0.539,0.426-0.83,0.306c-0.286-0.118-0.375-0.438-0.213-0.721   c0.167-0.281,0.524-0.417,0.81-0.304C14.003,20.705,14.107,21.029,13.947,21.318L13.947,21.318z M12.418,23.282   c-0.465,0.741-1.459,1.065-2.208,0.723c-0.738-0.335-0.956-1.197-0.491-1.919c0.458-0.719,1.42-1.04,2.163-0.729   C12.633,21.679,12.874,22.534,12.418,23.282L12.418,23.282z M14.162,18.039c-2.284-0.594-4.867,0.544-5.859,2.558   c-1.01,2.053-0.033,4.332,2.274,5.077c2.392,0.771,5.209-0.41,6.189-2.627C17.732,20.88,16.526,18.65,14.162,18.039L14.162,18.039z   " fill="#455A64"/><g><g><g><g><g><g><path d="M11,9.5c0,0.275-0.225,0.5-0.5,0.5l0,0C10.225,10,10,9.775,10,9.5l0,0C10,9.225,10.225,9,10.5,9l0,0         C10.775,9,11,9.225,11,9.5L11,9.5z" fill="#455A64"/></g></g></g></g></g></g></g></svg>