<?xml version="1.0" ?><!DOCTYPE svg  PUBLIC '-//W3C//DTD SVG 1.1//EN'  'http://www.w3.org/Graphics/SVG/1.1/DTD/svg11.dtd'><svg enable-background="new 0 0 32 32" height="32px" version="1.1" viewBox="0 0 32 32" width="32px" xml:space="preserve" xmlns="http://www.w3.org/2000/svg" xmlns:xlink="http://www.w3.org/1999/xlink"><g><path d="M27.805,8.807c-0.408-2.506-1.379-3.692-3.876-4.233c-1.72-0.373-3.465-0.632-5.201-0.929   c-0.306-0.052-0.491-0.162-0.613-0.473c-0.289-0.736-0.807-1.286-1.598-1.454c-0.622-0.132-1.269-0.232-1.9-0.216   c-1.355,0.035-2.397,0.561-3.166,1.22C9.303,4.906,7.139,7.108,4.992,9.292c-0.617,0.629-1.398,2.018-1.189,3.296   c0.208,1.276,0.438,2.549,0.693,3.817c0.532,2.631,2.01,4.493,4.526,5.502c1.286,0.516,2.619,0.675,3.994,0.635   c0.762-0.022,1.356-0.304,1.804-0.917c0.645-0.884,1.024-1.889,1.335-2.926c0.057-0.188,0.12-0.373,0.181-0.559   c0.04-0.001,0.081-0.003,0.122-0.005c0.134,0.829,0.527,1.502,1.19,2.003c0.698,0.528,1.488,0.853,2.354,0.983   c0.854,0.129,1.685,0.3,2.407,0.83c1.721,1.264,2.091,3.503,0.806,5c-0.979,1.14-2.731,1.35-3.789,0.452   c-0.424-0.359-0.658-0.814-0.518-1.369c0.137-0.539,0.526-0.829,1.085-0.887c0.076-0.008,0.15-0.04,0.226-0.062   c0.599-0.178,0.891-0.605,0.811-1.19c-0.065-0.483-0.514-0.842-1.092-0.815c-1.395,0.065-2.457,0.716-3.094,1.954   c-0.608,1.185-0.585,2.403,0.185,3.51c0.949,1.366,2.375,1.908,3.971,1.951c2.979,0.079,5.55-1.799,6.603-4.714   c0.613-1.699,0.771-3.475,0.829-5.25C28.563,16.61,28.439,12.697,27.805,8.807z" fill="#FFFFFF"/><path d="M10.264,22.286c0.897,0.208,1.814,0.285,2.753,0.258c0.762-0.022,1.356-0.304,1.804-0.917   c0.645-0.884,1.024-1.889,1.335-2.926c0.057-0.188,0.12-0.373,0.181-0.559c0.04-0.001,0.081-0.003,0.122-0.005   c0.134,0.829,0.527,1.502,1.19,2.003c0.698,0.528,1.488,0.853,2.354,0.983c0.854,0.129,1.685,0.3,2.407,0.83   c1.721,1.264,2.091,3.503,0.806,5c-0.979,1.14-2.731,1.35-3.789,0.452c-0.424-0.359-0.658-0.814-0.518-1.369   c0.137-0.539,0.526-0.829,1.085-0.887c0.076-0.008,0.15-0.04,0.226-0.062c0.599-0.178,0.891-0.605,0.811-1.19   c-0.065-0.483-0.514-0.842-1.092-0.815c-1.395,0.065-2.457,0.716-3.094,1.954c-0.608,1.185-0.585,2.403,0.185,3.51   c0.949,1.366,2.375,1.908,3.971,1.951c2.979,0.079,5.55-1.799,6.603-4.714c0.613-1.699,0.771-3.475,0.829-5.25   c0.132-3.924,0.009-7.837-0.626-11.728c-0.312-1.91-0.955-3.05-2.346-3.725c-0.011-0.002-0.02-0.006-0.03-0.008   c-1.72-0.373-3.465-0.632-5.201-0.929c-0.254-0.043-0.423-0.134-0.544-0.34c-0.318-0.053-0.638-0.105-0.956-0.16   c-0.306-0.052-0.491-0.162-0.613-0.473c-0.176-0.446-0.446-0.81-0.799-1.075c-0.399-0.061-0.801-0.105-1.199-0.095   c-1.355,0.035-2.397,0.561-3.166,1.22c-2.147,2.185-4.312,4.386-6.458,6.571c-0.617,0.629-1.398,2.018-1.189,3.296   c0.208,1.276,0.438,2.549,0.693,3.817C6.509,19.441,7.911,21.253,10.264,22.286z M21.896,14.52c0.279-0.514,0.96-0.858,1.596-0.779   c0.719,0.089,1.344,0.348,1.607,1.096c0.207,0.587,0.026,0.74-1.138,0.729c-0.373-0.06-1.068-0.148-1.754-0.29   C21.743,15.178,21.668,14.942,21.896,14.52z" fill="#65F0CD"/><path d="M28.298,8.726c-0.451-2.772-1.646-4.074-4.263-4.642c-1.309-0.284-2.647-0.505-3.941-0.719l-1.282-0.214   c-0.18-0.031-0.19-0.056-0.231-0.163c-0.377-0.959-1.055-1.568-1.96-1.761c-0.504-0.107-1.267-0.244-2.017-0.227   c-1.311,0.034-2.48,0.485-3.51,1.37L4.636,8.942C4.442,9.139,4.444,9.456,4.642,9.649C4.84,9.842,5.155,9.84,5.349,9.643   l6.427-6.542c0.819-0.702,1.779-1.072,2.854-1.1c0.648-0.02,1.33,0.109,1.783,0.206c0.569,0.121,0.985,0.507,1.236,1.147   c0.229,0.583,0.652,0.724,0.995,0.783l1.287,0.215c1.282,0.212,2.608,0.431,3.892,0.709c2.222,0.481,3.102,1.447,3.489,3.825   c0.563,3.456,0.767,7.26,0.619,11.63c-0.054,1.647-0.188,3.404-0.8,5.096c-0.988,2.735-3.415,4.44-6.118,4.384   c-1.601-0.042-2.803-0.626-3.574-1.736c-0.645-0.927-0.695-1.935-0.15-2.996c0.545-1.059,1.444-1.625,2.673-1.683   c0.293-0.01,0.54,0.146,0.573,0.383c0.031,0.227,0.007,0.505-0.456,0.643c-0.006,0.002-0.131,0.043-0.137,0.044   c-0.781,0.081-1.335,0.541-1.518,1.261c-0.175,0.688,0.066,1.354,0.679,1.873c1.271,1.08,3.328,0.848,4.491-0.507   c0.675-0.785,0.981-1.785,0.863-2.814c-0.129-1.129-0.768-2.191-1.752-2.915c-0.831-0.609-1.754-0.789-2.629-0.921   c-0.789-0.119-1.505-0.417-2.126-0.888c-0.557-0.42-0.884-0.972-0.999-1.684c-0.04-0.25-0.375-0.437-0.634-0.415   c-0.209,0.007-0.392,0.145-0.457,0.345l-0.054,0.164c-0.045,0.135-0.089,0.269-0.13,0.406c-0.264,0.878-0.618,1.894-1.261,2.774   c-0.345,0.474-0.781,0.693-1.414,0.711c-1.443,0.045-2.683-0.154-3.793-0.599c-2.331-0.935-3.713-2.616-4.223-5.138   c-0.244-1.209-0.477-2.487-0.69-3.798c-0.044-0.271-0.036-0.564,0.023-0.874c0.052-0.271-0.126-0.533-0.397-0.585   c-0.269-0.05-0.533,0.125-0.585,0.397c-0.081,0.425-0.091,0.837-0.027,1.224c0.216,1.324,0.45,2.614,0.696,3.835   c0.574,2.838,2.199,4.812,4.83,5.867c1.241,0.497,2.614,0.713,4.195,0.671c0.932-0.028,1.67-0.405,2.193-1.122   c0.566-0.777,0.929-1.622,1.197-2.408c0.231,0.393,0.54,0.736,0.925,1.027c0.756,0.572,1.624,0.935,2.581,1.079   c0.751,0.113,1.538,0.264,2.186,0.738c0.761,0.559,1.253,1.369,1.351,2.222c0.086,0.75-0.138,1.477-0.628,2.049   c-0.8,0.928-2.241,1.115-3.087,0.396c-0.425-0.36-0.406-0.666-0.356-0.864c0.055-0.213,0.177-0.463,0.654-0.513   c0.107-0.012,0.197-0.042,0.314-0.08c0.83-0.247,1.276-0.913,1.163-1.737c-0.102-0.75-0.809-1.293-1.61-1.248   c-1.59,0.075-2.805,0.844-3.515,2.225c-0.707,1.376-0.629,2.805,0.219,4.023c0.962,1.385,2.432,2.114,4.367,2.166   C21.051,30.999,21.115,31,21.18,31c3.087,0,5.778-1.963,6.893-5.046c0.659-1.828,0.804-3.757,0.858-5.403   C29.079,16.115,28.873,12.247,28.298,8.726z" fill="#455A64"/><path d="M10.5,10H4.81c-0.194,0-0.37-0.112-0.453-0.288C4.274,9.536,4.302,9.329,4.426,9.18   c0.07-0.084,0.142-0.168,0.21-0.238l6.458-6.571c0.022-0.022,0.072-0.063,0.099-0.081c0.221-0.152,0.531-0.112,0.693,0.099   c0.162,0.212,0.141,0.505-0.063,0.677c-0.013,0.01-0.049,0.038-0.063,0.047L5.98,9h4.52C10.775,9,11,8.776,11,8.5V5.552   c0-0.276,0.224-0.5,0.5-0.5s0.5,0.224,0.5,0.5V8.5C12,9.327,11.327,10,10.5,10z" fill="#455A64"/></g></svg>