<?xml version="1.0" ?><!DOCTYPE svg  PUBLIC '-//W3C//DTD SVG 1.1//EN'  'http://www.w3.org/Graphics/SVG/1.1/DTD/svg11.dtd'><svg enable-background="new 0 0 32 32" height="32px" version="1.1" viewBox="0 0 32 32" width="32px" xml:space="preserve" xmlns="http://www.w3.org/2000/svg" xmlns:xlink="http://www.w3.org/1999/xlink"><g id="rss"><path d="M20.837,30.503h-5.52c0-7.617-6.196-13.813-13.813-13.813v-5.52C12.166,11.17,20.837,19.841,20.837,30.503z   " fill="#FFFFFF"/><path d="M15.317,30.503h5.52c0-4.941-1.878-9.441-4.938-12.862c-3.422-3.084-7.936-4.975-12.896-4.975v4.074   c0.845,0.061,1.635,0.243,2.379,0.513C11.116,18.936,15.317,24.233,15.317,30.503z" fill="#FFB74D"/><path d="M30.504,30.503h-5.52c0-12.944-10.537-23.48-23.48-23.48v-5.52C17.492,1.503,30.504,14.515,30.504,30.503z" fill="#FFFFFF"/><path d="M3,3v4.076c12.249,0.775,21.984,10.987,21.984,23.428h5.52c0-7.612-2.954-14.545-7.77-19.725   C17.554,5.958,10.617,3,3,3z" fill="#FFB74D"/><path d="M1.504,26.356c0-2.281,1.856-4.137,4.146-4.137c2.282,0,4.138,1.856,4.138,4.137   c0,2.291-1.855,4.147-4.138,4.147C3.36,30.503,1.504,28.647,1.504,26.356z" fill="#FFFFFF"/><path d="M9.788,26.356c0-0.182-0.031-0.356-0.054-0.532c-0.712-1.252-2.043-2.108-3.584-2.108   c-2.29,0-4.146,1.856-4.146,4.137c0,0.185,0.031,0.361,0.055,0.539c0.713,1.255,2.045,2.111,3.592,2.111   C7.933,30.503,9.788,28.647,9.788,26.356z" fill="#FFB74D"/><path d="M20.837,31.003h-5.52c-0.276,0-0.5-0.224-0.5-0.5c0-7.341-5.973-13.313-13.313-13.313   c-0.276,0-0.5-0.224-0.5-0.5V13.5c0-0.276,0.224-0.5,0.5-0.5s0.5,0.224,0.5,0.5v2.699c7.496,0.258,13.547,6.308,13.805,13.805   h4.521C20.064,19.849,11.721,11.67,1.504,11.67c-0.276,0-0.5-0.224-0.5-0.5s0.224-0.5,0.5-0.5c10.936,0,19.833,8.897,19.833,19.833   C21.337,30.78,21.113,31.003,20.837,31.003z" fill="#455A64"/><path d="M30.504,31.003h-5.52c-0.276,0-0.5-0.224-0.5-0.5c0-12.671-10.309-22.98-22.98-22.98   c-0.276,0-0.5-0.224-0.5-0.5V3.5c0-0.276,0.224-0.5,0.5-0.5s0.5,0.224,0.5,0.5v3.029c12.827,0.264,23.212,10.648,23.476,23.475H30   c-0.268-15.485-12.948-28-28.496-28c-0.276,0-0.5-0.224-0.5-0.5s0.224-0.5,0.5-0.5c16.267,0,29.5,13.233,29.5,29.5   C31.004,30.78,30.78,31.003,30.504,31.003z" fill="#455A64"/><path d="M5.65,31.003c-2.563,0-4.646-2.084-4.646-4.647c0-1.167,0.437-2.282,1.229-3.141   C2.421,23.013,2.737,23,2.939,23.188c0.203,0.187,0.216,0.503,0.028,0.707c-0.621,0.673-0.964,1.548-0.964,2.462   c0,2.011,1.636,3.647,3.646,3.647c2.006,0,3.638-1.636,3.638-3.647c0-2.005-1.632-3.637-3.638-3.637   c-0.261,0-0.521,0.028-0.773,0.082c-0.263,0.061-0.536-0.113-0.595-0.383c-0.058-0.27,0.114-0.536,0.384-0.594   c0.322-0.069,0.653-0.104,0.984-0.104c2.558,0,4.638,2.08,4.638,4.637C10.288,28.919,8.208,31.003,5.65,31.003z" fill="#455A64"/></g></svg>