<?xml version="1.0" ?><!DOCTYPE svg  PUBLIC '-//W3C//DTD SVG 1.1//EN'  'http://www.w3.org/Graphics/SVG/1.1/DTD/svg11.dtd'><svg enable-background="new 0 0 32 32" height="32px" version="1.1" viewBox="0 0 32 32" width="32px" xml:space="preserve" xmlns="http://www.w3.org/2000/svg" xmlns:xlink="http://www.w3.org/1999/xlink"><g id="Vine"><path d="M15.395,30.476c-1.149-0.182-2.117-1.028-3.448-2.359c-3.992-3.75-8.105-13.792-8.65-22.261   c1.633,0,3.266,0,4.839,0c1.27,8.893,3.267,14.941,7.561,19.841c2.117-1.996,3.872-4.779,5.082-7.017   c-2.359-1.089-3.69-3.146-4.416-5.021C14.125,7.852,16.061,1.682,22.412,1.5c4.658,0,6.231,3.508,6.291,6.835   c-0.061,1.997-0.363,3.388-0.968,5.082c-1.331,0.302-2.722-0.061-3.569-0.666c-0.666-0.484-0.907-0.242-0.484-1.573   c0.484-1.694,0.665-5.384-1.633-5.444c-1.573,0.121-1.996,2.057-1.996,3.388c0.423,5.444,3.932,7.864,8.59,6.654v3.509   c-1.512,0.363-1.573,0.363-3.448,0.423c-1.089,2.541-7.017,11.312-9.86,10.768H15.395L15.395,30.476z" fill="#FFFFFF"/><path d="M28.643,19.285v-2.814c-0.669-0.01-1.211-0.17-1.648-0.415c-3.819,0.293-6.57-2.154-6.941-6.934   c0-1.331,0.423-3.267,1.996-3.388c2.299,0.061,2.117,3.75,1.633,5.444c-0.423,1.331-0.182,1.089,0.484,1.573   c0.352,0.251,0.8,0.457,1.296,0.594c0.039-0.116,0.107-0.164,0.204-0.094c0.103,0.074,0.215,0.144,0.333,0.209   c0.557,0.088,1.151,0.089,1.736-0.043c0.605-1.694,0.907-3.085,0.968-5.082c-0.044-2.466-0.924-5.029-3.271-6.191   C24.965,2.052,24.462,2,23.912,2c-6.352,0.182-8.287,6.352-6.049,12.159c0.572,1.478,1.52,3.069,3.051,4.209   c0.109,0.082-0.551-0.104-1.597-0.583c0.438,0.338,0.92,0.645,1.462,0.895c-1.21,2.238-2.964,5.021-5.082,7.017   c-4.212-4.806-6.212-10.725-7.486-19.341c-1.127,0-2.267,0-3.415,0c0.544,8.469,4.658,18.511,8.65,22.261   c0.816,0.815,1.495,1.447,2.164,1.857c2.931-0.007,8.529-8.303,9.584-10.766C27.07,19.647,27.131,19.647,28.643,19.285z" fill="#1AD2A4"/><path d="M15.581,30.998c-0.116,0-0.229-0.01-0.34-0.031c-0.034-0.007-0.067-0.017-0.098-0.03   c-1.267-0.268-2.319-1.237-3.549-2.467C7.362,24.496,3.329,14.149,2.798,5.888C2.789,5.75,2.837,5.614,2.932,5.514   c0.095-0.101,0.227-0.158,0.365-0.158h4.839c0.249,0,0.46,0.183,0.495,0.429c1.304,9.135,3.374,14.748,7.099,19.182   c1.234-1.243,2.464-2.876,3.662-4.864c0.142-0.237,0.449-0.313,0.687-0.17c0.236,0.143,0.313,0.45,0.17,0.687   c-1.366,2.267-2.782,4.098-4.208,5.441c-0.098,0.093-0.221,0.147-0.367,0.136c-0.136-0.006-0.263-0.068-0.352-0.17   c-4.02-4.587-6.239-10.306-7.618-19.671H3.834c0.649,7.953,4.458,17.642,8.455,21.397c1.364,1.363,2.227,2.078,3.184,2.229   c0.026,0.004,0.052,0.01,0.077,0.018c2.469,0.186,8.05-7.84,9.185-10.489c0.076-0.179,0.25-0.297,0.443-0.303   c1.681-0.055,1.871-0.061,2.964-0.318v-2.487c-2.157,0.427-4.071,0.093-5.568-0.975c-1.754-1.251-2.799-3.418-3.021-6.268   c-0.001-1.826,0.644-3.785,2.456-3.925c0.763,0.018,1.358,0.326,1.772,0.891c0.984,1.34,0.766,3.837,0.38,5.189   c-0.148,0.465-0.188,0.662-0.192,0.744c0.013-0.015,0.064,0.017,0.108,0.042c0.108,0.063,0.235,0.139,0.381,0.245   c0.471,0.336,1.13,0.574,1.805,0.651c0.372,0.041,0.739,0.036,1.093-0.019c0.56-1.631,0.792-2.922,0.844-4.66   C28.169,6.437,27.536,2,22.412,2c-2.308,0.066-4.126,0.989-5.244,2.669c-1.48,2.225-1.607,5.518-0.338,8.81   c0.629,1.625,2.225,4.491,5.841,5.428c0.267,0.069,0.428,0.342,0.358,0.609c-0.069,0.267-0.345,0.43-0.609,0.358   c-4.199-1.087-5.96-4.583-6.523-6.036c-1.385-3.595-1.221-7.23,0.439-9.725C17.641,2.153,19.737,1.076,22.398,1   c4.184,0,6.722,2.739,6.805,7.327c-0.059,1.946-0.338,3.414-0.997,5.258c-0.057,0.161-0.193,0.282-0.36,0.32   c-0.543,0.123-1.114,0.154-1.693,0.087c-0.852-0.097-1.66-0.393-2.277-0.833c-0.118-0.085-0.218-0.144-0.302-0.193   c-0.758-0.445-0.703-0.885-0.368-1.938c0.329-1.152,0.488-3.332-0.229-4.309c-0.234-0.319-0.534-0.473-0.941-0.484   c-1.44,0.113-1.483,2.604-1.483,2.888c0.196,2.506,1.097,4.418,2.603,5.492c1.392,0.993,3.245,1.227,5.362,0.678   c0.149-0.041,0.309-0.006,0.431,0.088s0.194,0.241,0.194,0.396v3.509c0,0.231-0.159,0.432-0.383,0.486   c-1.473,0.353-1.648,0.375-3.242,0.427C24.333,22.599,18.899,30.998,15.581,30.998z" fill="#455A64"/></g></svg>