<?xml version="1.0" ?><!DOCTYPE svg  PUBLIC '-//W3C//DTD SVG 1.1//EN'  'http://www.w3.org/Graphics/SVG/1.1/DTD/svg11.dtd'><svg enable-background="new 0 0 32 32" height="32px" version="1.1" viewBox="0 0 32 32" width="32px" xml:space="preserve" xmlns="http://www.w3.org/2000/svg" xmlns:xlink="http://www.w3.org/1999/xlink"><g id="Tumblr"><path d="M22.548,24.664c-0.528,0.257-1.551,0.481-2.303,0.5c-2.272,0.062-2.745-1.631-2.745-2.858   V13.5h6v-5h-6v-7h-4.211c-0.068,0-0.188,0.061-0.204,0.217C12.842,3.978,11.844,7.938,7.5,9.232V13.5h3v9.253   c0,3.244,2.328,7.854,8.512,7.745c2.086-0.037,4.396-0.929,4.907-1.699L22.548,24.664L22.548,24.664z" fill="#FFFFFF" id="Tumblr_4_"/><path d="M12,13.5v10.253c0,1.879,0.789,4.212,2.649,5.825c1.169,0.592,2.604,0.95,4.362,0.919   c2.086-0.037,4.396-0.929,4.907-1.699l-1.371-4.135c-0.528,0.257-1.551,0.481-2.303,0.5c-2.272,0.062-2.745-1.631-2.745-2.858V13.5   h6v-5h-6v-6h-2.711c-0.068,0-0.188,0.061-0.204,0.217C14.342,4.978,13.344,8.938,9,10.232V13.5h1.5H12z" fill="#607D8B"/><path d="M18.803,31c-2.576,0-4.766-0.816-6.344-2.366C10.919,27.121,10,24.923,10,22.753V17.5   c0-0.276,0.224-0.5,0.5-0.5s0.5,0.224,0.5,0.5v5.253c0,1.907,0.808,3.838,2.16,5.167c1.446,1.421,3.406,2.134,5.843,2.077   c1.842-0.032,3.738-0.762,4.352-1.312l-1.281-3.865c-0.087-0.262,0.055-0.545,0.317-0.632c0.26-0.087,0.546,0.055,0.632,0.317   l1.371,4.135c0.049,0.146,0.027,0.306-0.059,0.434c-0.644,0.968-3.177,1.884-5.314,1.922C18.948,30.999,18.875,31,18.803,31z" fill="#455A64"/><path d="M11,14H7.5C7.224,14,7,13.776,7,13.5V9.232c0-0.276,0.224-0.5,0.5-0.5S8,8.956,8,9.232V13h3   c0.276,0,0.5,0.224,0.5,0.5S11.276,14,11,14z" fill="#455A64"/><path d="M20.124,25.666c-0.919,0-1.658-0.266-2.198-0.791C17.161,24.131,17,23.067,17,22.306V13.5   c0-0.276,0.224-0.5,0.5-0.5H23V9h-5.5C17.224,9,17,8.776,17,8.5V2h-3.444c-0.273,2.194-1.166,5.064-3.811,6.759   c-0.23,0.147-0.541,0.082-0.69-0.151C8.905,8.376,8.974,8.066,9.206,7.917c2.404-1.542,3.166-4.252,3.382-6.254   C12.634,1.232,12.983,1,13.289,1H17.5C17.776,1,18,1.224,18,1.5V8h5.5C23.776,8,24,8.224,24,8.5v5c0,0.276-0.224,0.5-0.5,0.5H18   v8.306c0,0.465,0.081,1.325,0.623,1.853c0.365,0.355,0.919,0.525,1.608,0.506c0.672-0.017,1.632-0.224,2.098-0.45   c0.244-0.119,0.547-0.018,0.668,0.231c0.121,0.248,0.018,0.547-0.23,0.668c-0.591,0.288-1.692,0.529-2.509,0.551   C20.213,25.666,20.168,25.666,20.124,25.666z" fill="#455A64"/><g><g><g><g><g><g><path d="M11,15.5c0,0.275-0.225,0.5-0.5,0.5l0,0c-0.275,0-0.5-0.225-0.5-0.5l0,0c0-0.275,0.225-0.5,0.5-0.5         l0,0C10.775,15,11,15.225,11,15.5L11,15.5z" fill="#455A64"/></g></g></g></g></g></g></g></svg>