<?xml version="1.0" ?><!DOCTYPE svg  PUBLIC '-//W3C//DTD SVG 1.1//EN'  'http://www.w3.org/Graphics/SVG/1.1/DTD/svg11.dtd'><svg enable-background="new 0 0 32 32" height="32px" version="1.1" viewBox="0 0 32 32" width="32px" xml:space="preserve" xmlns="http://www.w3.org/2000/svg" xmlns:xlink="http://www.w3.org/1999/xlink"><g id="Flickr"><g><circle cx="24" cy="16" fill="#F48FB1" r="6.5"/><path d="M24,23c-3.86,0-7-3.14-7-7s3.14-7,7-7s7,3.14,7,7S27.86,23,24,23z M24,10c-3.309,0-6,2.691-6,6    s2.691,6,6,6s6-2.691,6-6S27.309,10,24,10z" fill="#455A64"/></g><g><circle cx="8" cy="16" fill="#80D8FF" r="6.5"/><path d="M8,23c-3.86,0-7-3.14-7-7s3.14-7,7-7s7,3.14,7,7S11.86,23,8,23z M8,10c-3.309,0-6,2.691-6,6s2.691,6,6,6    s6-2.691,6-6S11.309,10,8,10z" fill="#455A64"/></g></g></svg>