<?xml version="1.0" ?><!DOCTYPE svg  PUBLIC '-//W3C//DTD SVG 1.1//EN'  'http://www.w3.org/Graphics/SVG/1.1/DTD/svg11.dtd'><svg enable-background="new 0 0 32 32" height="32px" version="1.1" viewBox="0 0 32 32" width="32px" xml:space="preserve" xmlns="http://www.w3.org/2000/svg" xmlns:xlink="http://www.w3.org/1999/xlink"><g/><g id="_x3C_Layer_x3E_"><g id="Mars_x2C__perseverance"><g><g><circle cx="16" cy="16" fill="#FFFFFF" r="14.5"/></g><g><path d="M30.5,16c0-1.34-0.196-2.631-0.536-3.862C27.83,6.786,22.611,3,16.5,3C8.492,3,2,9.492,2,17.5      c0,1.34,0.196,2.631,0.536,3.862C4.67,26.713,9.889,30.5,16,30.5C24.008,30.5,30.5,24.008,30.5,16z" fill="#FF8A80"/></g></g><g><path d="M18.348,8.404c1.373,0,2.485,1.113,2.485,2.486c0-1.373,1.113-2.486,2.486-2.486     c-1.373,0-2.486-1.112-2.486-2.485C20.833,7.292,19.721,8.404,18.348,8.404z" fill="#FFFFFF"/><path d="M20.833,11.391c-0.276,0-0.5-0.224-0.5-0.5c0-1.096-0.891-1.986-1.985-1.986c-0.276,0-0.5-0.224-0.5-0.5     s0.224-0.5,0.5-0.5c1.095,0,1.985-0.891,1.985-1.985c0-0.276,0.224-0.5,0.5-0.5s0.5,0.224,0.5,0.5     c0,1.095,0.891,1.985,1.986,1.985c0.276,0,0.5,0.224,0.5,0.5s-0.224,0.5-0.5,0.5c-1.096,0-1.986,0.891-1.986,1.986     C21.333,11.167,21.109,11.391,20.833,11.391z M20,8.404c0.329,0.22,0.613,0.504,0.833,0.834c0.22-0.33,0.504-0.614,0.834-0.834     c-0.33-0.22-0.614-0.504-0.834-0.833C20.613,7.9,20.329,8.185,20,8.404z" fill="#455A64"/></g><g><path d="M18.348,8.904h-0.829c-0.276,0-0.5-0.224-0.5-0.5s0.224-0.5,0.5-0.5h0.829c0.276,0,0.5,0.224,0.5,0.5     S18.624,8.904,18.348,8.904z" fill="#455A64"/></g><g><path d="M24.147,8.904h-0.828c-0.276,0-0.5-0.224-0.5-0.5s0.224-0.5,0.5-0.5h0.828c0.276,0,0.5,0.224,0.5,0.5     S24.424,8.904,24.147,8.904z" fill="#455A64"/></g><g><path d="M20.833,12.219c-0.276,0-0.5-0.224-0.5-0.5v-0.828c0-0.276,0.224-0.5,0.5-0.5s0.5,0.224,0.5,0.5v0.828     C21.333,11.995,21.109,12.219,20.833,12.219z" fill="#455A64"/></g><g><path d="M20.833,6.419c-0.276,0-0.5-0.224-0.5-0.5V5.091c0-0.276,0.224-0.5,0.5-0.5s0.5,0.224,0.5,0.5v0.828     C21.333,6.195,21.109,6.419,20.833,6.419z" fill="#455A64"/></g><g><path d="M20.833,18.071v-2.485c0-0.61-0.494-1.104-1.104-1.104h-2.485c-0.61,0-1.105-0.495-1.105-1.105v-2.485     c0-0.61-0.494-1.104-1.104-1.104h-2.485c-0.61,0-1.104,0.494-1.104,1.104v7.181c0,0.61-0.495,1.104-1.105,1.104H7.853     c-0.61,0-1.104,0.495-1.104,1.105v2.485c0,0.61,0.494,1.104,1.104,1.104h2.485c0.61,0,1.105-0.494,1.105-1.104v-2.485     c0-0.61,0.494-1.105,1.104-1.105h7.181c0.61,0,1.104,0.495,1.104,1.105v2.485c0,0.61,0.495,1.104,1.105,1.104h2.485     c0.61,0,1.104-0.494,1.104-1.104v-2.485c0-0.61-0.494-1.105-1.104-1.105h-2.485C21.328,19.176,20.833,18.682,20.833,18.071z" fill="#FFFFFF"/><path d="M24.424,24.371h-2.485c-0.886,0-1.605-0.72-1.605-1.604v-2.485c0-0.334-0.271-0.605-0.604-0.605h-7.181     c-0.333,0-0.604,0.271-0.604,0.605v2.485c0,0.885-0.72,1.604-1.605,1.604H7.853c-0.885,0-1.604-0.72-1.604-1.604v-2.485     c0-0.886,0.72-1.605,1.604-1.605h2.485c0.334,0,0.605-0.271,0.605-0.604v-7.181c0-0.885,0.72-1.604,1.604-1.604h2.485     c0.885,0,1.604,0.72,1.604,1.604v2.485c0,0.334,0.271,0.605,0.605,0.605h2.485c0.885,0,1.604,0.72,1.604,1.604v2.485     c0,0.333,0.271,0.604,0.605,0.604h2.485c0.885,0,1.604,0.72,1.604,1.605v2.485C26.028,23.651,25.309,24.371,24.424,24.371z      M21.091,19.434c0.153,0.246,0.242,0.536,0.242,0.848v2.485c0,0.333,0.271,0.604,0.605,0.604h2.485     c0.333,0,0.604-0.271,0.604-0.604v-2.485c0-0.334-0.271-0.605-0.604-0.605h-2.485C21.627,19.676,21.337,19.587,21.091,19.434z      M7.853,19.676c-0.333,0-0.604,0.271-0.604,0.605v2.485c0,0.333,0.271,0.604,0.604,0.604h2.485c0.334,0,0.605-0.271,0.605-0.604     v-2.485c0-0.312,0.089-0.602,0.242-0.848c-0.246,0.153-0.536,0.242-0.848,0.242H7.853z M12.548,18.676h7.181     c0.311,0,0.601,0.089,0.847,0.242c-0.153-0.246-0.242-0.536-0.242-0.847v-2.485c0-0.333-0.271-0.604-0.604-0.604h-2.485     c-0.886,0-1.605-0.72-1.605-1.605v-2.485c0-0.333-0.271-0.604-0.604-0.604h-2.485c-0.333,0-0.604,0.271-0.604,0.604v7.181     c0,0.311-0.089,0.601-0.242,0.847C11.947,18.765,12.237,18.676,12.548,18.676z" fill="#455A64"/></g><g><g><path d="M15.737,31C7.474,31,1,24.411,1,16c0-3.63,1.237-7.111,3.485-9.804c0.178-0.212,0.492-0.239,0.704-0.063      C5.401,6.31,5.43,6.625,5.253,6.837C3.155,9.35,2,12.604,2,16c0,7.851,6.034,14,13.737,14C23.602,30,30,23.72,30,16      S23.602,2,15.737,2c-2.44,0-4.813,0.619-6.858,1.791C8.642,3.927,8.334,3.847,8.197,3.606C8.06,3.366,8.143,3.061,8.383,2.924      C10.579,1.665,13.122,1,15.737,1C24.153,1,31,7.729,31,16S24.153,31,15.737,31z" fill="#455A64"/></g><g><g><g><g><g><g><g><path d="M7.543,4.552c0,0.275-0.225,0.5-0.5,0.5l0,0c-0.275,0-0.5-0.225-0.5-0.5l0,0            c0-0.275,0.225-0.5,0.5-0.5l0,0C7.318,4.052,7.543,4.276,7.543,4.552L7.543,4.552z" fill="#455A64"/></g></g></g></g></g></g></g></g></g></g></svg>